<svg width="598" height="400" viewBox="0 0 598 400" fill="none" xmlns="http://www.w3.org/2000/svg">
<circle cx="293.758" cy="203.525" r="180.5" stroke="#5236FF" stroke-width="3" stroke-dasharray="16 16"/>
<circle cx="371.733" cy="31.5" r="30.9749" fill="#E9E6F6"/>
<path d="M370.627 24.0256C370.951 24.5841 371.113 24.8634 371.113 25.1701C371.113 25.4768 370.951 25.7561 370.627 26.3146L369.079 28.9816C368.754 29.5402 368.592 29.8194 368.325 29.9727C368.058 30.1261 367.734 30.1261 367.085 30.1261H363.989C363.341 30.1261 363.017 30.1261 362.75 29.9727C362.483 29.8194 362.321 29.5402 361.996 28.9816L360.448 26.3146C360.124 25.7561 359.962 25.4768 359.962 25.1701C359.962 24.8634 360.124 24.5841 360.448 24.0256L361.996 21.3586C362.321 20.8001 362.483 20.5208 362.75 20.3674C363.017 20.2141 363.341 20.2141 363.989 20.2141H367.085C367.734 20.2141 368.058 20.2141 368.325 20.3674C368.592 20.5208 368.754 20.8001 369.079 21.3586L370.627 24.0256Z" stroke="#071B2C" stroke-width="1.8585" stroke-linecap="round" stroke-linejoin="round"/>
<path d="M383.016 31.4595C383.34 32.0182 383.503 32.2975 383.503 32.6041C383.503 32.9108 383.34 33.19 383.016 33.7487L381.468 36.4155C381.144 36.9742 380.982 37.2535 380.715 37.4067C380.448 37.5601 380.124 37.5601 379.475 37.5601H376.379C375.731 37.5601 375.406 37.5601 375.139 37.4067C374.872 37.2535 374.71 36.9742 374.386 36.4155L372.838 33.7487C372.514 33.19 372.352 32.9108 372.352 32.6041C372.352 32.2975 372.514 32.0182 372.838 31.4595L374.386 28.7927C374.71 28.2341 374.872 27.9548 375.139 27.8015C375.406 27.6481 375.731 27.6481 376.379 27.6481H379.475C380.124 27.6481 380.448 27.6481 380.715 27.8015C380.982 27.9548 381.144 28.2341 381.468 28.7927L383.016 31.4595Z" stroke="#5236FF" stroke-width="1.8585" stroke-linecap="round" stroke-linejoin="round"/>
<path d="M370.627 37.6545C370.951 38.2131 371.113 38.4924 371.113 38.7991C371.113 39.1057 370.951 39.385 370.627 39.9437L369.079 42.6105C368.754 43.1691 368.592 43.4484 368.325 43.6017C368.058 43.7551 367.734 43.7551 367.085 43.7551H363.989C363.341 43.7551 363.017 43.7551 362.75 43.6017C362.483 43.4484 362.321 43.1691 361.996 42.6105L360.448 39.9437C360.124 39.385 359.962 39.1057 359.962 38.7991C359.962 38.4924 360.124 38.2131 360.448 37.6545L361.996 34.9877C362.321 34.429 362.483 34.1497 362.75 33.9965C363.017 33.8431 363.341 33.8431 363.989 33.8431H367.085C367.734 33.8431 368.058 33.8431 368.325 33.9965C368.592 34.1497 368.754 34.429 369.079 34.9877L370.627 37.6545Z" stroke="#071B2C" stroke-width="1.8585" stroke-linecap="round" stroke-linejoin="round"/>
<path d="M414.296 26.5H412.784V17.12H414.926L417.068 22.272L417.894 24.512H418.006L418.818 22.272L420.918 17.12H423.06V26.5H421.562V20.956L421.618 19.388H421.52L420.932 20.956L418.832 25.94H417.012L414.898 20.956L414.338 19.388H414.212L414.296 20.956V26.5ZM427.637 26.64C425.495 26.64 424.165 25.184 424.165 23.014C424.165 20.858 425.495 19.402 427.637 19.402C429.765 19.402 431.053 20.858 431.053 23.014C431.053 25.184 429.765 26.64 427.637 26.64ZM427.637 25.296C429.093 25.296 429.597 24.582 429.597 23.014C429.597 21.46 429.093 20.746 427.637 20.746C426.167 20.746 425.649 21.46 425.649 23.014C425.649 24.582 426.167 25.296 427.637 25.296ZM435.038 26.64C433.05 26.64 431.972 25.226 431.972 23.014C431.972 20.816 433.036 19.402 434.954 19.402C436.186 19.402 436.928 19.99 437.236 20.62H437.278V17.12H438.776V26.5H437.39V25.352H437.334C436.998 26.15 436.228 26.64 435.038 26.64ZM433.484 23.014C433.484 24.736 434.03 25.352 435.374 25.352C436.606 25.352 437.278 24.806 437.278 23.644V22.398C437.278 21.236 436.606 20.69 435.374 20.69C434.044 20.69 433.484 21.306 433.484 23.014ZM443.303 26.64C441.007 26.64 439.929 25.184 439.929 23.014C439.929 20.858 441.217 19.402 443.289 19.402C445.165 19.402 446.481 20.522 446.481 22.426C446.481 22.79 446.439 23.168 446.397 23.378H441.343C441.399 24.652 441.861 25.296 443.317 25.296C444.479 25.296 444.927 24.904 444.927 24.274V24.162H446.425V24.288C446.425 25.716 445.179 26.64 443.303 26.64ZM443.261 20.676C441.945 20.676 441.441 21.292 441.357 22.37H445.039C445.095 21.18 444.451 20.676 443.261 20.676ZM449.213 26.5H447.701V17.12H449.213V26.5ZM454.888 26.5H453.376V17.12H454.888V26.5ZM457.963 26.5H456.451V19.542H457.837V20.844H457.893C458.215 20.102 458.957 19.402 460.315 19.402C462.121 19.402 462.933 20.55 462.933 22.132V26.5H461.421V22.468C461.421 21.222 461.029 20.704 459.755 20.704C458.523 20.704 457.963 21.18 457.963 22.482V26.5ZM467.211 26.5C465.657 26.5 464.845 25.926 464.845 24.358V20.802H463.683V19.542H464.873L465.195 17.82H466.357V19.542H468.457V20.802H466.357V24.288C466.357 25.016 466.665 25.142 467.603 25.142H468.457V26.374C468.163 26.444 467.687 26.5 467.211 26.5ZM472.328 26.64C470.032 26.64 468.954 25.184 468.954 23.014C468.954 20.858 470.242 19.402 472.314 19.402C474.19 19.402 475.506 20.522 475.506 22.426C475.506 22.79 475.464 23.168 475.422 23.378H470.368C470.424 24.652 470.886 25.296 472.342 25.296C473.504 25.296 473.952 24.904 473.952 24.274V24.162H475.45V24.288C475.45 25.716 474.204 26.64 472.328 26.64ZM472.286 20.676C470.97 20.676 470.466 21.292 470.382 22.37H474.064C474.12 21.18 473.476 20.676 472.286 20.676ZM478.225 26.5H476.713V19.5H478.099V20.606H478.169C478.449 19.962 479.093 19.402 480.115 19.402C481.571 19.402 482.131 20.466 482.131 21.768V22.23H480.619V21.95C480.619 21.026 480.353 20.69 479.471 20.69C478.561 20.69 478.225 21.04 478.225 21.964V26.5ZM484.512 28.922H483.014V19.542H484.386V20.69H484.456C484.778 19.878 485.576 19.402 486.78 19.402C488.74 19.402 489.818 20.816 489.818 23.028C489.818 25.226 488.768 26.64 486.878 26.64C485.632 26.64 484.862 26.066 484.554 25.422H484.512V28.922ZM484.512 23.644C484.512 24.806 485.184 25.352 486.416 25.352C487.746 25.352 488.306 24.736 488.306 23.028C488.306 21.306 487.76 20.69 486.416 20.69C485.184 20.69 484.512 21.236 484.512 22.398V23.644ZM492.525 26.5H491.013V19.5H492.399V20.606H492.469C492.749 19.962 493.393 19.402 494.415 19.402C495.871 19.402 496.431 20.466 496.431 21.768V22.23H494.919V21.95C494.919 21.026 494.653 20.69 493.771 20.69C492.861 20.69 492.525 21.04 492.525 21.964V26.5ZM500.492 26.64C498.196 26.64 497.118 25.184 497.118 23.014C497.118 20.858 498.406 19.402 500.478 19.402C502.354 19.402 503.67 20.522 503.67 22.426C503.67 22.79 503.628 23.168 503.586 23.378H498.532C498.588 24.652 499.05 25.296 500.506 25.296C501.668 25.296 502.116 24.904 502.116 24.274V24.162H503.614V24.288C503.614 25.716 502.368 26.64 500.492 26.64ZM500.45 20.676C499.134 20.676 498.63 21.292 498.546 22.37H502.228C502.284 21.18 501.64 20.676 500.45 20.676ZM507.72 26.5C506.166 26.5 505.354 25.926 505.354 24.358V20.802H504.192V19.542H505.382L505.704 17.82H506.866V19.542H508.966V20.802H506.866V24.288C506.866 25.016 507.174 25.142 508.112 25.142H508.966V26.374C508.672 26.444 508.196 26.5 507.72 26.5ZM511.867 26.64C510.621 26.64 509.655 25.996 509.655 24.778C509.655 23.63 510.495 23.028 511.979 22.818L514.415 22.454V22.076C514.415 21.04 513.939 20.732 512.847 20.732C511.741 20.732 511.307 21.082 511.307 22.006V22.216H509.851V22.076C509.851 20.522 511.069 19.402 512.931 19.402C514.877 19.402 515.857 20.578 515.857 22.272V26.5H514.457V25.408H514.387C513.981 26.066 513.183 26.64 511.867 26.64ZM511.125 24.666C511.125 25.212 511.475 25.436 512.357 25.436C513.337 25.436 514.415 25.044 514.415 23.644V23.518L512.203 23.854C511.405 23.966 511.125 24.148 511.125 24.666ZM520.134 26.5C518.58 26.5 517.768 25.926 517.768 24.358V20.802H516.606V19.542H517.796L518.118 17.82H519.28V19.542H521.38V20.802H519.28V24.288C519.28 25.016 519.588 25.142 520.526 25.142H521.38V26.374C521.086 26.444 520.61 26.5 520.134 26.5ZM523.777 18.66H522.279L522.265 17.12H523.777V18.66ZM523.791 26.5H522.279V19.5H523.791V26.5ZM528.303 26.64C526.161 26.64 524.831 25.184 524.831 23.014C524.831 20.858 526.161 19.402 528.303 19.402C530.431 19.402 531.719 20.858 531.719 23.014C531.719 25.184 530.431 26.64 528.303 26.64ZM528.303 25.296C529.759 25.296 530.263 24.582 530.263 23.014C530.263 21.46 529.759 20.746 528.303 20.746C526.833 20.746 526.315 21.46 526.315 23.014C526.315 24.582 526.833 25.296 528.303 25.296ZM534.361 26.5H532.849V19.542H534.235V20.844H534.291C534.613 20.102 535.355 19.402 536.713 19.402C538.519 19.402 539.331 20.55 539.331 22.132V26.5H537.819V22.468C537.819 21.222 537.427 20.704 536.153 20.704C534.921 20.704 534.361 21.18 534.361 22.482V26.5ZM546.526 18.408C545.532 18.408 545.084 18.744 545.084 19.724C545.084 20.676 545.616 21.012 546.568 21.012H548.99V19.542H550.474V21.012H551.986V22.272H550.474V23.462C550.474 25.436 549.34 26.64 546.764 26.64C544.496 26.64 543.236 25.758 543.236 23.952C543.236 22.608 544.062 21.81 545.252 21.628V21.558C544.132 21.376 543.572 20.508 543.572 19.444C543.572 17.764 544.818 17.022 546.75 17.022H548.234V18.408H546.526ZM546.834 25.254C548.542 25.254 548.99 24.792 548.99 23.462V22.272H546.582C545.378 22.272 544.762 22.622 544.762 23.798C544.762 24.89 545.252 25.254 546.834 25.254ZM419.49 45.5H412.784V36.12H419.49V37.478H414.296V40.096H419.28V41.468H414.296V44.142H419.49V45.5ZM421.735 45.5H420.027L422.519 42V41.902L420.027 38.542H421.791L423.667 41.118H423.765L425.627 38.542H427.335L424.843 41.958V42.07L427.335 45.5H425.571L423.695 42.84H423.597L421.735 45.5ZM429.455 47.922H427.957V38.542H429.329V39.69H429.399C429.721 38.878 430.519 38.402 431.723 38.402C433.683 38.402 434.761 39.816 434.761 42.028C434.761 44.226 433.711 45.64 431.821 45.64C430.575 45.64 429.805 45.066 429.497 44.422H429.455V47.922ZM429.455 42.644C429.455 43.806 430.127 44.352 431.359 44.352C432.689 44.352 433.249 43.736 433.249 42.028C433.249 40.306 432.703 39.69 431.359 39.69C430.127 39.69 429.455 40.236 429.455 41.398V42.644ZM437.483 45.5H435.971V36.12H437.483V45.5ZM440.8 45.64C439.554 45.64 438.588 44.996 438.588 43.778C438.588 42.63 439.428 42.028 440.912 41.818L443.348 41.454V41.076C443.348 40.04 442.872 39.732 441.78 39.732C440.674 39.732 440.24 40.082 440.24 41.006V41.216H438.784V41.076C438.784 39.522 440.002 38.402 441.864 38.402C443.81 38.402 444.79 39.578 444.79 41.272V45.5H443.39V44.408H443.32C442.914 45.066 442.116 45.64 440.8 45.64ZM440.058 43.666C440.058 44.212 440.408 44.436 441.29 44.436C442.27 44.436 443.348 44.044 443.348 42.644V42.518L441.136 42.854C440.338 42.966 440.058 43.148 440.058 43.666ZM447.75 45.5H446.238V38.542H447.624V39.844H447.68C448.002 39.102 448.744 38.402 450.102 38.402C451.908 38.402 452.72 39.55 452.72 41.132V45.5H451.208V41.468C451.208 40.222 450.816 39.704 449.542 39.704C448.31 39.704 447.75 40.18 447.75 41.482V45.5ZM456.044 45.64C454.798 45.64 453.832 44.996 453.832 43.778C453.832 42.63 454.672 42.028 456.156 41.818L458.592 41.454V41.076C458.592 40.04 458.116 39.732 457.024 39.732C455.918 39.732 455.484 40.082 455.484 41.006V41.216H454.028V41.076C454.028 39.522 455.246 38.402 457.108 38.402C459.054 38.402 460.034 39.578 460.034 41.272V45.5H458.634V44.408H458.564C458.158 45.066 457.36 45.64 456.044 45.64ZM455.302 43.666C455.302 44.212 455.652 44.436 456.534 44.436C457.514 44.436 458.592 44.044 458.592 42.644V42.518L456.38 42.854C455.582 42.966 455.302 43.148 455.302 43.666ZM464.312 45.5C462.758 45.5 461.946 44.926 461.946 43.358V39.802H460.784V38.542H461.974L462.296 36.82H463.458V38.542H465.558V39.802H463.458V43.288C463.458 44.016 463.766 44.142 464.704 44.142H465.558V45.374C465.264 45.444 464.788 45.5 464.312 45.5ZM467.955 37.66H466.457L466.443 36.12H467.955V37.66ZM467.969 45.5H466.457V38.5H467.969V45.5ZM472.481 45.64C470.339 45.64 469.009 44.184 469.009 42.014C469.009 39.858 470.339 38.402 472.481 38.402C474.609 38.402 475.897 39.858 475.897 42.014C475.897 44.184 474.609 45.64 472.481 45.64ZM472.481 44.296C473.937 44.296 474.441 43.582 474.441 42.014C474.441 40.46 473.937 39.746 472.481 39.746C471.011 39.746 470.493 40.46 470.493 42.014C470.493 43.582 471.011 44.296 472.481 44.296ZM478.539 45.5H477.027V38.542H478.413V39.844H478.469C478.791 39.102 479.533 38.402 480.891 38.402C482.697 38.402 483.509 39.55 483.509 41.132V45.5H481.997V41.468C481.997 40.222 481.605 39.704 480.331 39.704C479.099 39.704 478.539 40.18 478.539 41.482V45.5Z" fill="#071B2C"/>
<circle cx="463.733" cy="130.5" r="30.9749" fill="#E9E6F6"/>
<path d="M473.645 130.5C473.645 132.553 469.207 134.217 463.733 134.217C458.259 134.217 453.821 132.553 453.821 130.5" stroke="#071B2C" stroke-width="1.8585"/>
<path d="M473.645 121.827V139.173C473.645 141.226 469.207 142.89 463.733 142.89C458.259 142.89 453.821 141.226 453.821 139.173V121.827" stroke="#071B2C" stroke-width="1.8585"/>
<path d="M458.777 125.544V128.022" stroke="#5236FF" stroke-width="1.8585" stroke-linecap="round"/>
<path d="M458.777 134.217V136.695" stroke="#071B2C" stroke-width="1.8585" stroke-linecap="round"/>
<path d="M463.733 125.544C469.207 125.544 473.645 123.88 473.645 121.827C473.645 119.774 469.207 118.11 463.733 118.11C458.259 118.11 453.821 119.774 453.821 121.827C453.821 123.88 458.259 125.544 463.733 125.544Z" stroke="#5236FF" stroke-width="1.8585"/>
<path d="M508.116 125.5H504.784V116.12H508.116C511.014 116.12 512.862 117.912 512.862 120.81C512.862 123.708 511.014 125.5 508.116 125.5ZM508.116 117.478H506.296V124.142H508.116C510.356 124.142 511.252 123.218 511.252 120.81C511.252 118.402 510.356 117.478 508.116 117.478ZM515.957 125.64C514.711 125.64 513.745 124.996 513.745 123.778C513.745 122.63 514.585 122.028 516.069 121.818L518.505 121.454V121.076C518.505 120.04 518.029 119.732 516.937 119.732C515.831 119.732 515.397 120.082 515.397 121.006V121.216H513.941V121.076C513.941 119.522 515.159 118.402 517.021 118.402C518.967 118.402 519.947 119.578 519.947 121.272V125.5H518.547V124.408H518.477C518.071 125.066 517.273 125.64 515.957 125.64ZM515.215 123.666C515.215 124.212 515.565 124.436 516.447 124.436C517.427 124.436 518.505 124.044 518.505 122.644V122.518L516.293 122.854C515.495 122.966 515.215 123.148 515.215 123.666ZM524.224 125.5C522.67 125.5 521.858 124.926 521.858 123.358V119.802H520.696V118.542H521.886L522.208 116.82H523.37V118.542H525.47V119.802H523.37V123.288C523.37 124.016 523.678 124.142 524.616 124.142H525.47V125.374C525.176 125.444 524.7 125.5 524.224 125.5ZM528.371 125.64C527.125 125.64 526.159 124.996 526.159 123.778C526.159 122.63 526.999 122.028 528.483 121.818L530.919 121.454V121.076C530.919 120.04 530.443 119.732 529.351 119.732C528.245 119.732 527.811 120.082 527.811 121.006V121.216H526.355V121.076C526.355 119.522 527.573 118.402 529.435 118.402C531.381 118.402 532.361 119.578 532.361 121.272V125.5H530.961V124.408H530.891C530.485 125.066 529.687 125.64 528.371 125.64ZM527.629 123.666C527.629 124.212 527.979 124.436 528.861 124.436C529.841 124.436 530.919 124.044 530.919 122.644V122.518L528.707 122.854C527.909 122.966 527.629 123.148 527.629 123.666ZM540.591 125.64C537.861 125.64 536.209 123.736 536.209 120.81C536.209 117.884 537.861 115.98 540.591 115.98C543.111 115.98 544.637 117.38 544.637 119.634V119.718H543.027V119.634C543.027 118.094 542.313 117.436 540.549 117.436C538.603 117.436 537.819 118.374 537.819 120.81C537.819 123.246 538.603 124.184 540.549 124.184C542.313 124.184 543.027 123.526 543.027 121.986V121.902H544.637V121.986C544.637 124.24 543.111 125.64 540.591 125.64ZM549.073 125.64C546.931 125.64 545.601 124.184 545.601 122.014C545.601 119.858 546.931 118.402 549.073 118.402C551.201 118.402 552.489 119.858 552.489 122.014C552.489 124.184 551.201 125.64 549.073 125.64ZM549.073 124.296C550.529 124.296 551.033 123.582 551.033 122.014C551.033 120.46 550.529 119.746 549.073 119.746C547.603 119.746 547.085 120.46 547.085 122.014C547.085 123.582 547.603 124.296 549.073 124.296ZM555.145 125.5H553.633V116.12H555.145V125.5ZM558.193 125.5H556.681V116.12H558.193V125.5ZM562.715 125.64C560.419 125.64 559.341 124.184 559.341 122.014C559.341 119.858 560.629 118.402 562.701 118.402C564.577 118.402 565.893 119.522 565.893 121.426C565.893 121.79 565.851 122.168 565.809 122.378H560.755C560.811 123.652 561.273 124.296 562.729 124.296C563.891 124.296 564.339 123.904 564.339 123.274V123.162H565.837V123.288C565.837 124.716 564.591 125.64 562.715 125.64ZM562.673 119.676C561.357 119.676 560.853 120.292 560.769 121.37H564.451C564.507 120.18 563.863 119.676 562.673 119.676ZM570.29 125.654C568.12 125.654 566.888 124.184 566.888 122.028C566.888 119.858 568.162 118.402 570.346 118.402C572.18 118.402 573.44 119.536 573.44 121.202V121.328H571.942V121.244C571.942 120.222 571.41 119.76 570.248 119.76C568.904 119.76 568.386 120.516 568.386 122.028C568.386 123.54 568.904 124.282 570.248 124.282C571.41 124.282 571.942 123.834 571.942 122.812V122.728H573.44V122.854C573.44 124.506 572.166 125.654 570.29 125.654ZM577.422 125.5C575.868 125.5 575.056 124.926 575.056 123.358V119.802H573.894V118.542H575.084L575.406 116.82H576.568V118.542H578.668V119.802H576.568V123.288C576.568 124.016 576.876 124.142 577.814 124.142H578.668V125.374C578.374 125.444 577.898 125.5 577.422 125.5ZM581.064 117.66H579.566L579.552 116.12H581.064V117.66ZM581.078 125.5H579.566V118.5H581.078V125.5ZM585.59 125.64C583.448 125.64 582.118 124.184 582.118 122.014C582.118 119.858 583.448 118.402 585.59 118.402C587.718 118.402 589.006 119.858 589.006 122.014C589.006 124.184 587.718 125.64 585.59 125.64ZM585.59 124.296C587.046 124.296 587.55 123.582 587.55 122.014C587.55 120.46 587.046 119.746 585.59 119.746C584.12 119.746 583.602 120.46 583.602 122.014C583.602 123.582 584.12 124.296 585.59 124.296ZM591.649 125.5H590.137V118.542H591.523V119.844H591.579C591.901 119.102 592.643 118.402 594.001 118.402C595.807 118.402 596.619 119.55 596.619 121.132V125.5H595.107V121.468C595.107 120.222 594.715 119.704 593.441 119.704C592.209 119.704 591.649 120.18 591.649 121.482V125.5ZM507.85 136.408C506.856 136.408 506.408 136.744 506.408 137.724C506.408 138.676 506.94 139.012 507.892 139.012H510.314V137.542H511.798V139.012H513.31V140.272H511.798V141.462C511.798 143.436 510.664 144.64 508.088 144.64C505.82 144.64 504.56 143.758 504.56 141.952C504.56 140.608 505.386 139.81 506.576 139.628V139.558C505.456 139.376 504.896 138.508 504.896 137.444C504.896 135.764 506.142 135.022 508.074 135.022H509.558V136.408H507.85ZM508.158 143.254C509.866 143.254 510.314 142.792 510.314 141.462V140.272H507.906C506.702 140.272 506.086 140.622 506.086 141.798C506.086 142.89 506.576 143.254 508.158 143.254ZM518.382 144.5H516.87V135.12H520.86C522.82 135.12 524.262 136.282 524.262 138.298C524.262 140.314 522.82 141.476 520.86 141.476H518.382V144.5ZM521.042 136.478H518.382V140.118H521.042C522.274 140.118 522.764 139.642 522.764 138.298C522.764 136.954 522.274 136.478 521.042 136.478ZM526.775 144.5H525.263V137.5H526.649V138.606H526.719C526.999 137.962 527.643 137.402 528.665 137.402C530.121 137.402 530.681 138.466 530.681 139.768V140.23H529.169V139.95C529.169 139.026 528.903 138.69 528.021 138.69C527.111 138.69 526.775 139.04 526.775 139.964V144.5ZM534.742 144.64C532.446 144.64 531.368 143.184 531.368 141.014C531.368 138.858 532.656 137.402 534.728 137.402C536.604 137.402 537.92 138.522 537.92 140.426C537.92 140.79 537.878 141.168 537.836 141.378H532.782C532.838 142.652 533.3 143.296 534.756 143.296C535.918 143.296 536.366 142.904 536.366 142.274V142.162H537.864V142.288C537.864 143.716 536.618 144.64 534.742 144.64ZM534.7 138.676C533.384 138.676 532.88 139.292 532.796 140.37H536.478C536.534 139.18 535.89 138.676 534.7 138.676ZM540.569 146.922H539.071V137.542H540.443V138.69H540.513C540.835 137.878 541.633 137.402 542.837 137.402C544.797 137.402 545.875 138.816 545.875 141.028C545.875 143.226 544.825 144.64 542.935 144.64C541.689 144.64 540.919 144.066 540.611 143.422H540.569V146.922ZM540.569 141.644C540.569 142.806 541.241 143.352 542.473 143.352C543.803 143.352 544.363 142.736 544.363 141.028C544.363 139.306 543.817 138.69 542.473 138.69C541.241 138.69 540.569 139.236 540.569 140.398V141.644ZM549.029 144.64C547.783 144.64 546.817 143.996 546.817 142.778C546.817 141.63 547.657 141.028 549.141 140.818L551.577 140.454V140.076C551.577 139.04 551.101 138.732 550.009 138.732C548.903 138.732 548.469 139.082 548.469 140.006V140.216H547.013V140.076C547.013 138.522 548.231 137.402 550.093 137.402C552.039 137.402 553.019 138.578 553.019 140.272V144.5H551.619V143.408H551.549C551.143 144.066 550.345 144.64 549.029 144.64ZM548.287 142.666C548.287 143.212 548.637 143.436 549.519 143.436C550.499 143.436 551.577 143.044 551.577 141.644V141.518L549.365 141.854C548.567 141.966 548.287 142.148 548.287 142.666ZM555.979 144.5H554.467V137.5H555.853V138.606H555.923C556.203 137.962 556.847 137.402 557.869 137.402C559.325 137.402 559.885 138.466 559.885 139.768V140.23H558.373V139.95C558.373 139.026 558.107 138.69 557.225 138.69C556.315 138.69 555.979 139.04 555.979 139.964V144.5ZM562.591 144.64C561.345 144.64 560.379 143.996 560.379 142.778C560.379 141.63 561.219 141.028 562.703 140.818L565.139 140.454V140.076C565.139 139.04 564.663 138.732 563.571 138.732C562.465 138.732 562.031 139.082 562.031 140.006V140.216H560.575V140.076C560.575 138.522 561.793 137.402 563.655 137.402C565.601 137.402 566.581 138.578 566.581 140.272V144.5H565.181V143.408H565.111C564.705 144.066 563.907 144.64 562.591 144.64ZM561.849 142.666C561.849 143.212 562.199 143.436 563.081 143.436C564.061 143.436 565.139 143.044 565.139 141.644V141.518L562.927 141.854C562.129 141.966 561.849 142.148 561.849 142.666ZM570.859 144.5C569.305 144.5 568.493 143.926 568.493 142.358V138.802H567.331V137.542H568.521L568.843 135.82H570.005V137.542H572.105V138.802H570.005V142.288C570.005 143.016 570.313 143.142 571.251 143.142H572.105V144.374C571.811 144.444 571.335 144.5 570.859 144.5ZM574.502 136.66H573.004L572.99 135.12H574.502V136.66ZM574.516 144.5H573.004V137.5H574.516V144.5ZM579.028 144.64C576.886 144.64 575.556 143.184 575.556 141.014C575.556 138.858 576.886 137.402 579.028 137.402C581.156 137.402 582.444 138.858 582.444 141.014C582.444 143.184 581.156 144.64 579.028 144.64ZM579.028 143.296C580.484 143.296 580.988 142.582 580.988 141.014C580.988 139.46 580.484 138.746 579.028 138.746C577.558 138.746 577.04 139.46 577.04 141.014C577.04 142.582 577.558 143.296 579.028 143.296ZM585.086 144.5H583.574V137.542H584.96V138.844H585.016C585.338 138.102 586.08 137.402 587.438 137.402C589.244 137.402 590.056 138.55 590.056 140.132V144.5H588.544V140.468C588.544 139.222 588.152 138.704 586.878 138.704C585.646 138.704 585.086 139.18 585.086 140.482V144.5Z" fill="#071B2C"/>
<circle cx="463.733" cy="269.5" r="30.9749" fill="#E9E6F6"/>
<path d="M455.06 274.456L461.255 270.739M466.211 268.261L472.406 264.544M463.733 260.827V267.022M463.733 271.978V278.173M455.06 264.544L461.255 268.261M466.211 270.739L472.406 274.456" stroke="#071B2C" stroke-width="1.8585" stroke-linejoin="round"/>
<path d="M474.264 265.783V272.597M465.591 280.031L472.406 276.314M454.44 276.314L461.874 280.031M453.201 273.217V265.783M454.44 262.685L461.874 258.969M473.025 262.685L465.591 258.969" stroke="#071B2C" stroke-width="1.8585" stroke-linejoin="round"/>
<path d="M463.733 260.827C464.759 260.827 465.591 259.995 465.591 258.969C465.591 257.942 464.759 257.11 463.733 257.11C462.706 257.11 461.874 257.942 461.874 258.969C461.874 259.995 462.706 260.827 463.733 260.827Z" stroke="#5236FF" stroke-width="1.8585" stroke-linejoin="round"/>
<path d="M463.733 281.89C464.759 281.89 465.591 281.058 465.591 280.031C465.591 279.005 464.759 278.173 463.733 278.173C462.706 278.173 461.874 279.005 461.874 280.031C461.874 281.058 462.706 281.89 463.733 281.89Z" stroke="#5236FF" stroke-width="1.8585" stroke-linejoin="round"/>
<path d="M453.201 265.783C454.228 265.783 455.06 264.951 455.06 263.925C455.06 262.898 454.228 262.066 453.201 262.066C452.175 262.066 451.343 262.898 451.343 263.925C451.343 264.951 452.175 265.783 453.201 265.783Z" stroke="#5236FF" stroke-width="1.8585" stroke-linejoin="round"/>
<path d="M474.264 265.783C475.291 265.783 476.123 264.951 476.123 263.925C476.123 262.898 475.291 262.066 474.264 262.066C473.238 262.066 472.406 262.898 472.406 263.925C472.406 264.951 473.238 265.783 474.264 265.783Z" stroke="#5236FF" stroke-width="1.8585" stroke-linejoin="round"/>
<path d="M474.264 276.934C475.291 276.934 476.123 276.102 476.123 275.075C476.123 274.049 475.291 273.217 474.264 273.217C473.238 273.217 472.406 274.049 472.406 275.075C472.406 276.102 473.238 276.934 474.264 276.934Z" stroke="#5236FF" stroke-width="1.8585" stroke-linejoin="round"/>
<path d="M453.201 276.934C454.228 276.934 455.06 276.102 455.06 275.075C455.06 274.049 454.228 273.217 453.201 273.217C452.175 273.217 451.343 274.049 451.343 275.075C451.343 276.102 452.175 276.934 453.201 276.934Z" stroke="#5236FF" stroke-width="1.8585" stroke-linejoin="round"/>
<path d="M463.733 266.712L466.211 268.106V270.894L463.733 272.288L461.255 270.894V268.106L463.733 266.712Z" stroke="#5236FF" stroke-width="1.8585" stroke-linejoin="round"/>
<path d="M506.296 264.5H504.784V255.12H511.434V256.478H506.296V259.376H511.224V260.748H506.296V264.5ZM515.574 264.64C513.278 264.64 512.2 263.184 512.2 261.014C512.2 258.858 513.488 257.402 515.56 257.402C517.436 257.402 518.752 258.522 518.752 260.426C518.752 260.79 518.71 261.168 518.668 261.378H513.614C513.67 262.652 514.132 263.296 515.588 263.296C516.75 263.296 517.198 262.904 517.198 262.274V262.162H518.696V262.288C518.696 263.716 517.45 264.64 515.574 264.64ZM515.532 258.676C514.216 258.676 513.712 259.292 513.628 260.37H517.31C517.366 259.18 516.722 258.676 515.532 258.676ZM521.917 264.64C520.671 264.64 519.705 263.996 519.705 262.778C519.705 261.63 520.545 261.028 522.029 260.818L524.465 260.454V260.076C524.465 259.04 523.989 258.732 522.897 258.732C521.791 258.732 521.357 259.082 521.357 260.006V260.216H519.901V260.076C519.901 258.522 521.119 257.402 522.981 257.402C524.927 257.402 525.907 258.578 525.907 260.272V264.5H524.507V263.408H524.437C524.031 264.066 523.233 264.64 521.917 264.64ZM521.175 262.666C521.175 263.212 521.525 263.436 522.407 263.436C523.387 263.436 524.465 263.044 524.465 261.644V261.518L522.253 261.854C521.455 261.966 521.175 262.148 521.175 262.666ZM530.185 264.5C528.631 264.5 527.819 263.926 527.819 262.358V258.802H526.657V257.542H527.847L528.169 255.82H529.331V257.542H531.431V258.802H529.331V262.288C529.331 263.016 529.639 263.142 530.577 263.142H531.431V264.374C531.137 264.444 530.661 264.5 530.185 264.5ZM535.059 264.64C533.239 264.64 532.427 263.422 532.427 261.84V257.542H533.939V261.574C533.939 262.82 534.415 263.338 535.619 263.338C536.781 263.338 537.439 262.834 537.439 261.462V257.542H538.951V264.5H537.551V263.114H537.495C537.159 263.912 536.417 264.64 535.059 264.64ZM541.951 264.5H540.439V257.5H541.825V258.606H541.895C542.175 257.962 542.819 257.402 543.841 257.402C545.297 257.402 545.857 258.466 545.857 259.768V260.23H544.345V259.95C544.345 259.026 544.079 258.69 543.197 258.69C542.287 258.69 541.951 259.04 541.951 259.964V264.5ZM549.918 264.64C547.622 264.64 546.544 263.184 546.544 261.014C546.544 258.858 547.832 257.402 549.904 257.402C551.78 257.402 553.096 258.522 553.096 260.426C553.096 260.79 553.054 261.168 553.012 261.378H547.958C548.014 262.652 548.476 263.296 549.932 263.296C551.094 263.296 551.542 262.904 551.542 262.274V262.162H553.04V262.288C553.04 263.716 551.794 264.64 549.918 264.64ZM549.876 258.676C548.56 258.676 548.056 259.292 547.972 260.37H551.654C551.71 259.18 551.066 258.676 549.876 258.676ZM511.49 283.5H504.784V274.12H511.49V275.478H506.296V278.096H511.28V279.468H506.296V282.142H511.49V283.5ZM514.307 283.5H512.795V276.542H514.181V277.844H514.237C514.559 277.102 515.301 276.402 516.659 276.402C518.465 276.402 519.277 277.55 519.277 279.132V283.5H517.765V279.468C517.765 278.222 517.373 277.704 516.099 277.704C514.867 277.704 514.307 278.18 514.307 279.482V283.5ZM523.399 282.842C521.481 282.842 520.417 281.582 520.417 279.622C520.417 277.662 521.495 276.402 523.455 276.402C524.575 276.402 525.443 276.878 525.779 277.69H525.835V276.542H527.221V282.996C527.221 285.054 526.017 286.02 523.987 286.02C522.013 286.02 520.781 285.082 520.781 283.402H522.279C522.279 284.354 522.629 284.676 524.029 284.676C525.387 284.676 525.723 284.284 525.723 282.996V281.61H525.667C525.345 282.282 524.533 282.842 523.399 282.842ZM521.929 279.622C521.929 281.05 522.517 281.554 523.833 281.554C524.967 281.554 525.723 281.008 525.723 279.832V279.398C525.723 278.236 524.967 277.69 523.805 277.69C522.503 277.69 521.929 278.194 521.929 279.622ZM530.123 275.66H528.625L528.611 274.12H530.123V275.66ZM530.137 283.5H528.625V276.5H530.137V283.5ZM533.037 283.5H531.525V276.542H532.911V277.844H532.967C533.289 277.102 534.031 276.402 535.389 276.402C537.195 276.402 538.007 277.55 538.007 279.132V283.5H536.495V279.468C536.495 278.222 536.103 277.704 534.829 277.704C533.597 277.704 533.037 278.18 533.037 279.482V283.5ZM542.522 283.64C540.226 283.64 539.148 282.184 539.148 280.014C539.148 277.858 540.436 276.402 542.508 276.402C544.384 276.402 545.7 277.522 545.7 279.426C545.7 279.79 545.658 280.168 545.616 280.378H540.562C540.618 281.652 541.08 282.296 542.536 282.296C543.698 282.296 544.146 281.904 544.146 281.274V281.162H545.644V281.288C545.644 282.716 544.398 283.64 542.522 283.64ZM542.48 277.676C541.164 277.676 540.66 278.292 540.576 279.37H544.258C544.314 278.18 543.67 277.676 542.48 277.676ZM550.068 283.64C547.772 283.64 546.694 282.184 546.694 280.014C546.694 277.858 547.982 276.402 550.054 276.402C551.93 276.402 553.246 277.522 553.246 279.426C553.246 279.79 553.204 280.168 553.162 280.378H548.108C548.164 281.652 548.626 282.296 550.082 282.296C551.244 282.296 551.692 281.904 551.692 281.274V281.162H553.19V281.288C553.19 282.716 551.944 283.64 550.068 283.64ZM550.026 277.676C548.71 277.676 548.206 278.292 548.122 279.37H551.804C551.86 278.18 551.216 277.676 550.026 277.676ZM555.965 283.5H554.453V276.5H555.839V277.606H555.909C556.189 276.962 556.833 276.402 557.855 276.402C559.311 276.402 559.871 277.466 559.871 278.768V279.23H558.359V278.95C558.359 278.026 558.093 277.69 557.211 277.69C556.301 277.69 555.965 278.04 555.965 278.964V283.5ZM562.17 275.66H560.672L560.658 274.12H562.17V275.66ZM562.184 283.5H560.672V276.5H562.184V283.5ZM565.084 283.5H563.572V276.542H564.958V277.844H565.014C565.336 277.102 566.078 276.402 567.436 276.402C569.242 276.402 570.054 277.55 570.054 279.132V283.5H568.542V279.468C568.542 278.222 568.15 277.704 566.876 277.704C565.644 277.704 565.084 278.18 565.084 279.482V283.5ZM574.176 282.842C572.258 282.842 571.194 281.582 571.194 279.622C571.194 277.662 572.272 276.402 574.232 276.402C575.352 276.402 576.22 276.878 576.556 277.69H576.612V276.542H577.998V282.996C577.998 285.054 576.794 286.02 574.764 286.02C572.79 286.02 571.558 285.082 571.558 283.402H573.056C573.056 284.354 573.406 284.676 574.806 284.676C576.164 284.676 576.5 284.284 576.5 282.996V281.61H576.444C576.122 282.282 575.31 282.842 574.176 282.842ZM572.706 279.622C572.706 281.05 573.294 281.554 574.61 281.554C575.744 281.554 576.5 281.008 576.5 279.832V279.398C576.5 278.236 575.744 277.69 574.582 277.69C573.28 277.69 572.706 278.194 572.706 279.622Z" fill="#071B2C"/>
<circle cx="371.733" cy="368.5" r="30.9749" fill="#E9E6F6"/>
<path d="M371.733 377.173V359.827C371.733 357.774 370.069 356.11 368.016 356.11C365.963 356.11 364.299 357.774 364.299 359.827C364.299 360.511 363.744 361.066 363.06 361.066C361.007 361.066 359.343 362.73 359.343 364.783C359.343 366.836 361.007 368.5 363.06 368.5C361.007 368.5 359.343 370.164 359.343 372.217C359.343 374.27 361.007 375.934 363.06 375.934C363.744 375.934 364.299 376.489 364.299 377.173C364.299 379.226 365.963 380.89 368.016 380.89C370.069 380.89 371.733 379.226 371.733 377.173Z" stroke="#5236FF" stroke-width="1.8585" stroke-linejoin="round"/>
<path d="M371.733 377.173V359.827C371.733 357.774 373.397 356.11 375.45 356.11C377.503 356.11 379.167 357.774 379.167 359.827C379.167 360.511 379.722 361.066 380.406 361.066C382.459 361.066 384.123 362.73 384.123 364.783C384.123 366.836 382.459 368.5 380.406 368.5C382.459 368.5 384.123 370.164 384.123 372.217C384.123 374.27 382.459 375.934 380.406 375.934C379.722 375.934 379.167 376.489 379.167 377.173C379.167 379.226 377.503 380.89 375.45 380.89C373.397 380.89 371.733 379.226 371.733 377.173Z" stroke="#071B2C" stroke-width="1.8585" stroke-linejoin="round"/>
<path d="M414.296 363.5H412.784V354.12H414.926L417.068 359.272L417.894 361.512H418.006L418.818 359.272L420.918 354.12H423.06V363.5H421.562V357.956L421.618 356.388H421.52L420.932 357.956L418.832 362.94H417.012L414.898 357.956L414.338 356.388H414.212L414.296 357.956V363.5ZM427.637 363.64C425.495 363.64 424.165 362.184 424.165 360.014C424.165 357.858 425.495 356.402 427.637 356.402C429.765 356.402 431.053 357.858 431.053 360.014C431.053 362.184 429.765 363.64 427.637 363.64ZM427.637 362.296C429.093 362.296 429.597 361.582 429.597 360.014C429.597 358.46 429.093 357.746 427.637 357.746C426.167 357.746 425.649 358.46 425.649 360.014C425.649 361.582 426.167 362.296 427.637 362.296ZM435.038 363.64C433.05 363.64 431.972 362.226 431.972 360.014C431.972 357.816 433.036 356.402 434.954 356.402C436.186 356.402 436.928 356.99 437.236 357.62H437.278V354.12H438.776V363.5H437.39V362.352H437.334C436.998 363.15 436.228 363.64 435.038 363.64ZM433.484 360.014C433.484 361.736 434.03 362.352 435.374 362.352C436.606 362.352 437.278 361.806 437.278 360.644V359.398C437.278 358.236 436.606 357.69 435.374 357.69C434.044 357.69 433.484 358.306 433.484 360.014ZM443.303 363.64C441.007 363.64 439.929 362.184 439.929 360.014C439.929 357.858 441.217 356.402 443.289 356.402C445.165 356.402 446.481 357.522 446.481 359.426C446.481 359.79 446.439 360.168 446.397 360.378H441.343C441.399 361.652 441.861 362.296 443.317 362.296C444.479 362.296 444.927 361.904 444.927 361.274V361.162H446.425V361.288C446.425 362.716 445.179 363.64 443.303 363.64ZM443.261 357.676C441.945 357.676 441.441 358.292 441.357 359.37H445.039C445.095 358.18 444.451 357.676 443.261 357.676ZM449.213 363.5H447.701V354.12H449.213V363.5ZM457.17 363.64C454.468 363.64 453.292 362.394 453.292 360.588V360.35H454.776V360.504C454.776 361.666 455.266 362.254 457.226 362.254C458.612 362.254 459.116 361.876 459.116 361.008C459.116 360.154 458.836 359.846 457.394 359.552L455.798 359.23C454.188 358.922 453.32 358.138 453.32 356.654C453.32 355.268 454.398 353.98 456.82 353.98C459.41 353.98 460.446 355.436 460.446 357.102V357.27H458.962V357.116C458.962 355.968 458.458 355.366 456.778 355.366C455.392 355.366 454.832 355.758 454.832 356.584C454.832 357.438 455.21 357.676 456.498 357.956L458.094 358.292C459.858 358.656 460.628 359.538 460.628 360.952C460.628 362.422 459.564 363.64 457.17 363.64ZM464.795 363.64C462.499 363.64 461.421 362.184 461.421 360.014C461.421 357.858 462.709 356.402 464.781 356.402C466.657 356.402 467.973 357.522 467.973 359.426C467.973 359.79 467.931 360.168 467.889 360.378H462.835C462.891 361.652 463.353 362.296 464.809 362.296C465.971 362.296 466.419 361.904 466.419 361.274V361.162H467.917V361.288C467.917 362.716 466.671 363.64 464.795 363.64ZM464.753 357.676C463.437 357.676 462.933 358.292 462.849 359.37H466.531C466.587 358.18 465.943 357.676 464.753 357.676ZM470.705 363.5H469.193V354.12H470.705V363.5ZM475.227 363.64C472.931 363.64 471.853 362.184 471.853 360.014C471.853 357.858 473.141 356.402 475.213 356.402C477.089 356.402 478.405 357.522 478.405 359.426C478.405 359.79 478.363 360.168 478.321 360.378H473.267C473.323 361.652 473.785 362.296 475.241 362.296C476.403 362.296 476.851 361.904 476.851 361.274V361.162H478.349V361.288C478.349 362.716 477.103 363.64 475.227 363.64ZM475.185 357.676C473.869 357.676 473.365 358.292 473.281 359.37H476.963C477.019 358.18 476.375 357.676 475.185 357.676ZM482.802 363.654C480.632 363.654 479.399 362.184 479.399 360.028C479.399 357.858 480.674 356.402 482.858 356.402C484.692 356.402 485.952 357.536 485.952 359.202V359.328H484.454V359.244C484.454 358.222 483.922 357.76 482.76 357.76C481.416 357.76 480.898 358.516 480.898 360.028C480.898 361.54 481.416 362.282 482.76 362.282C483.922 362.282 484.454 361.834 484.454 360.812V360.728H485.952V360.854C485.952 362.506 484.678 363.654 482.802 363.654ZM489.933 363.5C488.379 363.5 487.567 362.926 487.567 361.358V357.802H486.405V356.542H487.595L487.917 354.82H489.079V356.542H491.179V357.802H489.079V361.288C489.079 362.016 489.387 362.142 490.325 362.142H491.179V363.374C490.885 363.444 490.409 363.5 489.933 363.5ZM493.576 355.66H492.078L492.064 354.12H493.576V355.66ZM493.59 363.5H492.078V356.5H493.59V363.5ZM498.102 363.64C495.96 363.64 494.63 362.184 494.63 360.014C494.63 357.858 495.96 356.402 498.102 356.402C500.23 356.402 501.518 357.858 501.518 360.014C501.518 362.184 500.23 363.64 498.102 363.64ZM498.102 362.296C499.558 362.296 500.062 361.582 500.062 360.014C500.062 358.46 499.558 357.746 498.102 357.746C496.632 357.746 496.114 358.46 496.114 360.014C496.114 361.582 496.632 362.296 498.102 362.296ZM504.16 363.5H502.648V356.542H504.034V357.844H504.09C504.412 357.102 505.154 356.402 506.512 356.402C508.318 356.402 509.13 357.55 509.13 359.132V363.5H507.618V359.468C507.618 358.222 507.226 357.704 505.952 357.704C504.72 357.704 504.16 358.18 504.16 359.482V363.5ZM415.85 374.408C414.856 374.408 414.408 374.744 414.408 375.724C414.408 376.676 414.94 377.012 415.892 377.012H418.314V375.542H419.798V377.012H421.31V378.272H419.798V379.462C419.798 381.436 418.664 382.64 416.088 382.64C413.82 382.64 412.56 381.758 412.56 379.952C412.56 378.608 413.386 377.81 414.576 377.628V377.558C413.456 377.376 412.896 376.508 412.896 375.444C412.896 373.764 414.142 373.022 416.074 373.022H417.558V374.408H415.85ZM416.158 381.254C417.866 381.254 418.314 380.792 418.314 379.462V378.272H415.906C414.702 378.272 414.086 378.622 414.086 379.798C414.086 380.89 414.576 381.254 416.158 381.254ZM428.86 382.5H427.362V374.478H424.17V373.12H432.052V374.478H428.86V382.5ZM433.832 382.5H432.32V375.5H433.706V376.606H433.776C434.056 375.962 434.7 375.402 435.722 375.402C437.178 375.402 437.738 376.466 437.738 377.768V378.23H436.226V377.95C436.226 377.026 435.96 376.69 435.078 376.69C434.168 376.69 433.832 377.04 433.832 377.964V382.5ZM440.445 382.64C439.199 382.64 438.233 381.996 438.233 380.778C438.233 379.63 439.073 379.028 440.557 378.818L442.993 378.454V378.076C442.993 377.04 442.517 376.732 441.425 376.732C440.319 376.732 439.885 377.082 439.885 378.006V378.216H438.429V378.076C438.429 376.522 439.647 375.402 441.509 375.402C443.455 375.402 444.435 376.578 444.435 378.272V382.5H443.035V381.408H442.965C442.559 382.066 441.761 382.64 440.445 382.64ZM439.703 380.666C439.703 381.212 440.053 381.436 440.935 381.436C441.915 381.436 442.993 381.044 442.993 379.644V379.518L440.781 379.854C439.983 379.966 439.703 380.148 439.703 380.666ZM447.297 374.66H445.799L445.785 373.12H447.297V374.66ZM447.311 382.5H445.799V375.5H447.311V382.5ZM450.211 382.5H448.699V375.542H450.085V376.844H450.141C450.463 376.102 451.205 375.402 452.563 375.402C454.369 375.402 455.181 376.55 455.181 378.132V382.5H453.669V378.468C453.669 377.222 453.277 376.704 452.003 376.704C450.771 376.704 450.211 377.18 450.211 378.482V382.5ZM458.043 374.66H456.545L456.531 373.12H458.043V374.66ZM458.057 382.5H456.545V375.5H458.057V382.5ZM460.957 382.5H459.445V375.542H460.831V376.844H460.887C461.209 376.102 461.951 375.402 463.309 375.402C465.115 375.402 465.927 376.55 465.927 378.132V382.5H464.415V378.468C464.415 377.222 464.023 376.704 462.749 376.704C461.517 376.704 460.957 377.18 460.957 378.482V382.5ZM470.049 381.842C468.131 381.842 467.067 380.582 467.067 378.622C467.067 376.662 468.145 375.402 470.105 375.402C471.225 375.402 472.093 375.878 472.429 376.69H472.485V375.542H473.871V381.996C473.871 384.054 472.667 385.02 470.637 385.02C468.663 385.02 467.431 384.082 467.431 382.402H468.929C468.929 383.354 469.279 383.676 470.679 383.676C472.037 383.676 472.373 383.284 472.373 381.996V380.61H472.317C471.995 381.282 471.183 381.842 470.049 381.842ZM468.579 378.622C468.579 380.05 469.167 380.554 470.483 380.554C471.617 380.554 472.373 380.008 472.373 378.832V378.398C472.373 377.236 471.617 376.69 470.455 376.69C469.153 376.69 468.579 377.194 468.579 378.622Z" fill="#071B2C"/>
<path d="M83.0538 363.5H81.5418V354.12H83.6838L85.8258 359.272L86.6518 361.512H86.7638L87.5758 359.272L89.6758 354.12H91.8178V363.5H90.3198V357.956L90.3758 356.388H90.2778L89.6898 357.956L87.5898 362.94H85.7698L83.6558 357.956L83.0958 356.388H82.9698L83.0538 357.956V363.5ZM96.3949 363.64C94.2529 363.64 92.9229 362.184 92.9229 360.014C92.9229 357.858 94.2529 356.402 96.3949 356.402C98.5229 356.402 99.8109 357.858 99.8109 360.014C99.8109 362.184 98.5229 363.64 96.3949 363.64ZM96.3949 362.296C97.8509 362.296 98.3549 361.582 98.3549 360.014C98.3549 358.46 97.8509 357.746 96.3949 357.746C94.9249 357.746 94.4069 358.46 94.4069 360.014C94.4069 361.582 94.9249 362.296 96.3949 362.296ZM103.796 363.64C101.808 363.64 100.73 362.226 100.73 360.014C100.73 357.816 101.794 356.402 103.712 356.402C104.944 356.402 105.686 356.99 105.994 357.62H106.036V354.12H107.534V363.5H106.148V362.352H106.092C105.756 363.15 104.986 363.64 103.796 363.64ZM102.242 360.014C102.242 361.736 102.788 362.352 104.132 362.352C105.364 362.352 106.036 361.806 106.036 360.644V359.398C106.036 358.236 105.364 357.69 104.132 357.69C102.802 357.69 102.242 358.306 102.242 360.014ZM112.061 363.64C109.765 363.64 108.687 362.184 108.687 360.014C108.687 357.858 109.975 356.402 112.047 356.402C113.923 356.402 115.239 357.522 115.239 359.426C115.239 359.79 115.197 360.168 115.155 360.378H110.101C110.157 361.652 110.619 362.296 112.075 362.296C113.237 362.296 113.685 361.904 113.685 361.274V361.162H115.183V361.288C115.183 362.716 113.937 363.64 112.061 363.64ZM112.019 357.676C110.703 357.676 110.199 358.292 110.115 359.37H113.797C113.853 358.18 113.209 357.676 112.019 357.676ZM117.971 363.5H116.459V354.12H117.971V363.5ZM128.84 363.5H122.134V354.12H128.84V355.478H123.646V358.096H128.63V359.468H123.646V362.142H128.84V363.5ZM134.026 363.5H132.122L129.336 356.542H131.016L133.046 362.058H133.144L135.188 356.542H136.826L134.026 363.5ZM139.212 363.64C137.966 363.64 137 362.996 137 361.778C137 360.63 137.84 360.028 139.324 359.818L141.76 359.454V359.076C141.76 358.04 141.284 357.732 140.192 357.732C139.086 357.732 138.652 358.082 138.652 359.006V359.216H137.196V359.076C137.196 357.522 138.414 356.402 140.276 356.402C142.222 356.402 143.202 357.578 143.202 359.272V363.5H141.802V362.408H141.732C141.326 363.066 140.528 363.64 139.212 363.64ZM138.47 361.666C138.47 362.212 138.82 362.436 139.702 362.436C140.682 362.436 141.76 362.044 141.76 360.644V360.518L139.548 360.854C138.75 360.966 138.47 361.148 138.47 361.666ZM146.162 363.5H144.65V354.12H146.162V363.5ZM150.234 363.64C148.414 363.64 147.602 362.422 147.602 360.84V356.542H149.114V360.574C149.114 361.82 149.59 362.338 150.794 362.338C151.956 362.338 152.614 361.834 152.614 360.462V356.542H154.126V363.5H152.726V362.114H152.67C152.334 362.912 151.592 363.64 150.234 363.64ZM157.492 363.64C156.246 363.64 155.28 362.996 155.28 361.778C155.28 360.63 156.12 360.028 157.604 359.818L160.04 359.454V359.076C160.04 358.04 159.564 357.732 158.472 357.732C157.366 357.732 156.932 358.082 156.932 359.006V359.216H155.476V359.076C155.476 357.522 156.694 356.402 158.556 356.402C160.502 356.402 161.482 357.578 161.482 359.272V363.5H160.082V362.408H160.012C159.606 363.066 158.808 363.64 157.492 363.64ZM156.75 361.666C156.75 362.212 157.1 362.436 157.982 362.436C158.962 362.436 160.04 362.044 160.04 360.644V360.518L157.828 360.854C157.03 360.966 156.75 361.148 156.75 361.666ZM165.759 363.5C164.205 363.5 163.393 362.926 163.393 361.358V357.802H162.231V356.542H163.421L163.743 354.82H164.905V356.542H167.005V357.802H164.905V361.288C164.905 362.016 165.213 362.142 166.151 362.142H167.005V363.374C166.711 363.444 166.235 363.5 165.759 363.5ZM169.402 355.66H167.904L167.89 354.12H169.402V355.66ZM169.416 363.5H167.904V356.5H169.416V363.5ZM173.928 363.64C171.786 363.64 170.456 362.184 170.456 360.014C170.456 357.858 171.786 356.402 173.928 356.402C176.056 356.402 177.344 357.858 177.344 360.014C177.344 362.184 176.056 363.64 173.928 363.64ZM173.928 362.296C175.384 362.296 175.888 361.582 175.888 360.014C175.888 358.46 175.384 357.746 173.928 357.746C172.458 357.746 171.94 358.46 171.94 360.014C171.94 361.582 172.458 362.296 173.928 362.296ZM179.986 363.5H178.474V356.542H179.86V357.844H179.916C180.238 357.102 180.98 356.402 182.338 356.402C184.144 356.402 184.956 357.55 184.956 359.132V363.5H183.444V359.468C183.444 358.222 183.052 357.704 181.778 357.704C180.546 357.704 179.986 358.18 179.986 359.482V363.5ZM84.6078 374.408C83.6138 374.408 83.1658 374.744 83.1658 375.724C83.1658 376.676 83.6978 377.012 84.6498 377.012H87.0718V375.542H88.5558V377.012H90.0678V378.272H88.5558V379.462C88.5558 381.436 87.4218 382.64 84.8458 382.64C82.5778 382.64 81.3178 381.758 81.3178 379.952C81.3178 378.608 82.1438 377.81 83.3338 377.628V377.558C82.2138 377.376 81.6538 376.508 81.6538 375.444C81.6538 373.764 82.8998 373.022 84.8318 373.022H86.3158V374.408H84.6078ZM84.9158 381.254C86.6238 381.254 87.0718 380.792 87.0718 379.462V378.272H84.6638C83.4598 378.272 82.8438 378.622 82.8438 379.798C82.8438 380.89 83.3338 381.254 84.9158 381.254ZM97.6178 382.5H96.1198V374.478H92.9278V373.12H100.81V374.478H97.6178V382.5ZM103.668 382.64C101.848 382.64 101.036 381.422 101.036 379.84V375.542H102.548V379.574C102.548 380.82 103.024 381.338 104.228 381.338C105.39 381.338 106.048 380.834 106.048 379.462V375.542H107.56V382.5H106.16V381.114H106.104C105.768 381.912 105.026 382.64 103.668 382.64ZM110.561 382.5H109.049V375.542H110.435V376.844H110.491C110.813 376.102 111.555 375.402 112.913 375.402C114.719 375.402 115.531 376.55 115.531 378.132V382.5H114.019V378.468C114.019 377.222 113.627 376.704 112.353 376.704C111.121 376.704 110.561 377.18 110.561 378.482V382.5ZM118.392 374.66H116.894L116.88 373.12H118.392V374.66ZM118.406 382.5H116.894V375.5H118.406V382.5ZM121.307 382.5H119.795V375.542H121.181V376.844H121.237C121.559 376.102 122.301 375.402 123.659 375.402C125.465 375.402 126.277 376.55 126.277 378.132V382.5H124.765V378.468C124.765 377.222 124.373 376.704 123.099 376.704C121.867 376.704 121.307 377.18 121.307 378.482V382.5ZM130.399 381.842C128.481 381.842 127.417 380.582 127.417 378.622C127.417 376.662 128.495 375.402 130.455 375.402C131.575 375.402 132.443 375.878 132.779 376.69H132.835V375.542H134.221V381.996C134.221 384.054 133.017 385.02 130.987 385.02C129.013 385.02 127.781 384.082 127.781 382.402H129.279C129.279 383.354 129.629 383.676 131.029 383.676C132.387 383.676 132.723 383.284 132.723 381.996V380.61H132.667C132.345 381.282 131.533 381.842 130.399 381.842ZM128.929 378.622C128.929 380.05 129.517 380.554 130.833 380.554C131.967 380.554 132.723 380.008 132.723 378.832V378.398C132.723 377.236 131.967 376.69 130.805 376.69C129.503 376.69 128.929 377.194 128.929 378.622Z" fill="#071B2C"/>
<circle cx="226.025" cy="368.5" r="30.9749" fill="#E9E6F6"/>
<path d="M236.517 364.864C237.516 366.586 238.016 367.447 238.016 368.393C238.016 369.339 237.516 370.2 236.517 371.922L234.134 376.03C233.139 377.745 232.641 378.603 231.823 379.073C231.005 379.544 230.012 379.544 228.026 379.544H223.226C221.24 379.544 220.247 379.544 219.428 379.073C218.61 378.603 218.113 377.745 217.118 376.03L214.734 371.922C213.735 370.2 213.236 369.339 213.236 368.393C213.236 367.447 213.735 366.586 214.734 364.864L217.118 360.756C218.113 359.041 218.61 358.184 219.428 357.713C220.247 357.242 221.24 357.242 223.226 357.242H228.026C230.012 357.242 231.005 357.242 231.823 357.713C232.641 358.184 233.139 359.041 234.134 360.756L236.517 364.864Z" stroke="#071B2C" stroke-width="1.8585"/>
<path d="M221.909 363.437L229.343 373.349" stroke="#5236FF" stroke-width="1.8585" stroke-linecap="round"/>
<path d="M4.87381 264.5H1.54181V255.12H4.87381C7.77181 255.12 9.61981 256.912 9.61981 259.81C9.61981 262.708 7.77181 264.5 4.87381 264.5ZM4.87381 256.478H3.05381V263.142H4.87381C7.11381 263.142 8.00981 262.218 8.00981 259.81C8.00981 257.402 7.11381 256.478 4.87381 256.478ZM13.918 264.64C11.622 264.64 10.544 263.184 10.544 261.014C10.544 258.858 11.832 257.402 13.904 257.402C15.78 257.402 17.096 258.522 17.096 260.426C17.096 260.79 17.054 261.168 17.012 261.378H11.958C12.014 262.652 12.476 263.296 13.932 263.296C15.094 263.296 15.542 262.904 15.542 262.274V262.162H17.04V262.288C17.04 263.716 15.794 264.64 13.918 264.64ZM13.876 258.676C12.56 258.676 12.056 259.292 11.972 260.37H15.654C15.71 259.18 15.066 258.676 13.876 258.676ZM19.7445 266.922H18.2465V257.542H19.6185V258.69H19.6885C20.0105 257.878 20.8085 257.402 22.0125 257.402C23.9725 257.402 25.0505 258.816 25.0505 261.028C25.0505 263.226 24.0005 264.64 22.1105 264.64C20.8645 264.64 20.0945 264.066 19.7865 263.422H19.7445V266.922ZM19.7445 261.644C19.7445 262.806 20.4165 263.352 21.6485 263.352C22.9785 263.352 23.5385 262.736 23.5385 261.028C23.5385 259.306 22.9925 258.69 21.6485 258.69C20.4165 258.69 19.7445 259.236 19.7445 260.398V261.644ZM27.7716 264.5H26.2596V255.12H27.7716V264.5ZM32.391 264.64C30.249 264.64 28.919 263.184 28.919 261.014C28.919 258.858 30.249 257.402 32.391 257.402C34.519 257.402 35.807 258.858 35.807 261.014C35.807 263.184 34.519 264.64 32.391 264.64ZM32.391 263.296C33.847 263.296 34.351 262.582 34.351 261.014C34.351 259.46 33.847 258.746 32.391 258.746C30.921 258.746 30.403 259.46 30.403 261.014C30.403 262.582 30.921 263.296 32.391 263.296ZM37.7582 266.88C37.3802 266.88 36.9462 266.824 36.7082 266.754V265.522H37.6602C38.2622 265.522 38.4722 265.424 38.6962 264.906L38.9622 264.318L36.0082 257.542H37.6742L39.0742 260.916L39.7042 262.428H39.8162L40.3902 260.916L41.6642 257.542H43.3302L40.0402 265.326C39.5222 266.558 38.8502 266.88 37.7582 266.88ZM45.5724 264.5H44.0604V257.542H45.4464V258.844H45.5024C45.8244 258.102 46.5524 257.402 47.8824 257.402C49.1004 257.402 49.8564 257.962 50.1924 258.844H50.2344C50.5564 258.116 51.2704 257.402 52.6424 257.402C54.4344 257.402 55.2324 258.55 55.2324 260.132V264.5H53.7204V260.468C53.7204 259.222 53.3424 258.704 52.0824 258.704C50.9344 258.704 50.4024 259.18 50.4024 260.454V264.5H48.8904V260.468C48.8904 259.222 48.5124 258.704 47.2524 258.704C46.1044 258.704 45.5724 259.18 45.5724 260.44V264.5ZM59.7462 264.64C57.4502 264.64 56.3722 263.184 56.3722 261.014C56.3722 258.858 57.6602 257.402 59.7322 257.402C61.6082 257.402 62.9242 258.522 62.9242 260.426C62.9242 260.79 62.8822 261.168 62.8402 261.378H57.7862C57.8422 262.652 58.3042 263.296 59.7602 263.296C60.9222 263.296 61.3702 262.904 61.3702 262.274V262.162H62.8682V262.288C62.8682 263.716 61.6222 264.64 59.7462 264.64ZM59.7042 258.676C58.3882 258.676 57.8842 259.292 57.8002 260.37H61.4822C61.5382 259.18 60.8942 258.676 59.7042 258.676ZM65.6427 264.5H64.1307V257.542H65.5167V258.844H65.5727C65.8947 258.102 66.6367 257.402 67.9947 257.402C69.8007 257.402 70.6127 258.55 70.6127 260.132V264.5H69.1007V260.468C69.1007 259.222 68.7087 258.704 67.4347 258.704C66.2027 258.704 65.6427 259.18 65.6427 260.482V264.5ZM74.8903 264.5C73.3363 264.5 72.5243 263.926 72.5243 262.358V258.802H71.3623V257.542H72.5523L72.8743 255.82H74.0363V257.542H76.1363V258.802H74.0363V262.288C74.0363 263.016 74.3443 263.142 75.2823 263.142H76.1363V264.374C75.8423 264.444 75.3663 264.5 74.8903 264.5ZM3.01181 283.5H1.49981V276.542H2.88581V277.844H2.94181C3.26381 277.102 3.99181 276.402 5.32181 276.402C6.53981 276.402 7.29581 276.962 7.63181 277.844H7.67381C7.99581 277.116 8.70981 276.402 10.0818 276.402C11.8738 276.402 12.6718 277.55 12.6718 279.132V283.5H11.1598V279.468C11.1598 278.222 10.7818 277.704 9.52181 277.704C8.37381 277.704 7.84181 278.18 7.84181 279.454V283.5H6.32981V279.468C6.32981 278.222 5.95181 277.704 4.69181 277.704C3.54381 277.704 3.01181 278.18 3.01181 279.44V283.5ZM15.533 275.66H14.035L14.021 274.12H15.533V275.66ZM15.547 283.5H14.035V276.5H15.547V283.5ZM18.4474 283.5H16.9354V276.542H18.3214V277.844H18.3774C18.6994 277.102 19.4414 276.402 20.7994 276.402C22.6054 276.402 23.4174 277.55 23.4174 279.132V283.5H21.9054V279.468C21.9054 278.222 21.5134 277.704 20.2394 277.704C19.0074 277.704 18.4474 278.18 18.4474 279.482V283.5ZM26.279 275.66H24.781L24.767 274.12H26.279V275.66ZM26.293 283.5H24.781V276.5H26.293V283.5ZM30.5388 283.5C28.9848 283.5 28.1728 282.926 28.1728 281.358V277.802H27.0108V276.542H28.2008L28.5228 274.82H29.6848V276.542H31.7848V277.802H29.6848V281.288C29.6848 282.016 29.9928 282.142 30.9308 282.142H31.7848V283.374C31.4908 283.444 31.0148 283.5 30.5388 283.5ZM35.7543 283.64C33.6123 283.64 32.2823 282.184 32.2823 280.014C32.2823 277.858 33.6123 276.402 35.7543 276.402C37.8823 276.402 39.1703 277.858 39.1703 280.014C39.1703 282.184 37.8823 283.64 35.7543 283.64ZM35.7543 282.296C37.2103 282.296 37.7143 281.582 37.7143 280.014C37.7143 278.46 37.2103 277.746 35.7543 277.746C34.2843 277.746 33.7663 278.46 33.7663 280.014C33.7663 281.582 34.2843 282.296 35.7543 282.296ZM41.8126 283.5H40.3006V276.5H41.6866V277.606H41.7566C42.0366 276.962 42.6806 276.402 43.7026 276.402C45.1586 276.402 45.7186 277.466 45.7186 278.768V279.23H44.2066V278.95C44.2066 278.026 43.9406 277.69 43.0586 277.69C42.1486 277.69 41.8126 278.04 41.8126 278.964V283.5ZM48.0173 275.66H46.5193L46.5053 274.12H48.0173V275.66ZM48.0313 283.5H46.5193V276.5H48.0313V283.5ZM50.9317 283.5H49.4197V276.542H50.8057V277.844H50.8617C51.1837 277.102 51.9257 276.402 53.2837 276.402C55.0897 276.402 55.9017 277.55 55.9017 279.132V283.5H54.3897V279.468C54.3897 278.222 53.9977 277.704 52.7237 277.704C51.4917 277.704 50.9317 278.18 50.9317 279.482V283.5ZM60.0241 282.842C58.1061 282.842 57.0421 281.582 57.0421 279.622C57.0421 277.662 58.1201 276.402 60.0801 276.402C61.2001 276.402 62.0681 276.878 62.4041 277.69H62.4601V276.542H63.8461V282.996C63.8461 285.054 62.6421 286.02 60.6121 286.02C58.6381 286.02 57.4061 285.082 57.4061 283.402H58.9041C58.9041 284.354 59.2541 284.676 60.6541 284.676C62.0121 284.676 62.3481 284.284 62.3481 282.996V281.61H62.2921C61.9701 282.282 61.1581 282.842 60.0241 282.842ZM58.5541 279.622C58.5541 281.05 59.1421 281.554 60.4581 281.554C61.5921 281.554 62.3481 281.008 62.3481 279.832V279.398C62.3481 278.236 61.5921 277.69 60.4301 277.69C59.1281 277.69 58.5541 278.194 58.5541 279.622Z" fill="#071B2C"/>
<circle cx="117.025" cy="269.5" r="30.9749" fill="#E9E6F6"/>
<path d="M104.855 269.514C104.855 263.966 104.855 261.191 106.579 259.467C108.303 257.744 111.077 257.744 116.626 257.744C122.175 257.744 124.949 257.744 126.673 259.467C128.396 261.191 128.396 263.966 128.396 269.514C128.396 275.063 128.396 277.837 126.673 279.561C124.949 281.285 122.175 281.285 116.626 281.285C111.077 281.285 108.303 281.285 106.579 279.561C104.855 277.837 104.855 275.063 104.855 269.514Z" stroke="#071B2C" stroke-width="1.8585"/>
<path d="M104.855 269.514H128.396" stroke="#071B2C" stroke-width="1.8585" stroke-linecap="round" stroke-linejoin="round"/>
<path d="M117.865 263.319H122.821" stroke="#5236FF" stroke-width="1.8585" stroke-linecap="round" stroke-linejoin="round"/>
<path d="M111.979 264.868C112.835 264.868 113.528 264.175 113.528 263.319C113.528 262.464 112.835 261.77 111.979 261.77C111.124 261.77 110.431 262.464 110.431 263.319C110.431 264.175 111.124 264.868 111.979 264.868Z" stroke="#5236FF" stroke-width="1.8585" stroke-linecap="round" stroke-linejoin="round"/>
<path d="M111.979 277.258C112.835 277.258 113.528 276.565 113.528 275.709C113.528 274.854 112.835 274.16 111.979 274.16C111.124 274.16 110.431 274.854 110.431 275.709C110.431 276.565 111.124 277.258 111.979 277.258Z" stroke="#5236FF" stroke-width="1.8585" stroke-linecap="round" stroke-linejoin="round"/>
<path d="M117.865 275.709H122.821" stroke="#5236FF" stroke-width="1.8585" stroke-linecap="round" stroke-linejoin="round"/>
<path d="M65.0538 26.5H63.5418V17.12H65.6838L67.8258 22.272L68.6518 24.512H68.7638L69.5758 22.272L71.6758 17.12H73.8178V26.5H72.3198V20.956L72.3758 19.388H72.2778L71.6898 20.956L69.5898 25.94H67.7698L65.6558 20.956L65.0958 19.388H64.9698L65.0538 20.956V26.5ZM78.3949 26.64C76.2529 26.64 74.9229 25.184 74.9229 23.014C74.9229 20.858 76.2529 19.402 78.3949 19.402C80.5229 19.402 81.8109 20.858 81.8109 23.014C81.8109 25.184 80.5229 26.64 78.3949 26.64ZM78.3949 25.296C79.8509 25.296 80.3549 24.582 80.3549 23.014C80.3549 21.46 79.8509 20.746 78.3949 20.746C76.9249 20.746 76.4069 21.46 76.4069 23.014C76.4069 24.582 76.9249 25.296 78.3949 25.296ZM85.7956 26.64C83.8076 26.64 82.7296 25.226 82.7296 23.014C82.7296 20.816 83.7936 19.402 85.7116 19.402C86.9436 19.402 87.6856 19.99 87.9936 20.62H88.0356V17.12H89.5336V26.5H88.1476V25.352H88.0916C87.7556 26.15 86.9856 26.64 85.7956 26.64ZM84.2416 23.014C84.2416 24.736 84.7876 25.352 86.1316 25.352C87.3636 25.352 88.0356 24.806 88.0356 23.644V22.398C88.0356 21.236 87.3636 20.69 86.1316 20.69C84.8016 20.69 84.2416 21.306 84.2416 23.014ZM94.0606 26.64C91.7646 26.64 90.6866 25.184 90.6866 23.014C90.6866 20.858 91.9746 19.402 94.0466 19.402C95.9226 19.402 97.2386 20.522 97.2386 22.426C97.2386 22.79 97.1966 23.168 97.1546 23.378H92.1006C92.1566 24.652 92.6186 25.296 94.0746 25.296C95.2366 25.296 95.6846 24.904 95.6846 24.274V24.162H97.1826V24.288C97.1826 25.716 95.9366 26.64 94.0606 26.64ZM94.0186 20.676C92.7026 20.676 92.1986 21.292 92.1146 22.37H95.7966C95.8526 21.18 95.2086 20.676 94.0186 20.676ZM99.9708 26.5H98.4588V17.12H99.9708V26.5ZM105.646 26.5H104.134V17.12H106.276L108.418 22.272L109.244 24.512H109.356L110.168 22.272L112.268 17.12H114.41V26.5H112.912V20.956L112.968 19.388H112.87L112.282 20.956L110.182 25.94H108.362L106.248 20.956L105.688 19.388H105.562L105.646 20.956V26.5ZM117.835 26.64C116.589 26.64 115.623 25.996 115.623 24.778C115.623 23.63 116.463 23.028 117.947 22.818L120.383 22.454V22.076C120.383 21.04 119.907 20.732 118.815 20.732C117.709 20.732 117.275 21.082 117.275 22.006V22.216H115.819V22.076C115.819 20.522 117.037 19.402 118.899 19.402C120.845 19.402 121.825 20.578 121.825 22.272V26.5H120.425V25.408H120.355C119.949 26.066 119.151 26.64 117.835 26.64ZM117.093 24.666C117.093 25.212 117.443 25.436 118.325 25.436C119.305 25.436 120.383 25.044 120.383 23.644V23.518L118.171 23.854C117.373 23.966 117.093 24.148 117.093 24.666ZM124.687 18.66H123.189L123.175 17.12H124.687V18.66ZM124.701 26.5H123.189V19.5H124.701V26.5ZM127.602 26.5H126.09V19.542H127.476V20.844H127.532C127.854 20.102 128.596 19.402 129.954 19.402C131.76 19.402 132.572 20.55 132.572 22.132V26.5H131.06V22.468C131.06 21.222 130.668 20.704 129.394 20.704C128.162 20.704 127.602 21.18 127.602 22.482V26.5ZM136.849 26.5C135.295 26.5 134.483 25.926 134.483 24.358V20.802H133.321V19.542H134.511L134.833 17.82H135.995V19.542H138.095V20.802H135.995V24.288C135.995 25.016 136.303 25.142 137.241 25.142H138.095V26.374C137.801 26.444 137.325 26.5 136.849 26.5ZM141.967 26.64C139.671 26.64 138.593 25.184 138.593 23.014C138.593 20.858 139.881 19.402 141.953 19.402C143.829 19.402 145.145 20.522 145.145 22.426C145.145 22.79 145.103 23.168 145.061 23.378H140.007C140.063 24.652 140.525 25.296 141.981 25.296C143.143 25.296 143.591 24.904 143.591 24.274V24.162H145.089V24.288C145.089 25.716 143.843 26.64 141.967 26.64ZM141.925 20.676C140.609 20.676 140.105 21.292 140.021 22.37H143.703C143.759 21.18 143.115 20.676 141.925 20.676ZM147.863 26.5H146.351V19.542H147.737V20.844H147.793C148.115 20.102 148.857 19.402 150.215 19.402C152.021 19.402 152.833 20.55 152.833 22.132V26.5H151.321V22.468C151.321 21.222 150.929 20.704 149.655 20.704C148.423 20.704 147.863 21.18 147.863 22.482V26.5ZM156.158 26.64C154.912 26.64 153.946 25.996 153.946 24.778C153.946 23.63 154.786 23.028 156.27 22.818L158.706 22.454V22.076C158.706 21.04 158.23 20.732 157.138 20.732C156.032 20.732 155.598 21.082 155.598 22.006V22.216H154.142V22.076C154.142 20.522 155.36 19.402 157.222 19.402C159.168 19.402 160.148 20.578 160.148 22.272V26.5H158.748V25.408H158.678C158.272 26.066 157.474 26.64 156.158 26.64ZM155.416 24.666C155.416 25.212 155.766 25.436 156.648 25.436C157.628 25.436 158.706 25.044 158.706 23.644V23.518L156.494 23.854C155.696 23.966 155.416 24.148 155.416 24.666ZM163.108 26.5H161.596V19.542H162.982V20.844H163.038C163.36 20.102 164.102 19.402 165.46 19.402C167.266 19.402 168.078 20.55 168.078 22.132V26.5H166.566V22.468C166.566 21.222 166.174 20.704 164.9 20.704C163.668 20.704 163.108 21.18 163.108 22.482V26.5ZM172.62 26.654C170.45 26.654 169.218 25.184 169.218 23.028C169.218 20.858 170.492 19.402 172.676 19.402C174.51 19.402 175.77 20.536 175.77 22.202V22.328H174.272V22.244C174.272 21.222 173.74 20.76 172.578 20.76C171.234 20.76 170.716 21.516 170.716 23.028C170.716 24.54 171.234 25.282 172.578 25.282C173.74 25.282 174.272 24.834 174.272 23.812V23.728H175.77V23.854C175.77 25.506 174.496 26.654 172.62 26.654ZM180.07 26.64C177.774 26.64 176.696 25.184 176.696 23.014C176.696 20.858 177.984 19.402 180.056 19.402C181.932 19.402 183.248 20.522 183.248 22.426C183.248 22.79 183.206 23.168 183.164 23.378H178.11C178.166 24.652 178.628 25.296 180.084 25.296C181.246 25.296 181.694 24.904 181.694 24.274V24.162H183.192V24.288C183.192 25.716 181.946 26.64 180.07 26.64ZM180.028 20.676C178.712 20.676 178.208 21.292 178.124 22.37H181.806C181.862 21.18 181.218 20.676 180.028 20.676ZM66.6078 37.408C65.6138 37.408 65.1658 37.744 65.1658 38.724C65.1658 39.676 65.6978 40.012 66.6498 40.012H69.0718V38.542H70.5558V40.012H72.0678V41.272H70.5558V42.462C70.5558 44.436 69.4218 45.64 66.8458 45.64C64.5778 45.64 63.3178 44.758 63.3178 42.952C63.3178 41.608 64.1438 40.81 65.3338 40.628V40.558C64.2138 40.376 63.6538 39.508 63.6538 38.444C63.6538 36.764 64.8998 36.022 66.8318 36.022H68.3158V37.408H66.6078ZM66.9158 44.254C68.6238 44.254 69.0718 43.792 69.0718 42.462V41.272H66.6638C65.4598 41.272 64.8438 41.622 64.8438 42.798C64.8438 43.89 65.3338 44.254 66.9158 44.254ZM77.1398 45.5H75.6278V36.12H79.6598C81.7318 36.12 83.0338 37.142 83.0338 38.92C83.0338 40.474 82.0818 41.412 80.4298 41.496V41.608C81.1158 41.832 81.5218 42.252 81.8718 42.896L83.2718 45.5H81.5218L80.1918 43.078C79.7578 42.266 79.3658 41.888 78.2458 41.888H77.1398V45.5ZM77.1398 37.478V40.642H79.8418C81.0598 40.642 81.5218 40.194 81.5218 39.06C81.5218 37.954 81.0598 37.478 79.8418 37.478H77.1398ZM87.0196 45.64C84.7236 45.64 83.6456 44.184 83.6456 42.014C83.6456 39.858 84.9336 38.402 87.0056 38.402C88.8816 38.402 90.1976 39.522 90.1976 41.426C90.1976 41.79 90.1556 42.168 90.1136 42.378H85.0596C85.1156 43.652 85.5776 44.296 87.0336 44.296C88.1956 44.296 88.6436 43.904 88.6436 43.274V43.162H90.1416V43.288C90.1416 44.716 88.8956 45.64 87.0196 45.64ZM86.9776 39.676C85.6616 39.676 85.1576 40.292 85.0736 41.37H88.7556C88.8116 40.18 88.1676 39.676 86.9776 39.676ZM94.2478 45.5C92.6938 45.5 91.8818 44.926 91.8818 43.358V39.802H90.7198V38.542H91.9098L92.2318 36.82H93.3938V38.542H95.4938V39.802H93.3938V43.288C93.3938 44.016 93.7018 44.142 94.6398 44.142H95.4938V45.374C95.1998 45.444 94.7238 45.5 94.2478 45.5ZM98.0431 45.5H96.5311V38.5H97.9171V39.606H97.9871C98.2671 38.962 98.9111 38.402 99.9331 38.402C101.389 38.402 101.949 39.466 101.949 40.768V41.23H100.437V40.95C100.437 40.026 100.171 39.69 99.2891 39.69C98.3791 39.69 98.0431 40.04 98.0431 40.964V45.5ZM104.656 45.64C103.41 45.64 102.444 44.996 102.444 43.778C102.444 42.63 103.284 42.028 104.768 41.818L107.204 41.454V41.076C107.204 40.04 106.728 39.732 105.636 39.732C104.53 39.732 104.096 40.082 104.096 41.006V41.216H102.64V41.076C102.64 39.522 103.858 38.402 105.72 38.402C107.666 38.402 108.646 39.578 108.646 41.272V45.5H107.246V44.408H107.176C106.77 45.066 105.972 45.64 104.656 45.64ZM103.914 43.666C103.914 44.212 104.264 44.436 105.146 44.436C106.126 44.436 107.204 44.044 107.204 42.644V42.518L104.992 42.854C104.194 42.966 103.914 43.148 103.914 43.666ZM111.508 37.66H110.01L109.996 36.12H111.508V37.66ZM111.522 45.5H110.01V38.5H111.522V45.5ZM114.422 45.5H112.91V38.542H114.296V39.844H114.352C114.674 39.102 115.416 38.402 116.774 38.402C118.58 38.402 119.392 39.55 119.392 41.132V45.5H117.88V41.468C117.88 40.222 117.488 39.704 116.214 39.704C114.982 39.704 114.422 40.18 114.422 41.482V45.5ZM122.254 37.66H120.756L120.742 36.12H122.254V37.66ZM122.268 45.5H120.756V38.5H122.268V45.5ZM125.168 45.5H123.656V38.542H125.042V39.844H125.098C125.42 39.102 126.162 38.402 127.52 38.402C129.326 38.402 130.138 39.55 130.138 41.132V45.5H128.626V41.468C128.626 40.222 128.234 39.704 126.96 39.704C125.728 39.704 125.168 40.18 125.168 41.482V45.5ZM134.26 44.842C132.342 44.842 131.278 43.582 131.278 41.622C131.278 39.662 132.356 38.402 134.316 38.402C135.436 38.402 136.304 38.878 136.64 39.69H136.696V38.542H138.082V44.996C138.082 47.054 136.878 48.02 134.848 48.02C132.874 48.02 131.642 47.082 131.642 45.402H133.14C133.14 46.354 133.49 46.676 134.89 46.676C136.248 46.676 136.584 46.284 136.584 44.996V43.61H136.528C136.206 44.282 135.394 44.842 134.26 44.842ZM132.79 41.622C132.79 43.05 133.378 43.554 134.694 43.554C135.828 43.554 136.584 43.008 136.584 41.832V41.398C136.584 40.236 135.828 39.69 134.666 39.69C133.364 39.69 132.79 40.194 132.79 41.622Z" fill="#071B2C"/>
<circle cx="226.025" cy="31.5" r="30.9749" fill="#E9E6F6"/>
<path d="M213.952 36.0003C213.994 35.5999 214.285 35.2771 214.865 34.6317L216.143 33.2035C216.455 32.8082 216.676 32.1195 216.676 31.4998C216.676 30.8805 216.455 30.1916 216.143 29.7964L214.865 28.3682C214.285 27.7228 213.994 27.4001 213.952 26.9996C213.91 26.5991 214.127 26.2229 214.561 25.4705L215.172 24.4092C215.635 23.6066 215.866 23.2052 216.259 23.0452C216.653 22.8851 217.098 23.0114 217.988 23.264L219.5 23.6898C220.068 23.8209 220.664 23.7465 221.183 23.48L221.6 23.2391C222.045 22.9542 222.387 22.534 222.577 22.0402L222.991 20.8044C223.263 19.9867 223.399 19.5778 223.723 19.3439C224.046 19.11 224.477 19.11 225.337 19.11H226.718C227.578 19.11 228.009 19.11 228.332 19.3439C228.656 19.5778 228.792 19.9867 229.064 20.8044L229.478 22.0402C229.668 22.534 230.01 22.9542 230.455 23.2391L230.872 23.48C231.391 23.7465 231.987 23.8209 232.555 23.6898L234.067 23.264C234.957 23.0114 235.402 22.8851 235.796 23.0452C236.189 23.2052 236.42 23.6066 236.883 24.4092L237.494 25.4705C237.928 26.2229 238.145 26.5991 238.103 26.9996C238.06 27.4001 237.77 27.7228 237.19 28.3682L235.912 29.7964C235.6 30.1916 235.379 30.8805 235.379 31.4998C235.379 32.1195 235.6 32.8082 235.912 33.2035L237.19 34.6317C237.77 35.2771 238.06 35.5999 238.103 36.0003C238.145 36.4009 237.928 36.777 237.494 37.5294L236.883 38.5907C236.42 39.3933 236.189 39.7947 235.796 39.9547C235.402 40.1148 234.957 39.9885 234.067 39.7359L232.555 39.31C231.987 39.179 231.391 39.2534 230.872 39.52L230.455 39.7609C230.01 40.0459 229.668 40.4659 229.478 40.9598L229.064 42.1957C228.792 43.0134 228.656 43.4223 228.332 43.6561C228.009 43.89 227.578 43.89 226.718 43.89H225.337C224.477 43.89 224.046 43.89 223.723 43.6561C223.399 43.4223 223.263 43.0134 222.991 42.1957" stroke="#071B2C" stroke-width="1.8585" stroke-linecap="round"/>
<path d="M214.548 39.9002C215.886 38.5621 220.436 34.0571 220.882 33.5367C221.353 32.9866 220.971 32.2432 221.199 29.9387C221.309 28.8236 221.549 27.9882 222.235 27.3665C223.053 26.5934 223.722 26.5934 226.026 26.5414C228.033 26.5934 228.271 26.3704 228.479 26.8907C228.628 27.2624 228.182 27.4855 227.647 28.0802C226.457 29.2696 225.759 29.8643 225.692 30.236C225.209 31.8715 227.112 32.8379 228.152 31.7972C228.546 31.4035 230.368 29.567 230.546 29.4183C230.68 29.2993 231 29.305 231.156 29.4926C231.29 29.6241 231.304 29.6413 231.29 30.236C231.276 30.7865 231.282 31.5769 231.284 32.3919C231.286 33.4479 231.23 34.6221 230.784 35.2168C229.892 36.5549 228.405 36.6293 227.067 36.6887C225.803 36.7631 224.762 36.6293 224.435 36.8671C224.168 37.001 222.755 38.4878 221.045 40.1976L217.998 43.2455C215.47 45.2527 212.69 42.1304 214.548 39.9002Z" stroke="#5236FF" stroke-width="1.8585" stroke-linecap="round"/>
<path d="M20.0538 125.5H18.5418V116.12H22.5318C24.4918 116.12 25.9338 117.282 25.9338 119.298C25.9338 121.314 24.4918 122.476 22.5318 122.476H20.0538V125.5ZM22.7138 117.478H20.0538V121.118H22.7138C23.9458 121.118 24.4358 120.642 24.4358 119.298C24.4358 117.954 23.9458 117.478 22.7138 117.478ZM28.4474 125.5H26.9354V118.5H28.3214V119.606H28.3914C28.6714 118.962 29.3154 118.402 30.3374 118.402C31.7934 118.402 32.3534 119.466 32.3534 120.768V121.23H30.8414V120.95C30.8414 120.026 30.5754 119.69 29.6934 119.69C28.7834 119.69 28.4474 120.04 28.4474 120.964V125.5ZM36.5121 125.64C34.3701 125.64 33.0401 124.184 33.0401 122.014C33.0401 119.858 34.3701 118.402 36.5121 118.402C38.6401 118.402 39.9281 119.858 39.9281 122.014C39.9281 124.184 38.6401 125.64 36.5121 125.64ZM36.5121 124.296C37.9681 124.296 38.4721 123.582 38.4721 122.014C38.4721 120.46 37.9681 119.746 36.5121 119.746C35.0421 119.746 34.5241 120.46 34.5241 122.014C34.5241 123.582 35.0421 124.296 36.5121 124.296ZM42.4581 125.5H41.0721V116.12H42.5841V119.648H42.6121C42.9201 119.018 43.7181 118.402 44.9501 118.402C46.8681 118.402 47.8761 119.816 47.8761 122.014C47.8761 124.226 46.8121 125.64 44.8661 125.64C43.6621 125.64 42.8501 125.164 42.5141 124.352H42.4581V125.5ZM42.5841 122.644C42.5841 123.806 43.2561 124.352 44.4741 124.352C45.8181 124.352 46.3781 123.736 46.3781 122.014C46.3781 120.306 45.8041 119.69 44.4741 119.69C43.2561 119.69 42.5841 120.236 42.5841 121.398V122.644ZM50.5411 125.5H49.0291V116.12H50.5411V125.5ZM55.0626 125.64C52.7666 125.64 51.6886 124.184 51.6886 122.014C51.6886 119.858 52.9766 118.402 55.0486 118.402C56.9246 118.402 58.2406 119.522 58.2406 121.426C58.2406 121.79 58.1986 122.168 58.1566 122.378H53.1026C53.1586 123.652 53.6206 124.296 55.0766 124.296C56.2386 124.296 56.6866 123.904 56.6866 123.274V123.162H58.1846V123.288C58.1846 124.716 56.9386 125.64 55.0626 125.64ZM55.0206 119.676C53.7046 119.676 53.2006 120.292 53.1166 121.37H56.7986C56.8546 120.18 56.2106 119.676 55.0206 119.676ZM60.9591 125.5H59.4471V118.542H60.8331V119.844H60.8891C61.2111 119.102 61.9391 118.402 63.2691 118.402C64.4871 118.402 65.2431 118.962 65.5791 119.844H65.6211C65.9431 119.116 66.6571 118.402 68.0291 118.402C69.8211 118.402 70.6191 119.55 70.6191 121.132V125.5H69.1071V121.468C69.1071 120.222 68.7291 119.704 67.4691 119.704C66.3211 119.704 65.7891 120.18 65.7891 121.454V125.5H64.2771V121.468C64.2771 120.222 63.8991 119.704 62.6391 119.704C61.4911 119.704 60.9591 120.18 60.9591 121.44V125.5ZM21.8738 144.5H18.5418V135.12H21.8738C24.7718 135.12 26.6198 136.912 26.6198 139.81C26.6198 142.708 24.7718 144.5 21.8738 144.5ZM21.8738 136.478H20.0538V143.142H21.8738C24.1138 143.142 25.0098 142.218 25.0098 139.81C25.0098 137.402 24.1138 136.478 21.8738 136.478ZM30.918 144.64C28.622 144.64 27.544 143.184 27.544 141.014C27.544 138.858 28.832 137.402 30.904 137.402C32.78 137.402 34.096 138.522 34.096 140.426C34.096 140.79 34.054 141.168 34.012 141.378H28.958C29.014 142.652 29.476 143.296 30.932 143.296C32.094 143.296 32.542 142.904 32.542 142.274V142.162H34.04V142.288C34.04 143.716 32.794 144.64 30.918 144.64ZM30.876 138.676C29.56 138.676 29.056 139.292 28.972 140.37H32.654C32.71 139.18 32.066 138.676 30.876 138.676ZM37.1102 144.5H35.5982V138.802H34.5762V137.542H35.5982C35.6262 135.974 36.5642 135.12 38.3282 135.12H38.8882V136.324H38.0482C37.3762 136.324 37.0682 136.576 37.0682 137.164V137.542H38.8882V138.802H37.1102V144.5ZM41.1052 136.66H39.6072L39.5932 135.12H41.1052V136.66ZM41.1192 144.5H39.6072V137.5H41.1192V144.5ZM44.0196 144.5H42.5076V137.542H43.8936V138.844H43.9496C44.2716 138.102 45.0136 137.402 46.3716 137.402C48.1776 137.402 48.9896 138.55 48.9896 140.132V144.5H47.4776V140.468C47.4776 139.222 47.0856 138.704 45.8116 138.704C44.5796 138.704 44.0196 139.18 44.0196 140.482V144.5ZM51.8513 136.66H50.3533L50.3393 135.12H51.8513V136.66ZM51.8653 144.5H50.3533V137.5H51.8653V144.5ZM56.111 144.5C54.557 144.5 53.745 143.926 53.745 142.358V138.802H52.583V137.542H53.773L54.095 135.82H55.257V137.542H57.357V138.802H55.257V142.288C55.257 143.016 55.565 143.142 56.503 143.142H57.357V144.374C57.063 144.444 56.587 144.5 56.111 144.5ZM59.7537 136.66H58.2557L58.2417 135.12H59.7537V136.66ZM59.7677 144.5H58.2557V137.5H59.7677V144.5ZM64.2797 144.64C62.1377 144.64 60.8077 143.184 60.8077 141.014C60.8077 138.858 62.1377 137.402 64.2797 137.402C66.4077 137.402 67.6957 138.858 67.6957 141.014C67.6957 143.184 66.4077 144.64 64.2797 144.64ZM64.2797 143.296C65.7357 143.296 66.2397 142.582 66.2397 141.014C66.2397 139.46 65.7357 138.746 64.2797 138.746C62.8097 138.746 62.2917 139.46 62.2917 141.014C62.2917 142.582 62.8097 143.296 64.2797 143.296ZM70.338 144.5H68.826V137.542H70.212V138.844H70.268C70.59 138.102 71.332 137.402 72.69 137.402C74.496 137.402 75.308 138.55 75.308 140.132V144.5H73.796V140.468C73.796 139.222 73.404 138.704 72.13 138.704C70.898 138.704 70.338 139.18 70.338 140.482V144.5Z" fill="#071B2C"/>
<circle cx="117.025" cy="130.5" r="30.9749" fill="#E9E6F6"/>
<path d="M120.343 128.01V128.022M117.865 120.585C117.865 119.218 118.974 118.11 120.343 118.11C121.711 118.11 122.821 119.218 122.821 120.585C122.821 121.3 122.517 121.944 122.032 122.396C121.281 123.095 120.343 123.891 120.343 124.916" stroke="#5236FF" stroke-width="1.8585" stroke-linecap="round" stroke-linejoin="round"/>
<path d="M114.033 119.7C112.534 118.41 111.531 117.823 110.49 118.246C109.123 118.802 109.006 120.568 108.786 123.886L108.086 133.456C107.919 135.712 107.836 136.84 108.285 137.406C108.593 137.795 109.044 138.042 109.535 138.091C110.251 138.163 111.146 137.48 112.936 136.114C113.69 135.538 114.067 135.25 114.444 135.231C114.706 135.218 114.965 135.29 115.183 135.437C115.497 135.647 115.674 136.089 116.028 136.973L117.865 141.552C118.077 142.082 118.184 142.346 118.353 142.52C118.581 142.755 118.892 142.888 119.218 142.89C119.46 142.892 119.722 142.785 120.247 142.571C120.773 142.357 121.035 142.25 121.208 142.08C121.441 141.85 121.573 141.537 121.575 141.209C121.577 140.965 121.471 140.7 121.259 140.171L119.422 135.592C119.067 134.708 118.89 134.266 118.97 133.895C119.026 133.637 119.163 133.404 119.36 133.231C119.644 132.981 120.114 132.924 121.053 132.81C123.283 132.541 124.398 132.406 124.864 131.853C125.183 131.474 125.337 130.981 125.29 130.486C125.244 129.995 124.841 129.489 124.06 128.74" stroke="#071B2C" stroke-width="1.8585" stroke-linecap="round" stroke-linejoin="round"/>
<path d="M273.588 191H270.18V158.84H274.98L284.1 178.808L286.98 185.768H287.268L290.148 178.808L299.172 158.84H304.02V191H300.564V168.728L300.708 164.072H300.42L298.452 168.728L289.14 189.08H285.012L275.7 168.728L273.732 164.072H273.444L273.588 168.728V191ZM331.142 191H310.118V158.84H313.526V187.88H331.142V191Z" fill="black"/>
<path d="M236.103 241H215.079V208.84H218.487V237.88H236.103V241ZM241.866 214.12H238.458V208.84H241.866V214.12ZM241.866 241H238.458V217H241.866V241ZM251.413 241H248.005V220.264H244.501V217.288H248.005V216.376C248.005 211.48 250.741 208.84 255.973 208.84H258.085V211.672H255.349C252.613 211.672 251.365 212.824 251.365 215.224V217.288H258.085V220.264H251.413V241ZM269.777 241.48C262.481 241.48 258.689 236.344 258.689 229.144C258.689 221.944 262.961 216.808 269.729 216.808C275.441 216.808 280.145 220.264 280.145 227.272C280.145 228.376 280.049 229.432 279.905 230.104H261.953C262.097 235.336 264.161 238.408 269.825 238.408C274.625 238.408 276.545 236.248 276.545 233.368V233.08H279.953V233.416C279.953 237.976 275.825 241.48 269.777 241.48ZM269.633 219.784C264.353 219.784 262.241 222.808 261.953 227.608H276.881C277.073 221.992 274.289 219.784 269.633 219.784ZM295.093 241.528C288.085 241.528 283.861 236.392 283.861 229.192C283.861 221.944 288.085 216.808 295.093 216.808C301.141 216.808 305.221 220.696 305.221 226.264V226.6H301.813V226.312C301.813 222.184 299.605 219.928 294.949 219.928C289.525 219.928 287.269 223.336 287.269 229.192C287.269 235 289.525 238.408 294.949 238.408C299.605 238.408 301.813 236.152 301.813 232.024V231.736H305.221V232.072C305.221 237.64 301.141 241.528 295.093 241.528ZM311.477 249.16C310.325 249.16 309.077 248.968 308.405 248.824V246.04H311.093C313.253 246.04 313.973 245.608 314.837 243.736L316.181 240.664L306.005 217.288H309.749L315.317 230.488L317.813 236.296H318.101L320.453 230.488L325.685 217.288H329.429L317.861 244.792C316.325 248.392 314.069 249.16 311.477 249.16ZM341.452 241.528C334.444 241.528 330.22 236.392 330.22 229.192C330.22 221.944 334.444 216.808 341.452 216.808C347.5 216.808 351.58 220.696 351.58 226.264V226.6H348.172V226.312C348.172 222.184 345.964 219.928 341.308 219.928C335.884 219.928 333.628 223.336 333.628 229.192C333.628 235 335.884 238.408 341.308 238.408C345.964 238.408 348.172 236.152 348.172 232.024V231.736H351.58V232.072C351.58 237.64 347.5 241.528 341.452 241.528ZM359.292 241H355.836V208.84H359.292V241ZM374.589 241.48C367.293 241.48 363.501 236.344 363.501 229.144C363.501 221.944 367.773 216.808 374.541 216.808C380.253 216.808 384.957 220.264 384.957 227.272C384.957 228.376 384.861 229.432 384.717 230.104H366.765C366.909 235.336 368.973 238.408 374.637 238.408C379.437 238.408 381.357 236.248 381.357 233.368V233.08H384.765V233.416C384.765 237.976 380.637 241.48 374.589 241.48ZM374.445 219.784C369.165 219.784 367.053 222.808 366.765 227.608H381.693C381.885 221.992 379.101 219.784 374.445 219.784Z" fill="#5236FF"/>
</svg>
