<svg width="583" height="309" viewBox="0 0 583 309" fill="none" xmlns="http://www.w3.org/2000/svg">
<g opacity="0.999971">
<rect x="50.625" y="1.125" width="215.75" height="46.75" rx="23.375" fill="white"/>
<rect x="50.625" y="1.125" width="215.75" height="46.75" rx="23.375" fill="url(#paint0_linear_5173_16123)"/>
<rect x="50.625" y="1.125" width="215.75" height="46.75" rx="23.375" stroke="white" stroke-width="1.25"/>
<path d="M92.67 30.68C89.322 30.68 87.864 28.916 87.864 26.846V26.576H89.142V26.774C89.142 28.448 90.024 29.492 92.706 29.492C94.704 29.492 95.64 28.826 95.64 27.44C95.64 26.09 95.028 25.586 93.21 25.19L91.122 24.722C89.232 24.326 87.936 23.462 87.936 21.518C87.936 19.772 89.376 18.26 92.238 18.26C95.37 18.26 96.738 20.168 96.738 22.13V22.364H95.46V22.166C95.46 20.51 94.596 19.448 92.22 19.448C90.222 19.448 89.232 20.114 89.232 21.428C89.232 22.796 89.898 23.192 91.662 23.606L93.75 24.092C95.748 24.542 96.936 25.478 96.936 27.368C96.936 29.204 95.514 30.68 92.67 30.68ZM102.445 30.68C99.8346 30.68 98.1246 28.754 98.1246 26.054C98.1246 23.354 99.8346 21.428 102.445 21.428C105.037 21.428 106.693 23.354 106.693 26.054C106.693 28.754 105.037 30.68 102.445 30.68ZM102.445 29.528C104.587 29.528 105.433 28.268 105.433 26.054C105.433 23.84 104.587 22.598 102.445 22.598C100.267 22.598 99.4026 23.84 99.4026 26.054C99.4026 28.268 100.267 29.528 102.445 29.528ZM109.898 30.5H108.62V22.724H107.306V21.608H108.62V21.266C108.62 19.43 109.646 18.44 111.608 18.44H112.4V19.502H111.374C110.348 19.502 109.88 19.934 109.88 20.834V21.608H113.444L113.75 19.34H114.722V21.608H117.53V22.724H114.722V28.052C114.722 29.096 115.208 29.33 116.36 29.33H117.53V30.374C117.224 30.428 116.666 30.518 116.018 30.518C114.38 30.518 113.426 29.87 113.426 27.98V22.724H109.898V30.5ZM121.569 30.5H119.877L117.591 21.608H118.959L120.363 27.404L120.723 29.33H120.831L121.425 27.404L123.459 21.608H125.169L127.239 27.404L127.797 29.33H127.905L128.265 27.404L129.669 21.608H131.001L128.715 30.5H127.023L125.025 24.884L124.359 22.778H124.251L123.585 24.884L121.569 30.5ZM134.278 30.68C132.658 30.68 131.434 29.852 131.434 28.358C131.434 26.81 132.586 26.126 134.53 25.856L137.662 25.424V24.776C137.662 23.21 136.996 22.58 135.322 22.58C133.702 22.58 132.946 23.21 132.946 24.632V24.902H131.704V24.758C131.704 22.904 133.126 21.428 135.43 21.428C137.806 21.428 138.886 22.958 138.886 24.938V30.5H137.716V28.862L137.626 28.844C137.104 29.87 135.97 30.68 134.278 30.68ZM132.694 28.268C132.694 29.186 133.27 29.6 134.638 29.6C136.168 29.6 137.662 28.808 137.662 26.702V26.396L134.638 26.828C133.216 27.026 132.694 27.314 132.694 28.268ZM142.161 30.5H140.865V21.5H142.035V22.994H142.125C142.413 22.166 143.277 21.428 144.591 21.428C146.427 21.428 147.129 22.742 147.129 24.272V24.776H145.833V24.47C145.833 23.084 145.401 22.544 144.123 22.544C142.737 22.544 142.161 23.174 142.161 24.614V30.5ZM152.24 30.68C149.504 30.68 148.082 28.754 148.082 26.054C148.082 23.354 149.684 21.428 152.222 21.428C154.364 21.428 156.128 22.724 156.128 25.352C156.128 25.766 156.092 26.162 156.038 26.414H149.306C149.36 28.376 150.134 29.528 152.258 29.528C154.058 29.528 154.778 28.718 154.778 27.638V27.53H156.056V27.656C156.056 29.366 154.508 30.68 152.24 30.68ZM152.186 22.544C150.206 22.544 149.414 23.678 149.306 25.478H154.904C154.976 23.372 153.932 22.544 152.186 22.544ZM169.447 30.5H161.329V18.44H169.447V19.61H162.607V23.84H169.177V25.028H162.607V29.33H169.447V30.5ZM172.466 30.5H171.17V21.608H172.34V23.444H172.394C172.736 22.508 173.744 21.428 175.58 21.428C177.866 21.428 178.91 22.904 178.91 25.046V30.5H177.632V25.334C177.632 23.408 177.002 22.562 175.184 22.562C173.42 22.562 172.466 23.39 172.466 25.37V30.5ZM184.33 29.708C181.882 29.708 180.478 28.088 180.478 25.568C180.478 23.048 181.864 21.428 184.348 21.428C185.914 21.428 187.102 22.202 187.498 23.336H187.57V21.608H188.722V30.122C188.722 32.534 187.174 33.74 184.834 33.74C182.566 33.74 180.964 32.552 180.964 30.5H182.242C182.242 31.958 182.98 32.588 184.852 32.588C186.76 32.588 187.426 31.904 187.426 30.122V27.854H187.408C186.994 28.88 185.878 29.708 184.33 29.708ZM181.774 25.568C181.774 27.926 182.908 28.592 184.636 28.592C186.238 28.592 187.426 27.674 187.426 25.838V25.298C187.426 23.462 186.22 22.544 184.564 22.544C182.872 22.544 181.774 23.228 181.774 25.568ZM191.959 20.42H190.681V18.44H191.959V20.42ZM191.959 30.5H190.681V21.5H191.959V30.5ZM195.212 30.5H193.916V21.608H195.086V23.444H195.14C195.482 22.508 196.49 21.428 198.326 21.428C200.612 21.428 201.656 22.904 201.656 25.046V30.5H200.378V25.334C200.378 23.408 199.748 22.562 197.93 22.562C196.166 22.562 195.212 23.39 195.212 25.37V30.5ZM207.382 30.68C204.646 30.68 203.224 28.754 203.224 26.054C203.224 23.354 204.826 21.428 207.364 21.428C209.506 21.428 211.27 22.724 211.27 25.352C211.27 25.766 211.234 26.162 211.18 26.414H204.448C204.502 28.376 205.276 29.528 207.4 29.528C209.2 29.528 209.92 28.718 209.92 27.638V27.53H211.198V27.656C211.198 29.366 209.65 30.68 207.382 30.68ZM207.328 22.544C205.348 22.544 204.556 23.678 204.448 25.478H210.046C210.118 23.372 209.074 22.544 207.328 22.544ZM216.822 30.68C214.086 30.68 212.664 28.754 212.664 26.054C212.664 23.354 214.266 21.428 216.804 21.428C218.946 21.428 220.71 22.724 220.71 25.352C220.71 25.766 220.674 26.162 220.62 26.414H213.888C213.942 28.376 214.716 29.528 216.84 29.528C218.64 29.528 219.36 28.718 219.36 27.638V27.53H220.638V27.656C220.638 29.366 219.09 30.68 216.822 30.68ZM216.768 22.544C214.788 22.544 213.996 23.678 213.888 25.478H219.486C219.558 23.372 218.514 22.544 216.768 22.544ZM223.671 30.5H222.375V21.5H223.545V22.994H223.635C223.923 22.166 224.787 21.428 226.101 21.428C227.937 21.428 228.639 22.742 228.639 24.272V24.776H227.343V24.47C227.343 23.084 226.911 22.544 225.633 22.544C224.247 22.544 223.671 23.174 223.671 24.614V30.5Z" fill="black"/>
</g>
<g opacity="0.999971">
<rect x="90.625" y="73.125" width="193.75" height="46.75" rx="23.375" fill="white"/>
<rect x="90.625" y="73.125" width="193.75" height="46.75" rx="23.375" fill="url(#paint1_linear_5173_16123)"/>
<rect x="90.625" y="73.125" width="193.75" height="46.75" rx="23.375" stroke="white" stroke-width="1.25"/>
<path d="M133.102 102.68C130.024 102.68 128.098 100.898 128.098 97.748V90.44H129.394V97.748C129.394 100.322 130.456 101.438 133.102 101.438C135.712 101.438 136.792 100.322 136.792 97.748V90.44H138.088V97.748C138.088 100.898 136.144 102.68 133.102 102.68ZM141.646 102.5H140.368V90.44H141.646V102.5ZM143.667 102.86H142.425L148.905 90.08H150.147L143.667 102.86ZM155.883 102.68C152.805 102.68 150.879 100.898 150.879 97.748V90.44H152.175V97.748C152.175 100.322 153.237 101.438 155.883 101.438C158.493 101.438 159.573 100.322 159.573 97.748V90.44H160.869V97.748C160.869 100.898 158.925 102.68 155.883 102.68ZM163.794 102.5H162.246L166.638 96.452V96.344L162.246 90.44H163.812L167.61 95.534H167.718L171.498 90.44H173.046L168.654 96.344V96.434L173.046 102.5H171.48L167.682 97.262H167.592L163.794 102.5ZM182.686 102.5H178.618V90.44H182.686C186.322 90.44 188.608 92.78 188.608 96.47C188.608 100.16 186.322 102.5 182.686 102.5ZM182.686 91.61H179.896V101.33H182.686C185.89 101.33 187.258 99.746 187.258 96.47C187.258 93.194 185.89 91.61 182.686 91.61ZM194.068 102.68C191.332 102.68 189.91 100.754 189.91 98.054C189.91 95.354 191.512 93.428 194.05 93.428C196.192 93.428 197.956 94.724 197.956 97.352C197.956 97.766 197.92 98.162 197.866 98.414H191.134C191.188 100.376 191.962 101.528 194.086 101.528C195.886 101.528 196.606 100.718 196.606 99.638V99.53H197.884V99.656C197.884 101.366 196.336 102.68 194.068 102.68ZM194.014 94.544C192.034 94.544 191.242 95.678 191.134 97.478H196.732C196.804 95.372 195.76 94.544 194.014 94.544ZM203.309 102.68C200.879 102.68 199.547 101.654 199.547 99.584V99.548H200.807V99.764C200.807 100.988 201.311 101.582 203.327 101.582C204.983 101.582 205.415 101.114 205.415 100.214C205.415 99.314 204.857 98.99 203.507 98.738L202.031 98.486C200.591 98.216 199.547 97.55 199.547 95.984C199.547 94.454 200.843 93.428 202.949 93.428C204.983 93.428 206.477 94.472 206.477 96.47V96.56H205.235V96.416C205.235 95.354 204.821 94.544 202.913 94.544C201.293 94.544 200.789 95.066 200.789 95.966C200.789 96.866 201.239 97.172 202.571 97.424L204.083 97.712C205.631 98 206.657 98.684 206.657 100.16C206.657 101.744 205.361 102.68 203.309 102.68ZM209.599 92.42H208.321V90.44H209.599V92.42ZM209.599 102.5H208.321V93.5H209.599V102.5ZM214.961 101.708C212.513 101.708 211.109 100.088 211.109 97.568C211.109 95.048 212.495 93.428 214.979 93.428C216.545 93.428 217.733 94.202 218.129 95.336H218.201V93.608H219.353V102.122C219.353 104.534 217.805 105.74 215.465 105.74C213.197 105.74 211.595 104.552 211.595 102.5H212.873C212.873 103.958 213.611 104.588 215.483 104.588C217.391 104.588 218.057 103.904 218.057 102.122V99.854H218.039C217.625 100.88 216.509 101.708 214.961 101.708ZM212.405 97.568C212.405 99.926 213.539 100.592 215.267 100.592C216.869 100.592 218.057 99.674 218.057 97.838V97.298C218.057 95.462 216.851 94.544 215.195 94.544C213.503 94.544 212.405 95.228 212.405 97.568ZM222.661 102.5H221.365V93.608H222.535V95.444H222.589C222.931 94.508 223.939 93.428 225.775 93.428C228.061 93.428 229.105 94.904 229.105 97.046V102.5H227.827V97.334C227.827 95.408 227.197 94.562 225.379 94.562C223.615 94.562 222.661 95.39 222.661 97.37V102.5ZM234.831 102.68C232.095 102.68 230.673 100.754 230.673 98.054C230.673 95.354 232.275 93.428 234.813 93.428C236.955 93.428 238.719 94.724 238.719 97.352C238.719 97.766 238.683 98.162 238.629 98.414H231.897C231.951 100.376 232.725 101.528 234.849 101.528C236.649 101.528 237.369 100.718 237.369 99.638V99.53H238.647V99.656C238.647 101.366 237.099 102.68 234.831 102.68ZM234.777 94.544C232.797 94.544 232.005 95.678 231.897 97.478H237.495C237.567 95.372 236.523 94.544 234.777 94.544ZM241.681 102.5H240.385V93.5H241.555V94.994H241.645C241.933 94.166 242.797 93.428 244.111 93.428C245.947 93.428 246.649 94.742 246.649 96.272V96.776H245.353V96.47C245.353 95.084 244.921 94.544 243.643 94.544C242.257 94.544 241.681 95.174 241.681 96.614V102.5Z" fill="black"/>
</g>
<g opacity="0.999971">
<rect x="0.625" y="145.125" width="133.75" height="46.75" rx="23.375" fill="white"/>
<rect x="0.625" y="145.125" width="133.75" height="46.75" rx="23.375" fill="url(#paint2_linear_5173_16123)"/>
<rect x="0.625" y="145.125" width="133.75" height="46.75" rx="23.375" stroke="white" stroke-width="1.25"/>
<path d="M42.202 174.5H38.134V162.44H42.202C45.838 162.44 48.124 164.78 48.124 168.47C48.124 172.16 45.838 174.5 42.202 174.5ZM42.202 163.61H39.412V173.33H42.202C45.406 173.33 46.774 171.746 46.774 168.47C46.774 165.194 45.406 163.61 42.202 163.61ZM53.5833 174.68C50.8473 174.68 49.4253 172.754 49.4253 170.054C49.4253 167.354 51.0273 165.428 53.5653 165.428C55.7073 165.428 57.4713 166.724 57.4713 169.352C57.4713 169.766 57.4353 170.162 57.3813 170.414H50.6493C50.7033 172.376 51.4773 173.528 53.6013 173.528C55.4013 173.528 56.1213 172.718 56.1213 171.638V171.53H57.3993V171.656C57.3993 173.366 55.8513 174.68 53.5833 174.68ZM53.5293 166.544C51.5493 166.544 50.7573 167.678 50.6493 169.478H56.2473C56.3193 167.372 55.2753 166.544 53.5293 166.544ZM63.1418 174.5H61.5398L57.9038 165.608H59.3078L62.3138 173.24H62.4038L65.3918 165.608H66.7778L63.1418 174.5ZM73.11 174.68C69.798 174.68 67.602 172.232 67.602 168.47C67.602 164.708 69.798 162.26 73.11 162.26C76.404 162.26 78.6 164.708 78.6 168.47C78.6 172.232 76.404 174.68 73.11 174.68ZM73.11 173.438C75.936 173.438 77.25 171.818 77.25 168.47C77.25 165.122 75.936 163.502 73.11 163.502C70.284 163.502 68.952 165.122 68.952 168.47C68.952 171.818 70.284 173.438 73.11 173.438ZM81.5794 177.632H80.2834V165.608H81.4534V167.336H81.5074C81.9034 166.202 82.9654 165.428 84.6394 165.428C87.1414 165.428 88.5274 167.246 88.5274 170.072C88.5274 172.862 87.2134 174.68 84.7834 174.68C83.0734 174.68 81.9754 173.78 81.5794 172.808V177.632ZM81.5794 170.828C81.5794 172.646 82.6594 173.564 84.4234 173.564C86.1514 173.564 87.2314 172.772 87.2314 170.072C87.2314 167.336 86.1694 166.544 84.4234 166.544C82.6594 166.544 81.5794 167.462 81.5794 169.298V170.828ZM93.7799 174.68C91.3499 174.68 90.0179 173.654 90.0179 171.584V171.548H91.2779V171.764C91.2779 172.988 91.7819 173.582 93.7979 173.582C95.4539 173.582 95.8859 173.114 95.8859 172.214C95.8859 171.314 95.3279 170.99 93.9779 170.738L92.5019 170.486C91.0619 170.216 90.0179 169.55 90.0179 167.984C90.0179 166.454 91.3139 165.428 93.4199 165.428C95.4539 165.428 96.9479 166.472 96.9479 168.47V168.56H95.7059V168.416C95.7059 167.354 95.2919 166.544 93.3839 166.544C91.7639 166.544 91.2599 167.066 91.2599 167.966C91.2599 168.866 91.7099 169.172 93.0419 169.424L94.5539 169.712C96.1019 170 97.1279 170.684 97.1279 172.16C97.1279 173.744 95.8319 174.68 93.7799 174.68Z" fill="black"/>
</g>
<g opacity="0.999971">
<rect x="162.625" y="165.125" width="201.75" height="46.75" rx="23.375" fill="white"/>
<rect x="162.625" y="165.125" width="201.75" height="46.75" rx="23.375" fill="url(#paint3_linear_5173_16123)"/>
<rect x="162.625" y="165.125" width="201.75" height="46.75" rx="23.375" stroke="white" stroke-width="1.25"/>
<path d="M201.412 194.5H200.134V182.44H204.85C207.37 182.44 209.224 183.898 209.224 186.4C209.224 188.938 207.37 190.378 204.85 190.378H201.412V194.5ZM205.048 183.61H201.412V189.208H205.048C207.01 189.208 207.928 188.38 207.928 186.4C207.928 184.438 207.01 183.61 205.048 183.61ZM211.851 194.5H210.555V185.5H211.725V186.994H211.815C212.103 186.166 212.967 185.428 214.281 185.428C216.117 185.428 216.819 186.742 216.819 188.272V188.776H215.523V188.47C215.523 187.084 215.091 186.544 213.813 186.544C212.427 186.544 211.851 187.174 211.851 188.614V194.5ZM222.091 194.68C219.481 194.68 217.771 192.754 217.771 190.054C217.771 187.354 219.481 185.428 222.091 185.428C224.683 185.428 226.339 187.354 226.339 190.054C226.339 192.754 224.683 194.68 222.091 194.68ZM222.091 193.528C224.233 193.528 225.079 192.268 225.079 190.054C225.079 187.84 224.233 186.598 222.091 186.598C219.913 186.598 219.049 187.84 219.049 190.054C219.049 192.268 219.913 193.528 222.091 193.528ZM229.307 184.42H228.011V182.44H229.307V184.42ZM226.283 197.56V196.372H226.913C227.777 196.372 228.011 196.21 228.011 195.418V185.608H229.307V195.112C229.307 197.02 228.335 197.56 226.787 197.56H226.283ZM235.025 194.68C232.289 194.68 230.867 192.754 230.867 190.054C230.867 187.354 232.469 185.428 235.007 185.428C237.149 185.428 238.913 186.724 238.913 189.352C238.913 189.766 238.877 190.162 238.823 190.414H232.091C232.145 192.376 232.919 193.528 235.043 193.528C236.843 193.528 237.563 192.718 237.563 191.638V191.53H238.841V191.656C238.841 193.366 237.293 194.68 235.025 194.68ZM234.971 186.544C232.991 186.544 232.199 187.678 232.091 189.478H237.689C237.761 187.372 236.717 186.544 234.971 186.544ZM244.518 194.698C241.89 194.698 240.306 192.772 240.306 190.072C240.306 187.354 241.89 185.428 244.518 185.428C246.786 185.428 248.316 186.886 248.316 188.974V189.1H247.038V188.992C247.038 187.444 246.21 186.598 244.464 186.598C242.43 186.598 241.584 187.876 241.584 190.072C241.584 192.25 242.43 193.528 244.464 193.528C246.21 193.528 247.038 192.682 247.038 191.134V191.026H248.316V191.152C248.316 193.24 246.786 194.698 244.518 194.698ZM253.137 194.518C251.499 194.518 250.545 193.87 250.545 191.98V186.724H249.051V185.608H250.563L250.869 183.34H251.841V185.608H254.649V186.724H251.841V192.052C251.841 193.096 252.327 193.33 253.479 193.33H254.649V194.374C254.343 194.428 253.785 194.518 253.137 194.518ZM260.668 194.5H259.39V182.44H261.19L264.61 189.928L265.69 192.538H265.798L266.878 189.928L270.262 182.44H272.08V194.5H270.784V186.148L270.838 184.402H270.73L269.992 186.148L266.5 193.78H264.952L261.46 186.148L260.722 184.402H260.614L260.668 186.148V194.5ZM276.635 194.68C275.015 194.68 273.791 193.852 273.791 192.358C273.791 190.81 274.943 190.126 276.887 189.856L280.019 189.424V188.776C280.019 187.21 279.353 186.58 277.679 186.58C276.059 186.58 275.303 187.21 275.303 188.632V188.902H274.061V188.758C274.061 186.904 275.483 185.428 277.787 185.428C280.163 185.428 281.243 186.958 281.243 188.938V194.5H280.073V192.862L279.983 192.844C279.461 193.87 278.327 194.68 276.635 194.68ZM275.051 192.268C275.051 193.186 275.627 193.6 276.995 193.6C278.525 193.6 280.019 192.808 280.019 190.702V190.396L276.995 190.828C275.573 191.026 275.051 191.314 275.051 192.268ZM284.519 194.5H283.223V185.608H284.393V187.444H284.447C284.789 186.508 285.797 185.428 287.633 185.428C289.919 185.428 290.963 186.904 290.963 189.046V194.5H289.685V189.334C289.685 187.408 289.055 186.562 287.237 186.562C285.473 186.562 284.519 187.39 284.519 189.37V194.5ZM295.321 194.68C293.701 194.68 292.477 193.852 292.477 192.358C292.477 190.81 293.629 190.126 295.573 189.856L298.705 189.424V188.776C298.705 187.21 298.039 186.58 296.365 186.58C294.745 186.58 293.989 187.21 293.989 188.632V188.902H292.747V188.758C292.747 186.904 294.169 185.428 296.473 185.428C298.849 185.428 299.929 186.958 299.929 188.938V194.5H298.759V192.862L298.669 192.844C298.147 193.87 297.013 194.68 295.321 194.68ZM293.737 192.268C293.737 193.186 294.313 193.6 295.681 193.6C297.211 193.6 298.705 192.808 298.705 190.702V190.396L295.681 190.828C294.259 191.026 293.737 191.314 293.737 192.268ZM305.365 193.708C302.917 193.708 301.513 192.088 301.513 189.568C301.513 187.048 302.899 185.428 305.383 185.428C306.949 185.428 308.137 186.202 308.533 187.336H308.605V185.608H309.757V194.122C309.757 196.534 308.209 197.74 305.869 197.74C303.601 197.74 301.999 196.552 301.999 194.5H303.277C303.277 195.958 304.015 196.588 305.887 196.588C307.795 196.588 308.461 195.904 308.461 194.122V191.854H308.443C308.029 192.88 306.913 193.708 305.365 193.708ZM302.809 189.568C302.809 191.926 303.943 192.592 305.671 192.592C307.273 192.592 308.461 191.674 308.461 189.838V189.298C308.461 187.462 307.255 186.544 305.599 186.544C303.907 186.544 302.809 187.228 302.809 189.568ZM315.48 194.68C312.744 194.68 311.322 192.754 311.322 190.054C311.322 187.354 312.924 185.428 315.462 185.428C317.604 185.428 319.368 186.724 319.368 189.352C319.368 189.766 319.332 190.162 319.278 190.414H312.546C312.6 192.376 313.374 193.528 315.498 193.528C317.298 193.528 318.018 192.718 318.018 191.638V191.53H319.296V191.656C319.296 193.366 317.748 194.68 315.48 194.68ZM315.426 186.544C313.446 186.544 312.654 187.678 312.546 189.478H318.144C318.216 187.372 317.172 186.544 315.426 186.544ZM322.329 194.5H321.033V185.5H322.203V186.994H322.293C322.581 186.166 323.445 185.428 324.759 185.428C326.595 185.428 327.297 186.742 327.297 188.272V188.776H326.001V188.47C326.001 187.084 325.569 186.544 324.291 186.544C322.905 186.544 322.329 187.174 322.329 188.614V194.5Z" fill="black"/>
</g>
<g opacity="0.999971">
<rect x="320.625" y="261.125" width="162.75" height="46.75" rx="23.375" fill="white"/>
<rect x="320.625" y="261.125" width="162.75" height="46.75" rx="23.375" fill="url(#paint4_linear_5173_16123)"/>
<rect x="320.625" y="261.125" width="162.75" height="46.75" rx="23.375" stroke="white" stroke-width="1.25"/>
<path d="M362.67 290.68C359.322 290.68 357.864 288.916 357.864 286.846V286.576H359.142V286.774C359.142 288.448 360.024 289.492 362.706 289.492C364.704 289.492 365.64 288.826 365.64 287.44C365.64 286.09 365.028 285.586 363.21 285.19L361.122 284.722C359.232 284.326 357.936 283.462 357.936 281.518C357.936 279.772 359.376 278.26 362.238 278.26C365.37 278.26 366.738 280.168 366.738 282.13V282.364H365.46V282.166C365.46 280.51 364.596 279.448 362.22 279.448C360.222 279.448 359.232 280.114 359.232 281.428C359.232 282.796 359.898 283.192 361.662 283.606L363.75 284.092C365.748 284.542 366.936 285.478 366.936 287.368C366.936 289.204 365.514 290.68 362.67 290.68ZM370.95 290.68C369.33 290.68 368.106 289.852 368.106 288.358C368.106 286.81 369.258 286.126 371.202 285.856L374.334 285.424V284.776C374.334 283.21 373.668 282.58 371.994 282.58C370.374 282.58 369.618 283.21 369.618 284.632V284.902H368.376V284.758C368.376 282.904 369.798 281.428 372.102 281.428C374.478 281.428 375.558 282.958 375.558 284.938V290.5H374.388V288.862L374.298 288.844C373.776 289.87 372.642 290.68 370.95 290.68ZM369.366 288.268C369.366 289.186 369.942 289.6 371.31 289.6C372.84 289.6 374.334 288.808 374.334 286.702V286.396L371.31 286.828C369.888 287.026 369.366 287.314 369.366 288.268ZM378.833 290.5H377.537V278.44H378.833V290.5ZM384.57 290.68C381.834 290.68 380.412 288.754 380.412 286.054C380.412 283.354 382.014 281.428 384.552 281.428C386.694 281.428 388.458 282.724 388.458 285.352C388.458 285.766 388.422 286.162 388.368 286.414H381.636C381.69 288.376 382.464 289.528 384.588 289.528C386.388 289.528 387.108 288.718 387.108 287.638V287.53H388.386V287.656C388.386 289.366 386.838 290.68 384.57 290.68ZM384.516 282.544C382.536 282.544 381.744 283.678 381.636 285.478H387.234C387.306 283.372 386.262 282.544 384.516 282.544ZM393.811 290.68C391.381 290.68 390.049 289.654 390.049 287.584V287.548H391.309V287.764C391.309 288.988 391.813 289.582 393.829 289.582C395.485 289.582 395.917 289.114 395.917 288.214C395.917 287.314 395.359 286.99 394.009 286.738L392.533 286.486C391.093 286.216 390.049 285.55 390.049 283.984C390.049 282.454 391.345 281.428 393.451 281.428C395.485 281.428 396.979 282.472 396.979 284.47V284.56H395.737V284.416C395.737 283.354 395.323 282.544 393.415 282.544C391.795 282.544 391.291 283.066 391.291 283.966C391.291 284.866 391.741 285.172 393.073 285.424L394.585 285.712C396.133 286 397.159 286.684 397.159 288.16C397.159 289.744 395.863 290.68 393.811 290.68ZM403.656 290.5H402.378V278.44H410.442V279.61H403.656V284.2H410.172V285.388H403.656V290.5ZM415.775 290.68C413.165 290.68 411.455 288.754 411.455 286.054C411.455 283.354 413.165 281.428 415.775 281.428C418.367 281.428 420.023 283.354 420.023 286.054C420.023 288.754 418.367 290.68 415.775 290.68ZM415.775 289.528C417.917 289.528 418.763 288.268 418.763 286.054C418.763 283.84 417.917 282.598 415.775 282.598C413.597 282.598 412.733 283.84 412.733 286.054C412.733 288.268 413.597 289.528 415.775 289.528ZM422.884 290.5H421.588V281.5H422.758V282.994H422.848C423.136 282.166 424 281.428 425.314 281.428C427.15 281.428 427.852 282.742 427.852 284.272V284.776H426.556V284.47C426.556 283.084 426.124 282.544 424.846 282.544C423.46 282.544 422.884 283.174 422.884 284.614V290.5ZM433.016 290.698C430.388 290.698 428.804 288.772 428.804 286.072C428.804 283.354 430.388 281.428 433.016 281.428C435.284 281.428 436.814 282.886 436.814 284.974V285.1H435.536V284.992C435.536 283.444 434.708 282.598 432.962 282.598C430.928 282.598 430.082 283.876 430.082 286.072C430.082 288.25 430.928 289.528 432.962 289.528C434.708 289.528 435.536 288.682 435.536 287.134V287.026H436.814V287.152C436.814 289.24 435.284 290.698 433.016 290.698ZM442.279 290.68C439.543 290.68 438.121 288.754 438.121 286.054C438.121 283.354 439.723 281.428 442.261 281.428C444.403 281.428 446.167 282.724 446.167 285.352C446.167 285.766 446.131 286.162 446.077 286.414H439.345C439.399 288.376 440.173 289.528 442.297 289.528C444.097 289.528 444.817 288.718 444.817 287.638V287.53H446.095V287.656C446.095 289.366 444.547 290.68 442.279 290.68ZM442.225 282.544C440.245 282.544 439.453 283.678 439.345 285.478H444.943C445.015 283.372 443.971 282.544 442.225 282.544Z" fill="black"/>
</g>
<g opacity="0.999971">
<rect x="341.625" y="97.125" width="177.75" height="46.75" rx="23.375" fill="white"/>
<rect x="341.625" y="97.125" width="177.75" height="46.75" rx="23.375" fill="url(#paint5_linear_5173_16123)"/>
<rect x="341.625" y="97.125" width="177.75" height="46.75" rx="23.375" stroke="white" stroke-width="1.25"/>
<path d="M383.202 126.5H379.134V114.44H383.202C386.838 114.44 389.124 116.78 389.124 120.47C389.124 124.16 386.838 126.5 383.202 126.5ZM383.202 115.61H380.412V125.33H383.202C386.406 125.33 387.774 123.746 387.774 120.47C387.774 117.194 386.406 115.61 383.202 115.61ZM393.233 126.68C391.613 126.68 390.389 125.852 390.389 124.358C390.389 122.81 391.541 122.126 393.485 121.856L396.617 121.424V120.776C396.617 119.21 395.951 118.58 394.277 118.58C392.657 118.58 391.901 119.21 391.901 120.632V120.902H390.659V120.758C390.659 118.904 392.081 117.428 394.385 117.428C396.761 117.428 397.841 118.958 397.841 120.938V126.5H396.671V124.862L396.581 124.844C396.059 125.87 394.925 126.68 393.233 126.68ZM391.649 124.268C391.649 125.186 392.225 125.6 393.593 125.6C395.123 125.6 396.617 124.808 396.617 122.702V122.396L393.593 122.828C392.171 123.026 391.649 123.314 391.649 124.268ZM403.01 126.518C401.372 126.518 400.418 125.87 400.418 123.98V118.724H398.924V117.608H400.436L400.742 115.34H401.714V117.608H404.522V118.724H401.714V124.052C401.714 125.096 402.2 125.33 403.352 125.33H404.522V126.374C404.216 126.428 403.658 126.518 403.01 126.518ZM408.139 126.68C406.519 126.68 405.295 125.852 405.295 124.358C405.295 122.81 406.447 122.126 408.391 121.856L411.523 121.424V120.776C411.523 119.21 410.857 118.58 409.183 118.58C407.563 118.58 406.807 119.21 406.807 120.632V120.902H405.565V120.758C405.565 118.904 406.987 117.428 409.291 117.428C411.667 117.428 412.747 118.958 412.747 120.938V126.5H411.577V124.862L411.487 124.844C410.965 125.87 409.831 126.68 408.139 126.68ZM406.555 124.268C406.555 125.186 407.131 125.6 408.499 125.6C410.029 125.6 411.523 124.808 411.523 122.702V122.396L408.499 122.828C407.077 123.026 406.555 123.314 406.555 124.268ZM422.711 126.68C419.363 126.68 417.905 124.916 417.905 122.846V122.576H419.183V122.774C419.183 124.448 420.065 125.492 422.747 125.492C424.745 125.492 425.681 124.826 425.681 123.44C425.681 122.09 425.069 121.586 423.251 121.19L421.163 120.722C419.273 120.326 417.977 119.462 417.977 117.518C417.977 115.772 419.417 114.26 422.279 114.26C425.411 114.26 426.779 116.168 426.779 118.13V118.364H425.501V118.166C425.501 116.51 424.637 115.448 422.261 115.448C420.263 115.448 419.273 116.114 419.273 117.428C419.273 118.796 419.939 119.192 421.703 119.606L423.791 120.092C425.789 120.542 426.977 121.478 426.977 123.368C426.977 125.204 425.555 126.68 422.711 126.68ZM432.378 126.698C429.75 126.698 428.166 124.772 428.166 122.072C428.166 119.354 429.75 117.428 432.378 117.428C434.646 117.428 436.176 118.886 436.176 120.974V121.1H434.898V120.992C434.898 119.444 434.07 118.598 432.324 118.598C430.29 118.598 429.444 119.876 429.444 122.072C429.444 124.25 430.29 125.528 432.324 125.528C434.07 125.528 434.898 124.682 434.898 123.134V123.026H436.176V123.152C436.176 125.24 434.646 126.698 432.378 126.698ZM438.978 116.42H437.7V114.44H438.978V116.42ZM438.978 126.5H437.7V117.5H438.978V126.5ZM444.646 126.68C441.91 126.68 440.488 124.754 440.488 122.054C440.488 119.354 442.09 117.428 444.628 117.428C446.77 117.428 448.534 118.724 448.534 121.352C448.534 121.766 448.498 122.162 448.444 122.414H441.712C441.766 124.376 442.54 125.528 444.664 125.528C446.464 125.528 447.184 124.718 447.184 123.638V123.53H448.462V123.656C448.462 125.366 446.914 126.68 444.646 126.68ZM444.592 118.544C442.612 118.544 441.82 119.678 441.712 121.478H447.31C447.382 119.372 446.338 118.544 444.592 118.544ZM451.495 126.5H450.199V117.608H451.369V119.444H451.423C451.765 118.508 452.773 117.428 454.609 117.428C456.895 117.428 457.939 118.904 457.939 121.046V126.5H456.661V121.334C456.661 119.408 456.031 118.562 454.213 118.562C452.449 118.562 451.495 119.39 451.495 121.37V126.5ZM463.092 126.518C461.454 126.518 460.5 125.87 460.5 123.98V118.724H459.006V117.608H460.518L460.824 115.34H461.796V117.608H464.604V118.724H461.796V124.052C461.796 125.096 462.282 125.33 463.434 125.33H464.604V126.374C464.298 126.428 463.74 126.518 463.092 126.518ZM467.015 116.42H465.737V114.44H467.015V116.42ZM467.015 126.5H465.737V117.5H467.015V126.5ZM472.52 126.68C470.09 126.68 468.758 125.654 468.758 123.584V123.548H470.018V123.764C470.018 124.988 470.522 125.582 472.538 125.582C474.194 125.582 474.626 125.114 474.626 124.214C474.626 123.314 474.068 122.99 472.718 122.738L471.242 122.486C469.802 122.216 468.758 121.55 468.758 119.984C468.758 118.454 470.054 117.428 472.16 117.428C474.194 117.428 475.688 118.472 475.688 120.47V120.56H474.446V120.416C474.446 119.354 474.032 118.544 472.124 118.544C470.504 118.544 470 119.066 470 119.966C470 120.866 470.45 121.172 471.782 121.424L473.294 121.712C474.842 122 475.868 122.684 475.868 124.16C475.868 125.744 474.572 126.68 472.52 126.68ZM480.863 126.518C479.225 126.518 478.271 125.87 478.271 123.98V118.724H476.777V117.608H478.289L478.595 115.34H479.567V117.608H482.375V118.724H479.567V124.052C479.567 125.096 480.053 125.33 481.205 125.33H482.375V126.374C482.069 126.428 481.511 126.518 480.863 126.518Z" fill="black"/>
</g>
<g opacity="0.999971">
<rect x="402.625" y="189.125" width="179.75" height="46.75" rx="23.375" fill="white"/>
<rect x="402.625" y="189.125" width="179.75" height="46.75" rx="23.375" fill="url(#paint6_linear_5173_16123)"/>
<rect x="402.625" y="189.125" width="179.75" height="46.75" rx="23.375" stroke="white" stroke-width="1.25"/>
<path d="M444.67 218.68C441.322 218.68 439.864 216.916 439.864 214.846V214.576H441.142V214.774C441.142 216.448 442.024 217.492 444.706 217.492C446.704 217.492 447.64 216.826 447.64 215.44C447.64 214.09 447.028 213.586 445.21 213.19L443.122 212.722C441.232 212.326 439.936 211.462 439.936 209.518C439.936 207.772 441.376 206.26 444.238 206.26C447.37 206.26 448.738 208.168 448.738 210.13V210.364H447.46V210.166C447.46 208.51 446.596 207.448 444.22 207.448C442.222 207.448 441.232 208.114 441.232 209.428C441.232 210.796 441.898 211.192 443.662 211.606L445.75 212.092C447.748 212.542 448.936 213.478 448.936 215.368C448.936 217.204 447.514 218.68 444.67 218.68ZM455.598 218.68C452.286 218.68 450.09 216.232 450.09 212.47C450.09 208.708 452.286 206.26 455.598 206.26C458.892 206.26 461.088 208.708 461.088 212.47C461.088 215.584 459.594 217.798 457.2 218.464L458.91 221.038H457.344L455.886 218.68C455.796 218.68 455.688 218.68 455.598 218.68ZM455.598 217.438C458.424 217.438 459.738 215.818 459.738 212.47C459.738 209.122 458.424 207.502 455.598 207.502C452.772 207.502 451.44 209.122 451.44 212.47C451.44 215.818 452.772 217.438 455.598 217.438ZM462.627 218.5H461.277L466.155 206.44H467.991L472.869 218.5H471.483L470.025 214.972H464.067L462.627 218.5ZM466.299 209.5L464.535 213.802H469.539L467.775 209.5L467.091 207.664H467.001L466.299 209.5ZM485.711 218.5H477.593V206.44H485.711V207.61H478.871V211.84H485.441V213.028H478.871V217.33H485.711V218.5ZM488.73 218.5H487.434V209.608H488.604V211.444H488.658C489 210.508 490.008 209.428 491.844 209.428C494.13 209.428 495.174 210.904 495.174 213.046V218.5H493.896V213.334C493.896 211.408 493.266 210.562 491.448 210.562C489.684 210.562 488.73 211.39 488.73 213.37V218.5ZM500.594 217.708C498.146 217.708 496.742 216.088 496.742 213.568C496.742 211.048 498.128 209.428 500.612 209.428C502.178 209.428 503.366 210.202 503.762 211.336H503.834V209.608H504.986V218.122C504.986 220.534 503.438 221.74 501.098 221.74C498.83 221.74 497.228 220.552 497.228 218.5H498.506C498.506 219.958 499.244 220.588 501.116 220.588C503.024 220.588 503.69 219.904 503.69 218.122V215.854H503.672C503.258 216.88 502.142 217.708 500.594 217.708ZM498.038 213.568C498.038 215.926 499.172 216.592 500.9 216.592C502.502 216.592 503.69 215.674 503.69 213.838V213.298C503.69 211.462 502.484 210.544 500.828 210.544C499.136 210.544 498.038 211.228 498.038 213.568ZM508.222 208.42H506.944V206.44H508.222V208.42ZM508.222 218.5H506.944V209.5H508.222V218.5ZM511.476 218.5H510.18V209.608H511.35V211.444H511.404C511.746 210.508 512.754 209.428 514.59 209.428C516.876 209.428 517.92 210.904 517.92 213.046V218.5H516.642V213.334C516.642 211.408 516.012 210.562 514.194 210.562C512.43 210.562 511.476 211.39 511.476 213.37V218.5ZM523.646 218.68C520.91 218.68 519.488 216.754 519.488 214.054C519.488 211.354 521.09 209.428 523.628 209.428C525.77 209.428 527.534 210.724 527.534 213.352C527.534 213.766 527.498 214.162 527.444 214.414H520.712C520.766 216.376 521.54 217.528 523.664 217.528C525.464 217.528 526.184 216.718 526.184 215.638V215.53H527.462V215.656C527.462 217.366 525.914 218.68 523.646 218.68ZM523.592 210.544C521.612 210.544 520.82 211.678 520.712 213.478H526.31C526.382 211.372 525.338 210.544 523.592 210.544ZM533.085 218.68C530.349 218.68 528.927 216.754 528.927 214.054C528.927 211.354 530.529 209.428 533.067 209.428C535.209 209.428 536.973 210.724 536.973 213.352C536.973 213.766 536.937 214.162 536.883 214.414H530.151C530.205 216.376 530.979 217.528 533.103 217.528C534.903 217.528 535.623 216.718 535.623 215.638V215.53H536.901V215.656C536.901 217.366 535.353 218.68 533.085 218.68ZM533.031 210.544C531.051 210.544 530.259 211.678 530.151 213.478H535.749C535.821 211.372 534.777 210.544 533.031 210.544ZM539.935 218.5H538.639V209.5H539.809V210.994H539.899C540.187 210.166 541.051 209.428 542.365 209.428C544.201 209.428 544.903 210.742 544.903 212.272V212.776H543.607V212.47C543.607 211.084 543.175 210.544 541.897 210.544C540.511 210.544 539.935 211.174 539.935 212.614V218.5Z" fill="black"/>
</g>
<g opacity="0.999971">
<rect x="52.625" y="237.125" width="200.75" height="46.75" rx="23.375" fill="white"/>
<rect x="52.625" y="237.125" width="200.75" height="46.75" rx="23.375" fill="url(#paint7_linear_5173_16123)"/>
<rect x="52.625" y="237.125" width="200.75" height="46.75" rx="23.375" stroke="white" stroke-width="1.25"/>
<path d="M94.202 266.5H90.134V254.44H94.202C97.838 254.44 100.124 256.78 100.124 260.47C100.124 264.16 97.838 266.5 94.202 266.5ZM94.202 255.61H91.412V265.33H94.202C97.406 265.33 98.774 263.746 98.774 260.47C98.774 257.194 97.406 255.61 94.202 255.61ZM103.097 256.42H101.819V254.44H103.097V256.42ZM103.097 266.5H101.819V257.5H103.097V266.5ZM108.459 265.708C106.011 265.708 104.607 264.088 104.607 261.568C104.607 259.048 105.993 257.428 108.477 257.428C110.043 257.428 111.231 258.202 111.627 259.336H111.699V257.608H112.851V266.122C112.851 268.534 111.303 269.74 108.963 269.74C106.695 269.74 105.093 268.552 105.093 266.5H106.371C106.371 267.958 107.109 268.588 108.981 268.588C110.889 268.588 111.555 267.904 111.555 266.122V263.854H111.537C111.123 264.88 110.007 265.708 108.459 265.708ZM105.903 261.568C105.903 263.926 107.037 264.592 108.765 264.592C110.367 264.592 111.555 263.674 111.555 261.838V261.298C111.555 259.462 110.349 258.544 108.693 258.544C107.001 258.544 105.903 259.228 105.903 261.568ZM116.087 256.42H114.809V254.44H116.087V256.42ZM116.087 266.5H114.809V257.5H116.087V266.5ZM121.27 266.518C119.632 266.518 118.678 265.87 118.678 263.98V258.724H117.184V257.608H118.696L119.002 255.34H119.974V257.608H122.782V258.724H119.974V264.052C119.974 265.096 120.46 265.33 121.612 265.33H122.782V266.374C122.476 266.428 121.918 266.518 121.27 266.518ZM126.399 266.68C124.779 266.68 123.555 265.852 123.555 264.358C123.555 262.81 124.707 262.126 126.651 261.856L129.783 261.424V260.776C129.783 259.21 129.117 258.58 127.443 258.58C125.823 258.58 125.067 259.21 125.067 260.632V260.902H123.825V260.758C123.825 258.904 125.247 257.428 127.551 257.428C129.927 257.428 131.007 258.958 131.007 260.938V266.5H129.837V264.862L129.747 264.844C129.225 265.87 128.091 266.68 126.399 266.68ZM124.815 264.268C124.815 265.186 125.391 265.6 126.759 265.6C128.289 265.6 129.783 264.808 129.783 262.702V262.396L126.759 262.828C125.337 263.026 124.815 263.314 124.815 264.268ZM134.283 266.5H132.987V254.44H134.283V266.5ZM141.017 266.5H139.739V254.44H141.539L144.959 261.928L146.039 264.538H146.147L147.227 261.928L150.611 254.44H152.429V266.5H151.133V258.148L151.187 256.402H151.079L150.341 258.148L146.849 265.78H145.301L141.809 258.148L141.071 256.402H140.963L141.017 258.148V266.5ZM156.985 266.68C155.365 266.68 154.141 265.852 154.141 264.358C154.141 262.81 155.293 262.126 157.237 261.856L160.369 261.424V260.776C160.369 259.21 159.703 258.58 158.029 258.58C156.409 258.58 155.653 259.21 155.653 260.632V260.902H154.411V260.758C154.411 258.904 155.833 257.428 158.137 257.428C160.513 257.428 161.593 258.958 161.593 260.938V266.5H160.423V264.862L160.333 264.844C159.811 265.87 158.677 266.68 156.985 266.68ZM155.401 264.268C155.401 265.186 155.977 265.6 157.345 265.6C158.875 265.6 160.369 264.808 160.369 262.702V262.396L157.345 262.828C155.923 263.026 155.401 263.314 155.401 264.268ZM164.868 266.5H163.572V257.5H164.742V258.994H164.832C165.12 258.166 165.984 257.428 167.298 257.428C169.134 257.428 169.836 258.742 169.836 260.272V260.776H168.54V260.47C168.54 259.084 168.108 258.544 166.83 258.544C165.444 258.544 164.868 259.174 164.868 260.614V266.5ZM172.445 266.5H171.149V254.44H172.445V261.334H174.677L177.377 257.608H178.889L175.721 261.82L178.817 266.5H177.305L174.677 262.504H172.445V266.5ZM183.419 266.68C180.683 266.68 179.261 264.754 179.261 262.054C179.261 259.354 180.863 257.428 183.401 257.428C185.543 257.428 187.307 258.724 187.307 261.352C187.307 261.766 187.271 262.162 187.217 262.414H180.485C180.539 264.376 181.313 265.528 183.437 265.528C185.237 265.528 185.957 264.718 185.957 263.638V263.53H187.235V263.656C187.235 265.366 185.687 266.68 183.419 266.68ZM183.365 258.544C181.385 258.544 180.593 259.678 180.485 261.478H186.083C186.155 259.372 185.111 258.544 183.365 258.544ZM192.215 266.518C190.577 266.518 189.623 265.87 189.623 263.98V258.724H188.129V257.608H189.641L189.947 255.34H190.919V257.608H193.727V258.724H190.919V264.052C190.919 265.096 191.405 265.33 192.557 265.33H193.727V266.374C193.421 266.428 192.863 266.518 192.215 266.518ZM196.138 256.42H194.86V254.44H196.138V256.42ZM196.138 266.5H194.86V257.5H196.138V266.5ZM199.392 266.5H198.096V257.608H199.266V259.444H199.32C199.662 258.508 200.67 257.428 202.506 257.428C204.792 257.428 205.836 258.904 205.836 261.046V266.5H204.558V261.334C204.558 259.408 203.928 258.562 202.11 258.562C200.346 258.562 199.392 259.39 199.392 261.37V266.5ZM211.256 265.708C208.808 265.708 207.404 264.088 207.404 261.568C207.404 259.048 208.79 257.428 211.274 257.428C212.84 257.428 214.028 258.202 214.424 259.336H214.496V257.608H215.648V266.122C215.648 268.534 214.1 269.74 211.76 269.74C209.492 269.74 207.89 268.552 207.89 266.5H209.168C209.168 267.958 209.906 268.588 211.778 268.588C213.686 268.588 214.352 267.904 214.352 266.122V263.854H214.334C213.92 264.88 212.804 265.708 211.256 265.708ZM208.7 261.568C208.7 263.926 209.834 264.592 211.562 264.592C213.164 264.592 214.352 263.674 214.352 261.838V261.298C214.352 259.462 213.146 258.544 211.49 258.544C209.798 258.544 208.7 259.228 208.7 261.568Z" fill="black"/>
</g>
<g opacity="0.999971">
<rect x="315.625" y="25.125" width="248.75" height="46.75" rx="23.375" fill="white"/>
<rect x="315.625" y="25.125" width="248.75" height="46.75" rx="23.375" fill="url(#paint8_linear_5173_16123)"/>
<rect x="315.625" y="25.125" width="248.75" height="46.75" rx="23.375" stroke="white" stroke-width="1.25"/>
<path d="M357.202 54.5H353.134V42.44H357.202C360.838 42.44 363.124 44.78 363.124 48.47C363.124 52.16 360.838 54.5 357.202 54.5ZM357.202 43.61H354.412V53.33H357.202C360.406 53.33 361.774 51.746 361.774 48.47C361.774 45.194 360.406 43.61 357.202 43.61ZM367.233 54.68C365.613 54.68 364.389 53.852 364.389 52.358C364.389 50.81 365.541 50.126 367.485 49.856L370.617 49.424V48.776C370.617 47.21 369.951 46.58 368.277 46.58C366.657 46.58 365.901 47.21 365.901 48.632V48.902H364.659V48.758C364.659 46.904 366.081 45.428 368.385 45.428C370.761 45.428 371.841 46.958 371.841 48.938V54.5H370.671V52.862L370.581 52.844C370.059 53.87 368.925 54.68 367.233 54.68ZM365.649 52.268C365.649 53.186 366.225 53.6 367.593 53.6C369.123 53.6 370.617 52.808 370.617 50.702V50.396L367.593 50.828C366.171 51.026 365.649 51.314 365.649 52.268ZM377.01 54.518C375.372 54.518 374.418 53.87 374.418 51.98V46.724H372.924V45.608H374.436L374.742 43.34H375.714V45.608H378.522V46.724H375.714V52.052C375.714 53.096 376.2 53.33 377.352 53.33H378.522V54.374C378.216 54.428 377.658 54.518 377.01 54.518ZM382.139 54.68C380.519 54.68 379.295 53.852 379.295 52.358C379.295 50.81 380.447 50.126 382.391 49.856L385.523 49.424V48.776C385.523 47.21 384.857 46.58 383.183 46.58C381.563 46.58 380.807 47.21 380.807 48.632V48.902H379.565V48.758C379.565 46.904 380.987 45.428 383.291 45.428C385.667 45.428 386.747 46.958 386.747 48.938V54.5H385.577V52.862L385.487 52.844C384.965 53.87 383.831 54.68 382.139 54.68ZM380.555 52.268C380.555 53.186 381.131 53.6 382.499 53.6C384.029 53.6 385.523 52.808 385.523 50.702V50.396L382.499 50.828C381.077 51.026 380.555 51.314 380.555 52.268ZM389.897 54.5H388.727V42.44H390.023V47.3C390.419 46.328 391.517 45.428 393.227 45.428C395.657 45.428 396.971 47.246 396.971 50.054C396.971 52.862 395.585 54.68 393.083 54.68C391.409 54.68 390.347 53.906 389.951 52.79H389.897V54.5ZM390.023 50.828C390.023 52.646 391.103 53.564 392.867 53.564C394.613 53.564 395.675 52.772 395.675 50.054C395.675 47.336 394.595 46.544 392.867 46.544C391.103 46.544 390.023 47.462 390.023 49.298V50.828ZM401.071 54.68C399.451 54.68 398.227 53.852 398.227 52.358C398.227 50.81 399.379 50.126 401.323 49.856L404.455 49.424V48.776C404.455 47.21 403.789 46.58 402.115 46.58C400.495 46.58 399.739 47.21 399.739 48.632V48.902H398.497V48.758C398.497 46.904 399.919 45.428 402.223 45.428C404.599 45.428 405.679 46.958 405.679 48.938V54.5H404.509V52.862L404.419 52.844C403.897 53.87 402.763 54.68 401.071 54.68ZM399.487 52.268C399.487 53.186 400.063 53.6 401.431 53.6C402.961 53.6 404.455 52.808 404.455 50.702V50.396L401.431 50.828C400.009 51.026 399.487 51.314 399.487 52.268ZM411.206 54.68C408.776 54.68 407.444 53.654 407.444 51.584V51.548H408.704V51.764C408.704 52.988 409.208 53.582 411.224 53.582C412.88 53.582 413.312 53.114 413.312 52.214C413.312 51.314 412.754 50.99 411.404 50.738L409.928 50.486C408.488 50.216 407.444 49.55 407.444 47.984C407.444 46.454 408.74 45.428 410.846 45.428C412.88 45.428 414.374 46.472 414.374 48.47V48.56H413.132V48.416C413.132 47.354 412.718 46.544 410.81 46.544C409.19 46.544 408.686 47.066 408.686 47.966C408.686 48.866 409.136 49.172 410.468 49.424L411.98 49.712C413.528 50 414.554 50.684 414.554 52.16C414.554 53.744 413.258 54.68 411.206 54.68ZM420.122 54.68C417.386 54.68 415.964 52.754 415.964 50.054C415.964 47.354 417.566 45.428 420.104 45.428C422.246 45.428 424.01 46.724 424.01 49.352C424.01 49.766 423.974 50.162 423.92 50.414H417.188C417.242 52.376 418.016 53.528 420.14 53.528C421.94 53.528 422.66 52.718 422.66 51.638V51.53H423.938V51.656C423.938 53.366 422.39 54.68 420.122 54.68ZM420.068 46.544C418.088 46.544 417.296 47.678 417.188 49.478H422.786C422.858 47.372 421.814 46.544 420.068 46.544ZM429.68 54.5H428.33L433.208 42.44H435.044L439.922 54.5H438.536L437.078 50.972H431.12L429.68 54.5ZM433.352 45.5L431.588 49.802H436.592L434.828 45.5L434.144 43.664H434.054L433.352 45.5ZM442.3 54.5H441.004V45.5H442.174V46.994H442.264C442.552 46.166 443.416 45.428 444.73 45.428C446.566 45.428 447.268 46.742 447.268 48.272V48.776H445.972V48.47C445.972 47.084 445.54 46.544 444.262 46.544C442.876 46.544 442.3 47.174 442.3 48.614V54.5ZM452.432 54.698C449.804 54.698 448.22 52.772 448.22 50.072C448.22 47.354 449.804 45.428 452.432 45.428C454.7 45.428 456.23 46.886 456.23 48.974V49.1H454.952V48.992C454.952 47.444 454.124 46.598 452.378 46.598C450.344 46.598 449.498 47.876 449.498 50.072C449.498 52.25 450.344 53.528 452.378 53.528C454.124 53.528 454.952 52.682 454.952 51.134V51.026H456.23V51.152C456.23 53.24 454.7 54.698 452.432 54.698ZM459.122 54.5H457.826V42.44H459.122V47.264H459.194C459.536 46.418 460.454 45.428 462.254 45.428C464.576 45.428 465.566 46.976 465.566 49.01V54.5H464.288V49.334C464.288 47.408 463.64 46.562 461.84 46.562C460.058 46.562 459.122 47.39 459.122 49.388V54.5ZM468.877 44.42H467.599V42.44H468.877V44.42ZM468.877 54.5H467.599V45.5H468.877V54.5ZM474.059 54.518C472.421 54.518 471.467 53.87 471.467 51.98V46.724H469.973V45.608H471.485L471.791 43.34H472.763V45.608H475.571V46.724H472.763V52.052C472.763 53.096 473.249 53.33 474.401 53.33H475.571V54.374C475.265 54.428 474.707 54.518 474.059 54.518ZM480.257 54.68C477.521 54.68 476.099 52.754 476.099 50.054C476.099 47.354 477.701 45.428 480.239 45.428C482.381 45.428 484.145 46.724 484.145 49.352C484.145 49.766 484.109 50.162 484.055 50.414H477.323C477.377 52.376 478.151 53.528 480.275 53.528C482.075 53.528 482.795 52.718 482.795 51.638V51.53H484.073V51.656C484.073 53.366 482.525 54.68 480.257 54.68ZM480.203 46.544C478.223 46.544 477.431 47.678 477.323 49.478H482.921C482.993 47.372 481.949 46.544 480.203 46.544ZM489.751 54.698C487.123 54.698 485.539 52.772 485.539 50.072C485.539 47.354 487.123 45.428 489.751 45.428C492.019 45.428 493.549 46.886 493.549 48.974V49.1H492.271V48.992C492.271 47.444 491.443 46.598 489.697 46.598C487.663 46.598 486.817 47.876 486.817 50.072C486.817 52.25 487.663 53.528 489.697 53.528C491.443 53.528 492.271 52.682 492.271 51.134V51.026H493.549V51.152C493.549 53.24 492.019 54.698 489.751 54.698ZM498.369 54.518C496.731 54.518 495.777 53.87 495.777 51.98V46.724H494.283V45.608H495.795L496.101 43.34H497.073V45.608H499.881V46.724H497.073V52.052C497.073 53.096 497.559 53.33 498.711 53.33H499.881V54.374C499.575 54.428 499.017 54.518 498.369 54.518ZM504.522 54.68C502.2 54.68 501.12 53.078 501.12 50.954V45.608H502.416V50.774C502.416 52.7 503.19 53.546 504.936 53.546C506.574 53.546 507.69 52.682 507.69 50.594V45.608H508.968V54.5H507.798V52.538H507.744C507.384 53.564 506.376 54.68 504.522 54.68ZM512.296 54.5H511V45.5H512.17V46.994H512.26C512.548 46.166 513.412 45.428 514.726 45.428C516.562 45.428 517.264 46.742 517.264 48.272V48.776H515.968V48.47C515.968 47.084 515.536 46.544 514.258 46.544C512.872 46.544 512.296 47.174 512.296 48.614V54.5ZM522.374 54.68C519.638 54.68 518.216 52.754 518.216 50.054C518.216 47.354 519.818 45.428 522.356 45.428C524.498 45.428 526.262 46.724 526.262 49.352C526.262 49.766 526.226 50.162 526.172 50.414H519.44C519.494 52.376 520.268 53.528 522.392 53.528C524.192 53.528 524.912 52.718 524.912 51.638V51.53H526.19V51.656C526.19 53.366 524.642 54.68 522.374 54.68ZM522.32 46.544C520.34 46.544 519.548 47.678 519.44 49.478H525.038C525.11 47.372 524.066 46.544 522.32 46.544Z" fill="black"/>
</g>
<defs>
<linearGradient id="paint0_linear_5173_16123" x1="56.0023" y1="-12.536" x2="253.28" y2="78.2984" gradientUnits="userSpaceOnUse">
<stop stop-color="#15E5FF" stop-opacity="0.1"/>
<stop offset="0.6449" stop-color="#565294" stop-opacity="0.1"/>
</linearGradient>
<linearGradient id="paint1_linear_5173_16123" x1="95.3938" y1="59.464" x2="278.848" y2="135.37" gradientUnits="userSpaceOnUse">
<stop stop-color="#15E5FF" stop-opacity="0.1"/>
<stop offset="0.6449" stop-color="#565294" stop-opacity="0.1"/>
</linearGradient>
<linearGradient id="paint2_linear_5173_16123" x1="3.73416" y1="131.464" x2="141.204" y2="170.842" gradientUnits="userSpaceOnUse">
<stop stop-color="#15E5FF" stop-opacity="0.1"/>
<stop offset="0.6449" stop-color="#565294" stop-opacity="0.1"/>
</linearGradient>
<linearGradient id="paint3_linear_5173_16123" x1="167.615" y1="151.464" x2="356.286" y2="232.731" gradientUnits="userSpaceOnUse">
<stop stop-color="#15E5FF" stop-opacity="0.1"/>
<stop offset="0.6449" stop-color="#565294" stop-opacity="0.1"/>
</linearGradient>
<linearGradient id="paint4_linear_5173_16123" x1="324.536" y1="247.464" x2="485.721" y2="303.553" gradientUnits="userSpaceOnUse">
<stop stop-color="#15E5FF" stop-opacity="0.1"/>
<stop offset="0.6449" stop-color="#565294" stop-opacity="0.1"/>
</linearGradient>
<linearGradient id="paint5_linear_5173_16123" x1="345.951" y1="83.464" x2="518.317" y2="148.93" gradientUnits="userSpaceOnUse">
<stop stop-color="#15E5FF" stop-opacity="0.1"/>
<stop offset="0.6449" stop-color="#565294" stop-opacity="0.1"/>
</linearGradient>
<linearGradient id="paint6_linear_5173_16123" x1="407.007" y1="175.464" x2="580.806" y2="242.212" gradientUnits="userSpaceOnUse">
<stop stop-color="#15E5FF" stop-opacity="0.1"/>
<stop offset="0.6449" stop-color="#565294" stop-opacity="0.1"/>
</linearGradient>
<linearGradient id="paint7_linear_5173_16123" x1="57.5874" y1="223.464" x2="245.618" y2="304.056" gradientUnits="userSpaceOnUse">
<stop stop-color="#15E5FF" stop-opacity="0.1"/>
<stop offset="0.6449" stop-color="#565294" stop-opacity="0.1"/>
</linearGradient>
<linearGradient id="paint8_linear_5173_16123" x1="321.915" y1="11.464" x2="536.887" y2="125.498" gradientUnits="userSpaceOnUse">
<stop stop-color="#15E5FF" stop-opacity="0.1"/>
<stop offset="0.6449" stop-color="#565294" stop-opacity="0.1"/>
</linearGradient>
</defs>
</svg>
