<svg width="407" height="639" viewBox="0 0 407 639" fill="none" xmlns="http://www.w3.org/2000/svg">
<path d="M205.094 309.95C205.094 309.95 12.1645 225.341 12.1645 140.027C12.1645 54.7134 98.5431 0.99999 205.094 0.999993C311.647 0.999997 398.024 54.7134 398.024 140.027C398.024 225.341 205.094 309.95 205.094 309.95ZM205.094 309.95C205.094 309.95 12.1644 394.559 12.1644 479.872C12.1644 565.186 98.543 618.9 205.094 618.9C311.647 618.9 398.024 565.186 398.024 479.872C398.024 394.559 205.094 309.95 205.094 309.95Z" stroke="#5236FF" stroke-width="2" stroke-dasharray="10 10"/>
<circle cx="333.833" cy="33.4849" r="30.9749" fill="#E9E6F6"/>
<path d="M329.642 26.9567H339.245C341.856 26.9567 343.161 26.9567 344.099 27.5832C344.505 27.8544 344.853 28.2029 345.125 28.6088C345.751 29.5465 345.751 30.8517 345.751 33.4623C345.751 37.8133 345.751 39.9886 344.707 41.5514C344.255 42.2279 343.674 42.8088 342.998 43.2608C341.435 44.305 339.259 44.305 334.908 44.305H333.359C327.518 44.305 324.597 44.305 322.782 42.4902C320.968 40.6756 320.968 37.7548 320.968 31.9133V28.1268C320.968 25.8759 320.968 24.7504 321.439 23.9059C321.775 23.3039 322.272 22.8072 322.874 22.4713C323.718 22 324.844 22 327.095 22C328.537 22 329.258 22 329.889 22.2367C331.33 22.7771 331.924 24.0862 332.575 25.3868L333.359 26.9567" stroke="#141B34" stroke-width="1.5" stroke-linecap="round"/>
<path d="M337.696 33.1525L338.836 34.135C339.315 34.548 339.555 34.7546 339.555 35.0112C339.555 35.2678 339.315 35.4744 338.836 35.8874L337.696 36.87" stroke="#5236FF" stroke-width="1.5" stroke-linecap="round" stroke-linejoin="round"/>
<path d="M329.022 33.1525L327.882 34.135C327.403 34.548 327.163 34.7546 327.163 35.0112C327.163 35.2678 327.403 35.4744 327.882 35.8874L329.022 36.87" stroke="#5236FF" stroke-width="1.5" stroke-linecap="round" stroke-linejoin="round"/>
<path d="M334.598 31.9133L332.12 38.1092" stroke="#5236FF" stroke-width="1.5" stroke-linecap="round" stroke-linejoin="round"/>
<path d="M322.347 90.8924C319.617 90.8924 317.965 88.9884 317.965 86.0624C317.965 83.1364 319.617 81.2324 322.347 81.2324C324.867 81.2324 326.393 82.6324 326.393 84.8864V84.9704H324.783V84.8864C324.783 83.3464 324.069 82.6884 322.305 82.6884C320.359 82.6884 319.575 83.6264 319.575 86.0624C319.575 88.4984 320.359 89.4364 322.305 89.4364C324.069 89.4364 324.783 88.7784 324.783 87.2384V87.1544H326.393V87.2384C326.393 89.4924 324.867 90.8924 322.347 90.8924ZM330.829 90.8924C328.687 90.8924 327.357 89.4364 327.357 87.2664C327.357 85.1104 328.687 83.6544 330.829 83.6544C332.957 83.6544 334.245 85.1104 334.245 87.2664C334.245 89.4364 332.957 90.8924 330.829 90.8924ZM330.829 89.5484C332.285 89.5484 332.789 88.8344 332.789 87.2664C332.789 85.7124 332.285 84.9984 330.829 84.9984C329.359 84.9984 328.841 85.7124 328.841 87.2664C328.841 88.8344 329.359 89.5484 330.829 89.5484ZM338.229 90.8924C336.241 90.8924 335.163 89.4784 335.163 87.2664C335.163 85.0684 336.227 83.6544 338.145 83.6544C339.377 83.6544 340.119 84.2424 340.427 84.8724H340.469V81.3724H341.967V90.7524H340.581V89.6044H340.525C340.189 90.4024 339.419 90.8924 338.229 90.8924ZM336.675 87.2664C336.675 88.9884 337.221 89.6044 338.565 89.6044C339.797 89.6044 340.469 89.0584 340.469 87.8964V86.6504C340.469 85.4884 339.797 84.9424 338.565 84.9424C337.235 84.9424 336.675 85.5584 336.675 87.2664ZM346.494 90.8924C344.198 90.8924 343.12 89.4364 343.12 87.2664C343.12 85.1104 344.408 83.6544 346.48 83.6544C348.356 83.6544 349.672 84.7744 349.672 86.6784C349.672 87.0424 349.63 87.4204 349.588 87.6304H344.534C344.59 88.9044 345.052 89.5484 346.508 89.5484C347.67 89.5484 348.118 89.1564 348.118 88.5264V88.4144H349.616V88.5404C349.616 89.9684 348.37 90.8924 346.494 90.8924ZM346.452 84.9284C345.136 84.9284 344.632 85.5444 344.548 86.6224H348.23C348.286 85.4324 347.642 84.9284 346.452 84.9284Z" fill="#071B2C"/>
<circle cx="66.1849" cy="33.4849" r="30.9749" fill="#E9E6F6"/>
<path d="M66.3584 40.824V45.78" stroke="#071B2C" stroke-width="1.8585"/>
<path d="M65.1223 21H63.8874C59.8213 21 57.7883 21 56.3471 22.0083C55.814 22.3814 55.3502 22.8448 54.9769 23.3775C53.9678 24.8175 53.9678 26.849 53.9678 30.912C53.9678 34.9749 53.9678 37.0064 54.9769 38.4464C55.3502 38.9792 55.814 39.4426 56.3471 39.8157C57.7883 40.824 59.8213 40.824 63.8874 40.824H68.8473C72.9134 40.824 74.9465 40.824 76.3876 39.8157C76.9207 39.4426 77.3844 38.9792 77.7579 38.4464C78.5192 37.36 78.706 35.9846 78.7477 34.629" stroke="#071B2C" stroke-width="1.8585" stroke-linecap="round"/>
<path d="M73.7919 30.558V32.151M73.7919 30.558C72.3587 30.558 71.096 29.854 70.3553 28.785M73.7919 30.558C75.2252 30.558 76.4879 29.854 77.2285 28.785M70.3553 28.785L68.8364 29.7615M70.3553 28.785C69.9173 28.1528 69.662 27.3929 69.662 26.5755C69.662 25.7582 69.9172 24.9984 70.3552 24.3662M77.2285 28.785L78.7474 29.7615M77.2285 28.785C77.6665 28.1528 77.9219 27.3929 77.9219 26.5755C77.9219 25.7582 77.6666 24.9984 77.2287 24.3662M73.7919 22.593C75.2253 22.593 76.4881 23.2971 77.2287 24.3662M73.7919 22.593C72.3585 22.593 71.0957 23.2971 70.3552 24.3662M73.7919 22.593V21M77.2287 24.3662L78.7479 23.3895M70.3552 24.3662L68.8359 23.3895" stroke="#5236FF" stroke-width="1.8585" stroke-linecap="round"/>
<path d="M65.1191 37.107H67.5971" stroke="#071B2C" stroke-width="1.8585" stroke-linecap="round" stroke-linejoin="round"/>
<path d="M61.4023 45.78H71.3143" stroke="#071B2C" stroke-width="1.8585" stroke-linecap="round"/>
<path d="M56.1429 90.7524H51.6629V81.3724H55.9749C57.8089 81.3724 58.9149 82.1284 58.9149 83.7104C58.9149 84.8024 58.2989 85.5444 57.0949 85.7264V85.8384C58.5229 86.0204 59.2509 86.9444 59.2509 88.1764C59.2509 89.7724 58.1169 90.7524 56.1429 90.7524ZM53.1749 82.7304V85.2644H55.8349C56.9689 85.2644 57.4169 84.9564 57.4169 84.0044C57.4169 83.0384 57.0109 82.7304 55.8769 82.7304H53.1749ZM53.1749 86.5244V89.3944H56.1009C57.2349 89.3944 57.7249 89.0724 57.7249 87.9664C57.7249 86.8464 57.2349 86.5244 56.1009 86.5244H53.1749ZM63.084 90.8924C61.264 90.8924 60.452 89.6744 60.452 88.0924V83.7944H61.964V87.8264C61.964 89.0724 62.44 89.5904 63.644 89.5904C64.806 89.5904 65.464 89.0864 65.464 87.7144V83.7944H66.976V90.7524H65.576V89.3664H65.52C65.184 90.1644 64.442 90.8924 63.084 90.8924ZM69.8787 82.9124H68.3807L68.3667 81.3724H69.8787V82.9124ZM69.8927 90.7524H68.3807V83.7524H69.8927V90.7524ZM72.7931 90.7524H71.2811V81.3724H72.7931V90.7524ZM77.0065 90.8924C75.0185 90.8924 73.9405 89.4784 73.9405 87.2664C73.9405 85.0684 75.0045 83.6544 76.9225 83.6544C78.1545 83.6544 78.8965 84.2424 79.2045 84.8724H79.2465V81.3724H80.7445V90.7524H79.3585V89.6044H79.3025C78.9665 90.4024 78.1965 90.8924 77.0065 90.8924ZM75.4525 87.2664C75.4525 88.9884 75.9985 89.6044 77.3425 89.6044C78.5745 89.6044 79.2465 89.0584 79.2465 87.8964V86.6504C79.2465 85.4884 78.5745 84.9424 77.3425 84.9424C76.0125 84.9424 75.4525 85.5584 75.4525 87.2664Z" fill="#071B2C"/>
<circle cx="341.734" cy="215.634" r="30.9749" fill="#E9E6F6"/>
<path d="M353.959 218.007V213.051C353.959 208.378 353.959 206.041 352.507 204.589C351.056 203.137 348.719 203.137 344.046 203.137H341.568C336.894 203.137 334.558 203.137 333.106 204.589C331.654 206.041 331.654 208.378 331.654 213.051V218.007C331.654 222.681 331.654 225.017 333.106 226.469C334.558 227.921 336.894 227.921 341.568 227.921H344.046C348.719 227.921 351.056 227.921 352.507 226.469C353.959 225.017 353.959 222.681 353.959 218.007Z" stroke="#141B34" stroke-width="1.85875"/>
<path d="M332.893 208.094H329.176M332.893 215.529H329.176M332.893 222.964H329.176" stroke="#141B34" stroke-width="1.85875" stroke-linecap="round" stroke-linejoin="round"/>
<path d="M348.382 209.333H343.426M345.904 214.29H343.426" stroke="#5236FF" stroke-width="1.85875" stroke-linecap="round" stroke-linejoin="round"/>
<path d="M337.85 227.921V203.137" stroke="#141B34" stroke-width="1.85875" stroke-linecap="round" stroke-linejoin="round"/>
<path d="M330.699 272.901H329.187V263.521H333.177C335.137 263.521 336.579 264.683 336.579 266.699C336.579 268.715 335.137 269.877 333.177 269.877H330.699V272.901ZM333.359 264.879H330.699V268.519H333.359C334.591 268.519 335.081 268.043 335.081 266.699C335.081 265.355 334.591 264.879 333.359 264.879ZM339.12 272.901H337.608V263.521H339.12V272.901ZM342.438 273.041C341.192 273.041 340.226 272.397 340.226 271.179C340.226 270.031 341.066 269.429 342.55 269.219L344.986 268.855V268.477C344.986 267.441 344.51 267.133 343.418 267.133C342.312 267.133 341.878 267.483 341.878 268.407V268.617H340.422V268.477C340.422 266.923 341.64 265.803 343.502 265.803C345.448 265.803 346.428 266.979 346.428 268.673V272.901H345.028V271.809H344.958C344.552 272.467 343.754 273.041 342.438 273.041ZM341.696 271.067C341.696 271.613 342.046 271.837 342.928 271.837C343.908 271.837 344.986 271.445 344.986 270.045V269.919L342.774 270.255C341.976 270.367 341.696 270.549 341.696 271.067ZM349.388 272.901H347.876V265.943H349.262V267.245H349.318C349.64 266.503 350.382 265.803 351.74 265.803C353.546 265.803 354.358 266.951 354.358 268.533V272.901H352.846V268.869C352.846 267.623 352.454 267.105 351.18 267.105C349.948 267.105 349.388 267.581 349.388 268.883V272.901Z" fill="#071B2C"/>
<circle cx="57.2952" cy="213.161" r="30.9749" fill="#E9E6F6"/>
<path d="M67.7277 212.772L68.0523 210.834C68.2868 209.434 68.404 208.734 68.043 208.275C67.6822 207.815 67.0154 207.815 65.6819 207.815H48.5586C47.2251 207.815 46.5584 207.815 46.1975 208.275C45.8366 208.734 45.9538 209.434 46.1882 210.834L47.6293 219.436C48.1375 222.47 48.3916 223.987 49.3979 224.885C50.4042 225.783 51.751 225.783 54.6419 225.783H57.1203" stroke="#141B34" stroke-width="1.5" stroke-linecap="round"/>
<path d="M50.9238 207.815V207.196C50.9238 203.774 53.6978 201 57.1197 201C60.5415 201 63.3155 203.774 63.3155 207.196V207.815" stroke="#141B34" stroke-width="1.5"/>
<path d="M47.8262 220.207H55.2612" stroke="#141B34" stroke-width="1.5" stroke-linecap="round"/>
<path d="M68.2728 220.207V217.109C65.7945 217.109 63.9357 215.87 63.9357 215.87C63.9357 215.87 62.077 217.109 59.5986 217.109V220.207C59.5986 224.544 63.9357 225.783 63.9357 225.783C63.9357 225.783 68.2728 224.544 68.2728 220.207Z" stroke="#5236FF" stroke-width="1.5" stroke-linecap="round" stroke-linejoin="round"/>
<path d="M48.6636 270.429H47.1656V262.407H43.9736V261.049H51.8556V262.407H48.6636V270.429ZM54.9444 270.569C52.6484 270.569 51.5704 269.113 51.5704 266.943C51.5704 264.787 52.8584 263.331 54.9304 263.331C56.8064 263.331 58.1224 264.451 58.1224 266.355C58.1224 266.719 58.0804 267.097 58.0384 267.307H52.9844C53.0404 268.581 53.5024 269.225 54.9584 269.225C56.1204 269.225 56.5684 268.833 56.5684 268.203V268.091H58.0664V268.217C58.0664 269.645 56.8204 270.569 54.9444 270.569ZM54.9024 264.605C53.5864 264.605 53.0824 265.221 52.9984 266.299H56.6804C56.7364 265.109 56.0924 264.605 54.9024 264.605ZM62.3233 270.569C60.2933 270.569 59.2293 269.771 59.2293 268.077V268.049H60.6853V268.301C60.6853 269.057 61.0213 269.337 62.3513 269.337C63.4713 269.337 63.6813 269.085 63.6813 268.567C63.6813 268.007 63.3453 267.839 62.3233 267.657L61.2453 267.475C59.9993 267.251 59.2153 266.691 59.2153 265.431C59.2153 264.171 60.2513 263.331 62.0713 263.331C63.7093 263.331 64.9413 264.143 64.9413 265.725V265.851H63.4993V265.683C63.4993 265.039 63.2753 264.577 62.0293 264.577C60.9233 264.577 60.6573 264.871 60.6573 265.403C60.6573 265.935 60.9093 266.089 61.8893 266.285L63.0653 266.509C64.4093 266.775 65.1093 267.377 65.1093 268.525C65.1093 269.813 64.0873 270.569 62.3233 270.569ZM69.1589 270.429C67.6049 270.429 66.7929 269.855 66.7929 268.287V264.731H65.6309V263.471H66.8209L67.1429 261.749H68.3049V263.471H70.4049V264.731H68.3049V268.217C68.3049 268.945 68.6129 269.071 69.5509 269.071H70.4049V270.303C70.1109 270.373 69.6349 270.429 69.1589 270.429Z" fill="#071B2C"/>
<path d="M126.361 164.612H115.513V132.452H126.361C136.057 132.452 142.153 138.692 142.153 148.532C142.153 158.372 136.057 164.612 126.361 164.612ZM126.361 135.572H118.921V161.492H126.361C134.905 161.492 138.553 157.268 138.553 148.532C138.553 139.796 134.905 135.572 126.361 135.572ZM156.711 165.092C149.415 165.092 145.623 159.956 145.623 152.756C145.623 145.556 149.895 140.42 156.663 140.42C162.375 140.42 167.079 143.876 167.079 150.884C167.079 151.988 166.983 153.044 166.839 153.716H148.887C149.031 158.948 151.095 162.02 156.759 162.02C161.559 162.02 163.479 159.86 163.479 156.98V156.692H166.887V157.028C166.887 161.588 162.759 165.092 156.711 165.092ZM156.567 143.396C151.287 143.396 149.175 146.42 148.887 151.22H163.815C164.007 145.604 161.223 143.396 156.567 143.396ZM182.2 164.612H177.928L168.232 140.9H171.976L179.992 161.252H180.232L188.2 140.9H191.896L182.2 164.612ZM208.782 165.092C199.95 165.092 194.094 158.564 194.094 148.532C194.094 138.5 199.95 131.972 208.782 131.972C217.566 131.972 223.422 138.5 223.422 148.532C223.422 158.564 217.566 165.092 208.782 165.092ZM208.782 161.78C216.318 161.78 219.822 157.46 219.822 148.532C219.822 139.604 216.318 135.284 208.782 135.284C201.246 135.284 197.694 139.604 197.694 148.532C197.694 157.46 201.246 161.78 208.782 161.78ZM231.367 172.964H227.911V140.9H231.031V145.508H231.175C232.231 142.484 235.063 140.42 239.527 140.42C246.199 140.42 249.895 145.268 249.895 152.804C249.895 160.244 246.391 165.092 239.911 165.092C235.351 165.092 232.423 162.692 231.367 160.1V172.964ZM231.367 154.82C231.367 159.668 234.247 162.116 238.951 162.116C243.559 162.116 246.439 160.004 246.439 152.804C246.439 145.508 243.607 143.396 238.951 143.396C234.247 143.396 231.367 145.844 231.367 150.74V154.82ZM263.902 165.092C257.422 165.092 253.87 162.356 253.87 156.836V156.74H257.23V157.316C257.23 160.58 258.574 162.164 263.95 162.164C268.366 162.164 269.518 160.916 269.518 158.516C269.518 156.116 268.03 155.252 264.43 154.58L260.494 153.908C256.654 153.188 253.87 151.412 253.87 147.236C253.87 143.156 257.326 140.42 262.942 140.42C268.366 140.42 272.35 143.204 272.35 148.532V148.772H269.038V148.388C269.038 145.556 267.934 143.396 262.846 143.396C258.526 143.396 257.182 144.788 257.182 147.188C257.182 149.588 258.382 150.404 261.934 151.076L265.966 151.844C270.094 152.612 272.83 154.436 272.83 158.372C272.83 162.596 269.374 165.092 263.902 165.092Z" fill="black"/>
<path d="M135.716 498.633H114.692V466.473H118.1V495.513H135.716V498.633ZM141.479 471.753H138.071V466.473H141.479V471.753ZM141.479 498.633H138.071V474.633H141.479V498.633ZM151.027 498.633H147.619V477.897H144.115V474.921H147.619V474.009C147.619 469.113 150.355 466.473 155.587 466.473H157.699V469.305H154.963C152.227 469.305 150.979 470.457 150.979 472.857V474.921H157.699V477.897H151.027V498.633ZM169.39 499.113C162.094 499.113 158.302 493.977 158.302 486.777C158.302 479.577 162.574 474.441 169.342 474.441C175.054 474.441 179.758 477.897 179.758 484.905C179.758 486.009 179.662 487.065 179.518 487.737H161.566C161.71 492.969 163.774 496.041 169.438 496.041C174.238 496.041 176.158 493.881 176.158 491.001V490.713H179.566V491.049C179.566 495.609 175.438 499.113 169.39 499.113ZM169.246 477.417C163.966 477.417 161.854 480.441 161.566 485.241H176.494C176.686 479.625 173.902 477.417 169.246 477.417ZM194.706 499.161C187.698 499.161 183.474 494.025 183.474 486.825C183.474 479.577 187.698 474.441 194.706 474.441C200.754 474.441 204.834 478.329 204.834 483.897V484.233H201.426V483.945C201.426 479.817 199.218 477.561 194.562 477.561C189.138 477.561 186.882 480.969 186.882 486.825C186.882 492.633 189.138 496.041 194.562 496.041C199.218 496.041 201.426 493.785 201.426 489.657V489.369H204.834V489.705C204.834 495.273 200.754 499.161 194.706 499.161ZM211.09 506.793C209.938 506.793 208.69 506.601 208.018 506.457V503.673H210.706C212.866 503.673 213.586 503.241 214.45 501.369L215.794 498.297L205.618 474.921H209.362L214.93 488.121L217.426 493.929H217.714L220.066 488.121L225.298 474.921H229.042L217.474 502.425C215.938 506.025 213.682 506.793 211.09 506.793ZM241.066 499.161C234.058 499.161 229.834 494.025 229.834 486.825C229.834 479.577 234.058 474.441 241.066 474.441C247.114 474.441 251.194 478.329 251.194 483.897V484.233H247.786V483.945C247.786 479.817 245.578 477.561 240.922 477.561C235.498 477.561 233.242 480.969 233.242 486.825C233.242 492.633 235.498 496.041 240.922 496.041C245.578 496.041 247.786 493.785 247.786 489.657V489.369H251.194V489.705C251.194 495.273 247.114 499.161 241.066 499.161ZM258.906 498.633H255.45V466.473H258.906V498.633ZM274.203 499.113C266.907 499.113 263.115 493.977 263.115 486.777C263.115 479.577 267.387 474.441 274.155 474.441C279.867 474.441 284.571 477.897 284.571 484.905C284.571 486.009 284.475 487.065 284.331 487.737H266.379C266.523 492.969 268.587 496.041 274.251 496.041C279.051 496.041 280.971 493.881 280.971 491.001V490.713H284.379V491.049C284.379 495.609 280.251 499.113 274.203 499.113ZM274.059 477.417C268.779 477.417 266.667 480.441 266.379 485.241H281.307C281.499 479.625 278.715 477.417 274.059 477.417Z" fill="#5236FF"/>
<circle cx="337.784" cy="573.339" r="30.9749" fill="#E9E6F6"/>
<path d="M344.147 568.435C344.156 568.435 344.166 568.435 344.175 568.435C347.255 568.435 349.751 570.932 349.751 574.011C349.751 576.439 348.199 578.505 346.034 579.27M344.147 568.435C344.165 568.231 344.175 568.024 344.175 567.815C344.175 564.051 341.124 561 337.359 561C333.795 561 330.869 563.737 330.569 567.224M344.147 568.435C344.02 569.841 343.467 571.123 342.617 572.152M330.569 567.224C327.426 567.523 324.968 570.17 324.968 573.392C324.968 575.932 326.497 578.116 328.685 579.072M330.569 567.224C330.765 567.205 330.963 567.196 331.164 567.196C332.559 567.196 333.846 567.657 334.882 568.435" stroke="#141B34" stroke-width="1.5" stroke-linecap="round" stroke-linejoin="round"/>
<path d="M345.105 584.854L342.316 582.066V579.588M345.105 583.925C344.591 583.925 344.175 584.341 344.175 584.854C344.175 585.367 344.591 585.783 345.105 585.783C345.618 585.783 346.034 585.367 346.034 584.854C346.034 584.341 345.618 583.925 345.105 583.925Z" stroke="#5236FF" stroke-width="1.5" stroke-linecap="round" stroke-linejoin="round"/>
<path d="M329.615 584.854L332.403 582.066V579.588M329.615 583.925C330.128 583.925 330.544 584.341 330.544 584.854C330.544 585.367 330.128 585.783 329.615 585.783C329.102 585.783 328.686 585.367 328.686 584.854C328.686 584.341 329.102 583.925 329.615 583.925Z" stroke="#5236FF" stroke-width="1.5" stroke-linecap="round" stroke-linejoin="round"/>
<path d="M337.359 584.854V579.588M337.359 583.925C336.846 583.925 336.43 584.341 336.43 584.854C336.43 585.367 336.846 585.783 337.359 585.783C337.872 585.783 338.288 585.367 338.288 584.854C338.288 584.341 337.872 583.925 337.359 583.925Z" stroke="#5236FF" stroke-width="1.5" stroke-linecap="round" stroke-linejoin="round"/>
<rect width="114" height="25" transform="translate(280.783 613.606)" fill="white"/>
<path d="M320.544 630.606H317.212V621.226H320.544C323.442 621.226 325.29 623.018 325.29 625.916C325.29 628.814 323.442 630.606 320.544 630.606ZM320.544 622.584H318.724V629.248H320.544C322.784 629.248 323.68 628.324 323.68 625.916C323.68 623.508 322.784 622.584 320.544 622.584ZM329.588 630.746C327.292 630.746 326.214 629.29 326.214 627.12C326.214 624.964 327.502 623.508 329.574 623.508C331.45 623.508 332.766 624.628 332.766 626.532C332.766 626.896 332.724 627.274 332.682 627.484H327.628C327.684 628.758 328.146 629.402 329.602 629.402C330.764 629.402 331.212 629.01 331.212 628.38V628.268H332.71V628.394C332.71 629.822 331.464 630.746 329.588 630.746ZM329.546 624.782C328.23 624.782 327.726 625.398 327.642 626.476H331.324C331.38 625.286 330.736 624.782 329.546 624.782ZM335.414 633.028H333.916V623.648H335.288V624.796H335.358C335.68 623.984 336.478 623.508 337.682 623.508C339.642 623.508 340.72 624.922 340.72 627.134C340.72 629.332 339.67 630.746 337.78 630.746C336.534 630.746 335.764 630.172 335.456 629.528H335.414V633.028ZM335.414 627.75C335.414 628.912 336.086 629.458 337.318 629.458C338.648 629.458 339.208 628.842 339.208 627.134C339.208 625.412 338.662 624.796 337.318 624.796C336.086 624.796 335.414 625.342 335.414 626.504V627.75ZM343.442 630.606H341.93V621.226H343.442V630.606ZM348.061 630.746C345.919 630.746 344.589 629.29 344.589 627.12C344.589 624.964 345.919 623.508 348.061 623.508C350.189 623.508 351.477 624.964 351.477 627.12C351.477 629.29 350.189 630.746 348.061 630.746ZM348.061 629.402C349.517 629.402 350.021 628.688 350.021 627.12C350.021 625.566 349.517 624.852 348.061 624.852C346.591 624.852 346.073 625.566 346.073 627.12C346.073 628.688 346.591 629.402 348.061 629.402ZM353.428 632.986C353.05 632.986 352.616 632.93 352.378 632.86V631.628H353.33C353.932 631.628 354.142 631.53 354.366 631.012L354.632 630.424L351.678 623.648H353.344L354.744 627.022L355.374 628.534H355.486L356.06 627.022L357.334 623.648H359L355.71 631.432C355.192 632.664 354.52 632.986 353.428 632.986Z" fill="#071B2C"/>
<circle cx="57.2952" cy="571.69" r="30.9749" fill="#E9E6F6"/>
<path d="M62.4572 581.889V583.305M62.4572 581.889C61.2029 581.889 60.098 581.263 59.4497 580.313M62.4572 581.889C63.7115 581.889 64.8164 581.263 65.4647 580.313M59.4497 580.313L58.1206 581.181M59.4497 580.313C59.0665 579.751 58.8429 579.075 58.8429 578.348C58.8429 577.622 59.0663 576.946 59.4496 576.384M65.4647 580.313L66.7938 581.181M65.4647 580.313C65.8479 579.751 66.0715 579.075 66.0715 578.348C66.0715 577.622 65.8481 576.946 65.4648 576.384M62.4572 574.808C63.7116 574.808 64.8167 575.434 65.4648 576.384M62.4572 574.808C61.2028 574.808 60.0977 575.434 59.4496 576.384M62.4572 574.808V573.392M65.4648 576.384L66.7943 575.516M59.4496 576.384L58.1201 575.516" stroke="#5236FF" stroke-width="1.5" stroke-linecap="round"/>
<path d="M46.9678 561H66.7944" stroke="#141B34" stroke-width="1.5" stroke-linecap="round"/>
<path d="M46.9678 568.435H66.7944" stroke="#141B34" stroke-width="1.5" stroke-linecap="round"/>
<path d="M46.9678 575.87H53.1636" stroke="#141B34" stroke-width="1.5" stroke-linecap="round"/>
<rect width="114" height="25" transform="translate(0.294922 611.958)" fill="white"/>
<path d="M36.5735 629.098C33.8995 629.098 32.1915 627.194 32.1915 624.268C32.1915 621.342 33.8995 619.438 36.5735 619.438C39.2335 619.438 40.9415 621.342 40.9415 624.268C40.9415 627.194 39.2335 629.098 36.5735 629.098ZM36.5735 627.642C38.5195 627.642 39.3315 626.704 39.3315 624.268C39.3315 621.832 38.5195 620.894 36.5735 620.894C34.6275 620.894 33.8015 621.832 33.8015 624.268C33.8015 626.704 34.6275 627.642 36.5735 627.642ZM43.6332 631.38H42.1352V622H43.5072V623.148H43.5772C43.8992 622.336 44.6972 621.86 45.9012 621.86C47.8612 621.86 48.9392 623.274 48.9392 625.486C48.9392 627.684 47.8892 629.098 45.9992 629.098C44.7532 629.098 43.9832 628.524 43.6752 627.88H43.6332V631.38ZM43.6332 626.102C43.6332 627.264 44.3052 627.81 45.5372 627.81C46.8672 627.81 47.4272 627.194 47.4272 625.486C47.4272 623.764 46.8812 623.148 45.5372 623.148C44.3052 623.148 43.6332 623.694 43.6332 624.856V626.102ZM53.2969 629.098C51.0009 629.098 49.9229 627.642 49.9229 625.472C49.9229 623.316 51.2109 621.86 53.2829 621.86C55.1589 621.86 56.4749 622.98 56.4749 624.884C56.4749 625.248 56.4329 625.626 56.3909 625.836H51.3369C51.3929 627.11 51.8549 627.754 53.3109 627.754C54.4729 627.754 54.9209 627.362 54.9209 626.732V626.62H56.4189V626.746C56.4189 628.174 55.1729 629.098 53.2969 629.098ZM53.2549 623.134C51.9389 623.134 51.4349 623.75 51.3509 624.828H55.0329C55.0889 623.638 54.4449 623.134 53.2549 623.134ZM59.1935 628.958H57.6815V621.958H59.0675V623.064H59.1375C59.4175 622.42 60.0615 621.86 61.0835 621.86C62.5395 621.86 63.0995 622.924 63.0995 624.226V624.688H61.5875V624.408C61.5875 623.484 61.3215 623.148 60.4395 623.148C59.5295 623.148 59.1935 623.498 59.1935 624.422V628.958ZM65.8062 629.098C64.5602 629.098 63.5942 628.454 63.5942 627.236C63.5942 626.088 64.4342 625.486 65.9182 625.276L68.3542 624.912V624.534C68.3542 623.498 67.8782 623.19 66.7862 623.19C65.6802 623.19 65.2462 623.54 65.2462 624.464V624.674H63.7902V624.534C63.7902 622.98 65.0082 621.86 66.8702 621.86C68.8162 621.86 69.7962 623.036 69.7962 624.73V628.958H68.3962V627.866H68.3262C67.9202 628.524 67.1222 629.098 65.8062 629.098ZM65.0642 627.124C65.0642 627.67 65.4142 627.894 66.2962 627.894C67.2762 627.894 68.3542 627.502 68.3542 626.102V625.976L66.1422 626.312C65.3442 626.424 65.0642 626.606 65.0642 627.124ZM74.0739 628.958C72.5199 628.958 71.7079 628.384 71.7079 626.816V623.26H70.5459V622H71.7359L72.0579 620.278H73.2199V622H75.3199V623.26H73.2199V626.746C73.2199 627.474 73.5279 627.6 74.4659 627.6H75.3199V628.832C75.0259 628.902 74.5499 628.958 74.0739 628.958ZM79.1915 629.098C76.8955 629.098 75.8175 627.642 75.8175 625.472C75.8175 623.316 77.1055 621.86 79.1775 621.86C81.0535 621.86 82.3695 622.98 82.3695 624.884C82.3695 625.248 82.3275 625.626 82.2855 625.836H77.2315C77.2875 627.11 77.7495 627.754 79.2055 627.754C80.3675 627.754 80.8155 627.362 80.8155 626.732V626.62H82.3135V626.746C82.3135 628.174 81.0675 629.098 79.1915 629.098ZM79.1495 623.134C77.8335 623.134 77.3295 623.75 77.2455 624.828H80.9275C80.9835 623.638 80.3395 623.134 79.1495 623.134Z" fill="#071B2C"/>
<circle cx="349.634" cy="399.431" r="30.9749" fill="#E9E6F6"/>
<path d="M349.138 387.116C349.525 386.961 349.955 386.961 350.342 387.116C351.589 387.612 351.832 389.525 353.304 389.631C354.34 389.706 355.357 388.842 356.397 389.101C356.816 389.206 357.178 389.473 357.405 389.846C358.101 390.988 357.203 392.667 358.338 393.614C359.126 394.272 360.428 394.187 361.113 394.994C361.401 395.334 361.543 395.777 361.506 396.224C361.396 397.554 359.701 398.385 360.074 399.818C360.332 400.81 361.419 401.507 361.506 402.559C361.543 403.006 361.401 403.45 361.113 403.789C360.252 404.803 358.39 404.469 357.853 405.843C357.476 406.807 357.96 408.026 357.405 408.937C357.178 409.31 356.816 409.578 356.397 409.682C355.106 410.004 353.795 408.617 352.553 409.399C351.666 409.957 351.348 411.267 350.342 411.668C349.955 411.822 349.525 411.822 349.138 411.668C348.132 411.267 347.814 409.957 346.927 409.399C345.7 408.626 344.352 409.998 343.083 409.682C342.664 409.578 342.301 409.31 342.074 408.937C341.379 407.795 342.276 406.117 341.142 405.169C340.354 404.511 339.052 404.596 338.367 403.789C338.078 403.45 337.937 403.006 337.974 402.559C338.061 401.507 339.148 400.81 339.406 399.818C339.775 398.4 338.082 397.534 337.974 396.224C337.937 395.777 338.078 395.334 338.367 394.994C339.228 393.98 341.089 394.314 341.626 392.94C342.003 391.976 341.519 390.758 342.074 389.846C342.301 389.473 342.664 389.206 343.083 389.101C344.123 388.842 345.14 389.706 346.176 389.631C347.647 389.525 347.891 387.612 349.138 387.116Z" stroke="#141B34" stroke-width="1.5" stroke-linejoin="round"/>
<path d="M346.022 401.044C346.022 401.044 347.107 401.044 348.191 403.109C348.191 403.109 351.635 397.946 354.697 396.913" stroke="#5236FF" stroke-width="1.5" stroke-linecap="round" stroke-linejoin="round"/>
<path d="M327.888 456.699H326.376V447.319H330.408C332.48 447.319 333.782 448.341 333.782 450.119C333.782 451.673 332.83 452.611 331.178 452.695V452.807C331.864 453.031 332.27 453.451 332.62 454.095L334.02 456.699H332.27L330.94 454.277C330.506 453.465 330.114 453.087 328.994 453.087H327.888V456.699ZM327.888 448.677V451.841H330.59C331.808 451.841 332.27 451.393 332.27 450.259C332.27 449.153 331.808 448.677 330.59 448.677H327.888ZM337.768 456.839C335.472 456.839 334.394 455.383 334.394 453.213C334.394 451.057 335.682 449.601 337.754 449.601C339.63 449.601 340.946 450.721 340.946 452.625C340.946 452.989 340.904 453.367 340.862 453.577H335.808C335.864 454.851 336.326 455.495 337.782 455.495C338.944 455.495 339.392 455.103 339.392 454.473V454.361H340.89V454.487C340.89 455.915 339.644 456.839 337.768 456.839ZM337.726 450.875C336.41 450.875 335.906 451.491 335.822 452.569H339.504C339.56 451.379 338.916 450.875 337.726 450.875ZM343.678 456.699H342.166V447.319H343.678V456.699ZM348.199 456.839C345.903 456.839 344.825 455.383 344.825 453.213C344.825 451.057 346.113 449.601 348.185 449.601C350.061 449.601 351.377 450.721 351.377 452.625C351.377 452.989 351.335 453.367 351.293 453.577H346.239C346.295 454.851 346.757 455.495 348.213 455.495C349.375 455.495 349.823 455.103 349.823 454.473V454.361H351.321V454.487C351.321 455.915 350.075 456.839 348.199 456.839ZM348.157 450.875C346.841 450.875 346.337 451.491 346.253 452.569H349.935C349.991 451.379 349.347 450.875 348.157 450.875ZM354.542 456.839C353.296 456.839 352.33 456.195 352.33 454.977C352.33 453.829 353.17 453.227 354.654 453.017L357.09 452.653V452.275C357.09 451.239 356.614 450.931 355.522 450.931C354.416 450.931 353.982 451.281 353.982 452.205V452.415H352.526V452.275C352.526 450.721 353.744 449.601 355.606 449.601C357.552 449.601 358.532 450.777 358.532 452.471V456.699H357.132V455.607H357.062C356.656 456.265 355.858 456.839 354.542 456.839ZM353.8 454.865C353.8 455.411 354.15 455.635 355.032 455.635C356.012 455.635 357.09 455.243 357.09 453.843V453.717L354.878 454.053C354.08 454.165 353.8 454.347 353.8 454.865ZM362.865 456.839C360.835 456.839 359.771 456.041 359.771 454.347V454.319H361.227V454.571C361.227 455.327 361.563 455.607 362.893 455.607C364.013 455.607 364.223 455.355 364.223 454.837C364.223 454.277 363.887 454.109 362.865 453.927L361.787 453.745C360.541 453.521 359.757 452.961 359.757 451.701C359.757 450.441 360.793 449.601 362.613 449.601C364.251 449.601 365.483 450.413 365.483 451.995V452.121H364.041V451.953C364.041 451.309 363.817 450.847 362.571 450.847C361.465 450.847 361.199 451.141 361.199 451.673C361.199 452.205 361.451 452.359 362.431 452.555L363.607 452.779C364.951 453.045 365.651 453.647 365.651 454.795C365.651 456.083 364.629 456.839 362.865 456.839ZM369.965 456.839C367.669 456.839 366.591 455.383 366.591 453.213C366.591 451.057 367.879 449.601 369.951 449.601C371.827 449.601 373.143 450.721 373.143 452.625C373.143 452.989 373.101 453.367 373.059 453.577H368.005C368.061 454.851 368.523 455.495 369.979 455.495C371.141 455.495 371.589 455.103 371.589 454.473V454.361H373.087V454.487C373.087 455.915 371.841 456.839 369.965 456.839ZM369.923 450.875C368.607 450.875 368.103 451.491 368.019 452.569H371.701C371.757 451.379 371.113 450.875 369.923 450.875Z" fill="#071B2C"/>
<circle cx="58.2835" cy="399.431" r="30.9749" fill="#E9E6F6"/>
<path d="M58.3594 411.783L55.8811 404.348H45.9678L48.4461 411.783H58.3594ZM58.3594 411.783H63.3161" stroke="#5236FF" stroke-width="1.5" stroke-linecap="round" stroke-linejoin="round"/>
<path d="M58.3596 400.631V400.011C58.3596 397.675 58.3596 396.506 57.6337 395.78C56.9078 395.055 55.7396 395.055 53.403 395.055C51.0664 395.055 49.8981 395.055 49.1722 395.78C48.4463 396.506 48.4463 397.675 48.4463 400.011V400.631" stroke="#141B34" stroke-width="1.5" stroke-linecap="round" stroke-linejoin="round"/>
<path d="M67.0338 400.631C67.0338 402 65.9243 403.109 64.5555 403.109C63.1867 403.109 62.0771 402 62.0771 400.631C62.0771 399.262 63.1867 398.153 64.5555 398.153C65.9243 398.153 67.0338 399.262 67.0338 400.631Z" stroke="#141B34" stroke-width="1.5"/>
<path d="M55.8805 389.478C55.8805 390.847 54.7709 391.957 53.4022 391.957C52.0334 391.957 50.9238 390.847 50.9238 389.478C50.9238 388.11 52.0334 387 53.4022 387C54.7709 387 55.8805 388.11 55.8805 389.478Z" stroke="#141B34" stroke-width="1.5"/>
<path d="M60.8379 406.207H68.2729C69.6417 406.207 70.7512 407.317 70.7512 408.685V409.305C70.7512 410.674 69.6417 411.783 68.2729 411.783H67.0337" stroke="#141B34" stroke-width="1.5" stroke-linecap="round"/>
<path d="M35.9356 456.699H34.4236V447.319H36.5656L38.7076 452.471L39.5336 454.711H39.6456L40.4576 452.471L42.5576 447.319H44.6996V456.699H43.2016V451.155L43.2576 449.587H43.1596L42.5716 451.155L40.4716 456.139H38.6516L36.5376 451.155L35.9776 449.587H35.8516L35.9356 451.155V456.699ZM49.2768 456.839C47.1348 456.839 45.8048 455.383 45.8048 453.213C45.8048 451.057 47.1348 449.601 49.2768 449.601C51.4048 449.601 52.6928 451.057 52.6928 453.213C52.6928 455.383 51.4048 456.839 49.2768 456.839ZM49.2768 455.495C50.7328 455.495 51.2368 454.781 51.2368 453.213C51.2368 451.659 50.7328 450.945 49.2768 450.945C47.8068 450.945 47.2888 451.659 47.2888 453.213C47.2888 454.781 47.8068 455.495 49.2768 455.495ZM55.3351 456.699H53.8231V449.741H55.2091V451.043H55.2651C55.5871 450.301 56.3291 449.601 57.6871 449.601C59.4931 449.601 60.3051 450.749 60.3051 452.331V456.699H58.7931V452.667C58.7931 451.421 58.4011 450.903 57.1271 450.903C55.8951 450.903 55.3351 451.379 55.3351 452.681V456.699ZM63.1667 448.859H61.6687L61.6547 447.319H63.1667V448.859ZM63.1807 456.699H61.6687V449.699H63.1807V456.699ZM67.4265 456.699C65.8725 456.699 65.0605 456.125 65.0605 454.557V451.001H63.8985V449.741H65.0885L65.4105 448.019H66.5725V449.741H68.6725V451.001H66.5725V454.487C66.5725 455.215 66.8805 455.341 67.8185 455.341H68.6725V456.573C68.3785 456.643 67.9025 456.699 67.4265 456.699ZM72.642 456.839C70.5 456.839 69.17 455.383 69.17 453.213C69.17 451.057 70.5 449.601 72.642 449.601C74.77 449.601 76.058 451.057 76.058 453.213C76.058 455.383 74.77 456.839 72.642 456.839ZM72.642 455.495C74.098 455.495 74.602 454.781 74.602 453.213C74.602 451.659 74.098 450.945 72.642 450.945C71.172 450.945 70.654 451.659 70.654 453.213C70.654 454.781 71.172 455.495 72.642 455.495ZM78.7003 456.699H77.1883V449.699H78.5743V450.805H78.6443C78.9243 450.161 79.5683 449.601 80.5903 449.601C82.0463 449.601 82.6063 450.665 82.6063 451.967V452.429H81.0943V452.149C81.0943 451.225 80.8283 450.889 79.9463 450.889C79.0363 450.889 78.7003 451.239 78.7003 452.163V456.699Z" fill="#071B2C"/>
</svg>
