<svg width="564" height="402" viewBox="0 0 564 402" fill="none" xmlns="http://www.w3.org/2000/svg">
<circle cx="281.758" cy="213.525" r="171.5" stroke="#5236FF" stroke-width="3" stroke-dasharray="16 16"/>
<circle cx="286.733" cy="31.5" r="30.9749" fill="#E9E6F6"/>
<path d="M290.611 20.2141C289.391 19.8121 288.087 19.5946 286.732 19.5946C279.889 19.5946 274.342 25.1418 274.342 31.9846C274.342 38.8273 279.889 44.3745 286.732 44.3745C293.575 44.3745 299.122 38.8273 299.122 31.9846C299.122 30.6896 298.923 29.441 298.555 28.2676" stroke="#071B2C" stroke-width="1.8585" stroke-linecap="round"/>
<path d="M292.927 31.9846C292.927 35.406 290.153 38.1796 286.732 38.1796C283.311 38.1796 280.537 35.406 280.537 31.9846C280.537 28.5632 283.311 25.7896 286.732 25.7896" stroke="#071B2C" stroke-width="1.8585" stroke-linecap="round" stroke-linejoin="round"/>
<path d="M296.025 22.6921L286.732 31.9846M296.025 22.6921V19.5946M296.025 22.6921H299.122" stroke="#5236FF" stroke-width="1.8585" stroke-linecap="round"/>
<path d="M329.296 36H327.784V26.62H329.296V36ZM333.467 36.14C331.479 36.14 330.401 34.726 330.401 32.514C330.401 30.316 331.465 28.902 333.383 28.902C334.615 28.902 335.357 29.49 335.665 30.12H335.707V26.62H337.205V36H335.819V34.852H335.763C335.427 35.65 334.657 36.14 333.467 36.14ZM331.913 32.514C331.913 34.236 332.459 34.852 333.803 34.852C335.035 34.852 335.707 34.306 335.707 33.144V31.898C335.707 30.736 335.035 30.19 333.803 30.19C332.473 30.19 331.913 30.806 331.913 32.514ZM341.732 36.14C339.436 36.14 338.358 34.684 338.358 32.514C338.358 30.358 339.646 28.902 341.718 28.902C343.594 28.902 344.91 30.022 344.91 31.926C344.91 32.29 344.868 32.668 344.826 32.878H339.772C339.828 34.152 340.29 34.796 341.746 34.796C342.908 34.796 343.356 34.404 343.356 33.774V33.662H344.854V33.788C344.854 35.216 343.608 36.14 341.732 36.14ZM341.69 30.176C340.374 30.176 339.87 30.792 339.786 31.87H343.468C343.524 30.68 342.88 30.176 341.69 30.176ZM347.629 36H346.117V29.042H347.503V30.344H347.559C347.881 29.602 348.623 28.902 349.981 28.902C351.787 28.902 352.599 30.05 352.599 31.632V36H351.087V31.968C351.087 30.722 350.695 30.204 349.421 30.204C348.189 30.204 347.629 30.68 347.629 31.982V36ZM356.877 36C355.323 36 354.511 35.426 354.511 33.858V30.302H353.349V29.042H354.539L354.861 27.32H356.023V29.042H358.123V30.302H356.023V33.788C356.023 34.516 356.331 34.642 357.269 34.642H358.123V35.874C357.829 35.944 357.353 36 356.877 36ZM360.519 28.16H359.021L359.007 26.62H360.519V28.16ZM360.533 36H359.021V29H360.533V36ZM363.743 36H362.231V30.302H361.209V29.042H362.231C362.259 27.474 363.197 26.62 364.961 26.62H365.521V27.824H364.681C364.009 27.824 363.701 28.076 363.701 28.664V29.042H365.521V30.302H363.743V36ZM367.541 38.38C367.163 38.38 366.729 38.324 366.491 38.254V37.022H367.443C368.045 37.022 368.255 36.924 368.479 36.406L368.745 35.818L365.791 29.042H367.457L368.857 32.416L369.487 33.928H369.599L370.173 32.416L371.447 29.042H373.113L369.823 36.826C369.305 38.058 368.633 38.38 367.541 38.38ZM376.906 36C375.352 36 374.54 35.426 374.54 33.858V30.302H373.378V29.042H374.568L374.89 27.32H376.052V29.042H378.152V30.302H376.052V33.788C376.052 34.516 376.36 34.642 377.298 34.642H378.152V35.874C377.858 35.944 377.382 36 376.906 36ZM380.742 36H379.23V26.62H380.742V30.204H380.798C381.12 29.574 381.862 28.902 383.122 28.902C384.942 28.902 385.712 30.092 385.712 31.618V36H384.2V31.968C384.2 30.722 383.808 30.204 382.534 30.204C381.302 30.204 380.742 30.68 380.742 31.996V36ZM390.268 36.14C387.972 36.14 386.894 34.684 386.894 32.514C386.894 30.358 388.182 28.902 390.254 28.902C392.13 28.902 393.446 30.022 393.446 31.926C393.446 32.29 393.404 32.668 393.362 32.878H388.308C388.364 34.152 388.826 34.796 390.282 34.796C391.444 34.796 391.892 34.404 391.892 33.774V33.662H393.39V33.788C393.39 35.216 392.144 36.14 390.268 36.14ZM390.226 30.176C388.91 30.176 388.406 30.792 388.322 31.87H392.004C392.06 30.68 391.416 30.176 390.226 30.176ZM398.913 36H397.401V26.62H399.025L402.581 31.996L403.575 33.494H403.687V26.62H405.199V36H403.575L400.033 30.708L399.011 29.182H398.913V36ZM408.125 28.16H406.627L406.613 26.62H408.125V28.16ZM408.139 36H406.627V29H408.139V36ZM412.581 36.154C410.411 36.154 409.179 34.684 409.179 32.528C409.179 30.358 410.453 28.902 412.637 28.902C414.471 28.902 415.731 30.036 415.731 31.702V31.828H414.233V31.744C414.233 30.722 413.701 30.26 412.539 30.26C411.195 30.26 410.677 31.016 410.677 32.528C410.677 34.04 411.195 34.782 412.539 34.782C413.701 34.782 414.233 34.334 414.233 33.312V33.228H415.731V33.354C415.731 35.006 414.457 36.154 412.581 36.154ZM418.395 36H416.883V26.62H418.395V30.204H418.451C418.773 29.574 419.515 28.902 420.775 28.902C422.595 28.902 423.365 30.092 423.365 31.618V36H421.853V31.968C421.853 30.722 421.461 30.204 420.187 30.204C418.955 30.204 418.395 30.68 418.395 31.996V36ZM427.92 36.14C425.624 36.14 424.546 34.684 424.546 32.514C424.546 30.358 425.834 28.902 427.906 28.902C429.782 28.902 431.098 30.022 431.098 31.926C431.098 32.29 431.056 32.668 431.014 32.878H425.96C426.016 34.152 426.478 34.796 427.934 34.796C429.096 34.796 429.544 34.404 429.544 33.774V33.662H431.042V33.788C431.042 35.216 429.796 36.14 427.92 36.14ZM427.878 30.176C426.562 30.176 426.058 30.792 425.974 31.87H429.656C429.712 30.68 429.068 30.176 427.878 30.176Z" fill="#071B2C"/>
<circle cx="402.733" cy="88.5" r="30.9749" fill="#E9E6F6"/>
<path d="M397.157 97.7925C397.157 96.5961 397.564 95.3859 398.558 94.7203C399.751 93.922 401.187 93.456 402.733 93.456C404.278 93.456 405.715 93.922 406.907 94.7203C407.901 95.3859 408.308 96.5961 408.308 97.7925" stroke="#5236FF" stroke-width="1.8585" stroke-linecap="round" stroke-linejoin="round"/>
<path d="M402.733 90.3585C404.444 90.3585 405.831 88.9717 405.831 87.261C405.831 85.5503 404.444 84.1635 402.733 84.1635C401.023 84.1635 399.636 85.5503 399.636 87.261C399.636 88.9717 401.023 90.3585 402.733 90.3585Z" stroke="#5236FF" stroke-width="1.8585" stroke-linecap="round" stroke-linejoin="round"/>
<path d="M409.548 87.261C410.923 87.261 412.201 87.728 413.262 88.5277C414.161 89.2057 414.504 90.3524 414.504 91.4783V91.5975" stroke="#071B2C" stroke-width="1.8585" stroke-linecap="round" stroke-linejoin="round"/>
<path d="M409.547 84.1635C410.916 84.1635 412.025 83.0541 412.025 81.6855C412.025 80.317 410.916 79.2075 409.547 79.2075C408.179 79.2075 407.069 80.317 407.069 81.6855C407.069 83.0541 408.179 84.1635 409.547 84.1635Z" stroke="#071B2C" stroke-width="1.8585" stroke-linecap="round" stroke-linejoin="round"/>
<path d="M395.919 87.261C394.543 87.261 393.266 87.728 392.205 88.5277C391.306 89.2057 390.963 90.3524 390.963 91.4783V91.5975" stroke="#071B2C" stroke-width="1.8585" stroke-linecap="round" stroke-linejoin="round"/>
<path d="M395.918 84.1635C397.287 84.1635 398.396 83.0541 398.396 81.6855C398.396 80.317 397.287 79.2075 395.918 79.2075C394.55 79.2075 393.44 80.317 393.44 81.6855C393.44 83.0541 394.55 84.1635 395.918 84.1635Z" stroke="#071B2C" stroke-width="1.8585" stroke-linecap="round" stroke-linejoin="round"/>
<path d="M447.774 83.5H446.276V75.478H443.084V74.12H450.966V75.478H447.774V83.5ZM452.714 83.64C451.468 83.64 450.502 82.996 450.502 81.778C450.502 80.63 451.342 80.028 452.826 79.818L455.262 79.454V79.076C455.262 78.04 454.786 77.732 453.694 77.732C452.588 77.732 452.154 78.082 452.154 79.006V79.216H450.698V79.076C450.698 77.522 451.916 76.402 453.778 76.402C455.724 76.402 456.704 77.578 456.704 79.272V83.5H455.304V82.408H455.234C454.828 83.066 454.03 83.64 452.714 83.64ZM451.972 81.666C451.972 82.212 452.322 82.436 453.204 82.436C454.184 82.436 455.262 82.044 455.262 80.644V80.518L453.05 80.854C452.252 80.966 451.972 81.148 451.972 81.666ZM459.664 83.5H458.152V76.5H459.538V77.606H459.608C459.888 76.962 460.532 76.402 461.554 76.402C463.01 76.402 463.57 77.466 463.57 78.768V79.23H462.058V78.95C462.058 78.026 461.792 77.69 460.91 77.69C460 77.69 459.664 78.04 459.664 78.964V83.5ZM467.239 82.842C465.321 82.842 464.257 81.582 464.257 79.622C464.257 77.662 465.335 76.402 467.295 76.402C468.415 76.402 469.283 76.878 469.619 77.69H469.675V76.542H471.061V82.996C471.061 85.054 469.857 86.02 467.827 86.02C465.853 86.02 464.621 85.082 464.621 83.402H466.119C466.119 84.354 466.469 84.676 467.869 84.676C469.227 84.676 469.563 84.284 469.563 82.996V81.61H469.507C469.185 82.282 468.373 82.842 467.239 82.842ZM465.769 79.622C465.769 81.05 466.357 81.554 467.673 81.554C468.807 81.554 469.563 81.008 469.563 79.832V79.398C469.563 78.236 468.807 77.69 467.645 77.69C466.343 77.69 465.769 78.194 465.769 79.622ZM475.574 83.64C473.278 83.64 472.2 82.184 472.2 80.014C472.2 77.858 473.488 76.402 475.56 76.402C477.436 76.402 478.752 77.522 478.752 79.426C478.752 79.79 478.71 80.168 478.668 80.378H473.614C473.67 81.652 474.132 82.296 475.588 82.296C476.75 82.296 477.198 81.904 477.198 81.274V81.162H478.696V81.288C478.696 82.716 477.45 83.64 475.574 83.64ZM475.532 77.676C474.216 77.676 473.712 78.292 473.628 79.37H477.31C477.366 78.18 476.722 77.676 475.532 77.676ZM482.802 83.5C481.248 83.5 480.436 82.926 480.436 81.358V77.802H479.274V76.542H480.464L480.786 74.82H481.948V76.542H484.048V77.802H481.948V81.288C481.948 82.016 482.256 82.142 483.194 82.142H484.048V83.374C483.754 83.444 483.278 83.5 482.802 83.5ZM444.708 102.5H443.126L446.78 93.12H448.95L452.604 102.5H450.966L450.014 100.064H445.66L444.708 102.5ZM447.172 96.228L446.192 98.706H449.482L448.502 96.228L447.9 94.492H447.788L447.172 96.228ZM455.957 102.64C454.137 102.64 453.325 101.422 453.325 99.84V95.542H454.837V99.574C454.837 100.82 455.313 101.338 456.517 101.338C457.679 101.338 458.337 100.834 458.337 99.462V95.542H459.849V102.5H458.449V101.114H458.393C458.057 101.912 457.315 102.64 455.957 102.64ZM464.096 102.64C462.108 102.64 461.03 101.226 461.03 99.014C461.03 96.816 462.094 95.402 464.012 95.402C465.244 95.402 465.986 95.99 466.294 96.62H466.336V93.12H467.834V102.5H466.448V101.352H466.392C466.056 102.15 465.286 102.64 464.096 102.64ZM462.542 99.014C462.542 100.736 463.088 101.352 464.432 101.352C465.664 101.352 466.336 100.806 466.336 99.644V98.398C466.336 97.236 465.664 96.69 464.432 96.69C463.102 96.69 462.542 97.306 462.542 99.014ZM470.736 94.66H469.238L469.224 93.12H470.736V94.66ZM470.75 102.5H469.238V95.5H470.75V102.5ZM475.164 102.64C472.868 102.64 471.79 101.184 471.79 99.014C471.79 96.858 473.078 95.402 475.15 95.402C477.026 95.402 478.342 96.522 478.342 98.426C478.342 98.79 478.3 99.168 478.258 99.378H473.204C473.26 100.652 473.722 101.296 475.178 101.296C476.34 101.296 476.788 100.904 476.788 100.274V100.162H478.286V100.288C478.286 101.716 477.04 102.64 475.164 102.64ZM475.122 96.676C473.806 96.676 473.302 97.292 473.218 98.37H476.9C476.956 97.18 476.312 96.676 475.122 96.676ZM481.061 102.5H479.549V95.542H480.935V96.844H480.991C481.313 96.102 482.055 95.402 483.413 95.402C485.219 95.402 486.031 96.55 486.031 98.132V102.5H484.519V98.468C484.519 97.222 484.127 96.704 482.853 96.704C481.621 96.704 481.061 97.18 481.061 98.482V102.5ZM490.573 102.654C488.403 102.654 487.171 101.184 487.171 99.028C487.171 96.858 488.445 95.402 490.629 95.402C492.463 95.402 493.723 96.536 493.723 98.202V98.328H492.225V98.244C492.225 97.222 491.693 96.76 490.531 96.76C489.187 96.76 488.669 97.516 488.669 99.028C488.669 100.54 489.187 101.282 490.531 101.282C491.693 101.282 492.225 100.834 492.225 99.812V99.728H493.723V99.854C493.723 101.506 492.449 102.654 490.573 102.654ZM498.024 102.64C495.728 102.64 494.649 101.184 494.649 99.014C494.649 96.858 495.938 95.402 498.01 95.402C499.886 95.402 501.202 96.522 501.202 98.426C501.202 98.79 501.16 99.168 501.118 99.378H496.064C496.12 100.652 496.582 101.296 498.038 101.296C499.2 101.296 499.648 100.904 499.648 100.274V100.162H501.146V100.288C501.146 101.716 499.9 102.64 498.024 102.64ZM497.982 96.676C496.666 96.676 496.162 97.292 496.078 98.37H499.76C499.816 97.18 499.172 96.676 497.982 96.676ZM506.669 102.5H505.157V93.12H509.189C511.261 93.12 512.563 94.142 512.563 95.92C512.563 97.474 511.611 98.412 509.959 98.496V98.608C510.645 98.832 511.051 99.252 511.401 99.896L512.801 102.5H511.051L509.721 100.078C509.287 99.266 508.895 98.888 507.775 98.888H506.669V102.5ZM506.669 94.478V97.642H509.371C510.589 97.642 511.051 97.194 511.051 96.06C511.051 94.954 510.589 94.478 509.371 94.478H506.669ZM516.549 102.64C514.253 102.64 513.175 101.184 513.175 99.014C513.175 96.858 514.463 95.402 516.535 95.402C518.411 95.402 519.727 96.522 519.727 98.426C519.727 98.79 519.685 99.168 519.643 99.378H514.589C514.645 100.652 515.107 101.296 516.563 101.296C517.725 101.296 518.173 100.904 518.173 100.274V100.162H519.671V100.288C519.671 101.716 518.425 102.64 516.549 102.64ZM516.507 96.676C515.191 96.676 514.687 97.292 514.603 98.37H518.285C518.341 97.18 517.697 96.676 516.507 96.676ZM523.928 102.64C521.898 102.64 520.834 101.842 520.834 100.148V100.12H522.29V100.372C522.29 101.128 522.626 101.408 523.956 101.408C525.076 101.408 525.286 101.156 525.286 100.638C525.286 100.078 524.95 99.91 523.928 99.728L522.85 99.546C521.604 99.322 520.82 98.762 520.82 97.502C520.82 96.242 521.856 95.402 523.676 95.402C525.314 95.402 526.546 96.214 526.546 97.796V97.922H525.104V97.754C525.104 97.11 524.88 96.648 523.634 96.648C522.528 96.648 522.262 96.942 522.262 97.474C522.262 98.006 522.514 98.16 523.494 98.356L524.67 98.58C526.014 98.846 526.714 99.448 526.714 100.596C526.714 101.884 525.692 102.64 523.928 102.64ZM531.027 102.64C528.731 102.64 527.653 101.184 527.653 99.014C527.653 96.858 528.941 95.402 531.013 95.402C532.889 95.402 534.205 96.522 534.205 98.426C534.205 98.79 534.163 99.168 534.121 99.378H529.067C529.123 100.652 529.585 101.296 531.041 101.296C532.203 101.296 532.651 100.904 532.651 100.274V100.162H534.149V100.288C534.149 101.716 532.903 102.64 531.027 102.64ZM530.985 96.676C529.669 96.676 529.165 97.292 529.081 98.37H532.763C532.819 97.18 532.175 96.676 530.985 96.676ZM537.371 102.64C536.125 102.64 535.159 101.996 535.159 100.778C535.159 99.63 535.999 99.028 537.483 98.818L539.919 98.454V98.076C539.919 97.04 539.443 96.732 538.351 96.732C537.245 96.732 536.811 97.082 536.811 98.006V98.216H535.355V98.076C535.355 96.522 536.573 95.402 538.435 95.402C540.381 95.402 541.361 96.578 541.361 98.272V102.5H539.961V101.408H539.891C539.485 102.066 538.687 102.64 537.371 102.64ZM536.629 100.666C536.629 101.212 536.979 101.436 537.861 101.436C538.841 101.436 539.919 101.044 539.919 99.644V99.518L537.707 99.854C536.909 99.966 536.629 100.148 536.629 100.666ZM544.32 102.5H542.808V95.5H544.194V96.606H544.264C544.544 95.962 545.188 95.402 546.21 95.402C547.666 95.402 548.226 96.466 548.226 97.768V98.23H546.714V97.95C546.714 97.026 546.448 96.69 545.566 96.69C544.656 96.69 544.32 97.04 544.32 97.964V102.5ZM552.315 102.654C550.145 102.654 548.913 101.184 548.913 99.028C548.913 96.858 550.187 95.402 552.371 95.402C554.205 95.402 555.465 96.536 555.465 98.202V98.328H553.967V98.244C553.967 97.222 553.435 96.76 552.273 96.76C550.929 96.76 550.411 97.516 550.411 99.028C550.411 100.54 550.929 101.282 552.273 101.282C553.435 101.282 553.967 100.834 553.967 99.812V99.728H555.465V99.854C555.465 101.506 554.191 102.654 552.315 102.654ZM558.129 102.5H556.617V93.12H558.129V96.704H558.185C558.507 96.074 559.249 95.402 560.509 95.402C562.329 95.402 563.099 96.592 563.099 98.118V102.5H561.587V98.468C561.587 97.222 561.195 96.704 559.921 96.704C558.689 96.704 558.129 97.18 558.129 98.496V102.5Z" fill="#071B2C"/>
<circle cx="429.733" cy="295.5" r="30.9749" fill="#E9E6F6"/>
<path d="M420.818 299.981L427.013 296.264M431.969 293.786L438.164 290.069M429.491 286.352V292.547M429.491 297.503V303.698M420.818 290.069L427.013 293.786M431.969 296.264L438.164 299.981" stroke="#071B2C" stroke-width="1.8585" stroke-linejoin="round"/>
<path d="M440.023 291.308V298.123M431.35 305.557L438.164 301.84M420.199 301.84L427.633 305.557M418.96 298.742V291.308M420.199 288.211L427.633 284.494M438.784 288.211L431.35 284.494" stroke="#071B2C" stroke-width="1.8585" stroke-linejoin="round"/>
<path d="M429.491 286.352C430.518 286.352 431.35 285.52 431.35 284.494C431.35 283.467 430.518 282.635 429.491 282.635C428.465 282.635 427.633 283.467 427.633 284.494C427.633 285.52 428.465 286.352 429.491 286.352Z" stroke="#5236FF" stroke-width="1.8585" stroke-linejoin="round"/>
<path d="M429.491 307.415C430.518 307.415 431.35 306.583 431.35 305.557C431.35 304.53 430.518 303.698 429.491 303.698C428.465 303.698 427.633 304.53 427.633 305.557C427.633 306.583 428.465 307.415 429.491 307.415Z" stroke="#5236FF" stroke-width="1.8585" stroke-linejoin="round"/>
<path d="M418.959 291.308C419.986 291.308 420.818 290.476 420.818 289.45C420.818 288.423 419.986 287.591 418.959 287.591C417.933 287.591 417.101 288.423 417.101 289.45C417.101 290.476 417.933 291.308 418.959 291.308Z" stroke="#5236FF" stroke-width="1.8585" stroke-linejoin="round"/>
<path d="M440.023 291.308C441.049 291.308 441.881 290.476 441.881 289.45C441.881 288.423 441.049 287.591 440.023 287.591C438.996 287.591 438.164 288.423 438.164 289.45C438.164 290.476 438.996 291.308 440.023 291.308Z" stroke="#5236FF" stroke-width="1.8585" stroke-linejoin="round"/>
<path d="M440.023 302.459C441.049 302.459 441.881 301.627 441.881 300.601C441.881 299.574 441.049 298.742 440.023 298.742C438.996 298.742 438.164 299.574 438.164 300.601C438.164 301.627 438.996 302.459 440.023 302.459Z" stroke="#5236FF" stroke-width="1.8585" stroke-linejoin="round"/>
<path d="M418.959 302.459C419.986 302.459 420.818 301.627 420.818 300.601C420.818 299.574 419.986 298.742 418.959 298.742C417.933 298.742 417.101 299.574 417.101 300.601C417.101 301.627 417.933 302.459 418.959 302.459Z" stroke="#5236FF" stroke-width="1.8585" stroke-linejoin="round"/>
<path d="M429.491 292.237L431.969 293.631V296.419L429.491 297.813L427.013 296.419V293.631L429.491 292.237Z" stroke="#5236FF" stroke-width="1.8585" stroke-linejoin="round"/>
<path d="M472.296 290.5H470.784V281.12H474.774C476.734 281.12 478.176 282.282 478.176 284.298C478.176 286.314 476.734 287.476 474.774 287.476H472.296V290.5ZM474.956 282.478H472.296V286.118H474.956C476.188 286.118 476.678 285.642 476.678 284.298C476.678 282.954 476.188 282.478 474.956 282.478ZM480.717 290.5H479.205V281.12H480.717V290.5ZM484.035 290.64C482.789 290.64 481.823 289.996 481.823 288.778C481.823 287.63 482.663 287.028 484.147 286.818L486.583 286.454V286.076C486.583 285.04 486.107 284.732 485.015 284.732C483.909 284.732 483.475 285.082 483.475 286.006V286.216H482.019V286.076C482.019 284.522 483.237 283.402 485.099 283.402C487.045 283.402 488.025 284.578 488.025 286.272V290.5H486.625V289.408H486.555C486.149 290.066 485.351 290.64 484.035 290.64ZM483.293 288.666C483.293 289.212 483.643 289.436 484.525 289.436C485.505 289.436 486.583 289.044 486.583 287.644V287.518L484.371 287.854C483.573 287.966 483.293 288.148 483.293 288.666ZM490.984 290.5H489.472V283.542H490.858V284.844H490.914C491.236 284.102 491.978 283.402 493.336 283.402C495.142 283.402 495.954 284.55 495.954 286.132V290.5H494.442V286.468C494.442 285.222 494.05 284.704 492.776 284.704C491.544 284.704 490.984 285.18 490.984 286.482V290.5ZM502.953 290.5C501.399 290.5 500.587 289.926 500.587 288.358V284.802H499.425V283.542H500.615L500.937 281.82H502.099V283.542H504.199V284.802H502.099V288.288C502.099 289.016 502.407 289.142 503.345 289.142H504.199V290.374C503.905 290.444 503.429 290.5 502.953 290.5ZM506.789 290.5H505.277V281.12H506.789V284.704H506.845C507.167 284.074 507.909 283.402 509.169 283.402C510.989 283.402 511.759 284.592 511.759 286.118V290.5H510.247V286.468C510.247 285.222 509.855 284.704 508.581 284.704C507.349 284.704 506.789 285.18 506.789 286.496V290.5ZM516.315 290.64C514.019 290.64 512.941 289.184 512.941 287.014C512.941 284.858 514.229 283.402 516.301 283.402C518.177 283.402 519.493 284.522 519.493 286.426C519.493 286.79 519.451 287.168 519.409 287.378H514.355C514.411 288.652 514.873 289.296 516.329 289.296C517.491 289.296 517.939 288.904 517.939 288.274V288.162H519.437V288.288C519.437 289.716 518.191 290.64 516.315 290.64ZM516.273 284.676C514.957 284.676 514.453 285.292 514.369 286.37H518.051C518.107 285.18 517.463 284.676 516.273 284.676ZM472.296 309.5H470.784V300.12H477.434V301.478H472.296V304.376H477.224V305.748H472.296V309.5ZM481.574 309.64C479.278 309.64 478.2 308.184 478.2 306.014C478.2 303.858 479.488 302.402 481.56 302.402C483.436 302.402 484.752 303.522 484.752 305.426C484.752 305.79 484.71 306.168 484.668 306.378H479.614C479.67 307.652 480.132 308.296 481.588 308.296C482.75 308.296 483.198 307.904 483.198 307.274V307.162H484.696V307.288C484.696 308.716 483.45 309.64 481.574 309.64ZM481.532 303.676C480.216 303.676 479.712 304.292 479.628 305.37H483.31C483.366 304.18 482.722 303.676 481.532 303.676ZM487.917 309.64C486.671 309.64 485.705 308.996 485.705 307.778C485.705 306.63 486.545 306.028 488.029 305.818L490.465 305.454V305.076C490.465 304.04 489.989 303.732 488.897 303.732C487.791 303.732 487.357 304.082 487.357 305.006V305.216H485.901V305.076C485.901 303.522 487.119 302.402 488.981 302.402C490.927 302.402 491.907 303.578 491.907 305.272V309.5H490.507V308.408H490.437C490.031 309.066 489.233 309.64 487.917 309.64ZM487.175 307.666C487.175 308.212 487.525 308.436 488.407 308.436C489.387 308.436 490.465 308.044 490.465 306.644V306.518L488.253 306.854C487.455 306.966 487.175 307.148 487.175 307.666ZM496.185 309.5C494.631 309.5 493.819 308.926 493.819 307.358V303.802H492.657V302.542H493.847L494.169 300.82H495.331V302.542H497.431V303.802H495.331V307.288C495.331 308.016 495.639 308.142 496.577 308.142H497.431V309.374C497.137 309.444 496.661 309.5 496.185 309.5ZM501.059 309.64C499.239 309.64 498.427 308.422 498.427 306.84V302.542H499.939V306.574C499.939 307.82 500.415 308.338 501.619 308.338C502.781 308.338 503.439 307.834 503.439 306.462V302.542H504.951V309.5H503.551V308.114H503.495C503.159 308.912 502.417 309.64 501.059 309.64ZM507.951 309.5H506.439V302.5H507.825V303.606H507.895C508.175 302.962 508.819 302.402 509.841 302.402C511.297 302.402 511.857 303.466 511.857 304.768V305.23H510.345V304.95C510.345 304.026 510.079 303.69 509.197 303.69C508.287 303.69 507.951 304.04 507.951 304.964V309.5ZM515.918 309.64C513.622 309.64 512.544 308.184 512.544 306.014C512.544 303.858 513.832 302.402 515.904 302.402C517.78 302.402 519.096 303.522 519.096 305.426C519.096 305.79 519.054 306.168 519.012 306.378H513.958C514.014 307.652 514.476 308.296 515.932 308.296C517.094 308.296 517.542 307.904 517.542 307.274V307.162H519.04V307.288C519.04 308.716 517.794 309.64 515.918 309.64ZM515.876 303.676C514.56 303.676 514.056 304.292 513.972 305.37H517.654C517.71 304.18 517.066 303.676 515.876 303.676ZM523.297 309.64C521.267 309.64 520.203 308.842 520.203 307.148V307.12H521.659V307.372C521.659 308.128 521.995 308.408 523.325 308.408C524.445 308.408 524.655 308.156 524.655 307.638C524.655 307.078 524.319 306.91 523.297 306.728L522.219 306.546C520.973 306.322 520.189 305.762 520.189 304.502C520.189 303.242 521.225 302.402 523.045 302.402C524.683 302.402 525.915 303.214 525.915 304.796V304.922H524.473V304.754C524.473 304.11 524.249 303.648 523.003 303.648C521.897 303.648 521.631 303.942 521.631 304.474C521.631 305.006 521.883 305.16 522.863 305.356L524.039 305.58C525.383 305.846 526.083 306.448 526.083 307.596C526.083 308.884 525.061 309.64 523.297 309.64Z" fill="#071B2C"/>
<circle cx="450.733" cy="182.5" r="30.9749" fill="#E9E6F6"/>
<path d="M453.211 187.456V177.544C453.211 176.376 453.211 175.792 452.848 175.429C452.485 175.066 451.901 175.066 450.733 175.066C449.565 175.066 448.981 175.066 448.618 175.429C448.255 175.792 448.255 176.376 448.255 177.544V187.456C448.255 188.624 448.255 189.208 448.618 189.571C448.981 189.934 449.565 189.934 450.733 189.934C451.901 189.934 452.485 189.934 452.848 189.571C453.211 189.208 453.211 188.624 453.211 187.456Z" stroke="#5236FF" stroke-width="1.8585" stroke-linecap="round" stroke-linejoin="round"/>
<path d="M461.884 178.783V176.305C461.884 175.137 461.884 174.553 461.521 174.19C461.158 173.827 460.574 173.827 459.406 173.827C458.238 173.827 457.654 173.827 457.291 174.19C456.928 174.553 456.928 175.137 456.928 176.305V178.783C456.928 179.951 456.928 180.535 457.291 180.898C457.654 181.261 458.238 181.261 459.406 181.261C460.574 181.261 461.158 181.261 461.521 180.898C461.884 180.535 461.884 179.951 461.884 178.783Z" stroke="#071B2C" stroke-width="1.8585" stroke-linecap="round" stroke-linejoin="round"/>
<path d="M444.538 184.978V182.5C444.538 181.332 444.538 180.748 444.175 180.385C443.812 180.022 443.228 180.022 442.06 180.022C440.892 180.022 440.308 180.022 439.945 180.385C439.582 180.748 439.582 181.332 439.582 182.5V184.978C439.582 186.146 439.582 186.73 439.945 187.093C440.308 187.456 440.892 187.456 442.06 187.456C443.228 187.456 443.812 187.456 444.175 187.093C444.538 186.73 444.538 186.146 444.538 184.978Z" stroke="#071B2C" stroke-width="1.8585" stroke-linecap="round" stroke-linejoin="round"/>
<path d="M450.733 193.651V189.934" stroke="#5236FF" stroke-width="1.8585" stroke-linecap="round" stroke-linejoin="round"/>
<path d="M459.406 183.739V181.261" stroke="#071B2C" stroke-width="1.8585" stroke-linecap="round" stroke-linejoin="round"/>
<path d="M450.733 175.066V171.349" stroke="#5236FF" stroke-width="1.8585" stroke-linecap="round" stroke-linejoin="round"/>
<path d="M459.406 173.827V171.349" stroke="#071B2C" stroke-width="1.8585" stroke-linecap="round" stroke-linejoin="round"/>
<path d="M442.061 189.934V187.456" stroke="#071B2C" stroke-width="1.8585" stroke-linecap="round" stroke-linejoin="round"/>
<path d="M442.061 180.022V177.544" stroke="#071B2C" stroke-width="1.8585" stroke-linecap="round" stroke-linejoin="round"/>
<path d="M495.886 177.64C493.156 177.64 491.504 175.736 491.504 172.81C491.504 169.884 493.156 167.98 495.886 167.98C498.406 167.98 499.932 169.38 499.932 171.634V171.718H498.322V171.634C498.322 170.094 497.608 169.436 495.844 169.436C493.898 169.436 493.114 170.374 493.114 172.81C493.114 175.246 493.898 176.184 495.844 176.184C497.608 176.184 498.322 175.526 498.322 173.986V173.902H499.932V173.986C499.932 176.24 498.406 177.64 495.886 177.64ZM504.368 177.64C502.226 177.64 500.896 176.184 500.896 174.014C500.896 171.858 502.226 170.402 504.368 170.402C506.496 170.402 507.784 171.858 507.784 174.014C507.784 176.184 506.496 177.64 504.368 177.64ZM504.368 176.296C505.824 176.296 506.328 175.582 506.328 174.014C506.328 172.46 505.824 171.746 504.368 171.746C502.898 171.746 502.38 172.46 502.38 174.014C502.38 175.582 502.898 176.296 504.368 176.296ZM510.426 177.5H508.914V170.542H510.3V171.844H510.356C510.678 171.102 511.406 170.402 512.736 170.402C513.954 170.402 514.71 170.962 515.046 171.844H515.088C515.41 171.116 516.124 170.402 517.496 170.402C519.288 170.402 520.086 171.55 520.086 173.132V177.5H518.574V173.468C518.574 172.222 518.196 171.704 516.936 171.704C515.788 171.704 515.256 172.18 515.256 173.454V177.5H513.744V173.468C513.744 172.222 513.366 171.704 512.106 171.704C510.958 171.704 510.426 172.18 510.426 173.44V177.5ZM522.975 179.922H521.477V170.542H522.849V171.69H522.919C523.241 170.878 524.039 170.402 525.243 170.402C527.203 170.402 528.281 171.816 528.281 174.028C528.281 176.226 527.231 177.64 525.341 177.64C524.095 177.64 523.325 177.066 523.017 176.422H522.975V179.922ZM522.975 174.644C522.975 175.806 523.647 176.352 524.879 176.352C526.209 176.352 526.769 175.736 526.769 174.028C526.769 172.306 526.223 171.69 524.879 171.69C523.647 171.69 522.975 172.236 522.975 173.398V174.644ZM532.639 177.64C530.343 177.64 529.265 176.184 529.265 174.014C529.265 171.858 530.553 170.402 532.625 170.402C534.501 170.402 535.817 171.522 535.817 173.426C535.817 173.79 535.775 174.168 535.733 174.378H530.679C530.735 175.652 531.197 176.296 532.653 176.296C533.815 176.296 534.263 175.904 534.263 175.274V175.162H535.761V175.288C535.761 176.716 534.515 177.64 532.639 177.64ZM532.597 171.676C531.281 171.676 530.777 172.292 530.693 173.37H534.375C534.431 172.18 533.787 171.676 532.597 171.676ZM539.867 177.5C538.313 177.5 537.501 176.926 537.501 175.358V171.802H536.339V170.542H537.529L537.851 168.82H539.013V170.542H541.113V171.802H539.013V175.288C539.013 176.016 539.321 176.142 540.259 176.142H541.113V177.374C540.819 177.444 540.343 177.5 539.867 177.5ZM543.51 169.66H542.012L541.998 168.12H543.51V169.66ZM543.524 177.5H542.012V170.5H543.524V177.5ZM547.769 177.5C546.215 177.5 545.403 176.926 545.403 175.358V171.802H544.241V170.542H545.431L545.753 168.82H546.915V170.542H549.015V171.802H546.915V175.288C546.915 176.016 547.223 176.142 548.161 176.142H549.015V177.374C548.721 177.444 548.245 177.5 547.769 177.5ZM552.985 177.64C550.843 177.64 549.513 176.184 549.513 174.014C549.513 171.858 550.843 170.402 552.985 170.402C555.113 170.402 556.401 171.858 556.401 174.014C556.401 176.184 555.113 177.64 552.985 177.64ZM552.985 176.296C554.441 176.296 554.945 175.582 554.945 174.014C554.945 172.46 554.441 171.746 552.985 171.746C551.515 171.746 550.997 172.46 550.997 174.014C550.997 175.582 551.515 176.296 552.985 176.296ZM559.043 177.5H557.531V170.5H558.917V171.606H558.987C559.267 170.962 559.911 170.402 560.933 170.402C562.389 170.402 562.949 171.466 562.949 172.768V173.23H561.437V172.95C561.437 172.026 561.171 171.69 560.289 171.69C559.379 171.69 559.043 172.04 559.043 172.964V177.5ZM492.708 196.5H491.126L494.78 187.12H496.95L500.604 196.5H498.966L498.014 194.064H493.66L492.708 196.5ZM495.172 190.228L494.192 192.706H497.482L496.502 190.228L495.9 188.492H495.788L495.172 190.228ZM502.879 196.5H501.367V189.542H502.753V190.844H502.809C503.131 190.102 503.873 189.402 505.231 189.402C507.037 189.402 507.849 190.55 507.849 192.132V196.5H506.337V192.468C506.337 191.222 505.945 190.704 504.671 190.704C503.439 190.704 502.879 191.18 502.879 192.482V196.5ZM511.173 196.64C509.927 196.64 508.961 195.996 508.961 194.778C508.961 193.63 509.801 193.028 511.285 192.818L513.721 192.454V192.076C513.721 191.04 513.245 190.732 512.153 190.732C511.047 190.732 510.613 191.082 510.613 192.006V192.216H509.157V192.076C509.157 190.522 510.375 189.402 512.237 189.402C514.183 189.402 515.163 190.578 515.163 192.272V196.5H513.763V195.408H513.693C513.287 196.066 512.489 196.64 511.173 196.64ZM510.431 194.666C510.431 195.212 510.781 195.436 511.663 195.436C512.643 195.436 513.721 195.044 513.721 193.644V193.518L511.509 193.854C510.711 193.966 510.431 194.148 510.431 194.666ZM518.123 196.5H516.611V187.12H518.123V196.5ZM520.672 198.88C520.294 198.88 519.86 198.824 519.622 198.754V197.522H520.574C521.176 197.522 521.386 197.424 521.61 196.906L521.876 196.318L518.922 189.542H520.588L521.988 192.916L522.618 194.428H522.73L523.304 192.916L524.578 189.542H526.244L522.954 197.326C522.436 198.558 521.764 198.88 520.672 198.88ZM529.709 196.64C527.679 196.64 526.615 195.842 526.615 194.148V194.12H528.071V194.372C528.071 195.128 528.407 195.408 529.737 195.408C530.857 195.408 531.067 195.156 531.067 194.638C531.067 194.078 530.731 193.91 529.709 193.728L528.631 193.546C527.385 193.322 526.601 192.762 526.601 191.502C526.601 190.242 527.637 189.402 529.457 189.402C531.095 189.402 532.327 190.214 532.327 191.796V191.922H530.885V191.754C530.885 191.11 530.661 190.648 529.415 190.648C528.309 190.648 528.043 190.942 528.043 191.474C528.043 192.006 528.295 192.16 529.275 192.356L530.451 192.58C531.795 192.846 532.495 193.448 532.495 194.596C532.495 195.884 531.473 196.64 529.709 196.64ZM535.088 188.66H533.59L533.576 187.12H535.088V188.66ZM535.102 196.5H533.59V189.5H535.102V196.5ZM539.375 196.64C537.345 196.64 536.281 195.842 536.281 194.148V194.12H537.737V194.372C537.737 195.128 538.073 195.408 539.403 195.408C540.523 195.408 540.733 195.156 540.733 194.638C540.733 194.078 540.397 193.91 539.375 193.728L538.297 193.546C537.051 193.322 536.267 192.762 536.267 191.502C536.267 190.242 537.303 189.402 539.123 189.402C540.761 189.402 541.993 190.214 541.993 191.796V191.922H540.551V191.754C540.551 191.11 540.327 190.648 539.081 190.648C537.975 190.648 537.709 190.942 537.709 191.474C537.709 192.006 537.961 192.16 538.941 192.356L540.117 192.58C541.461 192.846 542.161 193.448 542.161 194.596C542.161 195.884 541.139 196.64 539.375 196.64Z" fill="#071B2C"/>
<circle cx="345.733" cy="369.5" r="30.9749" fill="#E9E6F6"/>
<path d="M351.795 364.558L354.074 366.85C355.033 367.814 355.512 368.296 355.512 368.895C355.512 369.493 355.033 369.975 354.074 370.939L351.795 373.231" stroke="#071B2C" stroke-width="1.8585" stroke-linecap="round" stroke-linejoin="round"/>
<path d="M339.405 364.558L337.126 366.85C336.168 367.814 335.688 368.296 335.688 368.895C335.688 369.493 336.168 369.975 337.126 370.939L339.405 373.231" stroke="#071B2C" stroke-width="1.8585" stroke-linecap="round" stroke-linejoin="round"/>
<path d="M348.698 359.602L342.503 379.426" stroke="#5236FF" stroke-width="1.8585" stroke-linecap="round" stroke-linejoin="round"/>
<path d="M390.116 364.5H386.784V355.12H390.116C393.014 355.12 394.862 356.912 394.862 359.81C394.862 362.708 393.014 364.5 390.116 364.5ZM390.116 356.478H388.296V363.142H390.116C392.356 363.142 393.252 362.218 393.252 359.81C393.252 357.402 392.356 356.478 390.116 356.478ZM399.16 364.64C396.864 364.64 395.786 363.184 395.786 361.014C395.786 358.858 397.074 357.402 399.146 357.402C401.022 357.402 402.338 358.522 402.338 360.426C402.338 360.79 402.296 361.168 402.254 361.378H397.2C397.256 362.652 397.718 363.296 399.174 363.296C400.336 363.296 400.784 362.904 400.784 362.274V362.162H402.282V362.288C402.282 363.716 401.036 364.64 399.16 364.64ZM399.118 358.676C397.802 358.676 397.298 359.292 397.214 360.37H400.896C400.952 359.18 400.308 358.676 399.118 358.676ZM407.29 364.5H405.386L402.6 357.542H404.28L406.31 363.058H406.408L408.452 357.542H410.09L407.29 364.5ZM413.625 364.64C411.329 364.64 410.251 363.184 410.251 361.014C410.251 358.858 411.539 357.402 413.611 357.402C415.487 357.402 416.803 358.522 416.803 360.426C416.803 360.79 416.761 361.168 416.719 361.378H411.665C411.721 362.652 412.183 363.296 413.639 363.296C414.801 363.296 415.249 362.904 415.249 362.274V362.162H416.747V362.288C416.747 363.716 415.501 364.64 413.625 364.64ZM413.583 358.676C412.267 358.676 411.763 359.292 411.679 360.37H415.361C415.417 359.18 414.773 358.676 413.583 358.676ZM419.535 364.5H418.023V355.12H419.535V364.5ZM424.155 364.64C422.013 364.64 420.683 363.184 420.683 361.014C420.683 358.858 422.013 357.402 424.155 357.402C426.283 357.402 427.571 358.858 427.571 361.014C427.571 363.184 426.283 364.64 424.155 364.64ZM424.155 363.296C425.611 363.296 426.115 362.582 426.115 361.014C426.115 359.46 425.611 358.746 424.155 358.746C422.685 358.746 422.167 359.46 422.167 361.014C422.167 362.582 422.685 363.296 424.155 363.296ZM430.143 366.922H428.645V357.542H430.017V358.69H430.087C430.409 357.878 431.207 357.402 432.411 357.402C434.371 357.402 435.449 358.816 435.449 361.028C435.449 363.226 434.399 364.64 432.509 364.64C431.263 364.64 430.493 364.066 430.185 363.422H430.143V366.922ZM430.143 361.644C430.143 362.806 430.815 363.352 432.047 363.352C433.377 363.352 433.937 362.736 433.937 361.028C433.937 359.306 433.391 358.69 432.047 358.69C430.815 358.69 430.143 359.236 430.143 360.398V361.644ZM438.156 364.5H436.644V357.542H438.03V358.844H438.086C438.408 358.102 439.136 357.402 440.466 357.402C441.684 357.402 442.44 357.962 442.776 358.844H442.818C443.14 358.116 443.854 357.402 445.226 357.402C447.018 357.402 447.816 358.55 447.816 360.132V364.5H446.304V360.468C446.304 359.222 445.926 358.704 444.666 358.704C443.518 358.704 442.986 359.18 442.986 360.454V364.5H441.474V360.468C441.474 359.222 441.096 358.704 439.836 358.704C438.688 358.704 438.156 359.18 438.156 360.44V364.5ZM452.33 364.64C450.034 364.64 448.956 363.184 448.956 361.014C448.956 358.858 450.244 357.402 452.316 357.402C454.192 357.402 455.508 358.522 455.508 360.426C455.508 360.79 455.466 361.168 455.424 361.378H450.37C450.426 362.652 450.888 363.296 452.344 363.296C453.506 363.296 453.954 362.904 453.954 362.274V362.162H455.452V362.288C455.452 363.716 454.206 364.64 452.33 364.64ZM452.288 358.676C450.972 358.676 450.468 359.292 450.384 360.37H454.066C454.122 359.18 453.478 358.676 452.288 358.676ZM458.227 364.5H456.715V357.542H458.101V358.844H458.157C458.479 358.102 459.221 357.402 460.579 357.402C462.385 357.402 463.197 358.55 463.197 360.132V364.5H461.685V360.468C461.685 359.222 461.293 358.704 460.019 358.704C458.787 358.704 458.227 359.18 458.227 360.482V364.5ZM467.474 364.5C465.92 364.5 465.108 363.926 465.108 362.358V358.802H463.946V357.542H465.136L465.458 355.82H466.62V357.542H468.72V358.802H466.62V362.288C466.62 363.016 466.928 363.142 467.866 363.142H468.72V364.374C468.426 364.444 467.95 364.5 467.474 364.5ZM388.296 383.5H386.784V374.12H390.774C392.734 374.12 394.176 375.282 394.176 377.298C394.176 379.314 392.734 380.476 390.774 380.476H388.296V383.5ZM390.956 375.478H388.296V379.118H390.956C392.188 379.118 392.678 378.642 392.678 377.298C392.678 375.954 392.188 375.478 390.956 375.478ZM396.717 383.5H395.205V374.12H396.717V377.704H396.773C397.095 377.074 397.837 376.402 399.097 376.402C400.917 376.402 401.687 377.592 401.687 379.118V383.5H400.175V379.468C400.175 378.222 399.783 377.704 398.509 377.704C397.277 377.704 396.717 378.18 396.717 379.496V383.5ZM405.052 383.64C403.806 383.64 402.84 382.996 402.84 381.778C402.84 380.63 403.68 380.028 405.164 379.818L407.6 379.454V379.076C407.6 378.04 407.124 377.732 406.032 377.732C404.926 377.732 404.492 378.082 404.492 379.006V379.216H403.036V379.076C403.036 377.522 404.254 376.402 406.116 376.402C408.062 376.402 409.042 377.578 409.042 379.272V383.5H407.642V382.408H407.572C407.166 383.066 406.368 383.64 405.052 383.64ZM404.31 381.666C404.31 382.212 404.66 382.436 405.542 382.436C406.522 382.436 407.6 382.044 407.6 380.644V380.518L405.388 380.854C404.59 380.966 404.31 381.148 404.31 381.666ZM413.375 383.64C411.345 383.64 410.281 382.842 410.281 381.148V381.12H411.737V381.372C411.737 382.128 412.073 382.408 413.403 382.408C414.523 382.408 414.733 382.156 414.733 381.638C414.733 381.078 414.397 380.91 413.375 380.728L412.297 380.546C411.051 380.322 410.267 379.762 410.267 378.502C410.267 377.242 411.303 376.402 413.123 376.402C414.761 376.402 415.993 377.214 415.993 378.796V378.922H414.551V378.754C414.551 378.11 414.327 377.648 413.081 377.648C411.975 377.648 411.709 377.942 411.709 378.474C411.709 379.006 411.961 379.16 412.941 379.356L414.117 379.58C415.461 379.846 416.161 380.448 416.161 381.596C416.161 382.884 415.139 383.64 413.375 383.64ZM420.475 383.64C418.179 383.64 417.101 382.184 417.101 380.014C417.101 377.858 418.389 376.402 420.461 376.402C422.337 376.402 423.653 377.522 423.653 379.426C423.653 379.79 423.611 380.168 423.569 380.378H418.515C418.571 381.652 419.033 382.296 420.489 382.296C421.651 382.296 422.099 381.904 422.099 381.274V381.162H423.597V381.288C423.597 382.716 422.351 383.64 420.475 383.64ZM420.433 377.676C419.117 377.676 418.613 378.292 418.529 379.37H422.211C422.267 378.18 421.623 377.676 420.433 377.676Z" fill="#071B2C"/>
<path d="M42.0538 93H40.5418V83.62H42.6838L44.8258 88.772L45.6518 91.012H45.7638L46.5758 88.772L48.6758 83.62H50.8178V93H49.3198V87.456L49.3758 85.888H49.2778L48.6898 87.456L46.5898 92.44H44.7698L42.6558 87.456L42.0958 85.888H41.9698L42.0538 87.456V93ZM54.2437 93.14C52.9977 93.14 52.0317 92.496 52.0317 91.278C52.0317 90.13 52.8717 89.528 54.3557 89.318L56.7917 88.954V88.576C56.7917 87.54 56.3157 87.232 55.2237 87.232C54.1177 87.232 53.6837 87.582 53.6837 88.506V88.716H52.2277V88.576C52.2277 87.022 53.4457 85.902 55.3077 85.902C57.2537 85.902 58.2337 87.078 58.2337 88.772V93H56.8337V91.908H56.7637C56.3577 92.566 55.5597 93.14 54.2437 93.14ZM53.5017 91.166C53.5017 91.712 53.8517 91.936 54.7337 91.936C55.7137 91.936 56.7917 91.544 56.7917 90.144V90.018L54.5797 90.354C53.7817 90.466 53.5017 90.648 53.5017 91.166ZM61.0955 85.16H59.5975L59.5835 83.62H61.0955V85.16ZM61.1095 93H59.5975V86H61.1095V93ZM64.0099 93H62.4979V86.042H63.8839V87.344H63.9399C64.2619 86.602 65.0039 85.902 66.3619 85.902C68.1679 85.902 68.9799 87.05 68.9799 88.632V93H67.4679V88.968C67.4679 87.722 67.0759 87.204 65.8019 87.204C64.5699 87.204 64.0099 87.68 64.0099 88.982V93ZM73.2575 93C71.7035 93 70.8915 92.426 70.8915 90.858V87.302H69.7295V86.042H70.9195L71.2415 84.32H72.4035V86.042H74.5035V87.302H72.4035V90.788C72.4035 91.516 72.7115 91.642 73.6495 91.642H74.5035V92.874C74.2095 92.944 73.7335 93 73.2575 93ZM78.3751 93.14C76.0791 93.14 75.0011 91.684 75.0011 89.514C75.0011 87.358 76.2891 85.902 78.3611 85.902C80.2371 85.902 81.5531 87.022 81.5531 88.926C81.5531 89.29 81.5111 89.668 81.4691 89.878H76.4151C76.4711 91.152 76.9331 91.796 78.3891 91.796C79.5511 91.796 79.9991 91.404 79.9991 90.774V90.662H81.4971V90.788C81.4971 92.216 80.2511 93.14 78.3751 93.14ZM78.3331 87.176C77.0171 87.176 76.5131 87.792 76.4291 88.87H80.1111C80.1671 87.68 79.5231 87.176 78.3331 87.176ZM84.2716 93H82.7596V86.042H84.1456V87.344H84.2016C84.5236 86.602 85.2656 85.902 86.6236 85.902C88.4296 85.902 89.2416 87.05 89.2416 88.632V93H87.7296V88.968C87.7296 87.722 87.3376 87.204 86.0636 87.204C84.8316 87.204 84.2716 87.68 84.2716 88.982V93ZM92.5659 93.14C91.3199 93.14 90.3539 92.496 90.3539 91.278C90.3539 90.13 91.1939 89.528 92.6779 89.318L95.1139 88.954V88.576C95.1139 87.54 94.6379 87.232 93.5459 87.232C92.4399 87.232 92.0059 87.582 92.0059 88.506V88.716H90.5499V88.576C90.5499 87.022 91.7679 85.902 93.6299 85.902C95.5759 85.902 96.5559 87.078 96.5559 88.772V93H95.1559V91.908H95.0859C94.6799 92.566 93.8819 93.14 92.5659 93.14ZM91.8239 91.166C91.8239 91.712 92.1739 91.936 93.0559 91.936C94.0359 91.936 95.1139 91.544 95.1139 90.144V90.018L92.9019 90.354C92.1039 90.466 91.8239 90.648 91.8239 91.166ZM99.5157 93H98.0037V86.042H99.3897V87.344H99.4457C99.7677 86.602 100.51 85.902 101.868 85.902C103.674 85.902 104.486 87.05 104.486 88.632V93H102.974V88.968C102.974 87.722 102.582 87.204 101.308 87.204C100.076 87.204 99.5157 87.68 99.5157 88.982V93ZM109.028 93.154C106.858 93.154 105.626 91.684 105.626 89.528C105.626 87.358 106.9 85.902 109.084 85.902C110.918 85.902 112.178 87.036 112.178 88.702V88.828H110.68V88.744C110.68 87.722 110.148 87.26 108.986 87.26C107.642 87.26 107.124 88.016 107.124 89.528C107.124 91.04 107.642 91.782 108.986 91.782C110.148 91.782 110.68 91.334 110.68 90.312V90.228H112.178V90.354C112.178 92.006 110.904 93.154 109.028 93.154ZM116.479 93.14C114.183 93.14 113.105 91.684 113.105 89.514C113.105 87.358 114.393 85.902 116.465 85.902C118.341 85.902 119.657 87.022 119.657 88.926C119.657 89.29 119.615 89.668 119.573 89.878H114.519C114.575 91.152 115.037 91.796 116.493 91.796C117.655 91.796 118.103 91.404 118.103 90.774V90.662H119.601V90.788C119.601 92.216 118.355 93.14 116.479 93.14ZM116.437 87.176C115.121 87.176 114.617 87.792 114.533 88.87H118.215C118.271 87.68 117.627 87.176 116.437 87.176Z" fill="#071B2C"/>
<circle cx="161.026" cy="88.5" r="30.9749" fill="#E9E6F6"/>
<path d="M148.953 93.0003C148.995 92.5999 149.286 92.2771 149.866 91.6317L151.144 90.2035C151.456 89.8082 151.677 89.1195 151.677 88.4998C151.677 87.8805 151.456 87.1916 151.143 86.7964L149.866 85.3682C149.286 84.7228 148.995 84.4001 148.953 83.9996C148.911 83.5991 149.128 83.2229 149.562 82.4705L150.173 81.4092C150.636 80.6066 150.867 80.2052 151.26 80.0452C151.654 79.8851 152.099 80.0114 152.989 80.264L154.501 80.6898C155.069 80.8209 155.665 80.7465 156.184 80.48L156.601 80.2391C157.046 79.9542 157.388 79.534 157.578 79.0402L157.992 77.8044C158.264 76.9867 158.4 76.5778 158.724 76.3439C159.047 76.11 159.478 76.11 160.338 76.11H161.719C162.579 76.11 163.01 76.11 163.333 76.3439C163.657 76.5778 163.793 76.9867 164.065 77.8044L164.479 79.0402C164.669 79.534 165.011 79.9542 165.456 80.2391L165.873 80.48C166.392 80.7465 166.988 80.8209 167.556 80.6898L169.068 80.264C169.958 80.0114 170.403 79.8851 170.797 80.0452C171.19 80.2052 171.421 80.6066 171.884 81.4092L172.495 82.4705C172.929 83.2229 173.146 83.5991 173.104 83.9996C173.061 84.4001 172.771 84.7228 172.191 85.3682L170.913 86.7964C170.601 87.1916 170.38 87.8805 170.38 88.4998C170.38 89.1195 170.601 89.8082 170.913 90.2035L172.191 91.6317C172.771 92.2771 173.061 92.5999 173.104 93.0003C173.146 93.4009 172.929 93.777 172.495 94.5294L171.884 95.5907C171.421 96.3933 171.19 96.7947 170.797 96.9547C170.403 97.1148 169.958 96.9885 169.068 96.7359L167.556 96.31C166.988 96.179 166.392 96.2534 165.873 96.52L165.456 96.7609C165.011 97.0459 164.669 97.4659 164.479 97.9598L164.065 99.1957C163.793 100.013 163.657 100.422 163.333 100.656C163.01 100.89 162.579 100.89 161.719 100.89H160.338C159.478 100.89 159.047 100.89 158.724 100.656C158.4 100.422 158.264 100.013 157.992 99.1957" stroke="#071B2C" stroke-width="1.8585" stroke-linecap="round"/>
<path d="M149.549 96.9002C150.887 95.5621 155.437 91.0571 155.883 90.5367C156.354 89.9866 155.972 89.2432 156.2 86.9387C156.31 85.8236 156.549 84.9882 157.236 84.3665C158.054 83.5934 158.723 83.5934 161.027 83.5414C163.034 83.5934 163.272 83.3704 163.48 83.8907C163.629 84.2624 163.183 84.4855 162.648 85.0802C161.458 86.2696 160.76 86.8643 160.693 87.236C160.21 88.8715 162.113 89.8379 163.153 88.7972C163.547 88.4035 165.369 86.567 165.547 86.4183C165.681 86.2993 166.001 86.305 166.157 86.4926C166.291 86.6241 166.305 86.6413 166.291 87.236C166.277 87.7865 166.283 88.5769 166.285 89.3919C166.287 90.4479 166.231 91.6221 165.785 92.2168C164.893 93.5549 163.406 93.6293 162.068 93.6887C160.804 93.7631 159.763 93.6293 159.436 93.8671C159.169 94.001 157.756 95.4878 156.046 97.1976L152.998 100.246C150.471 102.253 147.691 99.1304 149.549 96.9002Z" stroke="#5236FF" stroke-width="1.8585" stroke-linecap="round"/>
<path d="M44.5318 300H43.0338V291.978H39.8418V290.62H47.7238V291.978H44.5318V300ZM50.8126 300.14C48.5166 300.14 47.4386 298.684 47.4386 296.514C47.4386 294.358 48.7266 292.902 50.7986 292.902C52.6746 292.902 53.9906 294.022 53.9906 295.926C53.9906 296.29 53.9486 296.668 53.9066 296.878H48.8526C48.9086 298.152 49.3706 298.796 50.8266 298.796C51.9886 298.796 52.4366 298.404 52.4366 297.774V297.662H53.9346V297.788C53.9346 299.216 52.6886 300.14 50.8126 300.14ZM50.7706 294.176C49.4546 294.176 48.9506 294.792 48.8666 295.87H52.5486C52.6046 294.68 51.9606 294.176 50.7706 294.176ZM58.1914 300.14C56.1614 300.14 55.0974 299.342 55.0974 297.648V297.62H56.5534V297.872C56.5534 298.628 56.8894 298.908 58.2194 298.908C59.3394 298.908 59.5494 298.656 59.5494 298.138C59.5494 297.578 59.2134 297.41 58.1914 297.228L57.1134 297.046C55.8674 296.822 55.0834 296.262 55.0834 295.002C55.0834 293.742 56.1194 292.902 57.9394 292.902C59.5774 292.902 60.8094 293.714 60.8094 295.296V295.422H59.3674V295.254C59.3674 294.61 59.1434 294.148 57.8974 294.148C56.7914 294.148 56.5254 294.442 56.5254 294.974C56.5254 295.506 56.7774 295.66 57.7574 295.856L58.9334 296.08C60.2774 296.346 60.9774 296.948 60.9774 298.096C60.9774 299.384 59.9554 300.14 58.1914 300.14ZM65.027 300C63.473 300 62.661 299.426 62.661 297.858V294.302H61.499V293.042H62.689L63.011 291.32H64.173V293.042H66.273V294.302H64.173V297.788C64.173 298.516 64.481 298.642 65.419 298.642H66.273V299.874C65.979 299.944 65.503 300 65.027 300ZM68.6697 292.16H67.1717L67.1577 290.62H68.6697V292.16ZM68.6837 300H67.1717V293H68.6837V300ZM71.5841 300H70.0721V293.042H71.4581V294.344H71.5141C71.8361 293.602 72.5781 292.902 73.9361 292.902C75.7421 292.902 76.5541 294.05 76.5541 295.632V300H75.0421V295.968C75.0421 294.722 74.6501 294.204 73.3761 294.204C72.1441 294.204 71.5841 294.68 71.5841 295.982V300ZM80.6764 299.342C78.7584 299.342 77.6944 298.082 77.6944 296.122C77.6944 294.162 78.7724 292.902 80.7324 292.902C81.8524 292.902 82.7204 293.378 83.0564 294.19H83.1124V293.042H84.4984V299.496C84.4984 301.554 83.2944 302.52 81.2644 302.52C79.2904 302.52 78.0584 301.582 78.0584 299.902H79.5564C79.5564 300.854 79.9064 301.176 81.3064 301.176C82.6644 301.176 83.0004 300.784 83.0004 299.496V298.11H82.9444C82.6224 298.782 81.8104 299.342 80.6764 299.342ZM79.2064 296.122C79.2064 297.55 79.7944 298.054 81.1104 298.054C82.2444 298.054 83.0004 297.508 83.0004 296.332V295.898C83.0004 294.736 82.2444 294.19 81.0824 294.19C79.7804 294.19 79.2064 294.694 79.2064 296.122Z" fill="#071B2C"/>
<circle cx="126.026" cy="295.5" r="30.9749" fill="#E9E6F6"/>
<path d="M123.673 291.378C123.859 291.085 124.287 291.085 124.473 291.378L125.013 292.226C125.609 293.164 126.404 293.959 127.342 294.555L128.19 295.095C128.483 295.281 128.483 295.709 128.19 295.896L127.342 296.435C126.404 297.032 125.609 297.827 125.013 298.764L124.473 299.612C124.287 299.905 123.859 299.905 123.673 299.612L123.133 298.764C122.536 297.827 121.741 297.032 120.804 296.435L119.956 295.896C119.663 295.709 119.663 295.281 119.956 295.095L120.804 294.555C121.741 293.959 122.536 293.164 123.133 292.226L123.673 291.378Z" stroke="#5236FF" stroke-width="1.8585" stroke-linejoin="round"/>
<path d="M114.046 287.179C117.719 287.445 120.088 283.726 124.106 283.726C128.064 283.647 130.001 287.228 134.059 287.228C136.234 298.301 131.708 305.256 124.139 307.266C117.123 305.598 111.851 298.571 114.046 287.179Z" stroke="#071B2C" stroke-width="1.8585" stroke-linejoin="round"/>
<path d="M2.46581 177.5H0.883813L4.53781 168.12H6.70781L10.3618 177.5H8.72381L7.77181 175.064H3.41781L2.46581 177.5ZM4.92981 171.228L3.94981 173.706H7.23981L6.25981 171.228L5.65781 169.492H5.54581L4.92981 171.228ZM12.5668 179.922H11.0688V170.542H12.4408V171.69H12.5108C12.8328 170.878 13.6308 170.402 14.8348 170.402C16.7948 170.402 17.8728 171.816 17.8728 174.028C17.8728 176.226 16.8228 177.64 14.9328 177.64C13.6868 177.64 12.9168 177.066 12.6088 176.422H12.5668V179.922ZM12.5668 174.644C12.5668 175.806 13.2388 176.352 14.4708 176.352C15.8008 176.352 16.3608 175.736 16.3608 174.028C16.3608 172.306 15.8148 171.69 14.4708 171.69C13.2388 171.69 12.5668 172.236 12.5668 173.398V174.644ZM20.5102 179.922H19.0122V170.542H20.3842V171.69H20.4542C20.7762 170.878 21.5742 170.402 22.7782 170.402C24.7382 170.402 25.8162 171.816 25.8162 174.028C25.8162 176.226 24.7662 177.64 22.8762 177.64C21.6302 177.64 20.8602 177.066 20.5522 176.422H20.5102V179.922ZM20.5102 174.644C20.5102 175.806 21.1822 176.352 22.4142 176.352C23.7442 176.352 24.3042 175.736 24.3042 174.028C24.3042 172.306 23.7582 171.69 22.4142 171.69C21.1822 171.69 20.5102 172.236 20.5102 173.398V174.644ZM28.5372 177.5H27.0252V168.12H28.5372V177.5ZM31.4333 169.66H29.9353L29.9213 168.12H31.4333V169.66ZM31.4473 177.5H29.9353V170.5H31.4473V177.5ZM35.8894 177.654C33.7194 177.654 32.4874 176.184 32.4874 174.028C32.4874 171.858 33.7614 170.402 35.9454 170.402C37.7794 170.402 39.0394 171.536 39.0394 173.202V173.328H37.5414V173.244C37.5414 172.222 37.0094 171.76 35.8474 171.76C34.5034 171.76 33.9854 172.516 33.9854 174.028C33.9854 175.54 34.5034 176.282 35.8474 176.282C37.0094 176.282 37.5414 175.834 37.5414 174.812V174.728H39.0394V174.854C39.0394 176.506 37.7654 177.654 35.8894 177.654ZM42.1362 177.64C40.8902 177.64 39.9242 176.996 39.9242 175.778C39.9242 174.63 40.7642 174.028 42.2482 173.818L44.6842 173.454V173.076C44.6842 172.04 44.2082 171.732 43.1162 171.732C42.0102 171.732 41.5762 172.082 41.5762 173.006V173.216H40.1202V173.076C40.1202 171.522 41.3382 170.402 43.2002 170.402C45.1462 170.402 46.1262 171.578 46.1262 173.272V177.5H44.7262V176.408H44.6562C44.2502 177.066 43.4522 177.64 42.1362 177.64ZM41.3942 175.666C41.3942 176.212 41.7442 176.436 42.6262 176.436C43.6062 176.436 44.6842 176.044 44.6842 174.644V174.518L42.4722 174.854C41.6742 174.966 41.3942 175.148 41.3942 175.666ZM50.404 177.5C48.85 177.5 48.038 176.926 48.038 175.358V171.802H46.876V170.542H48.066L48.388 168.82H49.55V170.542H51.65V171.802H49.55V175.288C49.55 176.016 49.858 176.142 50.796 176.142H51.65V177.374C51.356 177.444 50.88 177.5 50.404 177.5ZM54.0466 169.66H52.5486L52.5346 168.12H54.0466V169.66ZM54.0606 177.5H52.5486V170.5H54.0606V177.5ZM58.5727 177.64C56.4307 177.64 55.1007 176.184 55.1007 174.014C55.1007 171.858 56.4307 170.402 58.5727 170.402C60.7007 170.402 61.9887 171.858 61.9887 174.014C61.9887 176.184 60.7007 177.64 58.5727 177.64ZM58.5727 176.296C60.0287 176.296 60.5327 175.582 60.5327 174.014C60.5327 172.46 60.0287 171.746 58.5727 171.746C57.1027 171.746 56.5847 172.46 56.5847 174.014C56.5847 175.582 57.1027 176.296 58.5727 176.296ZM64.631 177.5H63.119V170.542H64.505V171.844H64.561C64.883 171.102 65.625 170.402 66.983 170.402C68.789 170.402 69.601 171.55 69.601 173.132V177.5H68.089V173.468C68.089 172.222 67.697 171.704 66.423 171.704C65.191 171.704 64.631 172.18 64.631 173.482V177.5ZM8.05181 196.5H1.54181V187.12H3.05381V195.142H8.05181V196.5ZM10.855 196.64C9.60898 196.64 8.64298 195.996 8.64298 194.778C8.64298 193.63 9.48298 193.028 10.967 192.818L13.403 192.454V192.076C13.403 191.04 12.927 190.732 11.835 190.732C10.729 190.732 10.295 191.082 10.295 192.006V192.216H8.83898V192.076C8.83898 190.522 10.057 189.402 11.919 189.402C13.865 189.402 14.845 190.578 14.845 192.272V196.5H13.445V195.408H13.375C12.969 196.066 12.171 196.64 10.855 196.64ZM10.113 194.666C10.113 195.212 10.463 195.436 11.345 195.436C12.325 195.436 13.403 195.044 13.403 193.644V193.518L11.191 193.854C10.393 193.966 10.113 194.148 10.113 194.666ZM18.8828 196.64C17.0628 196.64 16.2508 195.422 16.2508 193.84V189.542H17.7628V193.574C17.7628 194.82 18.2388 195.338 19.4428 195.338C20.6048 195.338 21.2628 194.834 21.2628 193.462V189.542H22.7748V196.5H21.3748V195.114H21.3188C20.9828 195.912 20.2408 196.64 18.8828 196.64ZM25.7755 196.5H24.2635V189.542H25.6495V190.844H25.7055C26.0275 190.102 26.7695 189.402 28.1275 189.402C29.9335 189.402 30.7455 190.55 30.7455 192.132V196.5H29.2335V192.468C29.2335 191.222 28.8415 190.704 27.5675 190.704C26.3355 190.704 25.7755 191.18 25.7755 192.482V196.5ZM35.2878 196.654C33.1178 196.654 31.8858 195.184 31.8858 193.028C31.8858 190.858 33.1598 189.402 35.3438 189.402C37.1778 189.402 38.4378 190.536 38.4378 192.202V192.328H36.9398V192.244C36.9398 191.222 36.4078 190.76 35.2458 190.76C33.9018 190.76 33.3838 191.516 33.3838 193.028C33.3838 194.54 33.9018 195.282 35.2458 195.282C36.4078 195.282 36.9398 194.834 36.9398 193.812V193.728H38.4378V193.854C38.4378 195.506 37.1638 196.654 35.2878 196.654ZM41.1017 196.5H39.5897V187.12H41.1017V190.704H41.1577C41.4797 190.074 42.2217 189.402 43.4817 189.402C45.3017 189.402 46.0717 190.592 46.0717 192.118V196.5H44.5597V192.468C44.5597 191.222 44.1677 190.704 42.8937 190.704C41.6617 190.704 41.1017 191.18 41.1017 192.496V196.5Z" fill="#071B2C"/>
<circle cx="111.026" cy="182.5" r="30.9749" fill="#E9E6F6"/>
<path d="M108.571 177.666C106.461 177.666 103.809 177.219 101.835 178.037C100.388 178.636 99.3236 180.024 98.2363 181.111L102.332 182.866C103.418 183.331 102.754 184.701 102.575 185.6C102.374 186.601 102.386 186.638 103.108 187.36L105.766 190.019C106.488 190.741 106.525 190.752 107.527 190.552C108.425 190.372 109.795 189.708 110.26 190.794L112.016 194.89C113.103 193.803 114.49 192.738 115.09 191.292C115.907 189.317 115.46 186.665 115.46 184.556" stroke="#5236FF" stroke-width="1.8585" stroke-linejoin="round"/>
<path d="M110.627 192.412L109.388 193.651" stroke="#5236FF" stroke-width="1.8585" stroke-linecap="round" stroke-linejoin="round"/>
<path d="M100.715 182.5L99.4756 183.739" stroke="#5236FF" stroke-width="1.8585" stroke-linecap="round" stroke-linejoin="round"/>
<path d="M105.671 180.229L110.78 175.12C112.173 173.726 112.87 173.029 113.639 172.468C115.217 171.316 117.047 170.558 118.977 170.257C119.918 170.11 120.903 170.11 122.874 170.11C122.977 170.11 123.017 170.157 123.017 170.253C123.017 172.224 123.017 173.209 122.87 174.15C122.568 176.08 121.81 177.91 120.659 179.488C120.098 180.257 119.401 180.954 118.007 182.347L112.898 187.456" stroke="#071B2C" stroke-width="1.8585" stroke-linecap="round" stroke-linejoin="round"/>
<path d="M114.344 172.687C115.831 172.91 117.392 173.505 118.261 174.397C119.371 175.379 120.142 176.702 120.44 178.783" stroke="#071B2C" stroke-width="1.8585" stroke-linecap="square"/>
<path d="M117.986 175.14L116.202 176.925" stroke="#071B2C" stroke-width="1.8585" stroke-linecap="round"/>
<path d="M118.054 365.5H116.542V356.12H120.532C122.492 356.12 123.934 357.282 123.934 359.298C123.934 361.314 122.492 362.476 120.532 362.476H118.054V365.5ZM120.714 357.478H118.054V361.118H120.714C121.946 361.118 122.436 360.642 122.436 359.298C122.436 357.954 121.946 357.478 120.714 357.478ZM126.447 365.5H124.935V358.5H126.321V359.606H126.391C126.671 358.962 127.315 358.402 128.337 358.402C129.793 358.402 130.353 359.466 130.353 360.768V361.23H128.841V360.95C128.841 360.026 128.575 359.69 127.693 359.69C126.783 359.69 126.447 360.04 126.447 360.964V365.5ZM134.414 365.64C132.118 365.64 131.04 364.184 131.04 362.014C131.04 359.858 132.328 358.402 134.4 358.402C136.276 358.402 137.592 359.522 137.592 361.426C137.592 361.79 137.55 362.168 137.508 362.378H132.454C132.51 363.652 132.972 364.296 134.428 364.296C135.59 364.296 136.038 363.904 136.038 363.274V363.162H137.536V363.288C137.536 364.716 136.29 365.64 134.414 365.64ZM134.372 359.676C133.056 359.676 132.552 360.292 132.468 361.37H136.15C136.206 360.18 135.562 359.676 134.372 359.676ZM140.241 367.922H138.743V358.542H140.115V359.69H140.185C140.507 358.878 141.305 358.402 142.509 358.402C144.469 358.402 145.547 359.816 145.547 362.028C145.547 364.226 144.497 365.64 142.607 365.64C141.361 365.64 140.591 365.066 140.283 364.422H140.241V367.922ZM140.241 362.644C140.241 363.806 140.913 364.352 142.145 364.352C143.475 364.352 144.035 363.736 144.035 362.028C144.035 360.306 143.489 359.69 142.145 359.69C140.913 359.69 140.241 360.236 140.241 361.398V362.644ZM148.701 365.64C147.455 365.64 146.489 364.996 146.489 363.778C146.489 362.63 147.329 362.028 148.813 361.818L151.249 361.454V361.076C151.249 360.04 150.773 359.732 149.681 359.732C148.575 359.732 148.141 360.082 148.141 361.006V361.216H146.685V361.076C146.685 359.522 147.903 358.402 149.765 358.402C151.711 358.402 152.691 359.578 152.691 361.272V365.5H151.291V364.408H151.221C150.815 365.066 150.017 365.64 148.701 365.64ZM147.959 363.666C147.959 364.212 148.309 364.436 149.191 364.436C150.171 364.436 151.249 364.044 151.249 362.644V362.518L149.037 362.854C148.239 362.966 147.959 363.148 147.959 363.666ZM155.65 365.5H154.138V358.5H155.524V359.606H155.594C155.874 358.962 156.518 358.402 157.54 358.402C158.996 358.402 159.556 359.466 159.556 360.768V361.23H158.044V360.95C158.044 360.026 157.778 359.69 156.896 359.69C155.986 359.69 155.65 360.04 155.65 360.964V365.5ZM161.855 357.66H160.357L160.343 356.12H161.855V357.66ZM161.869 365.5H160.357V358.5H161.869V365.5ZM164.77 365.5H163.258V358.542H164.644V359.844H164.7C165.022 359.102 165.764 358.402 167.122 358.402C168.928 358.402 169.74 359.55 169.74 361.132V365.5H168.228V361.468C168.228 360.222 167.836 359.704 166.562 359.704C165.33 359.704 164.77 360.18 164.77 361.482V365.5ZM173.862 364.842C171.944 364.842 170.88 363.582 170.88 361.622C170.88 359.662 171.958 358.402 173.918 358.402C175.038 358.402 175.906 358.878 176.242 359.69H176.298V358.542H177.684V364.996C177.684 367.054 176.48 368.02 174.45 368.02C172.476 368.02 171.244 367.082 171.244 365.402H172.742C172.742 366.354 173.092 366.676 174.492 366.676C175.85 366.676 176.186 366.284 176.186 364.996V363.61H176.13C175.808 364.282 174.996 364.842 173.862 364.842ZM172.392 361.622C172.392 363.05 172.98 363.554 174.296 363.554C175.43 363.554 176.186 363.008 176.186 361.832V361.398C176.186 360.236 175.43 359.69 174.268 359.69C172.966 359.69 172.392 360.194 172.392 361.622ZM119.874 384.5H116.542V375.12H119.874C122.772 375.12 124.62 376.912 124.62 379.81C124.62 382.708 122.772 384.5 119.874 384.5ZM119.874 376.478H118.054V383.142H119.874C122.114 383.142 123.01 382.218 123.01 379.81C123.01 377.402 122.114 376.478 119.874 376.478ZM128.918 384.64C126.622 384.64 125.544 383.184 125.544 381.014C125.544 378.858 126.832 377.402 128.904 377.402C130.78 377.402 132.096 378.522 132.096 380.426C132.096 380.79 132.054 381.168 132.012 381.378H126.958C127.014 382.652 127.476 383.296 128.932 383.296C130.094 383.296 130.542 382.904 130.542 382.274V382.162H132.04V382.288C132.04 383.716 130.794 384.64 128.918 384.64ZM128.876 378.676C127.56 378.676 127.056 379.292 126.972 380.37H130.654C130.71 379.18 130.066 378.676 128.876 378.676ZM136.297 384.64C134.267 384.64 133.203 383.842 133.203 382.148V382.12H134.659V382.372C134.659 383.128 134.995 383.408 136.325 383.408C137.445 383.408 137.655 383.156 137.655 382.638C137.655 382.078 137.319 381.91 136.297 381.728L135.219 381.546C133.973 381.322 133.189 380.762 133.189 379.502C133.189 378.242 134.225 377.402 136.045 377.402C137.683 377.402 138.915 378.214 138.915 379.796V379.922H137.473V379.754C137.473 379.11 137.249 378.648 136.003 378.648C134.897 378.648 134.631 378.942 134.631 379.474C134.631 380.006 134.883 380.16 135.863 380.356L137.039 380.58C138.383 380.846 139.083 381.448 139.083 382.596C139.083 383.884 138.061 384.64 136.297 384.64ZM141.676 376.66H140.178L140.164 375.12H141.676V376.66ZM141.69 384.5H140.178V377.5H141.69V384.5ZM145.712 383.842C143.794 383.842 142.73 382.582 142.73 380.622C142.73 378.662 143.808 377.402 145.768 377.402C146.888 377.402 147.756 377.878 148.092 378.69H148.148V377.542H149.534V383.996C149.534 386.054 148.33 387.02 146.3 387.02C144.326 387.02 143.094 386.082 143.094 384.402H144.592C144.592 385.354 144.942 385.676 146.342 385.676C147.7 385.676 148.036 385.284 148.036 383.996V382.61H147.98C147.658 383.282 146.846 383.842 145.712 383.842ZM144.242 380.622C144.242 382.05 144.83 382.554 146.146 382.554C147.28 382.554 148.036 382.008 148.036 380.832V380.398C148.036 379.236 147.28 378.69 146.118 378.69C144.816 378.69 144.242 379.194 144.242 380.622ZM152.533 384.5H151.021V377.542H152.407V378.844H152.463C152.785 378.102 153.527 377.402 154.885 377.402C156.691 377.402 157.503 378.55 157.503 380.132V384.5H155.991V380.468C155.991 379.222 155.599 378.704 154.325 378.704C153.093 378.704 152.533 379.18 152.533 380.482V384.5Z" fill="#071B2C"/>
<circle cx="219.026" cy="370.5" r="30.9749" fill="#E9E6F6"/>
<path d="M217.738 366.313L223.553 368.588C226.906 369.901 228.583 370.557 228.527 371.598C228.472 372.638 226.722 373.116 223.222 374.07C222.18 374.354 221.659 374.496 221.298 374.858C220.936 375.219 220.794 375.74 220.51 376.782C219.556 380.282 219.078 382.032 218.037 382.087C216.997 382.143 216.341 380.466 215.028 377.113L212.753 371.298C211.379 367.787 210.692 366.032 211.582 365.142C212.472 364.252 214.227 364.939 217.738 366.313Z" stroke="#071B2C" stroke-width="1.8585" stroke-linejoin="round"/>
<path d="M207.466 358.548H206.227C205.543 358.548 204.988 359.102 204.988 359.787V361.026C204.988 361.71 205.543 362.265 206.227 362.265H207.466C208.151 362.265 208.705 361.71 208.705 361.026V359.787C208.705 359.102 208.151 358.548 207.466 358.548Z" stroke="#5236FF" stroke-width="1.8585" stroke-linecap="round" stroke-linejoin="round"/>
<path d="M207.466 372.177H206.227C205.543 372.177 204.988 372.731 204.988 373.416V374.655C204.988 375.339 205.543 375.894 206.227 375.894H207.466C208.151 375.894 208.705 375.339 208.705 374.655V373.416C208.705 372.731 208.151 372.177 207.466 372.177Z" stroke="#5236FF" stroke-width="1.8585" stroke-linecap="round" stroke-linejoin="round"/>
<path d="M221.095 358.548H219.856C219.172 358.548 218.617 359.102 218.617 359.787V361.026C218.617 361.71 219.172 362.265 219.856 362.265H221.095C221.779 362.265 222.334 361.71 222.334 361.026V359.787C222.334 359.102 221.779 358.548 221.095 358.548Z" stroke="#5236FF" stroke-width="1.8585" stroke-linecap="round" stroke-linejoin="round"/>
<path d="M218.617 360.406H208.705M206.847 362.265V372.177" stroke="#5236FF" stroke-width="1.8585" stroke-linecap="round" stroke-linejoin="round"/>
<path d="M167.649 229.525H146.001V197.365H167.649V200.485H149.409V211.765H166.929V214.933H149.409V226.405H167.649V229.525Z" fill="#5236FF"/>
<path d="M183.907 216.997H170.803V213.973H183.907V216.997ZM202.097 230.005C192.977 230.005 187.457 223.477 187.457 213.445C187.457 203.413 192.977 196.885 202.097 196.885C209.969 196.885 215.297 201.541 215.297 208.837V209.221H211.649V208.837C211.649 203.173 208.625 200.197 201.905 200.197C194.369 200.197 191.057 204.517 191.057 213.445C191.057 222.373 194.369 226.693 201.905 226.693C208.625 226.693 211.649 223.717 211.649 218.053V217.669H215.297V218.053C215.297 225.349 209.969 230.005 202.097 230.005ZM230.381 230.005C223.421 230.005 218.861 224.869 218.861 217.669C218.861 210.469 223.421 205.333 230.381 205.333C237.293 205.333 241.709 210.469 241.709 217.669C241.709 224.869 237.293 230.005 230.381 230.005ZM230.381 226.933C236.093 226.933 238.349 223.573 238.349 217.669C238.349 211.765 236.093 208.453 230.381 208.453C224.573 208.453 222.269 211.765 222.269 217.669C222.269 223.573 224.573 226.933 230.381 226.933ZM249.339 229.525H245.883V205.813H249.003V210.709H249.147C250.059 208.213 252.555 205.333 257.451 205.333C261.771 205.333 264.363 207.397 265.419 210.757H265.563C266.523 208.213 268.971 205.333 273.867 205.333C279.963 205.333 282.747 209.269 282.747 214.933V229.525H279.339V215.749C279.339 210.613 277.611 208.357 272.811 208.357C268.299 208.357 266.043 210.565 266.043 215.845V229.525H262.635V215.749C262.635 210.613 260.955 208.357 256.155 208.357C251.643 208.357 249.339 210.565 249.339 215.845V229.525ZM291.48 229.525H288.024V205.813H291.144V210.709H291.288C292.2 208.213 294.696 205.333 299.592 205.333C303.912 205.333 306.504 207.397 307.56 210.757H307.704C308.664 208.213 311.112 205.333 316.008 205.333C322.104 205.333 324.888 209.269 324.888 214.933V229.525H321.48V215.749C321.48 210.613 319.752 208.357 314.952 208.357C310.44 208.357 308.184 210.565 308.184 215.845V229.525H304.776V215.749C304.776 210.613 303.096 208.357 298.296 208.357C293.784 208.357 291.48 210.565 291.48 215.845V229.525ZM340.199 230.005C332.903 230.005 329.111 224.869 329.111 217.669C329.111 210.469 333.383 205.333 340.151 205.333C345.863 205.333 350.567 208.789 350.567 215.797C350.567 216.901 350.471 217.957 350.327 218.629H332.375C332.519 223.861 334.583 226.933 340.247 226.933C345.047 226.933 346.967 224.773 346.967 221.893V221.605H350.375V221.941C350.375 226.501 346.247 230.005 340.199 230.005ZM340.055 208.309C334.775 208.309 332.663 211.333 332.375 216.133H347.303C347.495 210.517 344.711 208.309 340.055 208.309ZM358.464 229.525H355.008V205.525H358.128V209.509H358.368C359.136 207.301 361.44 205.333 364.944 205.333C369.84 205.333 371.712 208.837 371.712 212.917V214.261H368.256V213.445C368.256 209.749 367.104 208.309 363.696 208.309C360 208.309 358.464 209.989 358.464 213.829V229.525ZM385.483 230.053C378.475 230.053 374.251 224.917 374.251 217.717C374.251 210.469 378.475 205.333 385.483 205.333C391.531 205.333 395.611 209.221 395.611 214.789V215.125H392.203V214.837C392.203 210.709 389.995 208.453 385.339 208.453C379.915 208.453 377.659 211.861 377.659 217.717C377.659 223.525 379.915 226.933 385.339 226.933C389.995 226.933 392.203 224.677 392.203 220.549V220.261H395.611V220.597C395.611 226.165 391.531 230.053 385.483 230.053ZM410.183 230.005C402.887 230.005 399.095 224.869 399.095 217.669C399.095 210.469 403.367 205.333 410.135 205.333C415.847 205.333 420.551 208.789 420.551 215.797C420.551 216.901 420.455 217.957 420.311 218.629H402.359C402.503 223.861 404.567 226.933 410.231 226.933C415.031 226.933 416.951 224.773 416.951 221.893V221.605H420.359V221.941C420.359 226.501 416.231 230.005 410.183 230.005ZM410.039 208.309C404.759 208.309 402.647 211.333 402.359 216.133H417.287C417.479 210.517 414.695 208.309 410.039 208.309Z" fill="black"/>
</svg>
