<svg width="234" height="48" viewBox="0 0 234 48" fill="none" xmlns="http://www.w3.org/2000/svg">
<g clip-path="url(#clip0_519_123)">
<path d="M114.157 7.73022H119.934C119.971 7.8513 119.995 7.97579 120.006 8.10176C120.006 13.3272 120.006 18.5647 120.006 23.7901C120.058 26.2896 119.192 28.7215 117.574 30.6269C115.956 32.5323 113.696 33.7795 111.221 34.1332C109.454 34.5344 107.617 34.5134 105.86 34.072C104.102 33.6305 102.473 32.781 101.106 31.5924C100.036 30.659 99.1777 29.5078 98.5887 28.216C97.9996 26.9242 97.6932 25.5215 97.6899 24.1018C97.5581 18.6725 97.6899 13.2433 97.6899 7.76618H103.491V8.53322C103.491 13.0636 103.491 17.5939 103.491 22.1122C103.455 23.0653 103.536 24.0191 103.73 24.9527C103.936 26.1739 104.588 27.2749 105.561 28.0414C106.533 28.808 107.756 29.1851 108.992 29.0995C110.204 29.0742 111.366 28.6133 112.266 27.8012C113.167 26.9892 113.744 25.8801 113.894 24.677C114.061 23.8121 114.145 22.9332 114.145 22.0523C114.145 17.546 114.145 13.0396 114.145 8.53322L114.157 7.73022Z" fill="white"/>
<path d="M161.246 16.779C160.527 17.8217 159.808 18.8764 159.053 19.955L158.55 19.6075C157.291 18.7015 155.806 18.1622 154.259 18.0494C153.735 18.0234 153.21 18.0759 152.701 18.2052C152.352 18.2858 152.039 18.4781 151.81 18.7529C151.581 19.0277 151.447 19.3698 151.431 19.7273C151.365 20.0911 151.437 20.4662 151.632 20.7803C151.827 21.0945 152.13 21.3256 152.485 21.4292C153.684 21.8607 154.81 22.1962 155.997 22.5438C157.385 22.8846 158.692 23.4955 159.844 24.3416C160.605 24.9527 161.147 25.7936 161.39 26.7386C161.654 27.5454 161.739 28.4 161.639 29.243C161.539 30.086 161.257 30.8971 160.812 31.6201C160.368 32.3432 159.771 32.9607 159.064 33.4299C158.356 33.899 157.555 34.2086 156.716 34.3371C154.833 34.7311 152.881 34.6516 151.036 34.1056C149.191 33.5597 147.511 32.5644 146.145 31.209C146.145 31.209 146.145 31.1131 146.073 31.0771L148.626 27.9371C149.261 28.4045 149.825 28.8719 150.484 29.2914C151.492 30.0417 152.685 30.5054 153.935 30.6337C154.615 30.6726 155.296 30.5956 155.949 30.406C156.272 30.2927 156.554 30.086 156.759 29.8122C156.964 29.5384 157.083 29.2098 157.101 28.8682C157.119 28.5265 157.035 28.1873 156.86 27.8934C156.684 27.5996 156.426 27.3645 156.117 27.218C155.062 26.8105 153.971 26.5228 152.905 26.1513C151.838 25.7798 150.735 25.4202 149.693 24.9528C148.934 24.6231 148.277 24.0953 147.792 23.4248C147.307 22.7543 147.012 21.9656 146.936 21.1416C146.648 19.8274 146.855 18.453 147.519 17.2826C148.183 16.1122 149.256 15.2286 150.532 14.8015C151.425 14.4769 152.363 14.287 153.312 14.2382C155.928 14.081 158.519 14.8301 160.647 16.3595C160.791 16.4554 160.935 16.5753 161.066 16.6831L161.246 16.779Z" fill="white"/>
<path d="M54.6157 6.10034H58.8105V34.0494H54.6636V31.2569C54.5446 31.3217 54.4322 31.3979 54.3281 31.4846C51.7273 34.9842 45.9386 35.2239 42.5947 32.6831C39.2509 30.1423 38.2082 26.9063 38.4599 22.9513C38.5035 21.1085 39.0896 19.3194 40.1449 17.808C41.2001 16.2966 42.6776 15.1299 44.3925 14.4539C46.0534 13.6364 47.9437 13.4106 49.7505 13.8138C51.5573 14.217 53.1722 15.2251 54.3281 16.6711L54.6157 16.9588V6.10034ZM54.7835 24.0779C54.6636 23.3588 54.6037 22.6277 54.4239 21.9325C54.1616 20.7602 53.5446 19.6971 52.6569 18.8877C51.7692 18.0784 50.6538 17.562 49.4622 17.4088C48.2707 17.2556 47.061 17.473 45.9974 18.0315C44.9338 18.59 44.0679 19.4625 43.5176 20.5303C42.7342 21.9763 42.4519 23.641 42.7146 25.2644C42.834 26.149 43.1442 26.9971 43.6237 27.75C44.1033 28.5029 44.7407 29.1425 45.4919 29.6247C46.2431 30.1069 47.0901 30.4201 47.9743 30.5425C48.8585 30.665 49.7587 30.5939 50.6127 30.334C51.8739 29.857 52.9542 28.9972 53.7021 27.8753C54.4501 26.7534 54.8282 25.4255 54.7835 24.0779Z" fill="white"/>
<path d="M127.365 31.293V41.3604H123.218V14.0346H127.353V17.4023C127.447 17.3206 127.535 17.2325 127.617 17.1387C130.649 12.7162 135.551 13.1716 138.667 14.9334C140.026 15.6728 141.177 16.7419 142.014 18.0424C142.852 19.3429 143.349 20.8332 143.461 22.3761C143.844 25.9716 143.101 29.2795 140.345 31.8563C139.544 32.6709 138.589 33.3179 137.535 33.7595C136.482 34.2012 135.351 34.4286 134.208 34.4286C133.066 34.4286 131.935 34.2012 130.881 33.7595C129.828 33.3179 128.873 32.6709 128.072 31.8563C127.881 31.6482 127.708 31.4236 127.557 31.1851L127.365 31.293ZM127.137 24.0181H127.293C127.293 24.3776 127.293 24.7252 127.377 25.0847C127.452 26.1741 127.829 27.2212 128.463 28.1097C129.098 28.9983 129.966 29.6936 130.972 30.1185C131.959 30.5444 133.047 30.6804 134.108 30.5106C135.169 30.3408 136.16 29.8722 136.965 29.1596C138.296 27.9621 139.115 26.2976 139.251 24.5121C139.387 22.7266 138.83 20.9572 137.696 19.5716C137.086 18.791 136.284 18.1815 135.369 17.8024C134.454 17.4233 133.456 17.2874 132.473 17.4081C131.49 17.5287 130.554 17.9017 129.758 18.4909C128.962 19.08 128.331 19.8652 127.928 20.7701C127.529 21.8074 127.225 22.8784 127.017 23.9701L127.137 24.0181Z" fill="white"/>
<path d="M26.7264 40.7131V47.7243C23.7743 48.1519 20.7652 47.9559 17.8935 47.1491C13.164 45.954 8.92452 43.3148 5.76462 39.5985C2.55113 35.8288 0.574568 31.1621 0.102909 26.2312C-0.368749 21.3002 0.687313 16.3434 3.12792 12.0329C5.44408 7.946 8.92337 4.64021 13.1233 2.53595C17.3233 0.431693 22.0542 -0.375955 26.7144 0.21571V7.23893C24.0454 6.7856 21.3063 6.98484 18.7309 7.81964C16.1556 8.65444 13.8205 10.1 11.9249 12.0329C10.3478 13.5776 9.10194 15.4273 8.26329 17.4694C7.42464 19.5114 7.0108 21.7029 7.04702 23.9101C6.99188 26.394 7.50279 28.8578 8.54104 31.115C9.57928 33.3721 11.1176 35.3633 13.0395 36.9378C14.8984 38.5423 17.0908 39.7134 19.4579 40.3664C21.8251 41.0193 24.3079 41.1377 26.7264 40.7131Z" fill="#5236FF"/>
<path d="M16.6354 23.6704C16.6272 22.3473 16.9127 21.0389 17.4714 19.8396C18.03 18.6402 18.8479 17.5798 19.866 16.7348C20.8841 15.8898 22.0771 15.2813 23.3589 14.9532C24.6406 14.6251 25.9792 14.5856 27.2781 14.8375C29.0083 15.1643 30.6021 15.9987 31.8564 17.2345C33.1155 18.4842 33.9755 20.0795 34.3275 21.8182C34.6796 23.557 34.5078 25.3611 33.8339 27.0022C33.1707 28.6403 32.0368 30.0451 30.5756 31.0392C29.1144 32.0332 27.3914 32.5719 25.6242 32.5873C24.4473 32.5917 23.2811 32.3631 22.193 31.9147C21.1048 31.4663 20.1162 30.8069 19.2841 29.9745C18.4461 29.143 17.782 28.153 17.3306 27.0622C16.8858 25.9859 16.6499 24.8349 16.6354 23.6704Z" fill="white"/>
<path d="M82.2051 25.8996H66.6245C66.6258 26.496 66.7439 27.0864 66.9721 27.6374C67.2654 28.1895 67.6742 28.6718 68.1706 29.0517C69.6073 30.2341 71.4274 30.8492 73.2868 30.7807C75.1462 30.7123 76.9161 29.965 78.262 28.6801C78.3339 28.6082 78.4058 28.5124 78.5137 28.3805L81.0186 31.1131C80.7595 31.2853 80.5113 31.4735 80.2755 31.6764C76.68 34.9483 69.7646 35.5356 65.7736 31.964C64.7482 31.0389 63.9218 29.9146 63.3449 28.6598C62.768 27.405 62.4525 26.0458 62.4178 24.6652C62.1494 22.186 62.8277 19.6969 64.3168 17.6967C65.8059 15.6964 67.9958 14.3327 70.4478 13.8786C71.8675 13.5623 73.338 13.5493 74.7631 13.8405C76.1881 14.1317 77.5357 14.7206 78.7174 15.5685C79.7598 16.2845 80.6209 17.2335 81.2325 18.3402C81.8442 19.447 82.1895 20.6811 82.241 21.9446C82.277 23.2389 82.2051 24.5213 82.2051 25.8996ZM66.6245 22.5558H77.9624C78.2021 19.6075 75.865 17.3783 72.5811 17.3543C69.2972 17.3303 66.4568 19.6914 66.6245 22.5558Z" fill="white"/>
<path d="M217.516 25.8757C217.548 26.5059 217.713 27.1221 218 27.684C218.287 28.2459 218.69 28.7406 219.182 29.1356C220.68 30.3096 222.561 30.8849 224.459 30.7498C226.357 30.6147 228.137 29.7788 229.453 28.4045L231.946 31.1251C231.682 31.2913 231.43 31.4755 231.191 31.6764C227.656 34.9484 220.692 35.5356 216.689 31.9641C215.664 31.0424 214.838 29.9203 214.263 28.667C213.688 27.4137 213.375 26.0558 213.346 24.6772C213.076 22.2015 213.751 19.7154 215.236 17.7157C216.72 15.716 218.904 14.35 221.352 13.8907C222.773 13.5703 224.246 13.5552 225.674 13.8465C227.101 14.1378 228.451 14.7289 229.633 15.5806C230.675 16.294 231.536 17.2408 232.148 18.3456C232.76 19.4504 233.105 20.6828 233.157 21.9446C233.241 23.215 233.157 24.4974 233.157 25.8517L217.516 25.8757ZM228.89 22.5558C229.022 19.4637 226.649 17.2705 223.353 17.3543C220.057 17.4382 217.277 19.8472 217.564 22.5558H228.89Z" fill="white"/>
<path d="M202.403 34.0614H198.652V31.4846C198.436 31.6884 198.304 31.7843 198.196 31.9041C196.929 33.1368 195.322 33.963 193.582 34.2769C191.841 34.5908 190.047 34.378 188.429 33.6659C187.031 33.0469 185.91 31.935 185.28 30.5423C184.65 29.1496 184.555 27.5737 185.013 26.1153C185.185 25.4613 185.496 24.8523 185.927 24.3308C186.357 23.8093 186.896 23.3876 187.506 23.0951C189.231 22.2578 191.14 21.8703 193.055 21.9685H198.172C198.335 21.4293 198.371 20.8598 198.277 20.3044C198.183 19.749 197.963 19.2228 197.632 18.7669C197.301 18.3109 196.87 17.9376 196.371 17.6759C195.872 17.4142 195.32 17.2714 194.757 17.2584C192.883 17.1026 191.006 17.5206 189.375 18.4569C188.956 18.6846 188.548 18.9483 188.069 19.224L186.116 16.5633C187.218 15.9401 188.237 15.2689 189.351 14.7775C191.717 13.7209 194.358 13.448 196.89 13.9985C198.442 14.1996 199.865 14.9687 200.883 16.1574C201.901 17.346 202.443 18.8698 202.403 20.4344C202.499 24.9168 202.403 29.3992 202.403 33.8816C202.409 33.9414 202.409 34.0016 202.403 34.0614ZM198.208 24.9528C196.231 24.9528 194.337 24.9528 192.432 24.9528C191.946 24.9744 191.466 25.0632 191.005 25.2165C190.444 25.3217 189.937 25.618 189.57 26.0551C189.203 26.4921 188.999 27.0428 188.992 27.6135C188.918 28.2112 189.058 28.8157 189.387 29.3201C189.716 29.8245 190.213 30.1964 190.79 30.37C191.607 30.6954 192.484 30.8465 193.363 30.8134C194.242 30.7804 195.105 30.5641 195.895 30.1783C196.513 29.9293 197.053 29.5186 197.458 28.9894C197.863 28.4601 198.118 27.8317 198.196 27.17C198.268 26.4629 198.208 25.7318 198.208 24.9528Z" fill="white"/>
<path d="M180.147 19.8833C175.94 16.2878 171.937 17.5582 169.888 19.8833C168.874 21.1118 168.348 22.6704 168.41 24.2619C168.472 25.8534 169.117 27.3664 170.223 28.5125C170.873 29.2186 171.674 29.7679 172.567 30.1188C173.46 30.4697 174.421 30.613 175.377 30.5379C177.292 30.3591 179.065 29.4491 180.327 27.9971L182.724 30.6938C178.229 35.7275 170.175 35.6196 166.172 30.502C165.115 29.09 164.431 27.4338 164.184 25.687C163.937 23.9401 164.136 22.1593 164.761 20.5096C165.386 18.8599 166.418 17.3948 167.76 16.2503C169.103 15.1058 170.713 14.3189 172.441 13.9627C174.166 13.555 175.966 13.579 177.68 14.0327C179.394 14.4863 180.97 15.3555 182.268 16.5634L182.64 16.8511L180.147 19.8833Z" fill="white"/>
<path d="M210.181 34.0615H205.999V6.11243H210.157L210.181 34.0615Z" fill="white"/>
</g>
<defs>
<clipPath id="clip0_519_123">
<rect width="233.145" height="48" fill="white"/>
</clipPath>
</defs>
</svg>
