<svg width="108" height="13" viewBox="0 0 108 13" fill="none" xmlns="http://www.w3.org/2000/svg">
<g clip-path="url(#clip0_10223_10276)">
<path d="M0.09375 12.5761V1.01367H2.52153V5.49705H6.85394V1.01367H9.28172V12.5761H6.85394V7.63791H2.52153V12.5761H0.09375Z" fill="white"/>
<path d="M25.5391 12.5761V1.01367H27.9668L32.5813 8.38872H32.6099V1.01367H34.8415V12.5761H32.6099L27.8034 5.13666H27.7748V12.5761H25.5432H25.5391Z" fill="white"/>
<path d="M38.3008 12.5761V1.01367H45.8048V3.13738H40.7286V5.62147H44.407V7.63791H40.7286V10.5124H46.0746V12.5761H38.3049H38.3008Z" fill="white"/>
<path d="M51.5624 12.5761V7.66794L47.7695 1.01367H50.2709L52.7886 5.51421L55.3185 1.01367H57.7913L53.982 7.67224V12.5803H51.5706L51.5624 12.5761Z" fill="white"/>
<path d="M58.8633 6.77942C58.8633 2.76369 61.0826 0.794434 63.866 0.794434C66.6494 0.794434 67.8551 2.35611 68.3333 4.43691L66.0404 5.14052C65.6807 3.81052 65.1453 2.90527 63.8537 2.90527C62.1862 2.90527 61.2952 4.38971 61.2952 6.77942C61.2952 9.16912 62.2189 10.748 63.8864 10.748C65.1821 10.748 65.8237 9.88989 66.2079 8.31106L68.4845 8.84306C67.9491 11.1727 66.6371 12.7944 63.8701 12.7944C61.1031 12.7944 58.8674 10.8552 58.8674 6.77942H58.8633Z" fill="white"/>
<path d="M84.0822 12.5761V1.01367H87.2825L89.7389 9.51278H89.7675L92.0604 1.01367H95.3342V12.5761H92.9963V4.68618H92.9677C92.8042 5.68582 92.5958 6.41946 92.3587 7.26466L90.7075 12.5761H88.5618L86.9228 7.26466C86.6694 6.38943 86.5223 5.88747 86.2811 4.56176H86.2525V12.5803H84.0781L84.0822 12.5761Z" fill="white"/>
<path d="M98.7932 12.5761V1.01367H103.199C105.222 1.01367 107.131 1.52851 107.131 3.87531C107.131 5.5185 106.15 6.29934 105.03 6.53101V6.56104C106.371 6.80988 107.425 7.54353 107.425 9.38836C107.425 11.718 105.476 12.5761 103.42 12.5761H98.7891H98.7932ZM101.176 5.78021H102.962C104.229 5.78021 104.809 5.27824 104.809 4.39015C104.809 3.50205 104.29 2.98292 102.995 2.98292H101.18V5.78021H101.176ZM101.176 10.6411H103.126C104.466 10.6411 105.063 10.0791 105.063 9.09233C105.063 8.10556 104.364 7.57785 103.023 7.57785H101.176V10.6411Z" fill="white"/>
<path d="M19.4233 3.15003L21.4628 6.86115L19.4233 10.5723H15.3402L13.3007 6.86115L15.3402 3.15003H19.4233ZM20.5677 1.06494H14.1958L11.0078 6.86115L14.1958 12.6574H20.5677L23.7557 6.86115L20.5677 1.06494Z" fill="white"/>
<path d="M78.1655 3.14954L80.205 6.86066L78.1655 10.5718H74.0824L72.0429 6.86066L74.0824 3.14954H78.1655ZM79.3099 1.06445H72.938L69.75 6.86066L72.938 12.6569H79.3099L82.4979 6.86066L79.3099 1.06445Z" fill="white"/>
</g>
<defs>
<clipPath id="clip0_10223_10276">
<rect width="107.333" height="12" fill="white" transform="translate(0.09375 0.794434)"/>
</clipPath>
</defs>
</svg>
