<svg width="45" height="44" viewBox="0 0 45 44" fill="none" xmlns="http://www.w3.org/2000/svg">
<g clip-path="url(#clip0_6102_200)">
<path d="M0.786926 0H44.7869V44H0.786926V0Z" fill="#F0DB4F"/>
<path d="M41.1858 33.5061C40.8637 31.4984 39.5546 29.8129 35.6774 28.2403C34.3307 27.6213 32.8291 27.178 32.3816 26.1574C32.2227 25.5635 32.2018 25.2289 32.3021 24.8692C32.5907 23.7022 33.9835 23.3384 35.0877 23.673C35.7987 23.9114 36.4721 24.4593 36.8778 25.3334C38.7767 24.1038 38.7725 24.1121 40.0983 23.2673C39.6132 22.5145 39.3538 22.1673 39.036 21.8453C37.8941 20.5696 36.3383 19.9129 33.8497 19.9631C33.4189 20.0175 32.9839 20.076 32.5531 20.1304C31.3109 20.4441 30.1272 21.0966 29.4329 21.9707C27.35 24.3339 27.944 28.4703 30.4786 30.1726C32.9755 32.0464 36.6436 32.473 37.112 34.2255C37.5679 36.3711 35.5353 37.0654 33.5151 36.8186C32.0261 36.5091 31.198 35.7521 30.3029 34.3761C28.655 35.3297 28.655 35.3297 26.9611 36.3042C27.3626 37.1825 27.785 37.5799 28.4585 38.3411C31.6455 41.5742 39.6215 41.4152 41.052 36.5217C41.1105 36.3543 41.4953 35.2334 41.1858 33.5061ZM24.7067 20.2224H20.5911C20.5911 23.7775 20.5744 27.3076 20.5744 30.8627C20.5744 33.1254 20.6915 35.2 20.3235 35.8357C19.7212 37.0862 18.1611 36.9315 17.4501 36.6889C16.7265 36.3334 16.3584 35.8273 15.9318 35.1121C15.8147 34.9072 15.7269 34.7483 15.6976 34.7357C14.5809 35.4175 13.4683 36.1033 12.3516 36.7851C12.9079 37.927 13.7276 38.9182 14.7774 39.5623C16.3459 40.5033 18.4538 40.7919 20.6581 40.2859C22.0927 39.8676 23.3307 39.0019 23.9789 37.6844C24.9158 35.957 24.7151 33.8657 24.7067 31.5528C24.7276 27.7802 24.7067 24.0076 24.7067 20.2224Z" fill="#323330"/>
</g>
<defs>
<clipPath id="clip0_6102_200">
<rect x="0.786926" width="44" height="44" rx="6" fill="white"/>
</clipPath>
</defs>
</svg>
