<svg width="39" height="44" viewBox="0 0 39 44" fill="none" xmlns="http://www.w3.org/2000/svg">
<g clip-path="url(#clip0_6102_192)">
<path d="M38.6144 22.004C38.6144 19.4459 35.411 17.0217 30.4996 15.5184C31.633 10.5125 31.1292 6.52987 28.9096 5.25479C28.398 4.9557 27.7998 4.81402 27.1466 4.81402V6.56922C27.5086 6.56922 27.7998 6.64006 28.0438 6.77387C29.1143 7.38779 29.5787 9.72543 29.2166 12.7321C29.13 13.472 28.9883 14.2512 28.8152 15.0461C27.2725 14.6683 25.5881 14.3771 23.8172 14.1882C22.7546 12.7321 21.6527 11.4098 20.5429 10.2528C23.1088 7.86791 25.5173 6.56135 27.1544 6.56135V4.80615C24.99 4.80615 22.1564 6.34884 19.2915 9.02493C16.4265 6.36458 13.593 4.83764 11.4285 4.83764V6.59284C13.0577 6.59284 15.4741 7.89153 18.04 10.2607C16.9381 11.4177 15.8362 12.7321 14.7893 14.1882C13.0105 14.3771 11.3262 14.6683 9.78347 15.054C9.60244 14.2669 9.46863 13.5034 9.37418 12.7715C9.00425 9.76479 9.46076 7.42715 10.5233 6.80535C10.7595 6.66367 11.0664 6.60071 11.4285 6.60071V4.84551C10.7673 4.84551 10.1691 4.98718 9.64966 5.28627C7.43795 6.56135 6.94209 10.5361 8.08337 15.5263C3.18769 17.0375 0 19.4538 0 22.004C0 24.562 3.20344 26.9862 8.11485 28.4895C6.98145 33.4954 7.48518 37.4781 9.70476 38.7531C10.2164 39.0522 10.8146 39.1939 11.4757 39.1939C13.6402 39.1939 16.4737 37.6512 19.3387 34.9751C22.2037 37.6355 25.0372 39.1624 27.2017 39.1624C27.8628 39.1624 28.461 39.0207 28.9805 38.7216C31.1922 37.4466 31.688 33.4718 30.5468 28.4817C35.4267 26.9783 38.6144 24.5541 38.6144 22.004ZM28.3665 16.7541C28.0753 17.7694 27.7133 18.8163 27.304 19.8631C26.9813 19.2334 26.6428 18.6038 26.2729 17.9741C25.9108 17.3444 25.5252 16.7305 25.1395 16.1323C26.2572 16.2976 27.3355 16.5022 28.3665 16.7541ZM24.7617 25.1366C24.1478 26.1991 23.5181 27.2066 22.8648 28.1432C21.6921 28.2455 20.5036 28.3006 19.3072 28.3006C18.1187 28.3006 16.9302 28.2455 15.7653 28.1511C15.112 27.2145 14.4745 26.2149 13.8606 25.1602C13.2624 24.1291 12.7193 23.0823 12.2234 22.0276C12.7114 20.9729 13.2624 19.9182 13.8527 18.8871C14.4666 17.8245 15.0963 16.8171 15.7496 15.8804C16.9223 15.7781 18.1108 15.723 19.3072 15.723C20.4957 15.723 21.6842 15.7781 22.8491 15.8726C23.5024 16.8092 24.1399 17.8088 24.7538 18.8635C25.352 19.8946 25.8951 20.9414 26.391 21.9961C25.8951 23.0508 25.352 24.1055 24.7617 25.1366ZM27.304 24.1133C27.729 25.168 28.0911 26.2227 28.3902 27.246C27.3591 27.4978 26.2729 27.7103 25.1474 27.8756C25.533 27.2696 25.9187 26.6478 26.2808 26.0102C26.6428 25.3806 26.9813 24.743 27.304 24.1133ZM19.3229 32.5115C18.591 31.7559 17.859 30.9138 17.1348 29.9929C17.8432 30.0244 18.5673 30.048 19.2993 30.048C20.0392 30.048 20.7712 30.0322 21.4874 29.9929C20.779 30.9138 20.0471 31.7559 19.3229 32.5115ZM13.467 27.8756C12.3494 27.7103 11.2711 27.5057 10.24 27.2538C10.5312 26.2385 10.8933 25.1917 11.3025 24.1448C11.6252 24.7745 11.9637 25.4042 12.3336 26.0338C12.7036 26.6635 13.0814 27.2774 13.467 27.8756ZM19.2836 11.4964C20.0156 12.252 20.7476 13.0942 21.4717 14.015C20.7633 13.9836 20.0392 13.96 19.3072 13.96C18.5673 13.96 17.8354 13.9757 17.1191 14.015C17.8275 13.0942 18.5595 12.252 19.2836 11.4964ZM13.4592 16.1323C13.0735 16.7384 12.6878 17.3602 12.3258 17.9977C11.9637 18.6274 11.6252 19.257 11.3025 19.8867C10.8775 18.832 10.5155 17.7773 10.2164 16.7541C11.2474 16.5101 12.3336 16.2976 13.4592 16.1323ZM6.33604 25.9866C3.54976 24.7981 1.74733 23.2397 1.74733 22.004C1.74733 20.7682 3.54976 19.2019 6.33604 18.0213C7.01293 17.7301 7.75279 17.4704 8.51626 17.2264C8.9649 18.769 9.55521 20.3747 10.2872 22.0197C9.56309 23.6568 8.98064 25.2546 8.53988 26.7894C7.76066 26.5454 7.0208 26.2778 6.33604 25.9866ZM10.5706 37.2341C9.50012 36.6201 9.03574 34.2825 9.3978 31.2758C9.48438 30.536 9.62605 29.7568 9.79921 28.9618C11.3419 29.3396 13.0263 29.6308 14.7972 29.8197C15.8598 31.2758 16.9617 32.5981 18.0715 33.7551C15.5056 36.14 13.0971 37.4466 11.46 37.4466C11.1058 37.4387 10.8067 37.3679 10.5706 37.2341ZM29.2402 31.2365C29.6101 34.2431 29.1536 36.5808 28.0911 37.2026C27.8549 37.3443 27.548 37.4072 27.1859 37.4072C25.5567 37.4072 23.1403 36.1085 20.5744 33.7394C21.6763 32.5824 22.7782 31.268 23.8251 29.8118C25.6039 29.6229 27.2882 29.3317 28.8309 28.9461C29.012 29.741 29.1536 30.5045 29.2402 31.2365ZM32.2705 25.9866C31.5936 26.2778 30.8537 26.5376 30.0903 26.7816C29.6416 25.2389 29.0513 23.6332 28.3193 21.9882C29.0434 20.3511 29.6259 18.7533 30.0667 17.2185C30.8459 17.4625 31.5857 17.7301 32.2784 18.0213C35.0646 19.2098 36.8671 20.7682 36.8671 22.004C36.8592 23.2397 35.0568 24.806 32.2705 25.9866Z" fill="#61DAFB"/>
<path d="M19.2993 25.6009C21.2859 25.6009 22.8963 23.9905 22.8963 22.004C22.8963 20.0174 21.2859 18.407 19.2993 18.407C17.3128 18.407 15.7024 20.0174 15.7024 22.004C15.7024 23.9905 17.3128 25.6009 19.2993 25.6009Z" fill="#61DAFB"/>
</g>
<defs>
<clipPath id="clip0_6102_192">
<rect width="38.6144" height="44" fill="white"/>
</clipPath>
</defs>
</svg>
