<svg width="45" height="44" viewBox="0 0 45 44" fill="none" xmlns="http://www.w3.org/2000/svg">
<g clip-path="url(#clip0_6102_203)">
<path d="M17.3637 1.2688C22.9096 -0.153462 29.039 0.675319 33.9301 3.69396C40.0901 7.37776 44.1116 14.3461 44.2139 21.5191C44.439 28.7637 40.6631 35.947 34.5952 39.8865C27.8417 44.4297 18.4995 44.6038 11.6026 40.2856C4.57296 36.0902 0.469618 27.6279 1.52373 19.5032C2.37279 10.918 9.00373 3.34591 17.3637 1.2688Z" fill="#071B2C"/>
<path d="M16.5144 4.77866C26.9926 0.583191 39.8447 8.32925 40.9292 19.5647C42.6177 29.6744 34.227 39.9479 23.9841 40.2447C14.2427 41.2168 4.82876 32.9589 4.55256 23.1768C3.82605 15.2568 9.04469 7.39821 16.5144 4.77866Z" fill="white"/>
<path d="M17.5683 20.9155C22.2651 17.0782 26.8595 13.1079 31.6586 9.38318C29.1413 13.2512 26.5526 17.0679 24.0353 20.9358C21.8762 20.9461 19.7173 20.9462 17.5683 20.9155ZM21.5386 23.0539C23.7079 23.0539 25.867 23.0539 28.026 23.0847C23.2986 26.9014 18.7247 30.9023 13.9153 34.6168C16.4326 30.7488 19.0213 26.922 21.5386 23.0539Z" fill="#071B2C"/>
</g>
<defs>
<clipPath id="clip0_6102_203">
<rect width="44" height="44" fill="white" transform="translate(0.786926)"/>
</clipPath>
</defs>
</svg>
