<svg width="45" height="44" viewBox="0 0 45 44" fill="none" xmlns="http://www.w3.org/2000/svg">
<g clip-path="url(#clip0_6102_197)">
<path d="M26.6237 0C26.3043 0 26.0077 0.0684478 25.7339 0.159707C26.3157 0.547565 26.6351 1.06091 26.7948 1.6427C26.8062 1.72255 26.829 1.77959 26.8404 1.85944C26.8519 1.92789 26.8632 1.99633 26.8632 2.06478C26.9089 3.06865 26.6009 3.19413 26.3841 3.78733C26.0533 4.55165 26.1446 5.37299 26.5438 6.03464C26.5781 6.11449 26.6237 6.20575 26.6807 6.2856C26.2472 3.39947 28.6542 2.96598 29.0991 2.06478C29.1334 1.27765 28.4831 0.752903 27.9698 0.387859C27.4793 0.0912612 27.0344 0 26.6237 0ZM30.2513 0.650235C30.2057 0.91261 30.2399 0.844164 30.2285 0.981057C30.2171 1.07232 30.2171 1.1864 30.2057 1.27765C30.1829 1.36892 30.1601 1.46017 30.1259 1.55144C30.1031 1.6427 30.0688 1.73396 30.0346 1.82522C29.989 1.91648 29.9547 1.99633 29.9091 2.0876C29.8749 2.13324 29.8521 2.17885 29.8179 2.22449C29.7951 2.25871 29.7722 2.29293 29.7494 2.32716C29.6924 2.40701 29.6353 2.48686 29.5783 2.55531C29.5098 2.62376 29.4528 2.70361 29.373 2.76065V2.77207C29.3045 2.82911 29.2361 2.89755 29.1562 2.95459C28.9167 3.13711 28.6429 3.274 28.3919 3.44512C28.3121 3.50216 28.2322 3.54779 28.1637 3.61623C28.0839 3.67327 28.0155 3.73031 27.947 3.79875C27.8672 3.8672 27.8101 3.93565 27.7417 4.0155C27.6846 4.08395 27.6162 4.1638 27.5706 4.24366C27.5135 4.32351 27.4565 4.40336 27.4108 4.48321C27.3652 4.57447 27.331 4.65433 27.2854 4.74559C27.2511 4.83685 27.2169 4.9167 27.1941 5.00796C27.1599 5.11063 27.1371 5.20189 27.1142 5.29316C27.1028 5.33881 27.1028 5.39582 27.0914 5.44145C27.08 5.4871 27.08 5.53271 27.0687 5.57835C27.0687 5.66961 27.0572 5.77228 27.0572 5.86353C27.0572 5.93198 27.0572 6.00043 27.0687 6.06887C27.0687 6.16013 27.0801 6.25139 27.1029 6.35406C27.1143 6.44532 27.1371 6.53658 27.1599 6.62785C27.1941 6.71911 27.217 6.81037 27.2512 6.90163C27.274 6.95867 27.3082 7.01571 27.331 7.06133L24.7073 6.04606C24.2624 5.92057 23.8289 5.8065 23.384 5.70383C23.1444 5.64679 22.9049 5.58975 22.6653 5.53271C21.9809 5.39582 21.285 5.29316 20.5891 5.22471C20.5663 5.22471 20.5549 5.21329 20.5321 5.21329C19.8476 5.14484 19.1746 5.11062 18.4901 5.11062C17.9882 5.11062 17.4862 5.13342 16.9957 5.16766C16.2999 5.21331 15.604 5.30455 14.9081 5.41862C14.737 5.44142 14.5659 5.47567 14.3948 5.50989C14.0411 5.57833 13.6989 5.65819 13.3681 5.73804C13.197 5.78369 13.0259 5.8293 12.8547 5.87493C12.6836 5.94337 12.5239 6.02323 12.3642 6.09168C12.2387 6.14871 12.1133 6.20575 11.9878 6.26279C11.965 6.27421 11.9421 6.27422 11.9307 6.28559C11.8167 6.34263 11.714 6.38825 11.6113 6.4453C11.5771 6.45672 11.5543 6.46809 11.5315 6.47952C11.406 6.53656 11.2805 6.605 11.1778 6.66204C11.098 6.69626 11.0181 6.74189 10.9497 6.77612C10.9155 6.79891 10.8698 6.82176 10.847 6.83315C10.7443 6.89019 10.6417 6.94723 10.5504 7.00427C10.4477 7.06131 10.3565 7.11834 10.2766 7.17538C10.1968 7.23242 10.1169 7.27805 10.0485 7.33508C10.037 7.34651 10.0257 7.34651 10.0142 7.35788C9.9458 7.40353 9.86595 7.46055 9.7975 7.51759C9.7975 7.51759 9.78608 7.52902 9.77471 7.54039C9.71767 7.58604 9.66063 7.63165 9.60359 7.67728C9.58079 7.6887 9.55794 7.7115 9.53514 7.72293C9.47811 7.76858 9.42107 7.8256 9.36403 7.87123C9.35261 7.89403 9.32981 7.90545 9.31838 7.91688C9.24994 7.98533 9.18149 8.04236 9.11305 8.11081C9.10162 8.11081 9.10162 8.12223 9.09025 8.13361C9.0218 8.19064 8.95336 8.25909 8.88491 8.32754C8.87348 8.33896 8.87348 8.35033 8.86211 8.35033C8.80507 8.40737 8.74804 8.46441 8.691 8.53285C8.6682 8.55565 8.63396 8.5785 8.61115 8.6013C8.55411 8.66975 8.48566 8.73819 8.41722 8.80664C8.40579 8.82943 8.38299 8.84086 8.37157 8.86367C8.28031 8.95494 8.20045 9.0462 8.10919 9.13746C8.09777 9.14888 8.0864 9.16026 8.07497 9.17168C7.89244 9.36561 7.69851 9.55954 7.49318 9.73065C7.28784 9.91317 7.0711 10.0843 6.85435 10.2326C6.6262 10.3923 6.40946 10.5292 6.16989 10.6661C5.94174 10.7916 5.70218 10.9056 5.45121 11.0083C5.21165 11.111 4.96069 11.2022 4.70972 11.2821C4.2306 11.3848 3.74007 11.5787 3.31799 11.6129C3.22673 11.6129 3.12406 11.6357 3.0328 11.6471C2.93013 11.6699 2.83887 11.6928 2.74761 11.7156C2.65635 11.7498 2.56508 11.784 2.47382 11.8182C2.38256 11.8525 2.2913 11.8981 2.20004 11.9437C2.12019 12.0008 2.02893 12.0464 1.94907 12.1034C1.86922 12.1605 1.78936 12.2289 1.72092 12.2974C1.64107 12.3544 1.56121 12.4343 1.49277 12.5027C1.42432 12.5826 1.35587 12.651 1.29884 12.7309C1.2418 12.8221 1.17335 12.902 1.12772 12.9932C1.07068 13.0731 1.01365 13.1643 0.968015 13.2556C0.922366 13.3583 0.876755 13.4495 0.842532 13.5522C0.808309 13.6435 0.774085 13.7461 0.739862 13.8488C0.717065 13.9401 0.694214 14.0313 0.682826 14.1226C0.682826 14.134 0.6714 14.1454 0.6714 14.1568C0.648603 14.2595 0.648603 14.3964 0.637177 14.4648C0.625752 14.5447 0.61438 14.6131 0.61438 14.693C0.61438 14.7386 0.61438 14.7956 0.625805 14.8413C0.63723 14.9211 0.648602 14.9896 0.671454 15.058C0.694251 15.1265 0.717103 15.1949 0.751304 15.2634V15.2748C0.785527 15.3432 0.83116 15.4117 0.876787 15.4801C0.922436 15.5486 0.968053 15.617 1.02509 15.6855C1.08213 15.7425 1.15057 15.8109 1.21902 15.868C1.28746 15.9364 1.35591 15.9935 1.43576 16.0505C1.70955 16.2901 1.77799 16.3699 2.13163 16.5524C2.18867 16.5867 2.24571 16.6095 2.31415 16.6437C2.32558 16.6437 2.33695 16.6551 2.34838 16.6551C2.34838 16.6779 2.34838 16.6893 2.3598 16.7122C2.37123 16.8034 2.39403 16.8947 2.41684 16.9859C2.43964 17.0886 2.47388 17.1799 2.50811 17.2597C2.54233 17.3282 2.56514 17.3966 2.59937 17.4651C2.61079 17.4879 2.62216 17.5107 2.63359 17.5221C2.67924 17.6134 2.72485 17.6932 2.77048 17.7731C2.82752 17.8529 2.88456 17.9328 2.94159 18.0126C2.99863 18.0811 3.06708 18.1609 3.13552 18.2294C3.20397 18.2978 3.27241 18.3549 3.35227 18.4233C3.35227 18.4233 3.3637 18.4347 3.37507 18.4347C3.44351 18.4918 3.51196 18.5488 3.58041 18.5944C3.66026 18.6515 3.74011 18.6971 3.83137 18.7427C3.91123 18.7884 4.00249 18.834 4.09375 18.8682C4.16219 18.9025 4.24204 18.9253 4.3219 18.9481C4.33333 18.9595 4.3447 18.9595 4.36755 18.9709C4.4132 18.9823 4.47021 18.9937 4.51585 19.0051C4.48162 19.6211 4.4702 20.2029 4.56149 20.4082C4.66416 20.6364 5.1661 19.9405 5.66803 19.142C5.59959 19.9291 5.55395 20.8531 5.66803 21.1269C5.79352 21.4121 6.47797 20.5223 7.07117 19.5413C15.1592 17.6704 22.5399 23.2602 23.3156 31.1542C23.1673 29.9222 21.6501 29.2377 20.9543 29.4089C20.612 30.253 20.0302 31.3367 19.0948 32.0098C19.1747 31.2569 19.1405 30.4812 18.9807 29.7283C18.7298 30.7778 18.2392 31.7588 17.5662 32.603C16.4825 32.6828 15.3987 32.1581 14.8284 31.371C14.7827 31.3367 14.7713 31.2683 14.7371 31.2227C14.7029 31.1428 14.6686 31.063 14.6458 30.9831C14.6116 30.9033 14.5888 30.8234 14.5774 30.7436C14.566 30.6637 14.566 30.5838 14.566 30.4926C14.566 30.4355 14.566 30.3785 14.566 30.3215C14.5774 30.2416 14.6002 30.1618 14.623 30.0819C14.6458 30.0021 14.6686 29.9222 14.7029 29.8423C14.7485 29.7625 14.7827 29.6826 14.8397 29.6028C15.0337 29.0552 15.0337 28.6103 14.68 28.348C14.6116 28.3023 14.5431 28.2681 14.4633 28.2339C14.4176 28.2225 14.3606 28.1996 14.315 28.1882C14.2808 28.1768 14.258 28.1654 14.2237 28.154C14.1439 28.1312 14.064 28.1084 13.9842 28.097C13.9043 28.0742 13.8245 28.0627 13.7446 28.0627C13.6648 28.0513 13.5735 28.0399 13.4936 28.0399C13.4366 28.0399 13.3796 28.0514 13.3225 28.0514C13.2313 28.0514 13.1514 28.0628 13.0716 28.0856C12.9917 28.097 12.9119 28.1084 12.832 28.1312C12.7521 28.154 12.6723 28.1769 12.5924 28.2111C12.5126 28.2453 12.4441 28.2795 12.3643 28.3138C12.2958 28.348 12.2274 28.3936 12.1475 28.4278C9.48956 30.1618 11.0752 34.2229 12.889 35.3979C12.2046 35.5234 11.5087 35.6717 11.3148 35.82C11.3034 35.8314 11.292 35.8428 11.292 35.8428C11.7825 36.1394 12.2959 36.3903 12.832 36.6071C13.5621 36.8466 14.3378 37.0634 14.6801 37.1547V37.1661C15.6269 37.36 16.5851 37.4285 17.5548 37.3714C22.6084 37.0178 26.7493 33.1734 27.5022 28.1084C27.525 28.2111 27.5479 28.3023 27.5707 28.405C27.6049 28.6104 27.6505 28.8271 27.6733 29.0438V29.0553C27.6961 29.158 27.7076 29.2606 27.719 29.3519V29.3975C27.7304 29.5002 27.7418 29.6029 27.7418 29.6941C27.7532 29.8196 27.7646 29.9451 27.7646 30.0706V30.2531C27.7646 30.3101 27.776 30.3786 27.776 30.4356C27.776 30.5041 27.7646 30.5725 27.7646 30.641V30.8007C27.7646 30.8805 27.7532 30.949 27.7532 31.0288C27.7532 31.0745 27.7532 31.1201 27.7417 31.1771C27.7417 31.257 27.7303 31.3368 27.7303 31.4281C27.7189 31.4623 27.7189 31.4965 27.7189 31.5308C27.7074 31.622 27.6961 31.7019 27.6846 31.7931C27.6846 31.8274 27.6846 31.8616 27.6732 31.8958C27.6618 32.0099 27.639 32.1125 27.6276 32.2266V32.2381V32.2495C27.6048 32.3521 27.5819 32.4662 27.5591 32.5689V32.6031C27.5363 32.7058 27.5135 32.8085 27.4907 32.9111C27.4907 32.9226 27.4793 32.9453 27.4793 32.9568C27.4565 33.0594 27.4336 33.1621 27.3994 33.2648V33.299C27.3652 33.4131 27.331 33.5157 27.3081 33.6184C27.2967 33.6298 27.2967 33.6412 27.2967 33.6412C27.2625 33.7553 27.2283 33.8694 27.1941 33.9834C27.1484 34.0975 27.1142 34.2002 27.0686 34.3143C27.0229 34.4283 26.9887 34.5424 26.9431 34.6451C26.8974 34.7592 26.8518 34.8618 26.8062 34.9759H26.7948C26.7491 35.0786 26.7035 35.1926 26.6465 35.2953C26.635 35.3295 26.6237 35.3524 26.6122 35.3752C26.6008 35.3866 26.6008 35.398 26.5894 35.4094C25.8479 36.9038 24.7528 38.2157 23.3839 39.2424C23.2926 39.2994 23.2014 39.3678 23.1101 39.4363C23.0873 39.4591 23.0531 39.4705 23.0303 39.4933C22.9504 39.5504 22.8706 39.6074 22.7793 39.6644L22.8135 39.7329H22.8249C22.9846 39.7101 23.1444 39.6872 23.3041 39.6644H23.3155C23.6121 39.6188 23.9087 39.5618 24.2053 39.5047C24.2851 39.4933 24.3764 39.4705 24.4562 39.4477C24.5133 39.4362 24.5589 39.4249 24.6159 39.4135C24.6958 39.402 24.7757 39.3792 24.8555 39.3678C24.924 39.345 24.9924 39.3336 25.0608 39.3108C26.2016 39.037 27.3082 38.6605 28.3691 38.2156C26.5552 40.6911 24.1254 42.6874 21.2849 43.9993C22.5968 43.9081 23.9087 43.6913 25.1749 43.3263C29.7722 41.9688 33.6394 38.8773 35.9551 34.7135C35.4874 37.3487 34.4379 39.8583 32.8865 42.0486C33.993 41.3185 35.0083 40.4744 35.9323 39.5161C38.4876 36.8467 40.1646 33.4587 40.7349 29.8196C41.1228 31.622 41.2369 33.4815 41.0658 35.3181C49.3021 23.8306 41.7502 11.9211 38.5903 8.78397C38.5789 8.76117 38.5675 8.74975 38.5675 8.72693C38.5561 8.73836 38.5561 8.73836 38.5561 8.74973C38.5561 8.73831 38.5561 8.73831 38.5446 8.72693C38.5446 8.86383 38.5332 9.00071 38.5218 9.13761C38.4876 9.39998 38.4534 9.65095 38.4078 9.90192C38.3507 10.1529 38.2823 10.4038 38.2138 10.6548C38.134 10.8944 38.0427 11.1453 37.94 11.3849C37.8374 11.6131 37.7233 11.8526 37.5978 12.0808C37.4723 12.2975 37.3354 12.5257 37.1871 12.731C37.0388 12.9478 36.8791 13.1531 36.7194 13.347C36.5483 13.5524 36.3658 13.7349 36.1833 13.9174C36.0692 14.0201 35.9665 14.1113 35.8524 14.2026C35.7612 14.2824 35.6813 14.3509 35.5901 14.4307C35.3847 14.5904 35.1794 14.7387 34.9513 14.8756C34.7345 15.0125 34.5064 15.1494 34.2782 15.2635C34.0386 15.3776 33.7991 15.4802 33.5595 15.5829C33.32 15.6742 33.069 15.754 32.818 15.8225C32.5671 15.8909 32.3047 15.948 32.0537 15.9936C31.7913 16.0392 31.529 16.062 31.278 16.0849C31.0955 16.0963 30.913 16.1077 30.7304 16.1077C30.4681 16.1077 30.2057 16.0849 29.9547 16.062C29.6923 16.0392 29.43 16.005 29.179 15.9479C28.9166 15.9023 28.6656 15.8338 28.4147 15.754H28.4033C28.6542 15.7312 28.9052 15.7083 29.1562 15.6627C29.4185 15.6171 29.6695 15.5601 29.9205 15.4916C30.1714 15.4232 30.4224 15.3433 30.662 15.2521C30.9129 15.1608 31.1525 15.0467 31.3807 14.9326C31.6202 14.8186 31.837 14.6931 32.0651 14.5562C32.2818 14.4079 32.4986 14.2596 32.7039 14.0999C32.9093 13.9402 33.1032 13.7691 33.2857 13.5865C33.4797 13.4154 33.6508 13.2215 33.8219 13.0276C33.993 12.8222 34.1527 12.6169 34.301 12.4116C34.3238 12.3773 34.3467 12.3317 34.3694 12.2975C34.4835 12.115 34.5976 11.9324 34.7003 11.7499C34.8257 11.5218 34.9398 11.2936 35.0425 11.0541C35.1452 10.8145 35.2364 10.5749 35.3163 10.324C35.3961 10.0844 35.4532 9.83344 35.5102 9.58247C35.5559 9.32009 35.6015 9.06912 35.6243 8.81816C35.6471 8.55578 35.6699 8.29341 35.6699 8.04244C35.6699 7.85992 35.6585 7.6774 35.6471 7.49487C35.6243 7.2325 35.5901 6.98153 35.5559 6.73056C35.5102 6.46819 35.4532 6.21722 35.3848 5.96625C35.3049 5.72669 35.2251 5.47572 35.1338 5.23617C35.0425 4.9966 34.9285 4.75704 34.8144 4.52889C34.6889 4.30074 34.5634 4.07258 34.4265 3.85584C34.2782 3.6391 34.1299 3.43376 33.9702 3.22842C33.7991 3.03449 33.628 2.84056 33.4455 2.64663C33.3542 2.55537 33.2515 2.4527 33.1489 2.36144C32.6355 1.96218 32.0994 1.58572 31.5632 1.2435C31.4834 1.19785 31.4149 1.16364 31.3351 1.12942C30.9586 0.889859 30.6049 0.764308 30.2513 0.650235Z" fill="#E0234E"/>
</g>
<defs>
<clipPath id="clip0_6102_197">
<rect width="44.1726" height="44" fill="white" transform="translate(0.61438)"/>
</clipPath>
</defs>
</svg>
