<svg width="53" height="25" viewBox="0 0 53 25" fill="none" xmlns="http://www.w3.org/2000/svg">
<path d="M3.80223 6.34795V19.5834H0.267058V6.34795H3.80223ZM0.046875 2.89841C0.046875 2.38465 0.226284 1.96059 0.585101 1.62624C0.943919 1.29189 1.42506 1.12471 2.02853 1.12471C2.62384 1.12471 3.1009 1.29189 3.45972 1.62624C3.82669 1.96059 4.01018 2.38465 4.01018 2.89841C4.01018 3.41217 3.82669 3.83623 3.45972 4.17058C3.1009 4.50493 2.62384 4.67211 2.02853 4.67211C1.42506 4.67211 0.943919 4.50493 0.585101 4.17058C0.226284 3.83623 0.046875 3.41217 0.046875 2.89841Z" fill="white"/>
<path d="M10.4322 0.794434V19.5834H6.89703V0.794434H10.4322Z" fill="white"/>
<path d="M21.7227 6.34795H24.9154V19.1431C24.9154 20.35 24.6463 21.3734 24.108 22.2134C23.578 23.0615 22.8359 23.7017 21.8817 24.1339C20.9276 24.5743 19.8185 24.7944 18.5545 24.7944C18 24.7944 17.4128 24.721 16.7931 24.5743C16.1814 24.4275 15.5943 24.1991 15.0316 23.8892C14.477 23.5793 14.0122 23.1879 13.6371 22.7149L15.1906 20.6354C15.5984 21.1084 16.0713 21.4754 16.6096 21.7363C17.1478 22.0054 17.7431 22.14 18.3955 22.14C19.0316 22.14 19.5698 22.0218 20.0102 21.7853C20.4505 21.5569 20.789 21.2185 21.0255 20.77C21.262 20.3296 21.3802 19.7955 21.3802 19.1675V9.40605L21.7227 6.34795ZM12.8175 13.1247V12.8678C12.8175 11.8566 12.9398 10.9392 13.1845 10.1155C13.4373 9.28373 13.792 8.57017 14.2487 7.97486C14.7135 7.37955 15.2762 6.9188 15.9368 6.5926C16.5973 6.2664 17.3435 6.1033 18.1753 6.1033C19.056 6.1033 19.7941 6.2664 20.3894 6.5926C20.9847 6.9188 21.474 7.38363 21.8573 7.98709C22.2406 8.58241 22.5382 9.28781 22.7502 10.1033C22.9704 10.9106 23.1417 11.7955 23.264 12.7577V13.3204C23.1417 14.2419 22.9582 15.0982 22.7135 15.8892C22.4689 16.6803 22.1468 17.3734 21.7472 17.9687C21.3476 18.5559 20.8501 19.0126 20.2548 19.3388C19.6677 19.665 18.9663 19.8281 18.1509 19.8281C17.3354 19.8281 16.5973 19.6609 15.9368 19.3265C15.2844 18.9922 14.7258 18.5233 14.2609 17.9198C13.7961 17.3164 13.4373 16.6069 13.1845 15.7914C12.9398 14.9759 12.8175 14.087 12.8175 13.1247ZM16.3405 12.8678V13.1247C16.3405 13.6711 16.3935 14.1808 16.4995 14.6538C16.6055 15.1267 16.7686 15.5467 16.9888 15.9137C17.2171 16.2725 17.4985 16.5539 17.8328 16.7577C18.1753 16.9535 18.579 17.0513 19.0438 17.0513C19.6881 17.0513 20.2141 16.9168 20.6218 16.6476C21.0295 16.3704 21.3354 15.9912 21.5392 15.51C21.7431 15.0289 21.8614 14.4744 21.894 13.8464V12.244C21.8777 11.7302 21.8083 11.2695 21.686 10.8617C21.5637 10.4458 21.3924 10.0911 21.1723 9.79749C20.9521 9.50391 20.6667 9.27558 20.316 9.11248C19.9653 8.94938 19.5494 8.86783 19.0683 8.86783C18.6035 8.86783 18.1998 8.97384 17.8573 9.18587C17.5229 9.38974 17.2416 9.67109 17.0132 10.0299C16.7931 10.3887 16.6259 10.8128 16.5117 11.3021C16.3975 11.7832 16.3405 12.3051 16.3405 12.8678Z" fill="white"/>
<path d="M27.0927 13.1002V12.8434C27.0927 11.8729 27.2314 10.98 27.5086 10.1645C27.7859 9.34082 28.1896 8.62726 28.7197 8.02379C29.2497 7.42033 29.9021 6.95142 30.6768 6.61706C31.4516 6.27456 32.3405 6.1033 33.3435 6.1033C34.3466 6.1033 35.2395 6.27456 36.0224 6.61706C36.8053 6.95142 37.4618 7.42033 37.9918 8.02379C38.5301 8.62726 38.9378 9.34082 39.2151 10.1645C39.4923 10.98 39.631 11.8729 39.631 12.8434V13.1002C39.631 14.0625 39.4923 14.9555 39.2151 15.7791C38.9378 16.5946 38.5301 17.3082 37.9918 17.9198C37.4618 18.5233 36.8094 18.9922 36.0346 19.3265C35.2599 19.6609 34.371 19.8281 33.368 19.8281C32.3649 19.8281 31.472 19.6609 30.6891 19.3265C29.9144 18.9922 29.2579 18.5233 28.7197 17.9198C28.1896 17.3082 27.7859 16.5946 27.5086 15.7791C27.2314 14.9555 27.0927 14.0625 27.0927 13.1002ZM30.6157 12.8434V13.1002C30.6157 13.6548 30.6646 14.1726 30.7625 14.6538C30.8603 15.1349 31.0153 15.559 31.2273 15.9259C31.4475 16.2847 31.7329 16.5661 32.0836 16.77C32.4342 16.9738 32.8624 17.0758 33.368 17.0758C33.8573 17.0758 34.2773 16.9738 34.6279 16.77C34.9786 16.5661 35.2599 16.2847 35.472 15.9259C35.684 15.559 35.8389 15.1349 35.9368 14.6538C36.0428 14.1726 36.0958 13.6548 36.0958 13.1002V12.8434C36.0958 12.3051 36.0428 11.7995 35.9368 11.3265C35.8389 10.8454 35.6799 10.4213 35.4597 10.0544C35.2477 9.67924 34.9663 9.38567 34.6157 9.17364C34.265 8.96161 33.841 8.8556 33.3435 8.8556C32.8461 8.8556 32.422 8.96161 32.0713 9.17364C31.7288 9.38567 31.4475 9.67924 31.2273 10.0544C31.0153 10.4213 30.8603 10.8454 30.7625 11.3265C30.6646 11.7995 30.6157 12.3051 30.6157 12.8434Z" fill="white"/>
<path d="M48.9521 15.9259C48.9521 15.6731 48.8787 15.4448 48.7319 15.2409C48.5851 15.037 48.3119 14.8495 47.9123 14.6782C47.5209 14.4988 46.9541 14.3357 46.212 14.1889C45.5433 14.0421 44.9195 13.8587 44.3405 13.6385C43.7696 13.4101 43.2722 13.1369 42.8481 12.8189C42.4322 12.5009 42.106 12.1257 41.8695 11.6935C41.633 11.2531 41.5148 10.7516 41.5148 10.1889C41.5148 9.63439 41.633 9.11248 41.8695 8.62318C42.1142 8.13388 42.4607 7.70167 42.9093 7.32654C43.3659 6.94326 43.9205 6.64561 44.5729 6.43358C45.2334 6.21339 45.9755 6.1033 46.7992 6.1033C47.949 6.1033 48.9358 6.28679 49.7594 6.65376C50.5912 7.02073 51.2273 7.52634 51.6677 8.17058C52.1162 8.80667 52.3405 9.53246 52.3405 10.348H48.8175C48.8175 10.0054 48.7441 9.69963 48.5973 9.43052C48.4587 9.15325 48.2385 8.93715 47.9368 8.7822C47.6432 8.6191 47.2599 8.53755 46.7869 8.53755C46.3955 8.53755 46.0571 8.60687 45.7716 8.7455C45.4862 8.87598 45.266 9.05539 45.1111 9.28373C44.9643 9.50391 44.8909 9.74856 44.8909 10.0177C44.8909 10.2215 44.9317 10.405 45.0132 10.5681C45.1029 10.7231 45.2457 10.8658 45.4414 10.9963C45.6371 11.1267 45.8899 11.2491 46.1998 11.3632C46.5178 11.4693 46.9093 11.5671 47.3741 11.6568C48.3282 11.8525 49.1804 12.1094 49.9307 12.4275C50.6809 12.7373 51.2762 13.1614 51.7166 13.6996C52.157 14.2297 52.3772 14.927 52.3772 15.7914C52.3772 16.3785 52.2467 16.9168 51.9857 17.4061C51.7248 17.8954 51.3496 18.3235 50.8603 18.6905C50.371 19.0493 49.7839 19.3306 49.0989 19.5345C48.422 19.7302 47.6595 19.8281 46.8114 19.8281C45.58 19.8281 44.5362 19.6079 43.6799 19.1675C42.8318 18.7272 42.1875 18.1685 41.7472 17.4917C41.315 16.8067 41.0989 16.1053 41.0989 15.3877H44.4383C44.4546 15.8688 44.5769 16.2562 44.8053 16.5498C45.0418 16.8434 45.3394 17.0554 45.6983 17.1859C46.0652 17.3164 46.4607 17.3816 46.8848 17.3816C47.3415 17.3816 47.7207 17.3204 48.0224 17.1981C48.3241 17.0676 48.5525 16.8964 48.7074 16.6843C48.8705 16.4642 48.9521 16.2114 48.9521 15.9259Z" fill="white"/>
</svg>
