<svg xmlns="http://www.w3.org/2000/svg" width="254" height="123" fill="none"><path fill="url(#a)" d="M235.224 17.956C223.649 6.38 208.257 0 191.88 0c-12.52 0-24.474 3.735-34.582 10.673a61.7 61.7 0 0 0-8.763 7.283L126.59 39.9 112.142 25.46l-7.497-7.503c-23.901-23.902-62.788-23.902-86.69 0C6.373 29.53 0 44.93 0 61.3c0 7.213 1.234 14.241 3.617 20.828 3.011 8.371 7.862 16.04 14.338 22.517 11.947 11.947 27.643 17.92 43.345 17.92 15.703 0 30.406-5.601 42.208-16.811.379-.365.758-.731 1.137-1.109l21.945-21.945 21.945 21.945a62 62 0 0 0 5.891 5.188c10.679 8.282 23.722 12.767 37.454 12.767 16.377 0 31.769-6.381 43.344-17.955 10.142-10.142 15.978-22.978 17.508-36.222 2.094-17.975-3.748-36.71-17.508-50.468M84.21 82.205l-1.006 1.006c-12.078 12.078-31.736 12.078-43.814 0a30.8 30.8 0 0 1-7.834-13.264c-3.038-10.5-.42-22.296 7.834-30.557 6.043-6.035 13.973-9.06 21.91-9.06s15.868 3.025 21.904 9.06l7.744 7.745L105.114 61.3zm129.579 1.006c-5.849 5.85-13.635 9.074-21.909 9.074-6.532 0-12.754-2.012-17.963-5.74a30.5 30.5 0 0 1-3.941-3.334l-21.91-21.91 21.91-21.91a32 32 0 0 1 3.982-3.37c5.202-3.707 11.41-5.705 17.922-5.705 8.274 0 16.06 3.225 21.909 9.074 5.85 5.857 9.075 13.636 9.075 21.91 0 .924-.042 1.833-.124 2.743-.627 7.241-3.755 13.965-8.951 19.168"/><path fill="#130532" d="m105.114 61.3 16.529 25.259 4.458-4.347zM147.418 60.653l-15.309-25.3-5.03 5.03z" style="mix-blend-mode:soft-light"/><defs><linearGradient id="a" x1="49.608" x2="160.193" y1="0" y2="143.312" gradientUnits="userSpaceOnUse"><stop stop-color="#5236FF"/><stop offset="1" stop-color="#291A88"/></linearGradient></defs></svg>