<svg width="90" height="25" viewBox="0 0 90 25" fill="none" xmlns="http://www.w3.org/2000/svg">
<path d="M37.5251 13.909C36.8928 13.909 36.3721 13.8085 35.9629 13.6077C35.5538 13.4068 35.2488 13.1018 35.0479 12.6927C34.8545 12.2836 34.7578 11.7666 34.7578 11.1417C34.7578 10.5168 34.8545 9.99608 35.0479 9.57949C35.2488 9.15547 35.5538 8.83932 35.9629 8.63103C36.3721 8.4153 36.8928 8.30743 37.5251 8.30743H40.0469V13.206H38.5517V9.27822L38.9199 9.60181H37.5251C37.2201 9.60181 36.9746 9.63901 36.7887 9.7134C36.6027 9.78035 36.4651 9.92541 36.3758 10.1486C36.294 10.3643 36.253 10.6953 36.253 11.1417C36.253 11.5657 36.2902 11.8856 36.3646 12.1013C36.4465 12.3096 36.5804 12.4472 36.7663 12.5142C36.9523 12.5811 37.2052 12.6146 37.5251 12.6146H41.2186V13.909H37.5251ZM41.2186 13.909V12.6146C41.3078 12.6146 41.3673 12.6741 41.3971 12.7931C41.4268 12.9047 41.4417 13.0609 41.4417 13.2618C41.4417 13.4552 41.4268 13.6114 41.3971 13.7304C41.3673 13.8495 41.3078 13.909 41.2186 13.909ZM36.1638 7.63792V6.36586H37.659V7.63792H36.1638ZM37.6925 7.63792V6.36586H39.1877V7.63792H37.6925Z" fill="white"/>
<path d="M41.2201 13.909V12.6146H46.0183L45.5161 13.0275V10.9631C45.5161 10.5168 45.3748 10.1783 45.0921 9.94772C44.8169 9.71712 44.378 9.60181 43.7754 9.60181C43.6043 9.60181 43.37 9.61669 43.0724 9.64645C42.7749 9.66876 42.4513 9.70596 42.1016 9.75803L41.9566 8.57523C42.2765 8.50084 42.6001 8.43761 42.9274 8.38554C43.2621 8.33347 43.5894 8.30743 43.9093 8.30743C44.5193 8.30743 45.0549 8.4153 45.5161 8.63103C45.9773 8.83932 46.3381 9.14059 46.5985 9.53486C46.8663 9.92913 47.0002 10.4052 47.0002 10.9631V13.909H41.2201ZM41.2201 13.909C41.1309 13.909 41.0713 13.8495 41.0416 13.7304C41.0118 13.6114 40.997 13.4552 40.997 13.2618C40.997 13.0609 41.0118 12.9047 41.0416 12.7931C41.0713 12.6741 41.1309 12.6146 41.2201 12.6146V13.909Z" fill="white"/>
<path d="M50.3938 16.6763C50.1185 16.6763 49.8284 16.654 49.5234 16.6093C49.2259 16.5721 48.906 16.5201 48.5638 16.4531L48.787 15.2591C49.1589 15.3038 49.4751 15.3373 49.7354 15.3596C49.9958 15.3819 50.2152 15.393 50.3938 15.393C50.9294 15.393 51.3162 15.2963 51.5542 15.1029C51.7923 14.9095 51.9113 14.6194 51.9113 14.2326V9.33401L52.2796 9.60181H50.8847C50.5797 9.60181 50.3343 9.63901 50.1483 9.7134C49.9623 9.78035 49.8247 9.92541 49.7354 10.1486C49.6536 10.3643 49.6127 10.6953 49.6127 11.1417C49.6127 11.5657 49.6499 11.8856 49.7243 12.1013C49.8061 12.3096 49.94 12.4472 50.126 12.5142C50.3119 12.5811 50.5649 12.6146 50.8847 12.6146H51.9113V13.909H50.8847C50.2524 13.909 49.7317 13.8085 49.3226 13.6077C48.9134 13.4068 48.6084 13.1018 48.4076 12.6927C48.2142 12.2836 48.1174 11.7666 48.1174 11.1417C48.1174 10.5168 48.2142 9.99608 48.4076 9.57949C48.6084 9.15547 48.9134 8.83932 49.3226 8.63103C49.7317 8.4153 50.2524 8.30743 50.8847 8.30743H53.4066V14.2326C53.4066 14.7384 53.2801 15.1736 53.0272 15.5381C52.7817 15.9101 52.432 16.1927 51.9783 16.3862C51.5319 16.5796 51.0038 16.6763 50.3938 16.6763Z" fill="white"/>
<path d="M59.1532 13.909V12.6146H60.3249V13.909H59.1532ZM54.6229 13.909V12.6146H58.6734L57.658 13.4961V11.6215C57.658 11.0933 57.6022 10.6842 57.4906 10.3941C57.3865 10.1039 57.208 9.89937 56.955 9.78035C56.7095 9.66132 56.3711 9.60181 55.9396 9.60181H55.0358V8.30743H55.9396C56.624 8.30743 57.2042 8.41901 57.6803 8.64218C58.1639 8.86535 58.5284 9.22242 58.7739 9.7134C59.0268 10.1969 59.1532 10.833 59.1532 11.6215V13.909H54.6229ZM60.3249 13.909V12.6146C60.4142 12.6146 60.4737 12.6741 60.5034 12.7931C60.5332 12.9047 60.5481 13.0609 60.5481 13.2618C60.5481 13.4552 60.5332 13.6114 60.5034 13.7304C60.4737 13.8495 60.4142 13.909 60.3249 13.909Z" fill="white"/>
<path d="M61.5833 13.909V6.01995H63.0786V13.909H61.5833ZM60.3224 13.909V12.6146H61.5833V13.909H60.3224ZM60.3224 13.909C60.2332 13.909 60.1737 13.8495 60.1439 13.7304C60.1142 13.6114 60.0993 13.4552 60.0993 13.2618C60.0993 13.0609 60.1142 12.9047 60.1439 12.7931C60.1737 12.6741 60.2332 12.6146 60.3224 12.6146V13.909Z" fill="white"/>
<path d="M64.8682 13.909V6.01995H66.3523V13.909H64.8682Z" fill="white"/>
<path d="M70.2382 13.909V12.6146H74.2887L73.2733 13.4961V11.6215C73.2733 11.0933 73.2175 10.6842 73.1059 10.3941C73.0018 10.1039 72.8232 9.89937 72.5703 9.78035C72.3248 9.66132 71.9864 9.60181 71.5549 9.60181H70.6511V8.30743H71.5549C72.2393 8.30743 72.8195 8.41901 73.2956 8.64218C73.7792 8.86535 74.1437 9.22242 74.3892 9.7134C74.6421 10.1969 74.7685 10.833 74.7685 11.6215V13.909H70.2382Z" fill="white"/>
<path d="M76.3318 13.909V6.01995H77.8158V13.909H76.3318Z" fill="white"/>
<path d="M81.4142 13.909V12.6146H82.8536V13.909H81.4142ZM79.2495 16.6763C79.1527 16.6763 79.0486 16.6726 78.937 16.6651C78.8254 16.6577 78.7101 16.6465 78.5911 16.6316L78.6469 15.3596C78.7659 15.367 78.8775 15.3745 78.9816 15.3819C79.0932 15.3893 79.1751 15.393 79.2271 15.393C79.5173 15.393 79.7479 15.2777 79.919 15.0471C80.0975 14.8165 80.1868 14.4929 80.1868 14.0764V8.30743H81.682V14.0764C81.682 14.5822 81.5778 15.0323 81.3696 15.4265C81.1687 15.8208 80.886 16.1258 80.5215 16.3415C80.157 16.5647 79.733 16.6763 79.2495 16.6763ZM82.8536 13.909V12.6146C82.9429 12.6146 83.0024 12.6741 83.0322 12.7931C83.0619 12.9047 83.0768 13.0609 83.0768 13.2618C83.0768 13.4552 83.0619 13.6114 83.0322 13.7304C83.0024 13.8495 82.9429 13.909 82.8536 13.909ZM80.1868 7.28085V6.00879H81.682V7.28085H80.1868Z" fill="white"/>
<path d="M82.8573 13.909V12.6146H88.6485L87.9679 13.1948V11.1417C87.9679 10.74 87.9232 10.4275 87.834 10.2044C87.7447 9.97376 87.5885 9.81382 87.3653 9.72455C87.1496 9.62785 86.8483 9.57949 86.4615 9.57949C86.1565 9.57949 85.8552 9.60181 85.5576 9.64645C85.2675 9.68364 85.0406 9.73571 84.877 9.80266L85.8031 8.9323C85.7585 9.1034 85.7139 9.31913 85.6692 9.57949C85.632 9.83986 85.5985 10.1188 85.5688 10.4164C85.539 10.7065 85.5242 10.9929 85.5242 11.2756C85.5242 11.5359 85.5353 11.8075 85.5576 12.0901C85.5874 12.3728 85.6171 12.622 85.6469 12.8378C85.6841 13.0535 85.7139 13.2023 85.7362 13.2841L84.319 13.6746C84.2893 13.5705 84.2521 13.3994 84.2075 13.1614C84.1628 12.9233 84.1219 12.6406 84.0847 12.3133C84.055 11.986 84.0401 11.6401 84.0401 11.2756C84.0401 10.9036 84.0587 10.5466 84.0959 10.2044C84.1331 9.85474 84.174 9.5423 84.2186 9.26706C84.2707 8.98438 84.319 8.75749 84.3637 8.58639C84.5422 8.51944 84.8212 8.45249 85.2006 8.38554C85.58 8.31859 86.0003 8.28511 86.4615 8.28511C87.131 8.28511 87.6852 8.3781 88.1241 8.56407C88.5704 8.75005 88.9015 9.05133 89.1172 9.46791C89.3404 9.88449 89.4519 10.4461 89.4519 11.1528V13.909H82.8573ZM82.8573 13.909C82.768 13.909 82.7085 13.8495 82.6788 13.7304C82.649 13.6114 82.6341 13.4552 82.6341 13.2618C82.6341 13.0609 82.649 12.9047 82.6788 12.7931C82.7085 12.6741 82.768 12.6146 82.8573 12.6146V13.909Z" fill="white"/>
<path d="M35.0781 24.748C34.9787 24.748 34.8918 24.7139 34.8173 24.6456C34.749 24.5711 34.7148 24.4841 34.7148 24.3848V17.8369C34.7148 17.7313 34.749 17.6444 34.8173 17.5761C34.8918 17.5078 34.9787 17.4736 35.0781 17.4736C35.2271 17.4736 35.3358 17.5357 35.4041 17.6599L38.543 23.9004H38.2263L41.3093 17.6599C41.3838 17.5357 41.4925 17.4736 41.6353 17.4736C41.7347 17.4736 41.8185 17.5078 41.8868 17.5761C41.9551 17.6444 41.9892 17.7313 41.9892 17.8369V24.3848C41.9892 24.4841 41.9551 24.5711 41.8868 24.6456C41.8185 24.7139 41.7347 24.748 41.6353 24.748C41.5297 24.748 41.4397 24.7139 41.3652 24.6456C41.2969 24.5711 41.2627 24.4841 41.2627 24.3848V18.7776L41.4211 18.7869L38.6734 24.4034C38.6051 24.5214 38.4995 24.5804 38.3567 24.5804C38.2015 24.5804 38.0897 24.5059 38.0214 24.3568L35.2551 18.8242L35.4414 18.7776V24.3848C35.4414 24.4841 35.4041 24.5711 35.3296 24.6456C35.2613 24.7139 35.1774 24.748 35.0781 24.748Z" fill="white"/>
<path d="M45.3558 24.7946C44.8777 24.7946 44.4492 24.6828 44.0705 24.4593C43.6917 24.2295 43.3905 23.9191 43.167 23.5279C42.9496 23.1367 42.841 22.6958 42.841 22.2052C42.841 21.7085 42.9527 21.2645 43.1763 20.8733C43.406 20.4821 43.7165 20.1748 44.1077 19.9512C44.4989 19.7215 44.9398 19.6066 45.4303 19.6066C45.9209 19.6066 46.3586 19.7215 46.7436 19.9512C47.1348 20.1748 47.4422 20.4821 47.6657 20.8733C47.8955 21.2645 48.0135 21.7085 48.0197 22.2052L47.7309 22.4288C47.7309 22.8759 47.6254 23.2795 47.4143 23.6396C47.2093 23.9936 46.9268 24.2761 46.5667 24.4872C46.2127 24.6921 45.8091 24.7946 45.3558 24.7946ZM45.4303 24.1426C45.7905 24.1426 46.1103 24.0588 46.3897 23.8911C46.6753 23.7235 46.8989 23.4937 47.0603 23.2019C47.228 22.9038 47.3118 22.5716 47.3118 22.2052C47.3118 21.8327 47.228 21.5005 47.0603 21.2086C46.8989 20.9168 46.6753 20.687 46.3897 20.5194C46.1103 20.3455 45.7905 20.2586 45.4303 20.2586C45.0764 20.2586 44.7566 20.3455 44.471 20.5194C44.1853 20.687 43.9587 20.9168 43.791 21.2086C43.6234 21.5005 43.5395 21.8327 43.5395 22.2052C43.5395 22.5716 43.6234 22.9038 43.791 23.2019C43.9587 23.4937 44.1853 23.7235 44.471 23.8911C44.7566 24.0588 45.0764 24.1426 45.4303 24.1426ZM47.6564 24.748C47.5509 24.748 47.4639 24.717 47.3956 24.6549C47.3273 24.5866 47.2932 24.4996 47.2932 24.3941V22.8014L47.4701 22.0655L48.0197 22.2052V24.3941C48.0197 24.4996 47.9855 24.5866 47.9172 24.6549C47.8489 24.717 47.762 24.748 47.6564 24.748Z" fill="white"/>
<path d="M49.1817 24.5059L48.5949 24.1892L52.0598 19.7836L52.5441 20.1934L49.1817 24.5059ZM48.8557 24.748C48.6384 24.748 48.5297 24.6394 48.5297 24.422C48.5297 24.2047 48.6384 24.096 48.8557 24.096H52.3113C52.5286 24.096 52.6373 24.2047 52.6373 24.422C52.6373 24.6394 52.5286 24.748 52.3113 24.748H48.8557ZM48.8184 20.3052C48.6011 20.3052 48.4924 20.1965 48.4924 19.9792C48.4924 19.7618 48.6011 19.6532 48.8184 19.6532H52.274C52.4913 19.6532 52.6 19.7618 52.6 19.9792C52.6 20.1965 52.4913 20.3052 52.274 20.3052H48.8184Z" fill="white"/>
<path d="M55.2853 24.7946C54.8071 24.7946 54.3787 24.6828 53.9999 24.4593C53.6211 24.2295 53.32 23.9191 53.0964 23.5279C52.8791 23.1367 52.7704 22.6958 52.7704 22.2052C52.7704 21.7085 52.8822 21.2645 53.1057 20.8733C53.3355 20.4821 53.646 20.1748 54.0372 19.9512C54.4284 19.7215 54.8692 19.6066 55.3598 19.6066C55.8503 19.6066 56.2881 19.7215 56.6731 19.9512C57.0643 20.1748 57.3716 20.4821 57.5952 20.8733C57.8249 21.2645 57.9429 21.7085 57.9491 22.2052L57.6604 22.4288C57.6604 22.8759 57.5548 23.2795 57.3437 23.6396C57.1388 23.9936 56.8563 24.2761 56.4961 24.4872C56.1422 24.6921 55.7386 24.7946 55.2853 24.7946ZM55.3598 24.1426C55.7199 24.1426 56.0397 24.0588 56.3191 23.8911C56.6048 23.7235 56.8283 23.4937 56.9898 23.2019C57.1574 22.9038 57.2413 22.5716 57.2413 22.2052C57.2413 21.8327 57.1574 21.5005 56.9898 21.2086C56.8283 20.9168 56.6048 20.687 56.3191 20.5194C56.0397 20.3455 55.7199 20.2586 55.3598 20.2586C55.0058 20.2586 54.6861 20.3455 54.4004 20.5194C54.1148 20.687 53.8881 20.9168 53.7205 21.2086C53.5528 21.5005 53.469 21.8327 53.469 22.2052C53.469 22.5716 53.5528 22.9038 53.7205 23.2019C53.8881 23.4937 54.1148 23.7235 54.4004 23.8911C54.6861 24.0588 55.0058 24.1426 55.3598 24.1426ZM57.5859 24.748C57.4803 24.748 57.3934 24.717 57.3251 24.6549C57.2568 24.5866 57.2226 24.4996 57.2226 24.3941V22.8014L57.3996 22.0655L57.9491 22.2052V24.3941C57.9491 24.4996 57.915 24.5866 57.8467 24.6549C57.7784 24.717 57.6914 24.748 57.5859 24.748Z" fill="white"/>
<path d="M61.0112 24.7946C60.5207 24.7946 60.0798 24.6828 59.6886 24.4593C59.2974 24.2295 58.987 23.9191 58.7572 23.5279C58.5337 23.1367 58.4219 22.6927 58.4219 22.1959C58.4219 21.7054 58.5306 21.2645 58.7479 20.8733C58.9714 20.4821 59.2726 20.1748 59.6514 19.9512C60.0302 19.7215 60.4586 19.6066 60.9367 19.6066C61.3528 19.6066 61.7284 19.6966 62.0638 19.8767C62.3991 20.0506 62.6692 20.2834 62.8741 20.5753V17.8369C62.8741 17.7251 62.9082 17.6382 62.9765 17.5761C63.0448 17.5078 63.1318 17.4736 63.2373 17.4736C63.3429 17.4736 63.4298 17.5078 63.4981 17.5761C63.5664 17.6382 63.6006 17.7251 63.6006 17.8369V22.2332C63.5882 22.7175 63.4671 23.1553 63.2373 23.5465C63.0138 23.9315 62.7064 24.2357 62.3152 24.4593C61.9302 24.6828 61.4956 24.7946 61.0112 24.7946ZM61.0112 24.1426C61.3714 24.1426 61.6912 24.0588 61.9706 23.8911C62.2562 23.7173 62.4798 23.4844 62.6412 23.1926C62.8089 22.9007 62.8927 22.5685 62.8927 22.1959C62.8927 21.8296 62.8089 21.5005 62.6412 21.2086C62.4798 20.9106 62.2562 20.6777 61.9706 20.5101C61.6912 20.3424 61.3714 20.2586 61.0112 20.2586C60.6573 20.2586 60.3375 20.3424 60.0519 20.5101C59.7662 20.6777 59.5396 20.9106 59.3719 21.2086C59.2043 21.5005 59.1205 21.8296 59.1205 22.1959C59.1205 22.5685 59.2043 22.9007 59.3719 23.1926C59.5396 23.4844 59.7662 23.7173 60.0519 23.8911C60.3375 24.0588 60.6573 24.1426 61.0112 24.1426Z" fill="white"/>
<path d="M67.2797 24.748C67.1431 24.748 67.0282 24.7015 66.9351 24.6083C66.8419 24.5152 66.7954 24.4003 66.7954 24.2637V17.958C66.7954 17.8152 66.8419 17.7003 66.9351 17.6133C67.0282 17.5202 67.1431 17.4736 67.2797 17.4736H68.9656C69.4996 17.4736 69.9839 17.5637 70.4186 17.7437C70.8595 17.9176 71.2413 18.1691 71.5642 18.4982C71.8871 18.8211 72.1355 19.203 72.3094 19.6438C72.4832 20.0847 72.5702 20.5722 72.5702 21.1062C72.5702 21.6402 72.4832 22.1307 72.3094 22.5778C72.1355 23.0187 71.8871 23.4037 71.5642 23.7328C71.2413 24.0557 70.8595 24.3072 70.4186 24.4872C69.9839 24.6611 69.4996 24.748 68.9656 24.748H67.2797ZM67.764 23.8911H68.9656C69.4872 23.8911 69.9467 23.7731 70.3441 23.5372C70.7477 23.295 71.0644 22.9659 71.2941 22.5499C71.5239 22.1276 71.6388 21.6464 71.6388 21.1062C71.6388 20.5597 71.5239 20.0785 71.2941 19.6625C71.0644 19.2464 70.7477 18.9204 70.3441 18.6845C69.9467 18.4485 69.4872 18.3305 68.9656 18.3305H67.764V23.8911Z" fill="white"/>
<path d="M75.6551 24.7853C75.1521 24.7853 74.7081 24.6766 74.3231 24.4593C73.9382 24.2357 73.6339 23.9315 73.4103 23.5465C73.193 23.1553 73.0843 22.7082 73.0843 22.2052C73.0843 21.6961 73.193 21.249 73.4103 20.864C73.6339 20.4728 73.9382 20.1685 74.3231 19.9512C74.7081 19.7277 75.1521 19.6159 75.6551 19.6159C76.1518 19.6159 76.5927 19.7277 76.9777 19.9512C77.3627 20.1685 77.6638 20.4728 77.8812 20.864C78.1047 21.249 78.2165 21.6961 78.2165 22.2052C78.2165 22.7082 78.1078 23.1553 77.8905 23.5465C77.6731 23.9315 77.372 24.2357 76.987 24.4593C76.602 24.6766 76.158 24.7853 75.6551 24.7853ZM75.6551 23.947C75.978 23.947 76.2636 23.8725 76.512 23.7235C76.7604 23.5744 76.9529 23.3695 77.0895 23.1087C77.2323 22.8479 77.3037 22.5468 77.3037 22.2052C77.3037 21.8637 77.2323 21.5626 77.0895 21.3018C76.9529 21.0348 76.7604 20.8267 76.512 20.6777C76.2636 20.5287 75.978 20.4542 75.6551 20.4542C75.3322 20.4542 75.0465 20.5287 74.7982 20.6777C74.5498 20.8267 74.3542 21.0348 74.2114 21.3018C74.0686 21.5626 73.9971 21.8637 73.9971 22.2052C73.9971 22.5468 74.0686 22.8479 74.2114 23.1087C74.3542 23.3695 74.5498 23.5744 74.7982 23.7235C75.0465 23.8725 75.3322 23.947 75.6551 23.947Z" fill="white"/>
<path d="M79.4534 22.8945C79.3168 22.8945 79.202 22.851 79.1088 22.7641C79.0219 22.671 78.9784 22.5561 78.9784 22.4195V17.9487C78.9784 17.8058 79.0219 17.691 79.1088 17.604C79.202 17.5171 79.3168 17.4736 79.4534 17.4736C79.5963 17.4736 79.7111 17.5171 79.7981 17.604C79.885 17.691 79.9285 17.8058 79.9285 17.9487V22.4195C79.9285 22.5561 79.885 22.671 79.7981 22.7641C79.7111 22.851 79.5963 22.8945 79.4534 22.8945ZM83.2816 24.7573C83.145 24.7573 83.0301 24.7139 82.937 24.6269C82.85 24.5338 82.8066 24.4189 82.8066 24.2823V21.991C82.8066 21.6371 82.7414 21.3483 82.611 21.1248C82.4806 20.9013 82.3036 20.7367 82.0801 20.6311C81.8627 20.5194 81.6112 20.4635 81.3256 20.4635C81.0648 20.4635 80.8288 20.5163 80.6177 20.6218C80.4066 20.7274 80.2389 20.8702 80.1148 21.0503C79.9906 21.2242 79.9285 21.426 79.9285 21.6557H79.3417C79.3417 21.2645 79.4348 20.9168 79.6211 20.6125C79.8136 20.302 80.0744 20.0568 80.4035 19.8767C80.7326 19.6966 81.1021 19.6066 81.5119 19.6066C81.9403 19.6066 82.3222 19.6997 82.6575 19.886C82.9991 20.0661 83.2661 20.3331 83.4586 20.687C83.6573 21.041 83.7566 21.4756 83.7566 21.991V24.2823C83.7566 24.4189 83.71 24.5338 83.6169 24.6269C83.53 24.7139 83.4182 24.7573 83.2816 24.7573ZM79.4534 24.7573C79.3168 24.7573 79.202 24.7139 79.1088 24.6269C79.0219 24.5338 78.9784 24.4189 78.9784 24.2823V20.1282C78.9784 19.9854 79.0219 19.8705 79.1088 19.7836C79.202 19.6966 79.3168 19.6532 79.4534 19.6532C79.5963 19.6532 79.7111 19.6966 79.7981 19.7836C79.885 19.8705 79.9285 19.9854 79.9285 20.1282V24.2823C79.9285 24.4189 79.885 24.5338 79.7981 24.6269C79.7111 24.7139 79.5963 24.7573 79.4534 24.7573Z" fill="white"/>
<path d="M86.8081 24.7853C86.3548 24.7853 85.9481 24.6735 85.5879 24.45C85.2278 24.2202 84.9422 23.9129 84.731 23.5279C84.5261 23.1367 84.4237 22.6958 84.4237 22.2052C84.4237 21.7147 84.5354 21.2738 84.759 20.8826C84.9887 20.4914 85.2961 20.1841 85.6811 19.9605C86.0723 19.7308 86.51 19.6159 86.9944 19.6159C87.4787 19.6159 87.9134 19.7308 88.2984 19.9605C88.6834 20.1841 88.9876 20.4914 89.2112 20.8826C89.4409 21.2738 89.5558 21.7147 89.5558 22.2052H89.1925C89.1925 22.6958 89.087 23.1367 88.8759 23.5279C88.6709 23.9129 88.3884 24.2202 88.0283 24.45C87.6681 24.6735 87.2614 24.7853 86.8081 24.7853ZM86.9944 23.947C87.3111 23.947 87.5936 23.8725 87.842 23.7235C88.0904 23.5682 88.286 23.3602 88.4288 23.0994C88.5716 22.8324 88.643 22.5344 88.643 22.2052C88.643 21.8699 88.5716 21.5719 88.4288 21.3111C88.286 21.0441 88.0904 20.8361 87.842 20.687C87.5936 20.5318 87.3111 20.4542 86.9944 20.4542C86.6839 20.4542 86.4014 20.5318 86.1468 20.687C85.8984 20.8361 85.6997 21.0441 85.5507 21.3111C85.4079 21.5719 85.3365 21.8699 85.3365 22.2052C85.3365 22.5344 85.4079 22.8324 85.5507 23.0994C85.6997 23.3602 85.8984 23.5682 86.1468 23.7235C86.4014 23.8725 86.6839 23.947 86.9944 23.947ZM89.0808 24.7573C88.9442 24.7573 88.8293 24.7139 88.7361 24.6269C88.6492 24.5338 88.6057 24.4189 88.6057 24.2823V22.8572L88.7827 21.8699L89.5558 22.2052V24.2823C89.5558 24.4189 89.5092 24.5338 89.4161 24.6269C89.3291 24.7139 89.2174 24.7573 89.0808 24.7573Z" fill="white"/>
<path d="M26.7084 15.8994C26.1682 15.7338 25.6274 15.5707 25.089 15.4003C24.9431 15.3539 25.0121 15.2711 25.0777 15.202C25.3701 14.8929 25.6536 14.5748 25.9591 14.2794C26.1045 14.1388 26.0902 14.0602 25.9591 13.922C24.4767 12.3413 22.8775 10.8767 21.3516 9.33592C20.5178 8.49255 19.6803 7.64621 18.84 6.80582C18.0913 6.05834 17.3331 5.3198 16.6178 4.53778C16.2414 4.12562 15.825 3.73967 15.4218 3.34658C15.2699 3.19827 15.1472 3.22448 15.0156 3.35909C14.5314 3.85462 14.0484 4.35135 13.5612 4.84332C13.0531 5.35673 12.5397 5.86596 12.0293 6.37758C11.4921 6.9168 10.955 7.45621 10.4182 7.99582C9.48846 8.92913 8.5486 9.85231 7.63198 10.7993C6.99707 11.4545 6.30617 12.0501 5.67365 12.7052C5.29485 13.0971 4.89937 13.4706 4.51342 13.8541C4.33474 14.0328 4.32283 14.1519 4.51342 14.3425C5.50569 15.3276 6.4789 16.3294 7.47057 17.3205C8.29011 18.1401 9.12097 18.9489 9.9435 19.7655C10.037 19.859 10.2181 19.9382 10.1704 20.0799C10.1299 20.1991 9.94409 20.1597 9.82021 20.1859C9.36398 20.2812 8.90715 20.3742 8.45509 20.4837C8.38047 20.5081 8.30028 20.5099 8.22468 20.4886C8.14908 20.4674 8.08148 20.4243 8.03043 20.3646C7.13386 19.4514 6.23371 18.5421 5.32999 17.6368C4.37703 16.6838 3.41692 15.7362 2.4598 14.7857C2.29124 14.6183 2.13281 14.4384 1.95294 14.2842C1.80285 14.1549 1.80345 14.068 1.94699 13.9268C2.7433 13.1525 3.51401 12.358 4.32223 11.5968C5.33475 10.6439 6.29248 9.63908 7.27462 8.65694L12.1818 3.75576C13.1139 2.82364 14.049 1.89451 14.9745 0.956441C15.1615 0.766445 15.2878 0.721775 15.5004 0.940955C16.8385 2.31917 18.1848 3.68905 19.5392 5.05059C20.7822 6.30135 22.0407 7.5384 23.2873 8.78499C24.1569 9.65397 24.9967 10.5545 25.8942 11.3931C26.7573 12.199 27.575 13.0483 28.4255 13.8655C28.6245 14.0566 28.628 14.1525 28.4112 14.3461C27.9169 14.7868 27.5017 15.311 26.9949 15.7422C26.9091 15.8125 26.8424 15.9072 26.7084 15.8994Z" fill="white"/>
<path d="M30.5448 20.3515C29.9945 20.3378 29.493 20.1764 28.9962 20.0037C27.2797 19.4081 25.5763 18.772 23.883 18.1115C22.5167 17.579 21.1581 17.0257 19.7948 16.4837C19.5929 16.4039 19.3821 16.3443 19.1814 16.2621C18.9473 16.1656 18.7227 16.0656 18.4982 16.2836C18.4763 16.304 18.4502 16.3192 18.4216 16.3281C18.393 16.337 18.3628 16.3392 18.3332 16.3348C18.0545 16.2258 17.8014 16.3527 17.5399 16.4015C17.4208 16.4235 17.26 16.367 17.232 16.5546C17.204 16.7422 16.9764 16.9167 17.232 17.1109C17.3362 17.1907 17.3404 17.3259 17.2558 17.4331C17.1492 17.5689 17.0134 17.5576 16.8538 17.5123C15.9556 17.2592 15.0878 16.9167 14.2057 16.6189C13.8019 16.4819 13.3939 16.3586 12.9877 16.2294C12.8281 16.1782 12.6852 16.1043 12.6959 15.906C12.7066 15.7076 12.8352 15.6302 13.0139 15.6242C13.1926 15.6183 13.1861 15.4456 13.2224 15.3413C13.5202 14.4855 13.8025 13.6242 14.0932 12.766C14.1819 12.5027 14.2802 12.243 14.3725 11.981C14.432 11.8142 14.5714 11.6462 14.3064 11.5081C14.223 11.4646 14.2504 11.3294 14.3064 11.2353C14.3338 11.1814 14.3794 11.139 14.4351 11.1155C14.4908 11.0919 14.553 11.0888 14.6107 11.1066C14.8109 11.1626 15.0086 11.2299 15.2063 11.2936C16.3118 11.651 17.4174 12.0074 18.5232 12.3627C18.693 12.4175 18.8496 12.492 18.8383 12.701C18.8282 12.8934 18.6942 12.9548 18.5149 12.9816C18.3487 13.006 18.2236 13.4396 18.3493 13.5694C18.5655 13.7946 18.64 14.1591 19.0104 14.2389C19.048 14.2521 19.0818 14.2742 19.109 14.3032C19.1363 14.3322 19.1562 14.3674 19.1671 14.4056C19.2076 14.6975 19.4339 14.741 19.6531 14.8053C21.4399 15.3318 23.2416 15.8178 25.0331 16.3324C26.0718 16.6302 27.101 16.9566 28.1356 17.2663C28.8193 17.4706 29.5084 17.6546 30.1749 17.9143C30.5622 18.0674 30.9309 18.264 31.2738 18.5004C31.627 18.7386 31.7979 19.1556 31.7116 19.5338C31.6091 19.9834 31.2946 20.2705 30.8235 20.3348C30.7282 20.3491 30.6282 20.3473 30.5448 20.3515Z" fill="white"/>
<path d="M14.9343 20.5539C17.5293 20.5247 20.0737 20.8815 22.5925 21.4955C23.7325 21.7731 24.8338 22.1507 25.9398 22.5313C27.3793 23.0356 28.7811 23.6416 30.1346 24.3449C30.1894 24.3679 30.2417 24.3965 30.2906 24.4301C30.3043 24.4426 30.3148 24.4582 30.3211 24.4756C30.3274 24.4931 30.3294 24.5118 30.327 24.5301C30.3079 24.5897 30.2674 24.5694 30.2126 24.5534C29.0077 24.1823 27.7748 23.9184 26.5366 23.6987C21.34 22.7773 16.1112 22.3544 10.8354 22.785C8.69125 22.9607 6.55841 23.2544 4.43451 23.6129C3.10334 23.8374 1.79124 24.1317 0.485686 24.4652C0.447568 24.4747 0.405876 24.4712 0.366566 24.4825C0.307006 24.4992 0.247447 24.5337 0.21588 24.4587C0.178953 24.3645 0.26591 24.361 0.323683 24.3324C0.721543 24.1329 1.10928 23.9107 1.51488 23.732C2.31298 23.3812 3.1087 23.0173 3.92825 22.7261C5.0849 22.3127 6.24453 21.9035 7.43275 21.5837C9.67101 20.9845 12.5233 20.5849 14.9343 20.5539Z" fill="white"/>
<path d="M12.2526 16.197C12.5409 16.343 12.9179 16.396 13.2735 16.5193C14.6118 16.9844 15.9537 17.4418 17.289 17.9094C17.6577 18.038 17.6631 18.0815 17.5207 18.4532C17.4397 18.6652 17.348 18.8802 17.3128 19.1024C17.2694 19.3769 17.1413 19.3966 16.9192 19.3162C16.2205 19.0631 15.526 18.7938 14.8161 18.5747C13.8214 18.2679 12.8506 17.8969 11.8619 17.5729C11.6153 17.4925 11.5445 17.3823 11.6469 17.1393C11.7547 16.8838 11.8357 16.6175 11.928 16.3555C11.9727 16.228 12.0513 16.1536 12.2526 16.197Z" fill="white"/>
<path d="M19.9501 11.3804C19.8363 11.6639 19.7119 11.9974 19.5671 12.3226C19.5117 12.4471 19.3885 12.4227 19.2801 12.3822C18.9081 12.248 18.5291 12.1341 18.1448 12.0409C17.5451 11.892 16.9679 11.6722 16.3789 11.4983C15.7642 11.316 15.1573 11.0701 14.554 10.8336C13.8917 10.5739 13.8935 10.5704 14.1251 9.89555C14.3348 9.28386 14.3294 9.30352 14.959 9.47088C15.8524 9.70912 16.7011 10.0861 17.5796 10.3708C18.289 10.6001 19.0043 10.811 19.7005 11.079C19.8203 11.1255 19.9519 11.157 19.9501 11.3804Z" fill="white"/>
<path d="M22.1579 20.5082C21.8047 20.4397 21.4551 20.3742 21.1061 20.3045C20.9608 20.2753 20.8172 20.2378 20.6725 20.2056C20.1537 20.0901 20.1365 20.0704 20.5141 19.7005C20.9173 19.3086 21.3354 18.9322 21.7053 18.5046C21.8482 18.339 22.0186 18.3009 22.2371 18.392C22.629 18.5558 23.0358 18.6833 23.4313 18.8399C23.7422 18.9626 23.7547 19.0293 23.5213 19.267C23.1675 19.6243 22.7732 19.9436 22.4653 20.3486C22.4275 20.3945 22.3807 20.4324 22.3279 20.4598C22.2751 20.4873 22.2173 20.5037 22.1579 20.5082Z" fill="white"/>
</svg>
