<svg width="1512" height="454" viewBox="0 0 1512 454" fill="none" xmlns="http://www.w3.org/2000/svg">
<rect width="1512" height="454" fill="white"/>
<rect width="1512" height="454" fill="url(#paint0_linear_6940_3292)" fill-opacity="0.08"/>
<g opacity="0.08">
<path d="M1240.98 319.739V358.812C1224.53 361.194 1207.76 360.102 1191.76 355.606C1165.4 348.946 1141.77 334.238 1124.16 313.527C1106.26 292.519 1095.24 266.512 1092.61 239.033C1089.98 211.553 1095.87 183.929 1109.47 159.907C1122.38 137.131 1141.77 118.708 1165.17 106.982C1188.58 95.2548 1214.94 90.7538 1240.91 94.0511V133.191C1226.04 130.664 1210.78 131.775 1196.42 136.427C1182.07 141.079 1169.06 149.135 1158.49 159.907C1149.71 168.515 1142.76 178.824 1138.09 190.204C1133.41 201.584 1131.11 213.797 1131.31 226.097C1131 239.94 1133.85 253.671 1139.64 266.249C1145.42 278.828 1154 289.925 1164.71 298.7C1175.07 307.641 1187.28 314.168 1200.48 317.807C1213.67 321.445 1227.5 322.105 1240.98 319.739Z" fill="#5236FF"/>
<path d="M1184.75 224.762C1184.7 217.389 1186.29 210.097 1189.4 203.414C1192.52 196.73 1197.08 190.82 1202.75 186.111C1208.42 181.402 1215.07 178.011 1222.21 176.182C1229.36 174.354 1236.82 174.133 1244.06 175.537C1253.7 177.358 1262.58 182.009 1269.57 188.895C1276.59 195.86 1281.38 204.75 1283.34 214.44C1285.3 224.13 1284.35 234.185 1280.59 243.33C1276.89 252.459 1270.58 260.288 1262.43 265.828C1254.29 271.367 1244.69 274.37 1234.84 274.455C1228.28 274.48 1221.78 273.206 1215.72 270.707C1209.65 268.208 1204.14 264.533 1199.51 259.895C1194.84 255.261 1191.13 249.743 1188.62 243.664C1186.14 237.666 1184.83 231.252 1184.75 224.762Z" fill="#071B2C"/>
</g>
<defs>
<linearGradient id="paint0_linear_6940_3292" x1="296.301" y1="-4.84186e-06" x2="625.917" y2="688.993" gradientUnits="userSpaceOnUse">
<stop stop-color="#B7F2FF"/>
<stop offset="1" stop-color="#CC99F4"/>
</linearGradient>
</defs>
</svg>
