<svg width="142" height="25" viewBox="0 0 142 25" fill="none" xmlns="http://www.w3.org/2000/svg">
<g clip-path="url(#clip0_10223_10297)">
<path d="M8.36035 0.794922C9.25441 0.794935 10.1398 0.910208 10.9658 1.13477C11.7919 1.35938 12.4725 1.73752 13.1748 2.10449C13.8772 2.47149 15.1699 3.09995 15.1699 3.72852H15.1738V6.80176H1.55469V5.26465H1.55078C1.55078 4.6778 1.55078 4.32196 1.55078 3.72852C1.55079 3.13499 2.87733 2.47154 3.54492 2.10449C4.21231 1.73754 4.92788 1.3594 5.75391 1.13477C6.58007 0.910138 7.46613 0.794922 8.36035 0.794922Z" fill="white"/>
</g>
<path d="M12.7148 23.2529H4.03125V6.97266H12.7148V23.2529ZM5.11719 22.168H6.93359V19.1406H5.11719V22.168ZM7.46191 22.168H9.27832V19.1406H7.46191V22.168ZM9.81055 19.1406V22.168H11.627V19.1406H9.81055ZM5.11719 18.4551H6.93359V15.4277H5.11719V18.4551ZM7.46191 18.4551H9.27832V15.4277H7.46191V18.4551ZM9.81055 18.4551H11.627V15.4277H9.81055V18.4551ZM5.11719 14.7412H6.93359V11.7715H5.11719V14.7412ZM7.46191 14.7412H9.27832V11.7715H7.46191V14.7412ZM9.81055 14.7412H11.627V11.7715H9.81055V14.7412ZM5.11719 11.0859H6.93359V8.05762H5.11719V11.0859ZM7.46191 11.0859H9.27832V8.05762H7.46191V11.0859ZM9.81055 11.0859H11.627V8.05762H9.81055V11.0859Z" fill="white"/>
<g filter="url(#filter0_i_10223_10297)">
<path d="M15.1699 5.48828H1.56641V4.0625H15.1699V5.48828ZM5.19141 4.35938C4.96185 4.35951 4.77539 4.54581 4.77539 4.77539C4.77543 5.00494 4.96188 5.19128 5.19141 5.19141H11.5479C11.7775 5.19141 11.9638 5.00502 11.9639 4.77539C11.9639 4.54573 11.7775 4.35938 11.5479 4.35938H5.19141Z" fill="white"/>
</g>
<path d="M14.043 5.4873C15.1625 5.4873 15.7233 5.48738 16.0713 5.83496C16.4192 6.18288 16.4189 6.74361 16.4189 7.86328V22.418C16.4189 23.5378 16.419 24.0983 16.0713 24.4463C15.7233 24.7943 15.1629 24.7939 14.043 24.7939H2.75586C1.63606 24.7939 1.07551 24.7941 0.727539 24.4463C0.379927 24.0983 0.378906 23.5377 0.378906 22.418V7.86328C0.378906 6.74357 0.379618 6.18288 0.727539 5.83496C1.07553 5.48739 1.63631 5.4873 2.75586 5.4873H14.043ZM4.0293 23.2529H12.7129V6.97266H4.0293V23.2529ZM1.56641 6.97266V23.0723H2.2793V6.97266H1.56641ZM14.46 23.0723H15.1729V6.97266H14.46V23.0723Z" fill="white"/>
<path d="M31.2998 7.35782C32.6851 7.35782 33.7579 7.68592 34.5182 8.34212C35.2786 8.99832 35.6588 9.92012 35.6588 11.1075C35.6588 12.347 35.2786 13.3105 34.5182 13.9979C33.7579 14.6854 32.6851 15.0291 31.2998 15.0291H28.0032L28.925 14.1073V18.2944H26.8314V7.35782H31.2998ZM31.206 13.2948C31.9872 13.2948 32.5861 13.1178 33.0027 12.7636C33.4298 12.4095 33.6433 11.8731 33.6433 11.1544C33.6433 10.4669 33.4298 9.95657 33.0027 9.62326C32.5861 9.27954 31.9872 9.10768 31.206 9.10768H28.0032L28.925 8.18588V14.2166L28.0032 13.2948H31.206ZM37.3743 7.35782H39.4679V12.0762H44.9206V7.35782H47.0298V18.2944H44.9206V13.8104H39.4679V18.2944H37.3743V7.35782ZM54.686 7.23283C55.5089 7.23283 56.2745 7.37345 56.9827 7.65467C57.691 7.9359 58.3055 8.3317 58.8263 8.84208C59.3575 9.35245 59.769 9.94615 60.0606 10.6232C60.3627 11.2898 60.5137 12.0189 60.5137 12.8105C60.5137 13.5917 60.3627 14.326 60.0606 15.0135C59.769 15.7009 59.3575 16.2998 58.8263 16.8102C58.3055 17.3206 57.691 17.7216 56.9827 18.0132C56.2745 18.2944 55.5089 18.435 54.686 18.435C53.8632 18.435 53.0976 18.2944 52.3894 18.0132C51.6915 17.7216 51.077 17.3206 50.5458 16.8102C50.0145 16.2998 49.5979 15.7061 49.2959 15.0291C49.0042 14.3416 48.8584 13.6021 48.8584 12.8105C48.8584 12.0189 49.0042 11.2846 49.2959 10.6076C49.5979 9.93053 50.0145 9.34204 50.5458 8.84208C51.077 8.3317 51.6915 7.9359 52.3894 7.65467C53.0976 7.37345 53.8632 7.23283 54.686 7.23283ZM54.7173 8.99832C54.2069 8.99832 53.7278 9.09727 53.2799 9.29517C52.832 9.48265 52.4362 9.75346 52.0925 10.1076C51.7488 10.4513 51.478 10.8523 51.2801 11.3106C51.0926 11.7689 50.9988 12.2689 50.9988 12.8105C50.9988 13.3521 51.0978 13.8573 51.2957 14.326C51.4936 14.7843 51.7644 15.1905 52.1081 15.5447C52.4518 15.8988 52.8476 16.1748 53.2955 16.3727C53.7434 16.5706 54.2173 16.6696 54.7173 16.6696C55.2172 16.6696 55.686 16.5706 56.1234 16.3727C56.5713 16.1748 56.9619 15.8988 57.2952 15.5447C57.6285 15.1905 57.8889 14.7843 58.0764 14.326C58.2743 13.8573 58.3732 13.3521 58.3732 12.8105C58.3732 12.2689 58.2743 11.7689 58.0764 11.3106C57.8889 10.8523 57.6285 10.4513 57.2952 10.1076C56.9619 9.75346 56.5713 9.48265 56.1234 9.29517C55.686 9.09727 55.2172 8.99832 54.7173 8.99832ZM62.3509 7.35782H64.3352L70.5222 15.7634L69.9753 15.9509V7.35782H72.0064V18.2944H70.0066L63.8508 9.90449L64.3977 9.71701V18.2944H62.3509V7.35782ZM74.6943 7.35782H82.7093V9.10768H76.7879V11.9356H82.0999V13.6698H76.7879V16.5446H82.8968V18.2944H74.6943V7.35782ZM89.8826 7.35782C90.6638 7.35782 91.3356 7.46719 91.8981 7.68592C92.4606 7.90465 92.8928 8.21713 93.1949 8.62335C93.4969 9.02956 93.648 9.51911 93.648 10.092C93.648 10.6961 93.4761 11.2169 93.1324 11.6543C92.7991 12.0918 92.3356 12.3782 91.7419 12.5137C92.4606 12.6491 93.0282 12.9615 93.4448 13.4511C93.8615 13.9406 94.0698 14.5499 94.0698 15.2791C94.0698 15.904 93.9031 16.4456 93.5698 16.9039C93.2365 17.3518 92.7678 17.6955 92.1637 17.9351C91.57 18.1747 90.8565 18.2944 90.0232 18.2944H85.0237V7.35782H89.8826ZM89.7733 11.8575C90.3149 11.8575 90.7367 11.7325 91.0388 11.4825C91.3513 11.2325 91.5075 10.8836 91.5075 10.4357C91.5075 10.0086 91.3513 9.67534 91.0388 9.43578C90.7367 9.19622 90.3149 9.08164 89.7733 9.09206H87.1172V11.8575H89.7733ZM89.7733 16.5602C90.4399 16.5706 90.9607 16.4404 91.3356 16.1696C91.7106 15.8988 91.8981 15.5186 91.8981 15.0291C91.8981 14.5708 91.7106 14.2114 91.3356 13.951C90.9607 13.6802 90.4399 13.5448 89.7733 13.5448H87.1172V16.5602H89.7733ZM101.069 7.23283C101.892 7.23283 102.657 7.37345 103.366 7.65467C104.074 7.9359 104.688 8.3317 105.209 8.84208C105.74 9.35245 106.152 9.94615 106.444 10.6232C106.746 11.2898 106.897 12.0189 106.897 12.8105C106.897 13.5917 106.746 14.326 106.444 15.0135C106.152 15.7009 105.74 16.2998 105.209 16.8102C104.688 17.3206 104.074 17.7216 103.366 18.0132C102.657 18.2944 101.892 18.435 101.069 18.435C100.246 18.435 99.4806 18.2944 98.7723 18.0132C98.0744 17.7216 97.4599 17.3206 96.9287 16.8102C96.3975 16.2998 95.9809 15.7061 95.6788 15.0291C95.3872 14.3416 95.2413 13.6021 95.2413 12.8105C95.2413 12.0189 95.3872 11.2846 95.6788 10.6076C95.9809 9.93053 96.3975 9.34204 96.9287 8.84208C97.4599 8.3317 98.0744 7.9359 98.7723 7.65467C99.4806 7.37345 100.246 7.23283 101.069 7.23283ZM101.1 8.99832C100.59 8.99832 100.111 9.09727 99.6628 9.29517C99.215 9.48265 98.8192 9.75346 98.4754 10.1076C98.1317 10.4513 97.8609 10.8523 97.663 11.3106C97.4755 11.7689 97.3818 12.2689 97.3818 12.8105C97.3818 13.3521 97.4807 13.8573 97.6786 14.326C97.8765 14.7843 98.1473 15.1905 98.4911 15.5447C98.8348 15.8988 99.2306 16.1748 99.6785 16.3727C100.126 16.5706 100.6 16.6696 101.1 16.6696C101.6 16.6696 102.069 16.5706 102.506 16.3727C102.954 16.1748 103.345 15.8988 103.678 15.5447C104.011 15.1905 104.272 14.7843 104.459 14.326C104.657 13.8573 104.756 13.3521 104.756 12.8105C104.756 12.2689 104.657 11.7689 104.459 11.3106C104.272 10.8523 104.011 10.4513 103.678 10.1076C103.345 9.75346 102.954 9.48265 102.506 9.29517C102.069 9.09727 101.6 8.99832 101.1 8.99832ZM113.321 7.23283C114.144 7.23283 114.909 7.37345 115.617 7.65467C116.326 7.9359 116.94 8.3317 117.461 8.84208C117.992 9.35245 118.404 9.94615 118.695 10.6232C118.997 11.2898 119.148 12.0189 119.148 12.8105C119.148 13.5917 118.997 14.326 118.695 15.0135C118.404 15.7009 117.992 16.2998 117.461 16.8102C116.94 17.3206 116.326 17.7216 115.617 18.0132C114.909 18.2944 114.144 18.435 113.321 18.435C112.498 18.435 111.732 18.2944 111.024 18.0132C110.326 17.7216 109.712 17.3206 109.181 16.8102C108.649 16.2998 108.233 15.7061 107.931 15.0291C107.639 14.3416 107.493 13.6021 107.493 12.8105C107.493 12.0189 107.639 11.2846 107.931 10.6076C108.233 9.93053 108.649 9.34204 109.181 8.84208C109.712 8.3317 110.326 7.9359 111.024 7.65467C111.732 7.37345 112.498 7.23283 113.321 7.23283ZM113.352 8.99832C112.842 8.99832 112.363 9.09727 111.915 9.29517C111.467 9.48265 111.071 9.75346 110.727 10.1076C110.384 10.4513 110.113 10.8523 109.915 11.3106C109.727 11.7689 109.634 12.2689 109.634 12.8105C109.634 13.3521 109.733 13.8573 109.93 14.326C110.128 14.7843 110.399 15.1905 110.743 15.5447C111.087 15.8988 111.482 16.1748 111.93 16.3727C112.378 16.5706 112.852 16.6696 113.352 16.6696C113.852 16.6696 114.321 16.5706 114.758 16.3727C115.206 16.1748 115.597 15.8988 115.93 15.5447C116.263 15.1905 116.524 14.7843 116.711 14.326C116.909 13.8573 117.008 13.3521 117.008 12.8105C117.008 12.2689 116.909 11.7689 116.711 11.3106C116.524 10.8523 116.263 10.4513 115.93 10.1076C115.597 9.75346 115.206 9.48265 114.758 9.29517C114.321 9.09727 113.852 8.99832 113.352 8.99832ZM119.523 7.35782H128.444V9.12331H125.038V18.2944H122.929V9.12331H119.523V7.35782ZM129.927 7.35782H132.02V12.0762H137.473V7.35782H139.582V18.2944H137.473V13.8104H132.02V18.2944H129.927V7.35782Z" fill="white"/>
<defs>
<filter id="filter0_i_10223_10297" x="1.56641" y="4.0625" width="13.6055" height="1.42578" filterUnits="userSpaceOnUse" color-interpolation-filters="sRGB">
<feFlood flood-opacity="0" result="BackgroundImageFix"/>
<feBlend mode="normal" in="SourceGraphic" in2="BackgroundImageFix" result="shape"/>
<feColorMatrix in="SourceAlpha" type="matrix" values="0 0 0 0 0 0 0 0 0 0 0 0 0 0 0 0 0 0 127 0" result="hardAlpha"/>
<feOffset/>
<feGaussianBlur stdDeviation="0.118812"/>
<feComposite in2="hardAlpha" operator="arithmetic" k2="-1" k3="1"/>
<feColorMatrix type="matrix" values="0 0 0 0 0 0 0 0 0 0 0 0 0 0 0 0 0 0 0.25 0"/>
<feBlend mode="normal" in2="shape" result="effect1_innerShadow_10223_10297"/>
</filter>
<clipPath id="clip0_10223_10297">
<rect width="14.1098" height="3.25611" fill="white" transform="translate(1.46484 0.794922)"/>
</clipPath>
</defs>
</svg>
