<svg width="554" height="530" viewBox="0 0 554 530" fill="none" xmlns="http://www.w3.org/2000/svg">
<circle cx="281" cy="250.318" r="246.5" stroke="#5236FF" stroke-width="3" stroke-dasharray="16 16"/>
<circle cx="390" cy="31.2932" r="30.9749" fill="#E9E6F6"/>
<path d="M382.677 35.4938C382.208 34.4399 381.946 33.2674 381.946 32.0319C381.946 27.4432 385.552 23.7233 390 23.7233C394.448 23.7233 398.053 27.4432 398.053 32.0319C398.053 33.2674 397.792 34.4399 397.323 35.4938" stroke="#5236FF" stroke-width="1.86" stroke-linecap="round"/>
<path d="M390 19.3868V20.6258" stroke="#5236FF" stroke-width="1.86" stroke-linecap="round" stroke-linejoin="round"/>
<path d="M402.39 31.7768H401.151" stroke="#5236FF" stroke-width="1.86" stroke-linecap="round" stroke-linejoin="round"/>
<path d="M378.849 31.7768H377.61" stroke="#5236FF" stroke-width="1.86" stroke-linecap="round" stroke-linejoin="round"/>
<path d="M398.76 23.0155L397.884 23.8916" stroke="#5236FF" stroke-width="1.86" stroke-linecap="round" stroke-linejoin="round"/>
<path d="M382.116 23.8928L381.24 23.0167" stroke="#5236FF" stroke-width="1.86" stroke-linecap="round" stroke-linejoin="round"/>
<path d="M393.118 40.8294C394.37 40.4245 394.872 39.2786 395.014 38.1261C395.056 37.7818 394.773 37.4962 394.426 37.4962L385.635 37.4965C385.276 37.4965 384.988 37.801 385.031 38.1572C385.169 39.3075 385.518 40.1478 386.845 40.8294M393.118 40.8294C393.118 40.8294 387.063 40.8294 386.845 40.8294M393.118 40.8294C392.968 43.2392 392.272 44.1936 390.008 44.1669C387.587 44.2116 387.03 43.0319 386.845 40.8294" stroke="#071B2C" stroke-width="1.86" stroke-linecap="round" stroke-linejoin="round"/>
<rect width="94" height="25" transform="translate(343 71.5605)" fill="white"/>
<path d="M353.7 88.5605H352.188V79.1805H356.178C358.138 79.1805 359.58 80.3425 359.58 82.3585C359.58 84.3745 358.138 85.5365 356.178 85.5365H353.7V88.5605ZM356.36 80.5385H353.7V84.1785H356.36C357.592 84.1785 358.082 83.7025 358.082 82.3585C358.082 81.0145 357.592 80.5385 356.36 80.5385ZM362.121 88.5605H360.609V79.1805H362.121V88.5605ZM365.439 88.7005C364.193 88.7005 363.227 88.0565 363.227 86.8385C363.227 85.6905 364.067 85.0885 365.551 84.8785L367.987 84.5145V84.1365C367.987 83.1005 367.511 82.7925 366.419 82.7925C365.313 82.7925 364.879 83.1425 364.879 84.0665V84.2765H363.423V84.1365C363.423 82.5825 364.641 81.4625 366.503 81.4625C368.449 81.4625 369.429 82.6385 369.429 84.3325V88.5605H368.029V87.4685H367.959C367.553 88.1265 366.755 88.7005 365.439 88.7005ZM364.697 86.7265C364.697 87.2725 365.047 87.4965 365.929 87.4965C366.909 87.4965 367.987 87.1045 367.987 85.7045V85.5785L365.775 85.9145C364.977 86.0265 364.697 86.2085 364.697 86.7265ZM372.389 88.5605H370.877V81.6025H372.263V82.9045H372.319C372.641 82.1625 373.383 81.4625 374.741 81.4625C376.547 81.4625 377.359 82.6105 377.359 84.1925V88.5605H375.847V84.5285C375.847 83.2825 375.455 82.7645 374.181 82.7645C372.949 82.7645 372.389 83.2405 372.389 84.5425V88.5605ZM384.553 80.4685C383.559 80.4685 383.111 80.8045 383.111 81.7845C383.111 82.7365 383.643 83.0725 384.595 83.0725H387.017V81.6025H388.501V83.0725H390.013V84.3325H388.501V85.5225C388.501 87.4965 387.367 88.7005 384.791 88.7005C382.523 88.7005 381.263 87.8185 381.263 86.0125C381.263 84.6685 382.089 83.8705 383.279 83.6885V83.6185C382.159 83.4365 381.599 82.5685 381.599 81.5045C381.599 79.8245 382.845 79.0825 384.777 79.0825H386.261V80.4685H384.553ZM384.861 87.3145C386.569 87.3145 387.017 86.8525 387.017 85.5225V84.3325H384.609C383.405 84.3325 382.789 84.6825 382.789 85.8585C382.789 86.9505 383.279 87.3145 384.861 87.3145ZM397.563 88.5605H396.065V80.5385H392.873V79.1805H400.755V80.5385H397.563V88.5605ZM402.535 88.5605H401.023V81.5605H402.409V82.6665H402.479C402.759 82.0225 403.403 81.4625 404.425 81.4625C405.881 81.4625 406.441 82.5265 406.441 83.8285V84.2905H404.929V84.0105C404.929 83.0865 404.663 82.7505 403.781 82.7505C402.871 82.7505 402.535 83.1005 402.535 84.0245V88.5605ZM409.148 88.7005C407.902 88.7005 406.936 88.0565 406.936 86.8385C406.936 85.6905 407.776 85.0885 409.26 84.8785L411.696 84.5145V84.1365C411.696 83.1005 411.22 82.7925 410.128 82.7925C409.022 82.7925 408.588 83.1425 408.588 84.0665V84.2765H407.132V84.1365C407.132 82.5825 408.35 81.4625 410.212 81.4625C412.158 81.4625 413.138 82.6385 413.138 84.3325V88.5605H411.738V87.4685H411.668C411.262 88.1265 410.464 88.7005 409.148 88.7005ZM408.406 86.7265C408.406 87.2725 408.756 87.4965 409.638 87.4965C410.618 87.4965 411.696 87.1045 411.696 85.7045V85.5785L409.484 85.9145C408.686 86.0265 408.406 86.2085 408.406 86.7265ZM417.68 88.7145C415.51 88.7145 414.278 87.2445 414.278 85.0885C414.278 82.9185 415.552 81.4625 417.736 81.4625C419.57 81.4625 420.83 82.5965 420.83 84.2625V84.3885H419.332V84.3045C419.332 83.2825 418.8 82.8205 417.638 82.8205C416.294 82.8205 415.776 83.5765 415.776 85.0885C415.776 86.6005 416.294 87.3425 417.638 87.3425C418.8 87.3425 419.332 86.8945 419.332 85.8725V85.7885H420.83V85.9145C420.83 87.5665 419.556 88.7145 417.68 88.7145ZM423.494 88.5605H421.982V79.1805H423.494V84.3605H424.866L426.728 81.6025H428.506L426.084 84.8925L428.464 88.5605H426.7L424.88 85.7185H423.494V88.5605Z" fill="#071B2C"/>
<circle cx="521" cy="256.293" r="30.9749" fill="#E9E6F6"/>
<path d="M527.037 251.473L529.317 253.765C530.275 254.728 530.754 255.21 530.754 255.809C530.754 256.408 530.275 256.89 529.317 257.853L527.037 260.146" stroke="#071B2C" stroke-width="1.8585" stroke-linecap="round" stroke-linejoin="round"/>
<path d="M514.648 251.473L512.368 253.765C511.41 254.728 510.931 255.21 510.931 255.809C510.931 256.408 511.41 256.89 512.368 257.853L514.648 260.146" stroke="#071B2C" stroke-width="1.8585" stroke-linecap="round" stroke-linejoin="round"/>
<path d="M523.94 246.517L517.745 266.34" stroke="#5236FF" stroke-width="1.8585" stroke-linecap="round" stroke-linejoin="round"/>
<rect width="66" height="25" transform="translate(488 296.561)" fill="white"/>
<path d="M500.131 313.561H496.799V304.181H500.131C503.029 304.181 504.877 305.973 504.877 308.871C504.877 311.769 503.029 313.561 500.131 313.561ZM500.131 305.539H498.311V312.203H500.131C502.371 312.203 503.267 311.279 503.267 308.871C503.267 306.463 502.371 305.539 500.131 305.539ZM509.175 313.701C506.879 313.701 505.801 312.245 505.801 310.075C505.801 307.919 507.089 306.463 509.161 306.463C511.037 306.463 512.353 307.583 512.353 309.487C512.353 309.851 512.311 310.229 512.269 310.439H507.215C507.271 311.713 507.733 312.357 509.189 312.357C510.351 312.357 510.799 311.965 510.799 311.335V311.223H512.297V311.349C512.297 312.777 511.051 313.701 509.175 313.701ZM509.133 307.737C507.817 307.737 507.313 308.353 507.229 309.431H510.911C510.967 308.241 510.323 307.737 509.133 307.737ZM517.304 313.561H515.4L512.614 306.603H514.294L516.324 312.119H516.422L518.466 306.603H520.104L517.304 313.561ZM523.64 313.701C521.344 313.701 520.266 312.245 520.266 310.075C520.266 307.919 521.554 306.463 523.626 306.463C525.502 306.463 526.818 307.583 526.818 309.487C526.818 309.851 526.776 310.229 526.734 310.439H521.68C521.736 311.713 522.198 312.357 523.654 312.357C524.816 312.357 525.264 311.965 525.264 311.335V311.223H526.762V311.349C526.762 312.777 525.516 313.701 523.64 313.701ZM523.598 307.737C522.282 307.737 521.778 308.353 521.694 309.431H525.376C525.432 308.241 524.788 307.737 523.598 307.737ZM529.55 313.561H528.038V304.181H529.55V313.561ZM534.169 313.701C532.027 313.701 530.697 312.245 530.697 310.075C530.697 307.919 532.027 306.463 534.169 306.463C536.297 306.463 537.585 307.919 537.585 310.075C537.585 312.245 536.297 313.701 534.169 313.701ZM534.169 312.357C535.625 312.357 536.129 311.643 536.129 310.075C536.129 308.521 535.625 307.807 534.169 307.807C532.699 307.807 532.181 308.521 532.181 310.075C532.181 311.643 532.699 312.357 534.169 312.357ZM540.158 315.983H538.66V306.603H540.032V307.751H540.102C540.424 306.939 541.222 306.463 542.426 306.463C544.386 306.463 545.464 307.877 545.464 310.089C545.464 312.287 544.414 313.701 542.524 313.701C541.278 313.701 540.508 313.127 540.2 312.483H540.158V315.983ZM540.158 310.705C540.158 311.867 540.83 312.413 542.062 312.413C543.392 312.413 543.952 311.797 543.952 310.089C543.952 308.367 543.406 307.751 542.062 307.751C540.83 307.751 540.158 308.297 540.158 309.459V310.705Z" fill="#071B2C"/>
<circle cx="390.5" cy="464.293" r="30.9749" fill="#E9E6F6"/>
<path d="M389.647 460.172C389.834 459.879 390.261 459.879 390.448 460.172L390.987 461.019C391.584 461.957 392.379 462.752 393.316 463.348L394.164 463.888C394.457 464.074 394.457 464.502 394.164 464.689L393.316 465.228C392.379 465.825 391.584 466.62 390.987 467.557L390.448 468.405C390.261 468.698 389.834 468.698 389.647 468.405L389.108 467.557C388.511 466.62 387.716 465.825 386.778 465.228L385.931 464.689C385.638 464.502 385.638 464.074 385.931 463.888L386.778 463.348C387.716 462.752 388.511 461.957 389.108 461.019L389.647 460.172Z" stroke="#5236FF" stroke-width="1.8585" stroke-linejoin="round"/>
<path d="M380.021 455.972C383.694 456.238 386.062 452.519 390.081 452.519C394.039 452.44 395.975 456.022 400.033 456.022C402.208 467.094 397.683 474.049 390.114 476.059C383.097 474.391 377.825 467.364 380.021 455.972Z" stroke="#071B2C" stroke-width="1.8585" stroke-linejoin="round"/>
<rect width="89" height="25" transform="translate(346 504.561)" fill="white"/>
<path d="M359.691 521.561H355.211V512.181H359.523C361.357 512.181 362.463 512.937 362.463 514.519C362.463 515.611 361.847 516.353 360.643 516.535V516.647C362.071 516.829 362.799 517.753 362.799 518.985C362.799 520.581 361.665 521.561 359.691 521.561ZM356.723 513.539V516.073H359.383C360.517 516.073 360.965 515.765 360.965 514.813C360.965 513.847 360.559 513.539 359.425 513.539H356.723ZM356.723 517.333V520.203H359.649C360.783 520.203 361.273 519.881 361.273 518.775C361.273 517.655 360.783 517.333 359.649 517.333H356.723ZM366.632 521.701C364.812 521.701 364 520.483 364 518.901V514.603H365.512V518.635C365.512 519.881 365.988 520.399 367.192 520.399C368.354 520.399 369.012 519.895 369.012 518.523V514.603H370.524V521.561H369.124V520.175H369.068C368.732 520.973 367.99 521.701 366.632 521.701ZM373.427 513.721H371.929L371.915 512.181H373.427V513.721ZM373.441 521.561H371.929V514.561H373.441V521.561ZM376.341 521.561H374.829V512.181H376.341V521.561ZM380.554 521.701C378.566 521.701 377.488 520.287 377.488 518.075C377.488 515.877 378.552 514.463 380.47 514.463C381.702 514.463 382.444 515.051 382.752 515.681H382.794V512.181H384.292V521.561H382.906V520.413H382.85C382.514 521.211 381.744 521.701 380.554 521.701ZM379 518.075C379 519.797 379.546 520.413 380.89 520.413C382.122 520.413 382.794 519.867 382.794 518.705V517.459C382.794 516.297 382.122 515.751 380.89 515.751C379.56 515.751 379 516.367 379 518.075ZM391.527 513.469C390.533 513.469 390.085 513.805 390.085 514.785C390.085 515.737 390.617 516.073 391.569 516.073H393.991V514.603H395.475V516.073H396.987V517.333H395.475V518.523C395.475 520.497 394.341 521.701 391.765 521.701C389.497 521.701 388.237 520.819 388.237 519.013C388.237 517.669 389.063 516.871 390.253 516.689V516.619C389.133 516.437 388.573 515.569 388.573 514.505C388.573 512.825 389.819 512.083 391.751 512.083H393.235V513.469H391.527ZM391.835 520.315C393.543 520.315 393.991 519.853 393.991 518.523V517.333H391.583C390.379 517.333 389.763 517.683 389.763 518.859C389.763 519.951 390.253 520.315 391.835 520.315ZM404.537 521.561H403.039V513.539H399.847V512.181H407.729V513.539H404.537V521.561ZM410.817 521.701C408.521 521.701 407.443 520.245 407.443 518.075C407.443 515.919 408.731 514.463 410.803 514.463C412.679 514.463 413.995 515.583 413.995 517.487C413.995 517.851 413.953 518.229 413.911 518.439H408.857C408.913 519.713 409.375 520.357 410.831 520.357C411.993 520.357 412.441 519.965 412.441 519.335V519.223H413.939V519.349C413.939 520.777 412.693 521.701 410.817 521.701ZM410.775 515.737C409.459 515.737 408.955 516.353 408.871 517.431H412.553C412.609 516.241 411.965 515.737 410.775 515.737ZM418.196 521.701C416.166 521.701 415.102 520.903 415.102 519.209V519.181H416.558V519.433C416.558 520.189 416.894 520.469 418.224 520.469C419.344 520.469 419.554 520.217 419.554 519.699C419.554 519.139 419.218 518.971 418.196 518.789L417.118 518.607C415.872 518.383 415.088 517.823 415.088 516.563C415.088 515.303 416.124 514.463 417.944 514.463C419.582 514.463 420.814 515.275 420.814 516.857V516.983H419.372V516.815C419.372 516.171 419.148 515.709 417.902 515.709C416.796 515.709 416.53 516.003 416.53 516.535C416.53 517.067 416.782 517.221 417.762 517.417L418.938 517.641C420.282 517.907 420.982 518.509 420.982 519.657C420.982 520.945 419.96 521.701 418.196 521.701ZM425.032 521.561C423.478 521.561 422.666 520.987 422.666 519.419V515.863H421.504V514.603H422.694L423.016 512.881H424.178V514.603H426.278V515.863H424.178V519.349C424.178 520.077 424.486 520.203 425.424 520.203H426.278V521.435C425.984 521.505 425.508 521.561 425.032 521.561Z" fill="#071B2C"/>
<circle cx="172.975" cy="464.414" r="30.9749" fill="#E9E6F6"/>
<path d="M170.571 459.666C168.461 459.666 165.809 459.219 163.835 460.037C162.388 460.636 161.324 462.024 160.236 463.111L164.332 464.866C165.418 465.331 164.754 466.701 164.575 467.6C164.374 468.601 164.386 468.638 165.108 469.36L167.766 472.019C168.488 472.741 168.525 472.752 169.527 472.552C170.425 472.372 171.795 471.708 172.26 472.794L174.016 476.89C175.103 475.803 176.49 474.738 177.09 473.292C177.907 471.317 177.46 468.665 177.46 466.556" stroke="#5236FF" stroke-width="1.8585" stroke-linejoin="round"/>
<path d="M172.627 474.412L171.388 475.651" stroke="#5236FF" stroke-width="1.8585" stroke-linecap="round" stroke-linejoin="round"/>
<path d="M162.715 464.5L161.476 465.739" stroke="#5236FF" stroke-width="1.8585" stroke-linecap="round" stroke-linejoin="round"/>
<path d="M167.671 462.229L172.78 457.12C174.173 455.726 174.87 455.029 175.639 454.468C177.217 453.316 179.047 452.558 180.977 452.257C181.918 452.11 182.903 452.11 184.874 452.11C184.977 452.11 185.017 452.157 185.017 452.253C185.017 454.224 185.017 455.209 184.87 456.15C184.568 458.08 183.81 459.91 182.659 461.488C182.098 462.257 181.401 462.954 180.007 464.347L174.898 469.456" stroke="#071B2C" stroke-width="1.8585" stroke-linecap="round" stroke-linejoin="round"/>
<path d="M176.344 454.687C177.831 454.91 179.392 455.505 180.261 456.397C181.371 457.379 182.142 458.702 182.44 460.783" stroke="#071B2C" stroke-width="1.8585" stroke-linecap="square"/>
<path d="M179.986 457.14L178.202 458.925" stroke="#071B2C" stroke-width="1.8585" stroke-linecap="round"/>
<rect width="59" height="25" transform="translate(143.475 504.682)" fill="white"/>
<path d="M155.735 521.682H152.403V512.302H155.735C158.633 512.302 160.481 514.094 160.481 516.992C160.481 519.89 158.633 521.682 155.735 521.682ZM155.735 513.66H153.915V520.324H155.735C157.975 520.324 158.871 519.4 158.871 516.992C158.871 514.584 157.975 513.66 155.735 513.66ZM164.779 521.822C162.483 521.822 161.405 520.366 161.405 518.196C161.405 516.04 162.693 514.584 164.765 514.584C166.641 514.584 167.957 515.704 167.957 517.608C167.957 517.972 167.915 518.35 167.873 518.56H162.819C162.875 519.834 163.337 520.478 164.793 520.478C165.955 520.478 166.403 520.086 166.403 519.456V519.344H167.901V519.47C167.901 520.898 166.655 521.822 164.779 521.822ZM164.737 515.858C163.421 515.858 162.917 516.474 162.833 517.552H166.515C166.571 516.362 165.927 515.858 164.737 515.858ZM170.606 524.104H169.108V514.724H170.48V515.872H170.55C170.872 515.06 171.67 514.584 172.874 514.584C174.834 514.584 175.912 515.998 175.912 518.21C175.912 520.408 174.862 521.822 172.972 521.822C171.726 521.822 170.956 521.248 170.648 520.604H170.606V524.104ZM170.606 518.826C170.606 519.988 171.278 520.534 172.51 520.534C173.84 520.534 174.4 519.918 174.4 518.21C174.4 516.488 173.854 515.872 172.51 515.872C171.278 515.872 170.606 516.418 170.606 517.58V518.826ZM178.633 521.682H177.121V512.302H178.633V521.682ZM183.252 521.822C181.11 521.822 179.78 520.366 179.78 518.196C179.78 516.04 181.11 514.584 183.252 514.584C185.38 514.584 186.668 516.04 186.668 518.196C186.668 520.366 185.38 521.822 183.252 521.822ZM183.252 520.478C184.708 520.478 185.212 519.764 185.212 518.196C185.212 516.642 184.708 515.928 183.252 515.928C181.782 515.928 181.264 516.642 181.264 518.196C181.264 519.764 181.782 520.478 183.252 520.478ZM188.62 524.062C188.242 524.062 187.808 524.006 187.57 523.936V522.704H188.522C189.124 522.704 189.334 522.606 189.558 522.088L189.824 521.5L186.87 514.724H188.535L189.936 518.098L190.566 519.61H190.678L191.252 518.098L192.526 514.724H194.192L190.902 522.508C190.383 523.74 189.712 524.062 188.62 524.062Z" fill="#071B2C"/>
<circle cx="173" cy="31.2932" r="30.9749" fill="#E9E6F6"/>
<path d="M160.928 35.7935C160.97 35.393 161.26 35.0703 161.841 34.4249L163.118 32.9967C163.43 32.6013 163.652 31.9127 163.652 31.2929C163.652 30.6737 163.43 29.9848 163.118 29.5895L161.841 28.1614C161.26 27.5159 160.97 27.1932 160.928 26.7927C160.886 26.3923 161.103 26.0161 161.536 25.2637L162.148 24.2024C162.61 23.3997 162.842 22.9984 163.235 22.8383C163.629 22.6783 164.074 22.8046 164.964 23.0571L166.475 23.483C167.044 23.614 167.64 23.5397 168.159 23.2731L168.576 23.0323C169.021 22.7473 169.363 22.3272 169.553 21.8333L169.966 20.5976C170.238 19.7798 170.374 19.3709 170.698 19.1371C171.022 18.9032 171.452 18.9032 172.312 18.9032H173.694C174.554 18.9032 174.984 18.9032 175.308 19.1371C175.632 19.3709 175.768 19.7798 176.04 20.5976L176.454 21.8333C176.643 22.3272 176.985 22.7473 177.43 23.0323L177.848 23.2731C178.366 23.5397 178.963 23.614 179.531 23.483L181.043 23.0571C181.933 22.8046 182.378 22.6783 182.771 22.8383C183.165 22.9984 183.396 23.3997 183.858 24.2024L184.47 25.2637C184.904 26.0161 185.12 26.3923 185.078 26.7927C185.036 27.1932 184.746 27.5159 184.166 28.1614L182.888 29.5895C182.576 29.9848 182.354 30.6737 182.354 31.2929C182.354 31.9127 182.576 32.6013 182.888 32.9967L184.166 34.4249C184.746 35.0703 185.036 35.393 185.078 35.7935C185.12 36.194 184.904 36.5702 184.47 37.3225L183.858 38.3838C183.396 39.1865 183.165 39.5879 182.771 39.7478C182.378 39.9079 181.933 39.7817 181.043 39.529L179.531 39.1032C178.963 38.9721 178.366 39.0466 177.847 39.3132L177.43 39.5541C176.985 39.839 176.643 40.2591 176.454 40.7529L176.04 41.9888C175.768 42.8066 175.632 43.2154 175.308 43.4492C174.984 43.6831 174.554 43.6831 173.694 43.6831H172.312C171.452 43.6831 171.022 43.6831 170.698 43.4492C170.374 43.2154 170.238 42.8066 169.966 41.9888" stroke="#071B2C" stroke-width="1.8585" stroke-linecap="round"/>
<path d="M161.524 39.6934C162.862 38.3552 167.411 33.8502 167.857 33.3299C168.329 32.7798 167.947 32.0364 168.174 29.7318C168.284 28.6167 168.524 27.7813 169.21 27.1597C170.028 26.3865 170.697 26.3865 173.002 26.3345C175.009 26.3865 175.247 26.1635 175.455 26.6839C175.604 27.0556 175.158 27.2786 174.622 27.8733C173.433 29.0628 172.734 29.6575 172.667 30.0292C172.184 31.6647 174.087 32.6311 175.128 31.5903C175.521 31.1967 177.343 29.3601 177.522 29.2114C177.656 29.0925 177.976 29.0982 178.131 29.2858C178.265 29.4172 178.28 29.4345 178.265 30.0292C178.251 30.5797 178.257 31.37 178.259 32.185C178.261 33.241 178.206 34.4152 177.76 35.01C176.868 36.3481 175.381 36.4224 174.043 36.4819C172.779 36.5562 171.738 36.4224 171.411 36.6603C171.143 36.7941 169.731 38.2809 168.021 39.9907L164.973 43.0387C162.446 45.0458 159.665 41.9236 161.524 39.6934Z" stroke="#5236FF" stroke-width="1.8585" stroke-linecap="round"/>
<rect width="114" height="25" transform="translate(116 71.5606)" fill="white"/>
<path d="M127.239 88.5606H125.727V79.1806H127.869L130.011 84.3326L130.837 86.5726H130.949L131.761 84.3326L133.861 79.1806H136.003V88.5606H134.505V83.0166L134.561 81.4486H134.463L133.875 83.0166L131.775 88.0006H129.955L127.841 83.0166L127.281 81.4486H127.155L127.239 83.0166V88.5606ZM140.58 88.7006C138.438 88.7006 137.108 87.2446 137.108 85.0746C137.108 82.9186 138.438 81.4626 140.58 81.4626C142.708 81.4626 143.996 82.9186 143.996 85.0746C143.996 87.2446 142.708 88.7006 140.58 88.7006ZM140.58 87.3566C142.036 87.3566 142.54 86.6426 142.54 85.0746C142.54 83.5206 142.036 82.8066 140.58 82.8066C139.11 82.8066 138.592 83.5206 138.592 85.0746C138.592 86.6426 139.11 87.3566 140.58 87.3566ZM146.639 88.5606H145.127V81.6026H146.513V82.9046H146.569C146.891 82.1626 147.633 81.4626 148.991 81.4626C150.797 81.4626 151.609 82.6106 151.609 84.1926V88.5606H150.097V84.5286C150.097 83.2826 149.705 82.7646 148.431 82.7646C147.199 82.7646 146.639 83.2406 146.639 84.5426V88.5606ZM154.47 80.7206H152.972L152.958 79.1806H154.47V80.7206ZM154.484 88.5606H152.972V81.5606H154.484V88.5606ZM158.73 88.5606C157.176 88.5606 156.364 87.9866 156.364 86.4186V82.8626H155.202V81.6026H156.392L156.714 79.8806H157.876V81.6026H159.976V82.8626H157.876V86.3486C157.876 87.0766 158.184 87.2026 159.122 87.2026H159.976V88.4346C159.682 88.5046 159.206 88.5606 158.73 88.5606ZM163.946 88.7006C161.804 88.7006 160.474 87.2446 160.474 85.0746C160.474 82.9186 161.804 81.4626 163.946 81.4626C166.074 81.4626 167.362 82.9186 167.362 85.0746C167.362 87.2446 166.074 88.7006 163.946 88.7006ZM163.946 87.3566C165.402 87.3566 165.906 86.6426 165.906 85.0746C165.906 83.5206 165.402 82.8066 163.946 82.8066C162.476 82.8066 161.958 83.5206 161.958 85.0746C161.958 86.6426 162.476 87.3566 163.946 87.3566ZM170.004 88.5606H168.492V81.5606H169.878V82.6666H169.948C170.228 82.0226 170.872 81.4626 171.894 81.4626C173.35 81.4626 173.91 82.5266 173.91 83.8286V84.2906H172.398V84.0106C172.398 83.0866 172.132 82.7506 171.25 82.7506C170.34 82.7506 170.004 83.1006 170.004 84.0246V88.5606ZM180.719 80.4686C179.725 80.4686 179.277 80.8046 179.277 81.7846C179.277 82.7366 179.809 83.0726 180.761 83.0726H183.183V81.6026H184.667V83.0726H186.179V84.3326H184.667V85.5226C184.667 87.4966 183.533 88.7006 180.957 88.7006C178.689 88.7006 177.429 87.8186 177.429 86.0126C177.429 84.6686 178.255 83.8706 179.445 83.6886V83.6186C178.325 83.4366 177.765 82.5686 177.765 81.5046C177.765 79.8246 179.011 79.0826 180.943 79.0826H182.427V80.4686H180.719ZM181.027 87.3146C182.735 87.3146 183.183 86.8526 183.183 85.5226V84.3326H180.775C179.571 84.3326 178.955 84.6826 178.955 85.8586C178.955 86.9506 179.445 87.3146 181.027 87.3146ZM191.209 88.5606H189.697V79.1806H191.209V88.5606ZM195.731 88.7006C193.435 88.7006 192.357 87.2446 192.357 85.0746C192.357 82.9186 193.645 81.4626 195.717 81.4626C197.593 81.4626 198.909 82.5826 198.909 84.4866C198.909 84.8506 198.867 85.2286 198.825 85.4386H193.771C193.827 86.7126 194.289 87.3566 195.745 87.3566C196.907 87.3566 197.355 86.9646 197.355 86.3346V86.2226H198.853V86.3486C198.853 87.7766 197.607 88.7006 195.731 88.7006ZM195.689 82.7366C194.373 82.7366 193.869 83.3526 193.785 84.4306H197.467C197.523 83.2406 196.879 82.7366 195.689 82.7366ZM202.074 88.7006C200.828 88.7006 199.862 88.0566 199.862 86.8386C199.862 85.6906 200.702 85.0886 202.186 84.8786L204.622 84.5146V84.1366C204.622 83.1006 204.146 82.7926 203.054 82.7926C201.948 82.7926 201.514 83.1426 201.514 84.0666V84.2766H200.058V84.1366C200.058 82.5826 201.276 81.4626 203.138 81.4626C205.084 81.4626 206.064 82.6386 206.064 84.3326V88.5606H204.664V87.4686H204.594C204.188 88.1266 203.39 88.7006 202.074 88.7006ZM201.332 86.7266C201.332 87.2726 201.682 87.4966 202.564 87.4966C203.544 87.4966 204.622 87.1046 204.622 85.7046V85.5786L202.41 85.9146C201.612 86.0266 201.332 86.2086 201.332 86.7266ZM209.024 88.5606H207.512V81.5606H208.898V82.6666H208.968C209.248 82.0226 209.892 81.4626 210.914 81.4626C212.37 81.4626 212.93 82.5266 212.93 83.8286V84.2906H211.418V84.0106C211.418 83.0866 211.152 82.7506 210.27 82.7506C209.36 82.7506 209.024 83.1006 209.024 84.0246V88.5606ZM215.381 88.5606H213.869V81.6026H215.255V82.9046H215.311C215.633 82.1626 216.375 81.4626 217.733 81.4626C219.539 81.4626 220.351 82.6106 220.351 84.1926V88.5606H218.839V84.5286C218.839 83.2826 218.447 82.7646 217.173 82.7646C215.941 82.7646 215.381 83.2406 215.381 84.5426V88.5606Z" fill="#071B2C"/>
<circle cx="34.0003" cy="247.293" r="30.9749" fill="#E9E6F6"/>
<path d="M30.8086 251.01H33.2866" stroke="#5236FF" stroke-width="1.8585" stroke-linecap="round" stroke-linejoin="round"/>
<path d="M35.1452 259.683L34.7543 259.164C33.8731 257.994 33.6545 256.207 34.212 254.727M28.9502 259.683L29.3411 259.164C30.2223 257.994 30.4408 256.207 29.8834 254.727" stroke="#5236FF" stroke-width="1.8585" stroke-linecap="round"/>
<path d="M25.8525 259.683H38.2425" stroke="#5236FF" stroke-width="1.8585" stroke-linecap="round"/>
<path d="M34.5252 234.903H29.5692C25.5062 234.903 23.4748 234.903 22.0348 235.912C21.502 236.285 21.0386 236.748 20.6655 237.281C19.6572 238.721 19.6572 240.752 19.6572 244.815C19.6572 248.878 19.6572 250.91 20.6655 252.35C21.0386 252.882 21.502 253.346 22.0348 253.719C23.4748 254.727 25.5062 254.727 29.5692 254.727H34.5252C38.5881 254.727 40.6196 254.727 42.0597 253.719C42.5924 253.346 43.0558 252.882 43.4289 252.35C44.4372 250.91 44.4372 248.878 44.4372 244.815C44.4372 240.752 44.4372 238.721 43.4289 237.281C43.0558 236.748 42.5924 236.285 42.0597 235.912C40.6196 234.903 38.5881 234.903 34.5252 234.903Z" stroke="#071B2C" stroke-width="1.8585" stroke-linecap="round"/>
<rect width="68" height="25" transform="translate(0 287.561)" fill="white"/>
<path d="M13.2786 304.701C10.6046 304.701 8.89658 302.797 8.89658 299.871C8.89658 296.945 10.6046 295.041 13.2786 295.041C15.9386 295.041 17.6466 296.945 17.6466 299.871C17.6466 302.797 15.9386 304.701 13.2786 304.701ZM13.2786 303.245C15.2246 303.245 16.0366 302.307 16.0366 299.871C16.0366 297.435 15.2246 296.497 13.2786 296.497C11.3326 296.497 10.5066 297.435 10.5066 299.871C10.5066 302.307 11.3326 303.245 13.2786 303.245ZM20.3383 306.983H18.8403V297.603H20.2123V298.751H20.2823C20.6043 297.939 21.4023 297.463 22.6063 297.463C24.5663 297.463 25.6443 298.877 25.6443 301.089C25.6443 303.287 24.5943 304.701 22.7043 304.701C21.4583 304.701 20.6883 304.127 20.3803 303.483H20.3383V306.983ZM20.3383 301.705C20.3383 302.867 21.0103 303.413 22.2423 303.413C23.5723 303.413 24.1323 302.797 24.1323 301.089C24.1323 299.367 23.5863 298.751 22.2423 298.751C21.0103 298.751 20.3383 299.297 20.3383 300.459V301.705ZM30.002 304.701C27.706 304.701 26.628 303.245 26.628 301.075C26.628 298.919 27.916 297.463 29.988 297.463C31.864 297.463 33.18 298.583 33.18 300.487C33.18 300.851 33.138 301.229 33.096 301.439H28.042C28.098 302.713 28.56 303.357 30.016 303.357C31.178 303.357 31.626 302.965 31.626 302.335V302.223H33.124V302.349C33.124 303.777 31.878 304.701 30.002 304.701ZM29.96 298.737C28.644 298.737 28.14 299.353 28.056 300.431H31.738C31.794 299.241 31.15 298.737 29.96 298.737ZM35.8985 304.561H34.3865V297.561H35.7725V298.667H35.8425C36.1225 298.023 36.7665 297.463 37.7885 297.463C39.2445 297.463 39.8045 298.527 39.8045 299.829V300.291H38.2925V300.011C38.2925 299.087 38.0265 298.751 37.1445 298.751C36.2345 298.751 35.8985 299.101 35.8985 300.025V304.561ZM42.5112 304.701C41.2652 304.701 40.2992 304.057 40.2992 302.839C40.2992 301.691 41.1392 301.089 42.6232 300.879L45.0592 300.515V300.137C45.0592 299.101 44.5832 298.793 43.4912 298.793C42.3852 298.793 41.9512 299.143 41.9512 300.067V300.277H40.4952V300.137C40.4952 298.583 41.7132 297.463 43.5752 297.463C45.5212 297.463 46.5012 298.639 46.5012 300.333V304.561H45.1012V303.469H45.0312C44.6252 304.127 43.8272 304.701 42.5112 304.701ZM41.7692 302.727C41.7692 303.273 42.1192 303.497 43.0012 303.497C43.9812 303.497 45.0592 303.105 45.0592 301.705V301.579L42.8472 301.915C42.0492 302.027 41.7692 302.209 41.7692 302.727ZM50.779 304.561C49.225 304.561 48.413 303.987 48.413 302.419V298.863H47.251V297.603H48.441L48.763 295.881H49.925V297.603H52.025V298.863H49.925V302.349C49.925 303.077 50.233 303.203 51.171 303.203H52.025V304.435C51.731 304.505 51.255 304.561 50.779 304.561ZM55.8965 304.701C53.6005 304.701 52.5225 303.245 52.5225 301.075C52.5225 298.919 53.8105 297.463 55.8825 297.463C57.7585 297.463 59.0745 298.583 59.0745 300.487C59.0745 300.851 59.0325 301.229 58.9905 301.439H53.9365C53.9925 302.713 54.4545 303.357 55.9105 303.357C57.0725 303.357 57.5205 302.965 57.5205 302.335V302.223H59.0185V302.349C59.0185 303.777 57.7725 304.701 55.8965 304.701ZM55.8545 298.737C54.5385 298.737 54.0345 299.353 53.9505 300.431H57.6325C57.6885 299.241 57.0445 298.737 55.8545 298.737Z" fill="#071B2C"/>
<path d="M123.729 256H120.321V223.84H132.897C139.617 223.84 144.561 227.728 144.561 234.4C144.561 241.168 139.617 245.008 132.897 245.008H123.729V256ZM133.425 226.96H123.729V241.888H133.425C138.657 241.888 141.105 239.68 141.105 234.4C141.105 229.168 138.657 226.96 133.425 226.96ZM157.826 256.48C150.866 256.48 146.306 251.344 146.306 244.144C146.306 236.944 150.866 231.808 157.826 231.808C164.738 231.808 169.154 236.944 169.154 244.144C169.154 251.344 164.738 256.48 157.826 256.48ZM157.826 253.408C163.538 253.408 165.794 250.048 165.794 244.144C165.794 238.24 163.538 234.928 157.826 234.928C152.018 234.928 149.714 238.24 149.714 244.144C149.714 250.048 152.018 253.408 157.826 253.408ZM180.888 256H176.376L170.28 232.288H173.928L177.672 247.744L178.632 252.88H178.92L180.504 247.744L185.928 232.288H190.488L196.008 247.744L197.496 252.88H197.784L198.744 247.744L202.488 232.288H206.04L199.944 256H195.432L190.104 241.024L188.328 235.408H188.04L186.264 241.024L180.888 256ZM218.285 256.48C210.989 256.48 207.197 251.344 207.197 244.144C207.197 236.944 211.469 231.808 218.237 231.808C223.949 231.808 228.653 235.264 228.653 242.272C228.653 243.376 228.557 244.432 228.413 245.104H210.461C210.605 250.336 212.669 253.408 218.333 253.408C223.133 253.408 225.053 251.248 225.053 248.368V248.08H228.461V248.416C228.461 252.976 224.333 256.48 218.285 256.48ZM218.141 234.784C212.861 234.784 210.749 237.808 210.461 242.608H225.389C225.581 236.992 222.797 234.784 218.141 234.784ZM236.55 256H233.094V232H236.214V235.984H236.454C237.222 233.776 239.526 231.808 243.03 231.808C247.926 231.808 249.798 235.312 249.798 239.392V240.736H246.342V239.92C246.342 236.224 245.19 234.784 241.782 234.784C238.086 234.784 236.55 236.464 236.55 240.304V256ZM266.323 256H262.915V223.84H275.491C282.211 223.84 287.155 227.728 287.155 234.4C287.155 241.168 282.211 245.008 275.491 245.008H266.323V256ZM276.019 226.96H266.323V241.888H276.019C281.251 241.888 283.699 239.68 283.699 234.4C283.699 229.168 281.251 226.96 276.019 226.96ZM294.3 256H290.844V223.84H294.3V256ZM305.996 256.48C301.676 256.48 298.412 254.272 298.412 250.288C298.412 246.16 301.484 244.336 306.668 243.616L315.02 242.464V240.736C315.02 236.56 313.244 234.88 308.78 234.88C304.46 234.88 302.444 236.56 302.444 240.352V241.072H299.132V240.688C299.132 235.744 302.924 231.808 309.068 231.808C315.404 231.808 318.284 235.888 318.284 241.168V256H315.164V251.632L314.924 251.584C313.532 254.32 310.508 256.48 305.996 256.48ZM301.772 250.048C301.772 252.496 303.308 253.6 306.956 253.6C311.036 253.6 315.02 251.488 315.02 245.872V245.056L306.956 246.208C303.164 246.736 301.772 247.504 301.772 250.048ZM332.068 256.048C327.7 256.048 325.156 254.32 325.156 249.28V235.264H321.172V232.288H325.204L326.02 226.24H328.612V232.288H336.1V235.264H328.612V249.472C328.612 252.256 329.908 252.88 332.98 252.88H336.1V255.664C335.284 255.808 333.796 256.048 332.068 256.048ZM342.843 256H339.435V235.264H335.931V232.288H339.435V231.376C339.435 226.48 342.171 223.84 347.403 223.84H349.515V226.672H346.779C344.043 226.672 342.795 227.824 342.795 230.224V232.288H349.515V235.264H342.843V256ZM361.639 256.48C354.679 256.48 350.119 251.344 350.119 244.144C350.119 236.944 354.679 231.808 361.639 231.808C368.551 231.808 372.967 236.944 372.967 244.144C372.967 251.344 368.551 256.48 361.639 256.48ZM361.639 253.408C367.351 253.408 369.607 250.048 369.607 244.144C369.607 238.24 367.351 234.928 361.639 234.928C355.831 234.928 353.527 238.24 353.527 244.144C353.527 250.048 355.831 253.408 361.639 253.408ZM380.597 256H377.141V232H380.261V235.984H380.501C381.269 233.776 383.573 231.808 387.077 231.808C391.973 231.808 393.845 235.312 393.845 239.392V240.736H390.389V239.92C390.389 236.224 389.237 234.784 385.829 234.784C382.133 234.784 380.597 236.464 380.597 240.304V256ZM400.707 256H397.251V232.288H400.371V237.184H400.515C401.427 234.688 403.923 231.808 408.819 231.808C413.139 231.808 415.731 233.872 416.787 237.232H416.931C417.891 234.688 420.339 231.808 425.235 231.808C431.331 231.808 434.115 235.744 434.115 241.408V256H430.707V242.224C430.707 237.088 428.979 234.832 424.179 234.832C419.667 234.832 417.411 237.04 417.411 242.32V256H414.003V242.224C414.003 237.088 412.323 234.832 407.523 234.832C403.011 234.832 400.707 237.04 400.707 242.32V256Z" fill="black"/>
<path d="M213.603 306H192.579V273.84H195.987V302.88H213.603V306ZM219.366 279.12H215.958V273.84H219.366V279.12ZM219.366 306H215.958V282H219.366V306ZM228.913 306H225.505V285.264H222.001V282.288H225.505V281.376C225.505 276.48 228.241 273.84 233.473 273.84H235.585V276.672H232.849C230.113 276.672 228.865 277.824 228.865 280.224V282.288H235.585V285.264H228.913V306ZM247.277 306.48C239.981 306.48 236.189 301.344 236.189 294.144C236.189 286.944 240.461 281.808 247.229 281.808C252.941 281.808 257.645 285.264 257.645 292.272C257.645 293.376 257.549 294.432 257.405 295.104H239.453C239.597 300.336 241.661 303.408 247.325 303.408C252.125 303.408 254.045 301.248 254.045 298.368V298.08H257.453V298.416C257.453 302.976 253.325 306.48 247.277 306.48ZM247.133 284.784C241.853 284.784 239.741 287.808 239.453 292.608H254.381C254.573 286.992 251.789 284.784 247.133 284.784ZM272.593 306.528C265.585 306.528 261.361 301.392 261.361 294.192C261.361 286.944 265.585 281.808 272.593 281.808C278.641 281.808 282.721 285.696 282.721 291.264V291.6H279.313V291.312C279.313 287.184 277.105 284.928 272.449 284.928C267.025 284.928 264.769 288.336 264.769 294.192C264.769 300 267.025 303.408 272.449 303.408C277.105 303.408 279.313 301.152 279.313 297.024V296.736H282.721V297.072C282.721 302.64 278.641 306.528 272.593 306.528ZM288.977 314.16C287.825 314.16 286.577 313.968 285.905 313.824V311.04H288.593C290.753 311.04 291.473 310.608 292.337 308.736L293.681 305.664L283.505 282.288H287.249L292.817 295.488L295.313 301.296H295.601L297.953 295.488L303.185 282.288H306.929L295.361 309.792C293.825 313.392 291.569 314.16 288.977 314.16ZM318.952 306.528C311.944 306.528 307.72 301.392 307.72 294.192C307.72 286.944 311.944 281.808 318.952 281.808C325 281.808 329.08 285.696 329.08 291.264V291.6H325.672V291.312C325.672 287.184 323.464 284.928 318.808 284.928C313.384 284.928 311.128 288.336 311.128 294.192C311.128 300 313.384 303.408 318.808 303.408C323.464 303.408 325.672 301.152 325.672 297.024V296.736H329.08V297.072C329.08 302.64 325 306.528 318.952 306.528ZM336.792 306H333.336V273.84H336.792V306ZM352.089 306.48C344.793 306.48 341.001 301.344 341.001 294.144C341.001 286.944 345.273 281.808 352.041 281.808C357.753 281.808 362.457 285.264 362.457 292.272C362.457 293.376 362.361 294.432 362.217 295.104H344.265C344.409 300.336 346.473 303.408 352.137 303.408C356.937 303.408 358.857 301.248 358.857 298.368V298.08H362.265V298.416C362.265 302.976 358.137 306.48 352.089 306.48ZM351.945 284.784C346.665 284.784 344.553 287.808 344.265 292.608H359.193C359.385 286.992 356.601 284.784 351.945 284.784Z" fill="#5236FF"/>
</svg>
