<svg width="577" height="554" viewBox="0 0 577 554" fill="none" xmlns="http://www.w3.org/2000/svg">
<g clip-path="url(#clip0_6724_9844)">
<g filter="url(#filter0_d_6724_9844)">
<path d="M279.435 248.725C283.109 244.883 288.23 242.502 293.889 242.502C301.413 242.502 307.982 246.706 311.479 252.957C314.606 251.552 317.992 250.836 321.415 250.836C334.988 250.836 345.991 261.96 345.991 275.689C345.991 289.418 334.988 300.542 321.415 300.542C319.754 300.542 318.14 300.374 316.572 300.058C313.492 305.564 307.62 309.285 300.894 309.285C298.073 309.285 295.411 308.634 293.036 307.471C289.919 314.838 282.645 319.991 274.166 319.991C265.343 319.991 257.819 314.391 254.934 306.541C253.644 306.811 252.336 306.95 251.019 306.95C240.517 306.96 232 298.328 232 287.687C231.982 280.823 235.609 274.461 241.509 270.992C240.303 268.211 239.682 265.206 239.691 262.174C239.691 249.924 249.608 240 261.836 240C268.738 239.991 275.251 243.218 279.435 248.725Z" fill="#5236FF"/>
</g>
<path d="M270.418 282.478C270.418 282.59 270.343 282.683 270.232 282.683H268.479C268.367 282.683 268.293 282.59 268.293 282.478V268.34C268.293 268.228 268.367 268.145 268.479 268.145H270.232C270.343 268.145 270.418 268.238 270.418 268.34V282.478ZM299.938 268.154C299.985 268.173 300.105 268.238 300.059 268.387L299.549 269.782C299.511 269.884 299.474 269.949 299.261 269.884C298.973 269.791 298.676 269.745 298.38 269.745C298.12 269.745 297.879 269.782 297.674 269.847C297.461 269.912 297.276 270.033 297.118 270.191C296.914 270.386 296.756 270.628 296.654 270.898C296.413 271.596 296.32 272.349 296.301 272.395H298.417C298.593 272.395 298.649 272.479 298.639 272.609L298.389 273.986C298.352 274.191 298.166 274.181 298.166 274.181H295.986L294.502 282.627C294.372 283.38 294.177 284.124 293.917 284.85C293.685 285.464 293.444 285.91 293.054 286.329C292.72 286.71 292.303 287.008 291.83 287.184C291.394 287.352 290.837 287.436 290.225 287.436C289.937 287.436 289.622 287.426 289.26 287.343C289.056 287.296 288.852 287.24 288.657 287.166C288.573 287.138 288.508 287.036 288.555 286.896C288.601 286.766 288.991 285.696 289.047 285.547C289.112 285.38 289.288 285.445 289.288 285.445C289.408 285.492 289.483 285.529 289.64 285.557C289.798 285.585 290.011 285.612 290.169 285.612C290.457 285.612 290.716 285.575 290.948 285.501C291.227 285.417 291.384 285.25 291.551 285.036C291.728 284.813 291.867 284.506 292.015 284.087C292.164 283.669 292.294 283.12 292.405 282.459L293.889 274.163H292.433C292.257 274.163 292.201 274.079 292.219 273.949L292.461 272.572C292.498 272.377 292.683 272.377 292.683 272.377H294.177L294.26 271.93C294.483 270.6 294.928 269.586 295.587 268.926C296.246 268.256 297.192 267.922 298.389 267.922C298.732 267.922 299.029 267.94 299.289 267.987C299.539 268.052 299.725 268.089 299.938 268.154ZM316.238 272.74C316.174 272.916 315.858 273.828 315.737 274.125C315.691 274.237 315.626 274.321 315.496 274.302C315.496 274.302 315.116 274.218 314.773 274.218C314.531 274.218 314.188 274.246 313.882 274.339C313.576 274.432 313.298 274.6 313.066 274.832C312.824 275.065 312.63 275.39 312.49 275.809C312.351 276.228 312.268 276.888 312.268 277.548V282.487C312.268 282.599 312.184 282.692 312.073 282.692H310.338C310.227 282.692 310.134 282.608 310.134 282.487V272.6C310.134 272.488 310.217 272.395 310.329 272.395H312.027C312.138 272.395 312.221 272.488 312.221 272.6V273.409C312.472 273.065 312.926 272.767 313.335 272.581C313.743 272.395 314.207 272.256 315.042 272.302C315.468 272.33 316.034 272.451 316.146 272.488C316.229 272.535 316.276 272.637 316.238 272.74C316.238 272.73 316.238 272.73 316.238 272.74ZM260.315 280.804C260.315 280.804 260.908 281.269 262.254 281.185C263.2 281.129 264.035 280.953 264.035 280.953V277.939C264.035 277.939 263.191 277.799 262.244 277.79C260.899 277.772 260.324 278.274 260.333 278.274C259.934 278.553 259.739 278.971 259.739 279.557C259.739 279.929 259.804 280.218 259.934 280.422C260.018 280.543 260.055 280.599 260.315 280.804ZM262.94 276.153C262.94 276.153 263.46 276.2 264.026 276.283V276.004C264.026 275.121 263.84 274.702 263.478 274.423C263.107 274.144 262.56 273.995 261.845 273.995C261.845 273.995 260.24 273.977 258.969 274.665C258.914 274.702 258.858 274.721 258.858 274.721C258.858 274.721 258.7 274.777 258.645 274.609L258.181 273.353C258.107 273.167 258.237 273.093 258.237 273.093C258.83 272.628 260.268 272.349 260.268 272.349C260.853 272.247 261.446 272.191 262.04 272.181C263.358 272.181 264.378 272.488 265.074 273.093C265.77 273.707 266.122 274.693 266.122 276.014V282.078C266.122 282.078 266.132 282.255 265.974 282.292C265.974 282.292 265.733 282.357 265.51 282.413C265.287 282.459 264.489 282.627 263.84 282.738C263.172 282.85 262.504 282.906 261.836 282.906C261.196 282.906 260.602 282.841 260.092 282.729C259.61 282.627 259.155 282.431 258.747 282.143C258.376 281.873 258.079 281.52 257.884 281.111C257.68 280.692 257.578 280.19 257.578 279.595C257.578 279.018 257.698 278.506 257.93 278.069C258.162 277.632 258.487 277.269 258.886 276.981C259.303 276.683 259.767 276.469 260.259 276.339C260.779 276.2 261.317 276.135 261.892 276.135C262.328 276.116 262.671 276.125 262.94 276.153ZM274.592 276.469H279.305C279.259 275.865 279.138 275.316 278.869 274.907C278.461 274.284 277.886 273.949 277.014 273.949C276.142 273.949 275.529 274.293 275.121 274.907C274.862 275.316 274.685 275.837 274.592 276.469ZM281.17 275.083C281.597 276.572 281.374 277.865 281.365 277.939C281.346 278.106 281.17 278.106 281.17 278.106L274.565 278.097C274.611 279.102 274.843 279.818 275.335 280.301C275.817 280.776 276.569 281.073 277.598 281.083C279.166 281.083 279.843 280.767 280.317 280.59C280.317 280.59 280.493 280.525 280.567 280.701L280.994 281.911C281.077 282.115 281.012 282.18 280.938 282.227C280.521 282.459 279.519 282.887 277.608 282.887C276.68 282.887 275.873 282.757 275.214 282.497C274.583 282.264 274.017 281.883 273.553 281.39C273.117 280.906 272.783 280.329 272.598 279.706C272.394 279.018 272.292 278.311 272.301 277.595C272.301 276.841 272.394 276.135 272.589 275.483C272.765 274.851 273.071 274.274 273.479 273.763C273.897 273.27 274.416 272.87 275.001 272.6C275.613 272.312 276.355 272.172 277.181 272.172C277.83 272.172 278.48 272.302 279.073 272.554C279.491 272.73 279.908 273.056 280.326 273.512C280.595 273.818 281.003 274.451 281.17 275.083ZM327.52 276.469H332.233C332.186 275.865 332.066 275.316 331.797 274.907C331.379 274.284 330.813 273.949 329.941 273.949C329.069 273.949 328.457 274.293 328.049 274.907C327.779 275.316 327.603 275.837 327.52 276.469ZM334.088 275.083C334.515 276.572 334.292 277.865 334.283 277.939C334.264 278.106 334.088 278.116 334.088 278.116L327.483 278.106C327.52 279.111 327.761 279.827 328.253 280.311C328.726 280.785 329.487 281.083 330.516 281.092C332.084 281.092 332.752 280.776 333.225 280.599C333.225 280.599 333.411 280.534 333.476 280.711L333.903 281.92C333.986 282.125 333.921 282.19 333.847 282.236C333.429 282.469 332.427 282.897 330.526 282.897C329.598 282.897 328.791 282.766 328.132 282.506C327.501 282.273 326.935 281.892 326.471 281.399C326.026 280.915 325.701 280.339 325.516 279.715C325.312 279.027 325.21 278.32 325.219 277.604C325.219 276.851 325.312 276.144 325.507 275.493C325.701 274.832 325.998 274.256 326.397 273.772C326.815 273.279 327.334 272.879 327.919 272.609C328.522 272.321 329.273 272.181 330.099 272.181C330.804 272.181 331.453 272.33 331.991 272.563C332.409 272.74 332.817 273.065 333.244 273.521C333.513 273.818 333.921 274.451 334.088 275.083ZM324.096 280.841L324.57 282.171C324.634 282.329 324.495 282.404 324.495 282.404C323.753 282.692 322.733 282.897 321.731 282.897C320.042 282.897 318.743 282.404 317.871 281.446C317.008 280.487 316.572 279.176 316.572 277.548C316.572 276.795 316.684 276.088 316.897 275.446C317.111 274.795 317.426 274.228 317.843 273.744C318.279 273.251 318.818 272.86 319.411 272.6C320.033 272.321 320.766 272.181 321.582 272.181C322.139 272.181 322.631 272.219 323.048 272.274C323.503 272.349 324.096 272.507 324.347 272.609C324.393 272.628 324.523 272.693 324.467 272.842C324.282 273.363 324.161 273.707 323.985 274.181C323.911 274.386 323.753 274.321 323.753 274.321C323.113 274.116 322.501 274.023 321.694 274.023C320.729 274.023 320.005 274.349 319.532 274.981C319.049 275.614 318.79 276.451 318.78 277.558C318.78 278.776 319.077 279.678 319.615 280.236C320.154 280.794 320.905 281.073 321.851 281.073C322.232 281.073 322.593 281.046 322.918 280.999C323.243 280.953 323.54 280.85 323.827 280.739C323.846 280.72 324.031 280.655 324.096 280.841ZM306.117 277.548C306.117 276.414 305.904 275.521 305.495 274.897C305.087 274.274 304.456 273.977 303.593 273.977C302.731 273.977 302.109 274.274 301.701 274.897C301.293 275.521 301.089 276.414 301.089 277.548C301.089 278.683 301.293 279.576 301.71 280.208C302.118 280.832 302.731 281.139 303.603 281.139C304.475 281.139 305.096 280.832 305.505 280.208C305.904 279.585 306.117 278.683 306.117 277.548ZM308.065 275.446C308.26 276.088 308.353 276.804 308.353 277.548C308.353 278.302 308.26 279.009 308.065 279.65C307.889 280.274 307.592 280.85 307.174 281.353C306.766 281.836 306.256 282.227 305.672 282.487C305.069 282.757 304.373 282.897 303.575 282.897C302.777 282.897 302.081 282.757 301.487 282.487C300.912 282.227 300.393 281.836 299.985 281.353C299.576 280.85 299.279 280.274 299.094 279.65C298.899 278.971 298.797 278.255 298.806 277.548C298.806 276.795 298.899 276.088 299.094 275.446C299.289 274.795 299.586 274.228 299.975 273.744C300.383 273.26 300.903 272.87 301.478 272.6C302.072 272.321 302.777 272.181 303.566 272.181C304.354 272.181 305.059 272.321 305.662 272.6C306.256 272.879 306.766 273.26 307.165 273.744C307.583 274.228 307.88 274.804 308.065 275.446ZM282.747 281.483L283.211 280.199C283.276 279.985 283.471 280.069 283.517 280.097C283.647 280.171 283.74 280.246 283.907 280.339C285.271 281.204 286.523 281.213 286.922 281.213C287.933 281.213 288.564 280.674 288.564 279.948V279.902C288.564 279.111 287.59 278.813 286.467 278.469L286.217 278.385C284.668 277.948 283.026 277.306 283.026 275.353V275.316C283.026 273.456 284.519 272.163 286.662 272.163H286.894C288.147 272.163 289.371 272.526 290.243 273.065C290.318 273.112 290.401 273.205 290.355 273.335C290.308 273.446 289.919 274.497 289.882 274.618C289.798 274.832 289.575 274.693 289.575 274.693C288.657 274.209 287.636 273.949 286.607 273.93C285.697 273.93 285.113 274.414 285.113 275.065V275.102C285.113 275.865 286.115 276.19 287.275 276.572L287.469 276.637C289.009 277.12 290.652 277.799 290.652 279.66V279.697C290.652 281.706 289.195 282.952 286.857 282.952C285.707 282.952 284.612 282.776 283.452 282.152C283.23 282.022 283.016 281.92 282.803 281.762C282.775 281.715 282.673 281.678 282.747 281.483ZM248.514 281.483L248.978 280.199C249.052 279.976 249.219 280.05 249.284 280.097C249.414 280.171 249.507 280.246 249.674 280.339C251.037 281.204 252.29 281.213 252.689 281.213C253.709 281.213 254.34 280.674 254.34 279.948V279.902C254.34 279.111 253.366 278.813 252.243 278.469L251.993 278.385C250.453 277.948 248.801 277.306 248.801 275.353V275.316C248.801 273.456 250.295 272.163 252.438 272.163H252.67C253.923 272.163 255.138 272.526 256.019 273.065C256.103 273.112 256.177 273.205 256.131 273.335L255.657 274.618C255.574 274.832 255.342 274.693 255.342 274.693C254.424 274.209 253.412 273.949 252.373 273.93C251.464 273.93 250.88 274.414 250.88 275.065V275.102C250.88 275.865 251.882 276.19 253.041 276.572L253.236 276.637C254.776 277.12 256.418 277.799 256.418 279.66V279.697C256.418 281.706 254.962 282.952 252.624 282.952C251.473 282.952 250.379 282.776 249.219 282.152C248.996 282.022 248.783 281.92 248.57 281.762C248.542 281.715 248.44 281.678 248.514 281.483Z" fill="white"/>
</g>
<circle cx="442" cy="31.8538" r="30.9749" fill="#E9E6F6"/>
<path d="M429.61 28.1368H439.522C443.026 28.1368 444.778 28.1368 445.867 29.2255C446.956 30.3143 446.956 32.0664 446.956 35.5708V43.0048" stroke="#5236FF" stroke-width="1.8585"/>
<path d="M439.522 43.0048V28.1368" stroke="#5236FF" stroke-width="1.8585"/>
<path d="M429.61 31.8538C429.61 26.5972 429.61 23.9689 431.061 22.3358C432.513 20.7028 434.849 20.7028 439.522 20.7028H444.478C449.15 20.7028 451.487 20.7028 452.938 22.3358C454.39 23.9689 454.39 26.5972 454.39 31.8538C454.39 37.1104 454.39 39.7388 452.938 41.3718C451.487 43.0048 449.15 43.0048 444.478 43.0048H439.522C434.849 43.0048 432.513 43.0048 431.061 41.3718C429.61 39.7388 429.61 37.1104 429.61 31.8538Z" stroke="#071B2C" stroke-width="1.8585"/>
<path d="M398.843 89.2612C396.141 89.2612 394.965 88.0152 394.965 86.2092V85.9712H396.449V86.1252C396.449 87.2872 396.939 87.8752 398.899 87.8752C400.285 87.8752 400.789 87.4972 400.789 86.6292C400.789 85.7752 400.509 85.4672 399.067 85.1732L397.471 84.8512C395.861 84.5432 394.993 83.7592 394.993 82.2752C394.993 80.8892 396.071 79.6012 398.493 79.6012C401.083 79.6012 402.119 81.0572 402.119 82.7232V82.8912H400.635V82.7372C400.635 81.5892 400.131 80.9872 398.451 80.9872C397.065 80.9872 396.505 81.3792 396.505 82.2052C396.505 83.0592 396.883 83.2972 398.171 83.5772L399.767 83.9132C401.531 84.2772 402.301 85.1592 402.301 86.5732C402.301 88.0432 401.237 89.2612 398.843 89.2612ZM406.566 89.2612C404.424 89.2612 403.094 87.8052 403.094 85.6352C403.094 83.4792 404.424 82.0232 406.566 82.0232C408.694 82.0232 409.982 83.4792 409.982 85.6352C409.982 87.8052 408.694 89.2612 406.566 89.2612ZM406.566 87.9172C408.022 87.9172 408.526 87.2032 408.526 85.6352C408.526 84.0812 408.022 83.3672 406.566 83.3672C405.096 83.3672 404.578 84.0812 404.578 85.6352C404.578 87.2032 405.096 87.9172 406.566 87.9172ZM413.702 89.2612C411.882 89.2612 411.07 88.0432 411.07 86.4612V82.1632H412.582V86.1952C412.582 87.4412 413.058 87.9592 414.262 87.9592C415.424 87.9592 416.082 87.4552 416.082 86.0832V82.1632H417.594V89.1212H416.194V87.7352H416.138C415.802 88.5332 415.06 89.2612 413.702 89.2612ZM420.595 89.1212H419.083V82.1212H420.469V83.2272H420.539C420.819 82.5832 421.463 82.0232 422.485 82.0232C423.941 82.0232 424.501 83.0872 424.501 84.3892V84.8512H422.989V84.5712C422.989 83.6472 422.723 83.3112 421.841 83.3112C420.931 83.3112 420.595 83.6612 420.595 84.5852V89.1212ZM428.59 89.2752C426.42 89.2752 425.188 87.8052 425.188 85.6492C425.188 83.4792 426.462 82.0232 428.646 82.0232C430.48 82.0232 431.74 83.1572 431.74 84.8232V84.9492H430.242V84.8652C430.242 83.8432 429.71 83.3812 428.548 83.3812C427.204 83.3812 426.686 84.1372 426.686 85.6492C426.686 87.1612 427.204 87.9032 428.548 87.9032C429.71 87.9032 430.242 87.4552 430.242 86.4332V86.3492H431.74V86.4752C431.74 88.1272 430.466 89.2752 428.59 89.2752ZM436.04 89.2612C433.744 89.2612 432.666 87.8052 432.666 85.6352C432.666 83.4792 433.954 82.0232 436.026 82.0232C437.902 82.0232 439.218 83.1432 439.218 85.0472C439.218 85.4112 439.176 85.7892 439.134 85.9992H434.08C434.136 87.2732 434.598 87.9172 436.054 87.9172C437.216 87.9172 437.664 87.5252 437.664 86.8952V86.7832H439.162V86.9092C439.162 88.3372 437.916 89.2612 436.04 89.2612ZM435.998 83.2972C434.682 83.2972 434.178 83.9132 434.094 84.9912H437.776C437.832 83.8012 437.188 83.2972 435.998 83.2972ZM447.276 89.2612C444.546 89.2612 442.894 87.3572 442.894 84.4312C442.894 81.5052 444.546 79.6012 447.276 79.6012C449.796 79.6012 451.322 81.0012 451.322 83.2552V83.3392H449.712V83.2552C449.712 81.7152 448.998 81.0572 447.234 81.0572C445.288 81.0572 444.504 81.9952 444.504 84.4312C444.504 86.8672 445.288 87.8052 447.234 87.8052C448.998 87.8052 449.712 87.1472 449.712 85.6072V85.5232H451.322V85.6072C451.322 87.8612 449.796 89.2612 447.276 89.2612ZM455.757 89.2612C453.615 89.2612 452.285 87.8052 452.285 85.6352C452.285 83.4792 453.615 82.0232 455.757 82.0232C457.885 82.0232 459.173 83.4792 459.173 85.6352C459.173 87.8052 457.885 89.2612 455.757 89.2612ZM455.757 87.9172C457.213 87.9172 457.717 87.2032 457.717 85.6352C457.717 84.0812 457.213 83.3672 455.757 83.3672C454.287 83.3672 453.769 84.0812 453.769 85.6352C453.769 87.2032 454.287 87.9172 455.757 87.9172ZM461.816 89.1212H460.304V82.1632H461.69V83.4652H461.746C462.068 82.7232 462.81 82.0232 464.168 82.0232C465.974 82.0232 466.786 83.1712 466.786 84.7532V89.1212H465.274V85.0892C465.274 83.8432 464.882 83.3252 463.608 83.3252C462.376 83.3252 461.816 83.8012 461.816 85.1032V89.1212ZM471.063 89.1212C469.509 89.1212 468.697 88.5472 468.697 86.9792V83.4232H467.535V82.1632H468.725L469.047 80.4412H470.209V82.1632H472.309V83.4232H470.209V86.9092C470.209 87.6372 470.517 87.7632 471.455 87.7632H472.309V88.9952C472.015 89.0652 471.539 89.1212 471.063 89.1212ZM474.858 89.1212H473.346V82.1212H474.732V83.2272H474.802C475.082 82.5832 475.726 82.0232 476.748 82.0232C478.204 82.0232 478.764 83.0872 478.764 84.3892V84.8512H477.252V84.5712C477.252 83.6472 476.986 83.3112 476.104 83.3112C475.194 83.3112 474.858 83.6612 474.858 84.5852V89.1212ZM482.923 89.2612C480.781 89.2612 479.451 87.8052 479.451 85.6352C479.451 83.4792 480.781 82.0232 482.923 82.0232C485.051 82.0232 486.339 83.4792 486.339 85.6352C486.339 87.8052 485.051 89.2612 482.923 89.2612ZM482.923 87.9172C484.379 87.9172 484.883 87.2032 484.883 85.6352C484.883 84.0812 484.379 83.3672 482.923 83.3672C481.453 83.3672 480.935 84.0812 480.935 85.6352C480.935 87.2032 481.453 87.9172 482.923 87.9172ZM488.995 89.1212H487.483V79.7412H488.995V89.1212ZM425.544 108.261C422.842 108.261 421.666 107.015 421.666 105.209V104.971H423.15V105.125C423.15 106.287 423.64 106.875 425.6 106.875C426.986 106.875 427.49 106.497 427.49 105.629C427.49 104.775 427.21 104.467 425.768 104.173L424.172 103.851C422.562 103.543 421.694 102.759 421.694 101.275C421.694 99.8892 422.772 98.6012 425.194 98.6012C427.784 98.6012 428.82 100.057 428.82 101.723V101.891H427.336V101.737C427.336 100.589 426.832 99.9872 425.152 99.9872C423.766 99.9872 423.206 100.379 423.206 101.205C423.206 102.059 423.584 102.297 424.872 102.577L426.468 102.913C428.232 103.277 429.002 104.159 429.002 105.573C429.002 107.043 427.938 108.261 425.544 108.261ZM433.169 108.261C430.873 108.261 429.795 106.805 429.795 104.635C429.795 102.479 431.083 101.023 433.155 101.023C435.031 101.023 436.347 102.143 436.347 104.047C436.347 104.411 436.305 104.789 436.263 104.999H431.209C431.265 106.273 431.727 106.917 433.183 106.917C434.345 106.917 434.793 106.525 434.793 105.895V105.783H436.291V105.909C436.291 107.337 435.045 108.261 433.169 108.261ZM433.127 102.297C431.811 102.297 431.307 102.913 431.223 103.991H434.905C434.961 102.801 434.317 102.297 433.127 102.297ZM440.397 108.121C438.843 108.121 438.031 107.547 438.031 105.979V102.423H436.869V101.163H438.059L438.381 99.4412H439.543V101.163H441.643V102.423H439.543V105.909C439.543 106.637 439.851 106.763 440.789 106.763H441.643V107.995C441.349 108.065 440.873 108.121 440.397 108.121ZM446.726 104.649H442.26V103.361H446.726V104.649ZM450.384 108.261C448.564 108.261 447.752 107.043 447.752 105.461V101.163H449.264V105.195C449.264 106.441 449.74 106.959 450.944 106.959C452.106 106.959 452.764 106.455 452.764 105.083V101.163H454.276V108.121H452.876V106.735H452.82C452.484 107.533 451.742 108.261 450.384 108.261ZM457.206 110.543H455.708V101.163H457.08V102.311H457.15C457.472 101.499 458.27 101.023 459.474 101.023C461.434 101.023 462.512 102.437 462.512 104.649C462.512 106.847 461.462 108.261 459.572 108.261C458.326 108.261 457.556 107.687 457.248 107.043H457.206V110.543ZM457.206 105.265C457.206 106.427 457.878 106.973 459.11 106.973C460.44 106.973 461 106.357 461 104.649C461 102.927 460.454 102.311 459.11 102.311C457.878 102.311 457.206 102.857 457.206 104.019V105.265Z" fill="#071B2C"/>
<path d="M443 111.621C443 111.069 442.552 110.621 442 110.621C441.448 110.621 441 111.069 441 111.621H443ZM349.491 280.995C351.251 280.995 353 280.947 354.736 280.851L354.625 278.854C352.926 278.948 351.214 278.995 349.491 278.995V280.995ZM365.161 279.688C368.638 279.101 372.051 278.322 375.387 277.363L374.835 275.441C371.57 276.38 368.231 277.142 364.828 277.716L365.161 279.688ZM385.285 273.899C388.53 272.554 391.683 271.031 394.731 269.342L393.762 267.593C390.779 269.245 387.694 270.735 384.519 272.052L385.285 273.899ZM403.606 263.755C406.461 261.726 409.196 259.54 411.801 257.211L410.468 255.72C407.919 258 405.241 260.139 402.447 262.124L403.606 263.755ZM419.216 249.796C421.545 247.192 423.73 244.456 425.759 241.602L424.129 240.443C422.143 243.236 420.005 245.914 417.725 248.463L419.216 249.796ZM431.347 232.727C433.035 229.678 434.558 226.525 435.904 223.281L434.057 222.514C432.74 225.69 431.25 228.774 429.597 231.757L431.347 232.727ZM439.367 213.383C440.327 210.046 441.106 206.634 441.693 203.156L439.72 202.823C439.146 206.226 438.384 209.566 437.445 212.83L439.367 213.383ZM442.855 192.731C442.951 190.995 443 189.246 443 187.486H441C441 189.209 440.952 190.921 440.858 192.621L442.855 192.731ZM443 187.486V182.745H441V187.486H443ZM443 173.261V163.778H441V173.261H443ZM443 154.295V144.812H441V154.295H443ZM443 135.329V125.846H441V135.329H443ZM443 116.363V111.621H441V116.363H443Z" fill="#5236FF"/>
<circle cx="528" cy="260.854" r="30.9749" fill="#E9E6F6"/>
<path d="M528 273.244C534.843 273.244 540.39 267.697 540.39 260.854C540.39 254.011 534.843 248.464 528 248.464C521.157 248.464 515.61 254.011 515.61 260.854C515.61 267.697 521.157 273.244 528 273.244Z" stroke="#071B2C" stroke-width="1.8585"/>
<path d="M532.956 258.376L534.475 259.686C535.114 260.236 535.434 260.512 535.434 260.854C535.434 261.196 535.114 261.471 534.475 262.022L532.956 263.332" stroke="#5236FF" stroke-width="1.8585" stroke-linecap="round" stroke-linejoin="round"/>
<path d="M523.044 258.376L521.524 259.686C520.885 260.236 520.566 260.512 520.566 260.854C520.566 261.196 520.885 261.471 521.524 262.022L523.044 263.332" stroke="#5236FF" stroke-width="1.8585" stroke-linecap="round" stroke-linejoin="round"/>
<path d="M529.239 257.137L526.761 264.571" stroke="#5236FF" stroke-width="1.8585" stroke-linecap="round" stroke-linejoin="round"/>
<path d="M490.608 310.121H487.276V300.741H490.608C493.506 300.741 495.354 302.533 495.354 305.431C495.354 308.329 493.506 310.121 490.608 310.121ZM490.608 302.099H488.788V308.763H490.608C492.848 308.763 493.744 307.839 493.744 305.431C493.744 303.023 492.848 302.099 490.608 302.099ZM499.652 310.261C497.356 310.261 496.278 308.805 496.278 306.635C496.278 304.479 497.566 303.023 499.638 303.023C501.514 303.023 502.83 304.143 502.83 306.047C502.83 306.411 502.788 306.789 502.746 306.999H497.692C497.748 308.273 498.21 308.917 499.666 308.917C500.828 308.917 501.276 308.525 501.276 307.895V307.783H502.774V307.909C502.774 309.337 501.528 310.261 499.652 310.261ZM499.61 304.297C498.294 304.297 497.79 304.913 497.706 305.991H501.388C501.444 304.801 500.8 304.297 499.61 304.297ZM507.782 310.121H505.878L503.092 303.163H504.772L506.802 308.679H506.9L508.944 303.163H510.582L507.782 310.121ZM514.117 310.261C511.821 310.261 510.743 308.805 510.743 306.635C510.743 304.479 512.031 303.023 514.103 303.023C515.979 303.023 517.295 304.143 517.295 306.047C517.295 306.411 517.253 306.789 517.211 306.999H512.157C512.213 308.273 512.675 308.917 514.131 308.917C515.293 308.917 515.741 308.525 515.741 307.895V307.783H517.239V307.909C517.239 309.337 515.993 310.261 514.117 310.261ZM514.075 304.297C512.759 304.297 512.255 304.913 512.171 305.991H515.853C515.909 304.801 515.265 304.297 514.075 304.297ZM520.027 310.121H518.515V300.741H520.027V310.121ZM524.647 310.261C522.505 310.261 521.175 308.805 521.175 306.635C521.175 304.479 522.505 303.023 524.647 303.023C526.775 303.023 528.063 304.479 528.063 306.635C528.063 308.805 526.775 310.261 524.647 310.261ZM524.647 308.917C526.103 308.917 526.607 308.203 526.607 306.635C526.607 305.081 526.103 304.367 524.647 304.367C523.177 304.367 522.659 305.081 522.659 306.635C522.659 308.203 523.177 308.917 524.647 308.917ZM530.635 312.543H529.137V303.163H530.509V304.311H530.579C530.901 303.499 531.699 303.023 532.903 303.023C534.863 303.023 535.941 304.437 535.941 306.649C535.941 308.847 534.891 310.261 533.001 310.261C531.755 310.261 530.985 309.687 530.677 309.043H530.635V312.543ZM530.635 307.265C530.635 308.427 531.307 308.973 532.539 308.973C533.869 308.973 534.429 308.357 534.429 306.649C534.429 304.927 533.883 304.311 532.539 304.311C531.307 304.311 530.635 304.857 530.635 306.019V307.265ZM538.649 310.121H537.137V303.163H538.523V304.465H538.579C538.901 303.723 539.629 303.023 540.959 303.023C542.177 303.023 542.933 303.583 543.269 304.465H543.311C543.633 303.737 544.347 303.023 545.719 303.023C547.511 303.023 548.309 304.171 548.309 305.753V310.121H546.797V306.089C546.797 304.843 546.419 304.325 545.159 304.325C544.011 304.325 543.479 304.801 543.479 306.075V310.121H541.967V306.089C541.967 304.843 541.589 304.325 540.329 304.325C539.181 304.325 538.649 304.801 538.649 306.061V310.121ZM552.822 310.261C550.526 310.261 549.448 308.805 549.448 306.635C549.448 304.479 550.736 303.023 552.808 303.023C554.684 303.023 556 304.143 556 306.047C556 306.411 555.958 306.789 555.916 306.999H550.862C550.918 308.273 551.38 308.917 552.836 308.917C553.998 308.917 554.446 308.525 554.446 307.895V307.783H555.944V307.909C555.944 309.337 554.698 310.261 552.822 310.261ZM552.78 304.297C551.464 304.297 550.96 304.913 550.876 305.991H554.558C554.614 304.801 553.97 304.297 552.78 304.297ZM558.719 310.121H557.207V303.163H558.593V304.465H558.649C558.971 303.723 559.713 303.023 561.071 303.023C562.877 303.023 563.689 304.171 563.689 305.753V310.121H562.177V306.089C562.177 304.843 561.785 304.325 560.511 304.325C559.279 304.325 558.719 304.801 558.719 306.103V310.121ZM567.967 310.121C566.413 310.121 565.601 309.547 565.601 307.979V304.423H564.439V303.163H565.629L565.951 301.441H567.113V303.163H569.213V304.423H567.113V307.909C567.113 308.637 567.421 308.763 568.359 308.763H569.213V309.995C568.919 310.065 568.443 310.121 567.967 310.121ZM511.203 329.121H509.691V319.741H513.681C515.641 319.741 517.083 320.903 517.083 322.919C517.083 324.935 515.641 326.097 513.681 326.097H511.203V329.121ZM513.863 321.099H511.203V324.739H513.863C515.095 324.739 515.585 324.263 515.585 322.919C515.585 321.575 515.095 321.099 513.863 321.099ZM519.624 329.121H518.112V319.741H519.624V323.325H519.68C520.002 322.695 520.744 322.023 522.004 322.023C523.824 322.023 524.594 323.213 524.594 324.739V329.121H523.082V325.089C523.082 323.843 522.69 323.325 521.416 323.325C520.184 323.325 519.624 323.801 519.624 325.117V329.121ZM527.959 329.261C526.713 329.261 525.747 328.617 525.747 327.399C525.747 326.251 526.587 325.649 528.071 325.439L530.507 325.075V324.697C530.507 323.661 530.031 323.353 528.939 323.353C527.833 323.353 527.399 323.703 527.399 324.627V324.837H525.943V324.697C525.943 323.143 527.161 322.023 529.023 322.023C530.969 322.023 531.949 323.199 531.949 324.893V329.121H530.549V328.029H530.479C530.073 328.687 529.275 329.261 527.959 329.261ZM527.217 327.287C527.217 327.833 527.567 328.057 528.449 328.057C529.429 328.057 530.507 327.665 530.507 326.265V326.139L528.295 326.475C527.497 326.587 527.217 326.769 527.217 327.287ZM536.282 329.261C534.252 329.261 533.188 328.463 533.188 326.769V326.741H534.644V326.993C534.644 327.749 534.98 328.029 536.31 328.029C537.43 328.029 537.64 327.777 537.64 327.259C537.64 326.699 537.304 326.531 536.282 326.349L535.204 326.167C533.958 325.943 533.174 325.383 533.174 324.123C533.174 322.863 534.21 322.023 536.03 322.023C537.668 322.023 538.9 322.835 538.9 324.417V324.543H537.458V324.375C537.458 323.731 537.234 323.269 535.988 323.269C534.882 323.269 534.616 323.563 534.616 324.095C534.616 324.627 534.868 324.781 535.848 324.977L537.024 325.201C538.368 325.467 539.068 326.069 539.068 327.217C539.068 328.505 538.046 329.261 536.282 329.261ZM543.382 329.261C541.086 329.261 540.008 327.805 540.008 325.635C540.008 323.479 541.296 322.023 543.368 322.023C545.244 322.023 546.56 323.143 546.56 325.047C546.56 325.411 546.518 325.789 546.476 325.999H541.422C541.478 327.273 541.94 327.917 543.396 327.917C544.558 327.917 545.006 327.525 545.006 326.895V326.783H546.504V326.909C546.504 328.337 545.258 329.261 543.382 329.261ZM543.34 323.297C542.024 323.297 541.52 323.913 541.436 324.991H545.118C545.174 323.801 544.53 323.297 543.34 323.297Z" fill="#071B2C"/>
<path d="M475.5 280.995C476.052 280.995 476.5 280.548 476.5 279.995C476.5 279.443 476.052 278.995 475.5 278.995V280.995ZM349.491 280.995H354.741V278.995H349.491V280.995ZM365.242 280.995H375.743V278.995H365.242V280.995ZM386.243 280.995H396.744V278.995H386.243V280.995ZM407.245 280.995H417.746V278.995H407.245V280.995ZM428.246 280.995H438.747V278.995H428.246V280.995ZM449.248 280.995H459.749V278.995H449.248V280.995ZM470.25 280.995H475.5V278.995H470.25V280.995Z" fill="#5236FF"/>
<circle cx="439" cy="468.854" r="30.9749" fill="#E9E6F6"/>
<path d="M438.647 464.672C438.834 464.379 439.261 464.379 439.448 464.672L439.987 465.519C440.584 466.457 441.379 467.252 442.316 467.848L443.164 468.388C443.457 468.574 443.457 469.002 443.164 469.189L442.316 469.728C441.379 470.325 440.584 471.12 439.987 472.057L439.448 472.905C439.261 473.198 438.834 473.198 438.647 472.905L438.108 472.057C437.511 471.12 436.716 470.325 435.778 469.728L434.931 469.189C434.638 469.002 434.638 468.574 434.931 468.388L435.778 467.848C436.716 467.252 437.511 466.457 438.108 465.519L438.647 464.672Z" stroke="#5236FF" stroke-width="1.8585" stroke-linejoin="round"/>
<path d="M429.02 460.472C432.693 460.738 435.062 457.019 439.08 457.019C443.038 456.94 444.975 460.522 449.033 460.522C451.208 471.594 446.683 478.549 439.113 480.559C432.097 478.891 426.825 471.864 429.02 460.472Z" stroke="#071B2C" stroke-width="1.8585" stroke-linejoin="round"/>
<path d="M421.031 526.121H419.533V518.099H416.341V516.741H424.223V518.099H421.031V526.121ZM427.312 526.261C425.016 526.261 423.938 524.805 423.938 522.635C423.938 520.479 425.226 519.023 427.298 519.023C429.174 519.023 430.49 520.143 430.49 522.047C430.49 522.411 430.448 522.789 430.406 522.999H425.352C425.408 524.273 425.87 524.917 427.326 524.917C428.488 524.917 428.936 524.525 428.936 523.895V523.783H430.434V523.909C430.434 525.337 429.188 526.261 427.312 526.261ZM427.27 520.297C425.954 520.297 425.45 520.913 425.366 521.991H429.048C429.104 520.801 428.46 520.297 427.27 520.297ZM434.69 526.261C432.66 526.261 431.596 525.463 431.596 523.769V523.741H433.052V523.993C433.052 524.749 433.388 525.029 434.718 525.029C435.838 525.029 436.048 524.777 436.048 524.259C436.048 523.699 435.712 523.531 434.69 523.349L433.612 523.167C432.366 522.943 431.582 522.383 431.582 521.123C431.582 519.863 432.618 519.023 434.438 519.023C436.076 519.023 437.308 519.835 437.308 521.417V521.543H435.866V521.375C435.866 520.731 435.642 520.269 434.396 520.269C433.29 520.269 433.024 520.563 433.024 521.095C433.024 521.627 433.276 521.781 434.256 521.977L435.432 522.201C436.776 522.467 437.476 523.069 437.476 524.217C437.476 525.505 436.454 526.261 434.69 526.261ZM441.526 526.121C439.972 526.121 439.16 525.547 439.16 523.979V520.423H437.998V519.163H439.188L439.51 517.441H440.672V519.163H442.772V520.423H440.672V523.909C440.672 524.637 440.98 524.763 441.918 524.763H442.772V525.995C442.478 526.065 442.002 526.121 441.526 526.121ZM445.169 518.281H443.671L443.657 516.741H445.169V518.281ZM445.183 526.121H443.671V519.121H445.183V526.121ZM448.083 526.121H446.571V519.163H447.957V520.465H448.013C448.335 519.723 449.077 519.023 450.435 519.023C452.241 519.023 453.053 520.171 453.053 521.753V526.121H451.541V522.089C451.541 520.843 451.149 520.325 449.875 520.325C448.643 520.325 448.083 520.801 448.083 522.103V526.121ZM457.175 525.463C455.257 525.463 454.193 524.203 454.193 522.243C454.193 520.283 455.271 519.023 457.231 519.023C458.351 519.023 459.219 519.499 459.555 520.311H459.611V519.163H460.997V525.617C460.997 527.675 459.793 528.641 457.763 528.641C455.789 528.641 454.557 527.703 454.557 526.023H456.055C456.055 526.975 456.405 527.297 457.805 527.297C459.163 527.297 459.499 526.905 459.499 525.617V524.231H459.443C459.121 524.903 458.309 525.463 457.175 525.463ZM455.705 522.243C455.705 523.671 456.293 524.175 457.609 524.175C458.743 524.175 459.499 523.629 459.499 522.453V522.019C459.499 520.857 458.743 520.311 457.581 520.311C456.279 520.311 455.705 520.815 455.705 522.243ZM422.203 545.121H420.691V535.741H424.681C426.641 535.741 428.083 536.903 428.083 538.919C428.083 540.935 426.641 542.097 424.681 542.097H422.203V545.121ZM424.863 537.099H422.203V540.739H424.863C426.095 540.739 426.585 540.263 426.585 538.919C426.585 537.575 426.095 537.099 424.863 537.099ZM430.624 545.121H429.112V535.741H430.624V539.325H430.68C431.002 538.695 431.744 538.023 433.004 538.023C434.824 538.023 435.594 539.213 435.594 540.739V545.121H434.082V541.089C434.082 539.843 433.69 539.325 432.416 539.325C431.184 539.325 430.624 539.801 430.624 541.117V545.121ZM438.959 545.261C437.713 545.261 436.747 544.617 436.747 543.399C436.747 542.251 437.587 541.649 439.071 541.439L441.507 541.075V540.697C441.507 539.661 441.031 539.353 439.939 539.353C438.833 539.353 438.399 539.703 438.399 540.627V540.837H436.943V540.697C436.943 539.143 438.161 538.023 440.023 538.023C441.969 538.023 442.949 539.199 442.949 540.893V545.121H441.549V544.029H441.479C441.073 544.687 440.275 545.261 438.959 545.261ZM438.217 543.287C438.217 543.833 438.567 544.057 439.449 544.057C440.429 544.057 441.507 543.665 441.507 542.265V542.139L439.295 542.475C438.497 542.587 438.217 542.769 438.217 543.287ZM447.282 545.261C445.252 545.261 444.188 544.463 444.188 542.769V542.741H445.644V542.993C445.644 543.749 445.98 544.029 447.31 544.029C448.43 544.029 448.64 543.777 448.64 543.259C448.64 542.699 448.304 542.531 447.282 542.349L446.204 542.167C444.958 541.943 444.174 541.383 444.174 540.123C444.174 538.863 445.21 538.023 447.03 538.023C448.668 538.023 449.9 538.835 449.9 540.417V540.543H448.458V540.375C448.458 539.731 448.234 539.269 446.988 539.269C445.882 539.269 445.616 539.563 445.616 540.095C445.616 540.627 445.868 540.781 446.848 540.977L448.024 541.201C449.368 541.467 450.068 542.069 450.068 543.217C450.068 544.505 449.046 545.261 447.282 545.261ZM454.382 545.261C452.086 545.261 451.008 543.805 451.008 541.635C451.008 539.479 452.296 538.023 454.368 538.023C456.244 538.023 457.56 539.143 457.56 541.047C457.56 541.411 457.518 541.789 457.476 541.999H452.422C452.478 543.273 452.94 543.917 454.396 543.917C455.558 543.917 456.006 543.525 456.006 542.895V542.783H457.504V542.909C457.504 544.337 456.258 545.261 454.382 545.261ZM454.34 539.297C453.024 539.297 452.52 539.913 452.436 540.991H456.118C456.174 539.801 455.53 539.297 454.34 539.297Z" fill="#071B2C"/>
<path d="M438 434.379C438 434.931 438.447 435.379 439 435.379C439.552 435.379 440 434.931 440 434.379H438ZM349.491 280.995C351.157 280.995 352.813 281.041 354.457 281.132L354.567 279.135C352.887 279.042 351.194 278.995 349.491 278.995V280.995ZM364.325 282.233C367.617 282.788 370.846 283.525 374.004 284.433L374.556 282.511C371.327 281.583 368.024 280.829 364.658 280.261L364.325 282.233ZM383.371 287.711C386.442 288.985 389.425 290.426 392.311 292.024L393.28 290.274C390.329 288.64 387.278 287.166 384.137 285.864L383.371 287.711ZM400.711 297.313C403.413 299.234 406.003 301.302 408.468 303.507L409.802 302.016C407.281 299.762 404.633 297.647 401.87 295.683L400.711 297.313ZM415.488 310.527C417.693 312.992 419.761 315.582 421.682 318.284L423.312 317.125C421.348 314.362 419.233 311.714 416.979 309.194L415.488 310.527ZM426.971 326.684C428.569 329.57 430.011 332.554 431.284 335.624L433.131 334.858C431.829 331.718 430.355 328.666 428.721 325.715L426.971 326.684ZM434.562 344.991C435.47 348.149 436.207 351.379 436.762 354.67L438.734 354.337C438.166 350.971 437.412 347.668 436.484 344.439L434.562 344.991ZM437.863 364.538C437.954 366.182 438 367.838 438 369.504H440C440 367.801 439.953 366.108 439.86 364.428L437.863 364.538ZM438 369.504V374.911H440V369.504H438ZM438 385.723V396.535H440V385.723H438ZM438 407.348V418.16H440V407.348H438ZM438 428.973V434.379H440V428.973H438Z" fill="#5236FF"/>
<circle cx="146" cy="468.854" r="30.9749" fill="#E9E6F6"/>
<path d="M142.283 470.093C142.283 470.093 143.522 470.093 144.761 472.571C144.761 472.571 148.696 466.376 152.195 465.137" stroke="#5236FF" stroke-width="1.8585" stroke-linecap="round" stroke-linejoin="round"/>
<path d="M157.151 467.842V464.245C157.151 462.213 157.151 461.197 156.65 460.534C156.149 459.871 155.017 459.55 152.753 458.906C151.206 458.466 149.842 457.937 148.753 457.453C147.268 456.794 146.525 456.464 146 456.464C145.474 456.464 144.732 456.794 143.246 457.453C142.157 457.937 140.793 458.466 139.246 458.906C136.982 459.55 135.85 459.871 135.349 460.534C134.849 461.197 134.849 462.213 134.849 464.245V467.842C134.849 474.811 141.121 478.993 144.258 480.648C145.01 481.045 145.386 481.244 146 481.244C146.613 481.244 146.989 481.045 147.742 480.648C150.878 478.993 157.151 474.811 157.151 467.842Z" stroke="#071B2C" stroke-width="1.8585" stroke-linecap="round"/>
<path d="M110.104 526.121H108.522L112.176 516.741H114.346L118 526.121H116.362L115.41 523.685H111.056L110.104 526.121ZM112.568 519.849L111.588 522.327H114.878L113.898 519.849L113.296 518.113H113.184L112.568 519.849ZM121.734 526.275C119.564 526.275 118.332 524.805 118.332 522.649C118.332 520.479 119.606 519.023 121.79 519.023C123.624 519.023 124.884 520.157 124.884 521.823V521.949H123.386V521.865C123.386 520.843 122.854 520.381 121.692 520.381C120.348 520.381 119.83 521.137 119.83 522.649C119.83 524.161 120.348 524.903 121.692 524.903C122.854 524.903 123.386 524.455 123.386 523.433V523.349H124.884V523.475C124.884 525.127 123.61 526.275 121.734 526.275ZM129.213 526.275C127.043 526.275 125.811 524.805 125.811 522.649C125.811 520.479 127.085 519.023 129.269 519.023C131.103 519.023 132.363 520.157 132.363 521.823V521.949H130.865V521.865C130.865 520.843 130.333 520.381 129.171 520.381C127.827 520.381 127.309 521.137 127.309 522.649C127.309 524.161 127.827 524.903 129.171 524.903C130.333 524.903 130.865 524.455 130.865 523.433V523.349H132.363V523.475C132.363 525.127 131.089 526.275 129.213 526.275ZM136.663 526.261C134.367 526.261 133.289 524.805 133.289 522.635C133.289 520.479 134.577 519.023 136.649 519.023C138.525 519.023 139.841 520.143 139.841 522.047C139.841 522.411 139.799 522.789 139.757 522.999H134.703C134.759 524.273 135.221 524.917 136.677 524.917C137.839 524.917 138.287 524.525 138.287 523.895V523.783H139.785V523.909C139.785 525.337 138.539 526.261 136.663 526.261ZM136.621 520.297C135.305 520.297 134.801 520.913 134.717 521.991H138.399C138.455 520.801 137.811 520.297 136.621 520.297ZM142.49 528.543H140.992V519.163H142.364V520.311H142.434C142.756 519.499 143.554 519.023 144.758 519.023C146.718 519.023 147.796 520.437 147.796 522.649C147.796 524.847 146.746 526.261 144.856 526.261C143.61 526.261 142.84 525.687 142.532 525.043H142.49V528.543ZM142.49 523.265C142.49 524.427 143.162 524.973 144.394 524.973C145.724 524.973 146.284 524.357 146.284 522.649C146.284 520.927 145.738 520.311 144.394 520.311C143.162 520.311 142.49 520.857 142.49 522.019V523.265ZM151.835 526.121C150.281 526.121 149.469 525.547 149.469 523.979V520.423H148.307V519.163H149.497L149.819 517.441H150.981V519.163H153.081V520.423H150.981V523.909C150.981 524.637 151.289 524.763 152.227 524.763H153.081V525.995C152.787 526.065 152.311 526.121 151.835 526.121ZM155.981 526.261C154.735 526.261 153.769 525.617 153.769 524.399C153.769 523.251 154.609 522.649 156.093 522.439L158.529 522.075V521.697C158.529 520.661 158.053 520.353 156.961 520.353C155.855 520.353 155.421 520.703 155.421 521.627V521.837H153.965V521.697C153.965 520.143 155.183 519.023 157.045 519.023C158.991 519.023 159.971 520.199 159.971 521.893V526.121H158.571V525.029H158.501C158.095 525.687 157.297 526.261 155.981 526.261ZM155.239 524.287C155.239 524.833 155.589 525.057 156.471 525.057C157.451 525.057 158.529 524.665 158.529 523.265V523.139L156.317 523.475C155.519 523.587 155.239 523.769 155.239 524.287ZM162.931 526.121H161.419V519.163H162.805V520.465H162.861C163.183 519.723 163.925 519.023 165.283 519.023C167.089 519.023 167.901 520.171 167.901 521.753V526.121H166.389V522.089C166.389 520.843 165.997 520.325 164.723 520.325C163.491 520.325 162.931 520.801 162.931 522.103V526.121ZM172.443 526.275C170.273 526.275 169.041 524.805 169.041 522.649C169.041 520.479 170.315 519.023 172.499 519.023C174.333 519.023 175.593 520.157 175.593 521.823V521.949H174.095V521.865C174.095 520.843 173.563 520.381 172.401 520.381C171.057 520.381 170.539 521.137 170.539 522.649C170.539 524.161 171.057 524.903 172.401 524.903C173.563 524.903 174.095 524.455 174.095 523.433V523.349H175.593V523.475C175.593 525.127 174.319 526.275 172.443 526.275ZM179.894 526.261C177.598 526.261 176.52 524.805 176.52 522.635C176.52 520.479 177.808 519.023 179.88 519.023C181.756 519.023 183.072 520.143 183.072 522.047C183.072 522.411 183.03 522.789 182.988 522.999H177.934C177.99 524.273 178.452 524.917 179.908 524.917C181.07 524.917 181.518 524.525 181.518 523.895V523.783H183.016V523.909C183.016 525.337 181.77 526.261 179.894 526.261ZM179.852 520.297C178.536 520.297 178.032 520.913 177.948 521.991H181.63C181.686 520.801 181.042 520.297 179.852 520.297ZM128.031 545.121H126.533V537.099H123.341V535.741H131.223V537.099H128.031V545.121ZM134.312 545.261C132.016 545.261 130.938 543.805 130.938 541.635C130.938 539.479 132.226 538.023 134.298 538.023C136.174 538.023 137.49 539.143 137.49 541.047C137.49 541.411 137.448 541.789 137.406 541.999H132.352C132.408 543.273 132.87 543.917 134.326 543.917C135.488 543.917 135.936 543.525 135.936 542.895V542.783H137.434V542.909C137.434 544.337 136.188 545.261 134.312 545.261ZM134.27 539.297C132.954 539.297 132.45 539.913 132.366 540.991H136.048C136.104 539.801 135.46 539.297 134.27 539.297ZM141.69 545.261C139.66 545.261 138.596 544.463 138.596 542.769V542.741H140.052V542.993C140.052 543.749 140.388 544.029 141.718 544.029C142.838 544.029 143.048 543.777 143.048 543.259C143.048 542.699 142.712 542.531 141.69 542.349L140.612 542.167C139.366 541.943 138.582 541.383 138.582 540.123C138.582 538.863 139.618 538.023 141.438 538.023C143.076 538.023 144.308 538.835 144.308 540.417V540.543H142.866V540.375C142.866 539.731 142.642 539.269 141.396 539.269C140.29 539.269 140.024 539.563 140.024 540.095C140.024 540.627 140.276 540.781 141.256 540.977L142.432 541.201C143.776 541.467 144.476 542.069 144.476 543.217C144.476 544.505 143.454 545.261 141.69 545.261ZM148.526 545.121C146.972 545.121 146.16 544.547 146.16 542.979V539.423H144.998V538.163H146.188L146.51 536.441H147.672V538.163H149.772V539.423H147.672V542.909C147.672 543.637 147.98 543.763 148.918 543.763H149.772V544.995C149.478 545.065 149.002 545.121 148.526 545.121ZM152.169 537.281H150.671L150.657 535.741H152.169V537.281ZM152.183 545.121H150.671V538.121H152.183V545.121ZM155.083 545.121H153.571V538.163H154.957V539.465H155.013C155.335 538.723 156.077 538.023 157.435 538.023C159.241 538.023 160.053 539.171 160.053 540.753V545.121H158.541V541.089C158.541 539.843 158.149 539.325 156.875 539.325C155.643 539.325 155.083 539.801 155.083 541.103V545.121ZM164.175 544.463C162.257 544.463 161.193 543.203 161.193 541.243C161.193 539.283 162.271 538.023 164.231 538.023C165.351 538.023 166.219 538.499 166.555 539.311H166.611V538.163H167.997V544.617C167.997 546.675 166.793 547.641 164.763 547.641C162.789 547.641 161.557 546.703 161.557 545.023H163.055C163.055 545.975 163.405 546.297 164.805 546.297C166.163 546.297 166.499 545.905 166.499 544.617V543.231H166.443C166.121 543.903 165.309 544.463 164.175 544.463ZM162.705 541.243C162.705 542.671 163.293 543.175 164.609 543.175C165.743 543.175 166.499 542.629 166.499 541.453V541.019C166.499 539.857 165.743 539.311 164.581 539.311C163.279 539.311 162.705 539.815 162.705 541.243Z" fill="#071B2C"/>
<circle cx="39.4998" cy="252.854" r="30.9749" fill="#E9E6F6"/>
<path d="M51.8898 252.854C51.8898 246.011 46.3426 240.464 39.4998 240.464C32.657 240.464 27.1099 246.011 27.1099 252.854C27.1099 259.697 32.657 265.244 39.4998 265.244C46.3426 265.244 51.8898 259.697 51.8898 252.854Z" stroke="#071B2C" stroke-width="1.8585"/>
<path d="M39.997 248.267L43.6148 247.061C44.7128 246.695 45.2619 246.512 45.5517 246.802C45.8415 247.092 45.6585 247.641 45.2924 248.739L44.0864 252.356C43.4627 254.228 43.1509 255.163 42.48 255.834C41.809 256.505 40.8735 256.817 39.0023 257.441L35.3846 258.646C34.2866 259.013 33.7375 259.196 33.4477 258.906C33.1579 258.616 33.3409 258.067 33.7069 256.969L34.9129 253.351C35.5366 251.48 35.8484 250.544 36.5194 249.873C37.1903 249.203 38.1259 248.891 39.997 248.267Z" stroke="#5236FF" stroke-width="1.8585" stroke-linecap="round" stroke-linejoin="round"/>
<path d="M39.4996 252.854L39.4917 252.862" stroke="#5236FF" stroke-width="2.47799" stroke-linecap="round" stroke-linejoin="round"/>
<path d="M12.2459 310.121H8.91388V300.741H12.2459C15.1439 300.741 16.9919 302.533 16.9919 305.431C16.9919 308.329 15.1439 310.121 12.2459 310.121ZM12.2459 302.099H10.4259V308.763H12.2459C14.4859 308.763 15.3819 307.839 15.3819 305.431C15.3819 303.023 14.4859 302.099 12.2459 302.099ZM19.6648 302.281H18.1668L18.1528 300.741H19.6648V302.281ZM19.6788 310.121H18.1668V303.121H19.6788V310.121ZM23.9522 310.261C21.9222 310.261 20.8582 309.463 20.8582 307.769V307.741H22.3142V307.993C22.3142 308.749 22.6502 309.029 23.9802 309.029C25.1002 309.029 25.3102 308.777 25.3102 308.259C25.3102 307.699 24.9742 307.531 23.9522 307.349L22.8742 307.167C21.6282 306.943 20.8442 306.383 20.8442 305.123C20.8442 303.863 21.8802 303.023 23.7002 303.023C25.3382 303.023 26.5702 303.835 26.5702 305.417V305.543H25.1282V305.375C25.1282 304.731 24.9042 304.269 23.6582 304.269C22.5522 304.269 22.2862 304.563 22.2862 305.095C22.2862 305.627 22.5382 305.781 23.5182 305.977L24.6942 306.201C26.0382 306.467 26.7382 307.069 26.7382 308.217C26.7382 309.505 25.7162 310.261 23.9522 310.261ZM31.0798 310.275C28.9098 310.275 27.6778 308.805 27.6778 306.649C27.6778 304.479 28.9518 303.023 31.1358 303.023C32.9698 303.023 34.2298 304.157 34.2298 305.823V305.949H32.7318V305.865C32.7318 304.843 32.1998 304.381 31.0378 304.381C29.6938 304.381 29.1758 305.137 29.1758 306.649C29.1758 308.161 29.6938 308.903 31.0378 308.903C32.1998 308.903 32.7318 308.455 32.7318 307.433V307.349H34.2298V307.475C34.2298 309.127 32.9558 310.275 31.0798 310.275ZM38.6283 310.261C36.4863 310.261 35.1563 308.805 35.1563 306.635C35.1563 304.479 36.4863 303.023 38.6283 303.023C40.7563 303.023 42.0443 304.479 42.0443 306.635C42.0443 308.805 40.7563 310.261 38.6283 310.261ZM38.6283 308.917C40.0843 308.917 40.5883 308.203 40.5883 306.635C40.5883 305.081 40.0843 304.367 38.6283 304.367C37.1583 304.367 36.6403 305.081 36.6403 306.635C36.6403 308.203 37.1583 308.917 38.6283 308.917ZM46.9195 310.121H45.0155L42.2295 303.163H43.9095L45.9395 308.679H46.0375L48.0815 303.163H49.7195L46.9195 310.121ZM53.2549 310.261C50.9589 310.261 49.8809 308.805 49.8809 306.635C49.8809 304.479 51.1689 303.023 53.2409 303.023C55.1169 303.023 56.4329 304.143 56.4329 306.047C56.4329 306.411 56.3909 306.789 56.3489 306.999H51.2949C51.3509 308.273 51.8129 308.917 53.2689 308.917C54.4309 308.917 54.8789 308.525 54.8789 307.895V307.783H56.3769V307.909C56.3769 309.337 55.1309 310.261 53.2549 310.261ZM53.2129 304.297C51.8969 304.297 51.3929 304.913 51.3089 305.991H54.9909C55.0469 304.801 54.4029 304.297 53.2129 304.297ZM59.1515 310.121H57.6395V303.121H59.0255V304.227H59.0955C59.3755 303.583 60.0195 303.023 61.0415 303.023C62.4975 303.023 63.0575 304.087 63.0575 305.389V305.851H61.5455V305.571C61.5455 304.647 61.2795 304.311 60.3975 304.311C59.4875 304.311 59.1515 304.661 59.1515 305.585V310.121ZM65.1595 312.501C64.7815 312.501 64.3475 312.445 64.1095 312.375V311.143H65.0615C65.6635 311.143 65.8735 311.045 66.0975 310.527L66.3635 309.939L63.4095 303.163H65.0755L66.4755 306.537L67.1055 308.049H67.2175L67.7915 306.537L69.0655 303.163H70.7315L67.4415 310.947C66.9235 312.179 66.2515 312.501 65.1595 312.501ZM22.7032 329.121H21.1912V319.741H25.1812C27.1412 319.741 28.5832 320.903 28.5832 322.919C28.5832 324.935 27.1412 326.097 25.1812 326.097H22.7032V329.121ZM25.3632 321.099H22.7032V324.739H25.3632C26.5952 324.739 27.0852 324.263 27.0852 322.919C27.0852 321.575 26.5952 321.099 25.3632 321.099ZM31.1241 329.121H29.6121V319.741H31.1241V323.325H31.1801C31.5021 322.695 32.2441 322.023 33.5041 322.023C35.3241 322.023 36.0941 323.213 36.0941 324.739V329.121H34.5821V325.089C34.5821 323.843 34.1901 323.325 32.9161 323.325C31.6841 323.325 31.1241 323.801 31.1241 325.117V329.121ZM39.4595 329.261C38.2135 329.261 37.2475 328.617 37.2475 327.399C37.2475 326.251 38.0875 325.649 39.5715 325.439L42.0075 325.075V324.697C42.0075 323.661 41.5315 323.353 40.4395 323.353C39.3335 323.353 38.8995 323.703 38.8995 324.627V324.837H37.4435V324.697C37.4435 323.143 38.6615 322.023 40.5235 322.023C42.4695 322.023 43.4495 323.199 43.4495 324.893V329.121H42.0495V328.029H41.9795C41.5735 328.687 40.7755 329.261 39.4595 329.261ZM38.7175 327.287C38.7175 327.833 39.0675 328.057 39.9495 328.057C40.9295 328.057 42.0075 327.665 42.0075 326.265V326.139L39.7955 326.475C38.9975 326.587 38.7175 326.769 38.7175 327.287ZM47.7823 329.261C45.7523 329.261 44.6883 328.463 44.6883 326.769V326.741H46.1443V326.993C46.1443 327.749 46.4803 328.029 47.8103 328.029C48.9303 328.029 49.1403 327.777 49.1403 327.259C49.1403 326.699 48.8043 326.531 47.7823 326.349L46.7043 326.167C45.4583 325.943 44.6743 325.383 44.6743 324.123C44.6743 322.863 45.7103 322.023 47.5303 322.023C49.1683 322.023 50.4003 322.835 50.4003 324.417V324.543H48.9583V324.375C48.9583 323.731 48.7343 323.269 47.4883 323.269C46.3823 323.269 46.1163 323.563 46.1163 324.095C46.1163 324.627 46.3683 324.781 47.3483 324.977L48.5243 325.201C49.8683 325.467 50.5683 326.069 50.5683 327.217C50.5683 328.505 49.5463 329.261 47.7823 329.261ZM54.8819 329.261C52.5859 329.261 51.5079 327.805 51.5079 325.635C51.5079 323.479 52.7959 322.023 54.8679 322.023C56.7439 322.023 58.0599 323.143 58.0599 325.047C58.0599 325.411 58.0179 325.789 57.9759 325.999H52.9219C52.9779 327.273 53.4399 327.917 54.8959 327.917C56.0579 327.917 56.5059 327.525 56.5059 326.895V326.783H58.0039V326.909C58.0039 328.337 56.7579 329.261 54.8819 329.261ZM54.8399 323.297C53.5239 323.297 53.0199 323.913 52.9359 324.991H56.6179C56.6739 323.801 56.0299 323.297 54.8399 323.297Z" fill="#071B2C"/>
<circle cx="151" cy="31.8538" r="30.9749" fill="#E9E6F6"/>
<path d="M138.927 36.3541C138.969 35.9536 139.259 35.6309 139.84 34.9855L141.117 33.5573C141.429 33.1619 141.651 32.4733 141.651 31.8535C141.651 31.2343 141.429 30.5454 141.117 30.1502L139.84 28.722C139.259 28.0765 138.969 27.7538 138.927 27.3533C138.885 26.9529 139.102 26.5767 139.535 25.8243L140.147 24.763C140.609 23.9603 140.841 23.559 141.234 23.3989C141.628 23.2389 142.073 23.3652 142.963 23.6178L144.474 24.0436C145.043 24.1746 145.639 24.1003 146.158 23.8337L146.575 23.5929C147.02 23.3079 147.362 22.8878 147.552 22.3939L147.965 21.1582C148.237 20.3404 148.373 19.9316 148.697 19.6977C149.021 19.4638 149.451 19.4638 150.311 19.4638H151.693C152.553 19.4638 152.983 19.4638 153.307 19.6977C153.631 19.9316 153.767 20.3404 154.039 21.1582L154.453 22.3939C154.642 22.8878 154.984 23.3079 155.429 23.5929L155.847 23.8337C156.365 24.1003 156.962 24.1746 157.53 24.0436L159.042 23.6178C159.932 23.3652 160.377 23.2389 160.77 23.3989C161.164 23.559 161.395 23.9603 161.857 24.763L162.469 25.8243C162.903 26.5767 163.119 26.9529 163.077 27.3533C163.035 27.7538 162.745 28.0765 162.165 28.722L160.887 30.1502C160.575 30.5454 160.353 31.2343 160.353 31.8535C160.353 32.4733 160.575 33.1619 160.887 33.5573L162.165 34.9855C162.745 35.6309 163.035 35.9536 163.077 36.3541C163.119 36.7546 162.903 37.1308 162.469 37.8831L161.857 38.9444C161.395 39.7471 161.164 40.1485 160.77 40.3084C160.377 40.4685 159.932 40.3423 159.042 40.0896L157.53 39.6638C156.962 39.5327 156.365 39.6072 155.846 39.8738L155.429 40.1147C154.984 40.3996 154.642 40.8197 154.453 41.3135L154.039 42.5494C153.767 43.3672 153.631 43.776 153.307 44.0098C152.983 44.2437 152.553 44.2438 151.693 44.2438H150.311C149.451 44.2438 149.021 44.2437 148.697 44.0098C148.373 43.776 148.237 43.3672 147.965 42.5494" stroke="#071B2C" stroke-width="1.8585" stroke-linecap="round"/>
<path d="M139.523 40.254C140.861 38.9159 145.41 34.4109 145.857 33.8905C146.328 33.3404 145.946 32.597 146.173 30.2924C146.283 29.1773 146.523 28.3419 147.209 27.7203C148.027 26.9471 148.696 26.9471 151.001 26.8951C153.008 26.9471 153.246 26.7241 153.454 27.2445C153.603 27.6162 153.157 27.8392 152.621 28.4339C151.432 29.6234 150.733 30.2181 150.666 30.5898C150.183 32.2253 152.086 33.1917 153.127 32.1509C153.52 31.7573 155.342 29.9207 155.521 29.7721C155.655 29.6531 155.975 29.6588 156.13 29.8464C156.264 29.9778 156.279 29.9951 156.264 30.5898C156.25 31.1403 156.256 31.9306 156.258 32.7456C156.26 33.8016 156.205 34.9758 155.759 35.5706C154.867 36.9087 153.38 36.983 152.042 37.0425C150.778 37.1168 149.737 36.983 149.41 37.2209C149.142 37.3547 147.73 38.8415 146.02 40.5513L142.972 43.5993C140.445 45.6064 137.664 42.4842 139.523 40.254Z" stroke="#5236FF" stroke-width="1.8585" stroke-linecap="round"/>
<path d="M127.736 89.1212H126.224V79.7412H130.214C132.174 79.7412 133.616 80.9032 133.616 82.9192C133.616 84.9352 132.174 86.0972 130.214 86.0972H127.736V89.1212ZM130.396 81.0992H127.736V84.7392H130.396C131.628 84.7392 132.118 84.2632 132.118 82.9192C132.118 81.5752 131.628 81.0992 130.396 81.0992ZM136.13 89.1212H134.618V82.1212H136.004V83.2272H136.074C136.354 82.5832 136.998 82.0232 138.02 82.0232C139.476 82.0232 140.036 83.0872 140.036 84.3892V84.8512H138.524V84.5712C138.524 83.6472 138.258 83.3112 137.376 83.3112C136.466 83.3112 136.13 83.6612 136.13 84.5852V89.1212ZM144.195 89.2612C142.053 89.2612 140.723 87.8052 140.723 85.6352C140.723 83.4792 142.053 82.0232 144.195 82.0232C146.323 82.0232 147.611 83.4792 147.611 85.6352C147.611 87.8052 146.323 89.2612 144.195 89.2612ZM144.195 87.9172C145.651 87.9172 146.155 87.2032 146.155 85.6352C146.155 84.0812 145.651 83.3672 144.195 83.3672C142.725 83.3672 142.207 84.0812 142.207 85.6352C142.207 87.2032 142.725 87.9172 144.195 87.9172ZM151.595 89.2612C149.607 89.2612 148.529 87.8472 148.529 85.6352C148.529 83.4372 149.593 82.0232 151.511 82.0232C152.743 82.0232 153.485 82.6112 153.793 83.2412H153.835V79.7412H155.333V89.1212H153.947V87.9732H153.891C153.555 88.7712 152.785 89.2612 151.595 89.2612ZM150.041 85.6352C150.041 87.3572 150.587 87.9732 151.931 87.9732C153.163 87.9732 153.835 87.4272 153.835 86.2652V85.0192C153.835 83.8572 153.163 83.3112 151.931 83.3112C150.601 83.3112 150.041 83.9272 150.041 85.6352ZM159.411 89.2612C157.591 89.2612 156.779 88.0432 156.779 86.4612V82.1632H158.291V86.1952C158.291 87.4412 158.767 87.9592 159.971 87.9592C161.133 87.9592 161.791 87.4552 161.791 86.0832V82.1632H163.303V89.1212H161.903V87.7352H161.847C161.511 88.5332 160.769 89.2612 159.411 89.2612ZM167.886 89.2752C165.716 89.2752 164.484 87.8052 164.484 85.6492C164.484 83.4792 165.758 82.0232 167.942 82.0232C169.776 82.0232 171.036 83.1572 171.036 84.8232V84.9492H169.538V84.8652C169.538 83.8432 169.006 83.3812 167.844 83.3812C166.5 83.3812 165.982 84.1372 165.982 85.6492C165.982 87.1612 166.5 87.9032 167.844 87.9032C169.006 87.9032 169.538 87.4552 169.538 86.4332V86.3492H171.036V86.4752C171.036 88.1272 169.762 89.2752 167.886 89.2752ZM175.018 89.1212C173.464 89.1212 172.652 88.5472 172.652 86.9792V83.4232H171.49V82.1632H172.68L173.002 80.4412H174.164V82.1632H176.264V83.4232H174.164V86.9092C174.164 87.6372 174.472 87.7632 175.41 87.7632H176.264V88.9952C175.97 89.0652 175.494 89.1212 175.018 89.1212ZM129.254 108.121H127.742V98.7412H131.774C133.846 98.7412 135.148 99.7632 135.148 101.541C135.148 103.095 134.196 104.033 132.544 104.117V104.229C133.23 104.453 133.636 104.873 133.986 105.517L135.386 108.121H133.636L132.306 105.699C131.872 104.887 131.48 104.509 130.36 104.509H129.254V108.121ZM129.254 100.099V103.263H131.956C133.174 103.263 133.636 102.815 133.636 101.681C133.636 100.575 133.174 100.099 131.956 100.099H129.254ZM139.134 108.261C136.838 108.261 135.76 106.805 135.76 104.635C135.76 102.479 137.048 101.023 139.12 101.023C140.996 101.023 142.312 102.143 142.312 104.047C142.312 104.411 142.27 104.789 142.228 104.999H137.174C137.23 106.273 137.692 106.917 139.148 106.917C140.31 106.917 140.758 106.525 140.758 105.895V105.783H142.256V105.909C142.256 107.337 141.01 108.261 139.134 108.261ZM139.092 102.297C137.776 102.297 137.272 102.913 137.188 103.991H140.87C140.926 102.801 140.282 102.297 139.092 102.297ZM145.044 108.121H143.532V98.7412H145.044V108.121ZM149.565 108.261C147.269 108.261 146.191 106.805 146.191 104.635C146.191 102.479 147.479 101.023 149.551 101.023C151.427 101.023 152.743 102.143 152.743 104.047C152.743 104.411 152.701 104.789 152.659 104.999H147.605C147.661 106.273 148.123 106.917 149.579 106.917C150.741 106.917 151.189 106.525 151.189 105.895V105.783H152.687V105.909C152.687 107.337 151.441 108.261 149.565 108.261ZM149.523 102.297C148.207 102.297 147.703 102.913 147.619 103.991H151.301C151.357 102.801 150.713 102.297 149.523 102.297ZM155.909 108.261C154.663 108.261 153.697 107.617 153.697 106.399C153.697 105.251 154.537 104.649 156.021 104.439L158.457 104.075V103.697C158.457 102.661 157.981 102.353 156.889 102.353C155.783 102.353 155.349 102.703 155.349 103.627V103.837H153.893V103.697C153.893 102.143 155.111 101.023 156.973 101.023C158.919 101.023 159.899 102.199 159.899 103.893V108.121H158.499V107.029H158.429C158.023 107.687 157.225 108.261 155.909 108.261ZM155.167 106.287C155.167 106.833 155.517 107.057 156.399 107.057C157.379 107.057 158.457 106.665 158.457 105.265V105.139L156.245 105.475C155.447 105.587 155.167 105.769 155.167 106.287ZM164.231 108.261C162.201 108.261 161.137 107.463 161.137 105.769V105.741H162.593V105.993C162.593 106.749 162.929 107.029 164.259 107.029C165.379 107.029 165.589 106.777 165.589 106.259C165.589 105.699 165.253 105.531 164.231 105.349L163.153 105.167C161.907 104.943 161.123 104.383 161.123 103.123C161.123 101.863 162.159 101.023 163.979 101.023C165.617 101.023 166.849 101.835 166.849 103.417V103.543H165.407V103.375C165.407 102.731 165.183 102.269 163.937 102.269C162.831 102.269 162.565 102.563 162.565 103.095C162.565 103.627 162.817 103.781 163.797 103.977L164.973 104.201C166.317 104.467 167.017 105.069 167.017 106.217C167.017 107.505 165.995 108.261 164.231 108.261ZM171.331 108.261C169.035 108.261 167.957 106.805 167.957 104.635C167.957 102.479 169.245 101.023 171.317 101.023C173.193 101.023 174.509 102.143 174.509 104.047C174.509 104.411 174.467 104.789 174.425 104.999H169.371C169.427 106.273 169.889 106.917 171.345 106.917C172.507 106.917 172.955 106.525 172.955 105.895V105.783H174.453V105.909C174.453 107.337 173.207 108.261 171.331 108.261ZM171.289 102.297C169.973 102.297 169.469 102.913 169.385 103.991H173.067C173.123 102.801 172.479 102.297 171.289 102.297Z" fill="#071B2C"/>
<path d="M152 111.621C152 111.069 151.552 110.621 151 110.621C150.448 110.621 150 111.069 150 111.621H152ZM150 111.621V116.165H152V111.621H150ZM150 125.252V134.34H152V125.252H150ZM150 143.427V152.515H152V143.427H150ZM150 161.602V170.689H152V161.602H150ZM150 179.777V188.864H152V179.777H150ZM150 197.952V202.495H152V197.952H150ZM150 202.495C150 204.222 150.056 205.935 150.166 207.633L152.161 207.504C152.054 205.849 152 204.178 152 202.495H150ZM151.494 217.814C152.165 221.206 153.054 224.518 154.147 227.737L156.041 227.095C154.976 223.958 154.11 220.731 153.456 217.426L151.494 217.814ZM158.08 237.223C159.603 240.306 161.323 243.274 163.223 246.112L164.885 244.999C163.033 242.234 161.358 239.341 159.873 236.337L158.08 237.223ZM169.48 254.255C171.74 256.83 174.166 259.256 176.741 261.516L178.06 260.012C175.55 257.81 173.186 255.445 170.983 252.935L169.48 254.255ZM184.883 267.773C187.721 269.672 190.689 271.392 193.772 272.915L194.658 271.122C191.654 269.638 188.761 267.962 185.996 266.111L184.883 267.773ZM203.258 276.849C206.477 277.941 209.79 278.83 213.181 279.501L213.569 277.539C210.265 276.886 207.037 276.019 203.901 274.955L203.258 276.849ZM223.362 280.83C225.061 280.94 226.774 280.995 228.5 280.995V278.995C226.817 278.995 225.147 278.941 223.491 278.834L223.362 280.83Z" fill="#5236FF"/>
<path d="M145 434.379C145 434.931 145.448 435.379 146 435.379C146.552 435.379 147 434.931 147 434.379H145ZM147 434.379V429.886H145V434.379H147ZM147 420.901V411.915H145V420.901H147ZM147 402.93V393.944H145V402.93H147ZM147 384.959V375.974H145V384.959H147ZM147 366.988V362.496H145V366.988H147ZM147 362.496C147 360.702 147.058 358.923 147.172 357.159L145.176 357.03C145.059 358.837 145 360.659 145 362.496H147ZM148.551 346.589C149.248 343.068 150.171 339.63 151.305 336.288L149.411 335.646C148.249 339.07 147.303 342.593 146.589 346.201L148.551 346.589ZM155.388 326.442C156.969 323.241 158.755 320.16 160.727 317.213L159.065 316.101C157.044 319.119 155.215 322.277 153.595 325.556L155.388 326.442ZM167.224 308.759C169.57 306.085 172.089 303.566 174.763 301.219L173.444 299.716C170.705 302.12 168.125 304.7 165.721 307.439L167.224 308.759ZM183.218 294.722C186.164 292.75 189.246 290.965 192.446 289.383L191.56 287.59C188.281 289.21 185.124 291.04 182.105 293.06L183.218 294.722ZM202.293 285.3C205.634 284.166 209.073 283.243 212.593 282.547L212.205 280.585C208.598 281.298 205.074 282.244 201.65 283.406L202.293 285.3ZM223.164 281.167C224.928 281.053 226.707 280.995 228.5 280.995V278.995C226.664 278.995 224.842 279.055 223.035 279.171L223.164 281.167Z" fill="#5236FF"/>
<path d="M82.5 278.995C81.9477 278.995 81.5 279.443 81.5 279.995C81.5 280.548 81.9477 280.995 82.5 280.995V278.995ZM82.5 280.995H87.7143V278.995H82.5V280.995ZM98.1429 280.995H108.571V278.995H98.1429V280.995ZM119 280.995H129.429V278.995H119V280.995ZM139.857 280.995H150.286V278.995H139.857V280.995ZM160.714 280.995H171.143V278.995H160.714V280.995ZM181.571 280.995H192V278.995H181.571V280.995ZM202.429 280.995H212.857V278.995H202.429V280.995ZM223.286 280.995H228.5V278.995H223.286V280.995Z" fill="#5236FF"/>
<defs>
<filter id="filter0_d_6724_9844" x="229.729" y="240" width="118.532" height="84.5322" filterUnits="userSpaceOnUse" color-interpolation-filters="sRGB">
<feFlood flood-opacity="0" result="BackgroundImageFix"/>
<feColorMatrix in="SourceAlpha" type="matrix" values="0 0 0 0 0 0 0 0 0 0 0 0 0 0 0 0 0 0 127 0" result="hardAlpha"/>
<feOffset dy="2.27074"/>
<feGaussianBlur stdDeviation="1.13537"/>
<feComposite in2="hardAlpha" operator="out"/>
<feColorMatrix type="matrix" values="0 0 0 0 0 0 0 0 0 0.631373 0 0 0 0 0.878431 0 0 0 0.25 0"/>
<feBlend mode="normal" in2="BackgroundImageFix" result="effect1_dropShadow_6724_9844"/>
<feBlend mode="normal" in="SourceGraphic" in2="effect1_dropShadow_6724_9844" result="shape"/>
</filter>
<clipPath id="clip0_6724_9844">
<rect width="114" height="80" fill="white" transform="translate(232 240)"/>
</clipPath>
</defs>
</svg>
