<svg width="91" height="25" viewBox="0 0 91 25" fill="none" xmlns="http://www.w3.org/2000/svg">
<mask id="mask0_10223_10345" style="mask-type:luminance" maskUnits="userSpaceOnUse" x="0" y="0" width="20" height="25">
<path d="M0.28125 0.794434H19.4805V24.7944H0.28125V0.794434Z" fill="white"/>
</mask>
<g mask="url(#mask0_10223_10345)">
<path d="M18.4888 24.8211C18.649 24.8211 18.8117 24.782 18.9621 24.6992C19.4407 24.4375 19.616 23.8374 19.3539 23.3592C18.3086 21.4501 17.1263 20.4334 15.6334 20.1598C14.3338 19.9217 13.0668 20.3045 11.7255 20.7102C10.0345 21.221 8.2864 21.7497 6.25253 21.1032C4.1037 20.4199 2.77347 19.318 2.40616 17.9156C2.04374 16.5319 2.66992 15.2205 3.32423 14.5074C4.21214 13.6676 5.2888 13.3851 6.70994 13.6179C8.10988 13.8474 9.62193 14.5323 11.0838 15.1948C12.2111 15.7056 13.2759 16.1883 14.2853 16.4659C14.3159 16.4745 14.3472 16.4814 14.3786 16.4867C15.1512 16.6204 15.9225 16.5397 16.6098 16.2543C17.2955 15.9689 17.85 15.5034 18.2128 14.9078C18.8846 13.8054 18.7774 12.4687 17.9274 11.326C16.6775 9.44703 14.1972 8.81065 11.7985 8.19507C10.2673 7.80207 8.82086 7.43069 7.87873 6.7886C7.25051 6.36014 6.64593 5.71765 6.92437 4.20193C7.10375 3.22678 7.50123 3.02336 7.63209 2.9565C8.18612 2.67276 9.22975 2.84153 10.4238 3.40779C10.9167 3.64138 11.5054 3.43143 11.739 2.93897C11.9726 2.44609 11.763 1.85742 11.2701 1.62341C9.99903 1.02087 8.18 0.457474 6.73236 1.19821C5.80695 1.67193 5.21786 2.56269 4.98223 3.84481C4.61818 5.82528 5.21868 7.36464 6.7666 8.4201C7.99451 9.25746 9.6786 9.68959 11.3072 10.1079C13.3533 10.6329 15.4692 11.176 16.2931 12.4353C16.3053 12.454 16.3183 12.4724 16.3318 12.4903C16.5951 12.838 16.8422 13.3619 16.5267 13.88C16.2637 14.311 15.618 14.6803 14.7602 14.5482C13.9123 14.3085 12.9339 13.865 11.8988 13.3961C10.3199 12.6807 8.68714 11.9408 7.02915 11.6688C6.06786 11.5115 5.21052 11.5298 4.40823 11.7247C3.48811 11.9489 2.65647 12.4116 1.93733 13.101C1.92388 13.114 1.91124 13.1271 1.8986 13.1405C1.29199 13.7912 0.832138 14.5992 0.568782 15.4781C0.274851 16.4598 0.249576 17.4757 0.496217 18.4162C0.877797 19.874 2.08287 21.8496 5.65407 22.985C8.27132 23.817 10.5033 23.1423 12.2967 22.6001C13.4508 22.2516 14.4475 21.9499 15.2776 22.1024C15.8198 22.2018 16.653 22.5386 17.6221 24.3079C17.8014 24.6356 18.1398 24.8211 18.4888 24.8211Z" fill="white"/>
</g>
<path d="M28.0186 20.6117C26.9987 20.6117 26.0582 20.4342 25.197 20.0791C24.3434 19.7241 23.6484 19.1839 23.112 18.4587C22.5832 17.7335 22.2999 16.8119 22.2622 15.6938H24.8911C24.8911 16.2604 25.0308 16.725 25.3103 17.0876C25.5898 17.4502 25.9638 17.7222 26.4321 17.9035C26.9081 18.0772 27.4293 18.1641 27.9959 18.1641C28.5398 18.1641 29.0233 18.0923 29.4463 17.9488C29.8769 17.8053 30.2131 17.6013 30.4548 17.3369C30.7041 17.065 30.8288 16.7439 30.8288 16.3737C30.8288 15.8827 30.6777 15.4974 30.3755 15.2179C30.0809 14.9384 29.605 14.6816 28.9477 14.4474L26.0469 13.2916C24.9137 12.8459 24.045 12.3284 23.4406 11.7392C22.8363 11.1499 22.5341 10.3378 22.5341 9.30288C22.5341 8.1093 23.0063 7.14234 23.9506 6.40202C24.8948 5.66169 26.2131 5.29153 27.9052 5.29153C29.5521 5.29153 30.825 5.6768 31.724 6.44734C32.6229 7.21033 33.1328 8.27549 33.2537 9.64282H30.6248C30.5266 9.06114 30.2622 8.59655 29.8316 8.24905C29.401 7.894 28.7589 7.71647 27.9052 7.71647C27.1498 7.71647 26.553 7.87511 26.1149 8.19239C25.6767 8.50212 25.4576 8.89495 25.4576 9.37087C25.4576 9.7788 25.5936 10.1036 25.8656 10.3454C26.1451 10.5796 26.5757 10.8062 27.1574 11.0253L30.3755 12.2717C31.4633 12.6948 32.2981 13.2274 32.8798 13.8695C33.4615 14.5116 33.7523 15.3161 33.7523 16.2831C33.7523 17.1669 33.5294 17.9337 33.0837 18.5834C32.638 19.2255 31.9884 19.7241 31.1347 20.0791C30.2811 20.4342 29.2424 20.6117 28.0186 20.6117ZM35.5811 5.58615H38.5726L42.1307 17.9375H41.4508L44.9636 6.56066H46.7766L50.4254 17.7562H49.8135L53.5529 5.58615H56.567L51.5132 20.2944H48.703L45.8248 11.6145H46.0741L43.1959 20.2944H40.3856L35.5811 5.58615ZM59.0212 20.2944V5.58615H61.6954V20.2944H59.0212ZM66.0396 20.2944V5.58615H71.4788C73.2389 5.58615 74.5874 5.99786 75.5241 6.82128C76.4684 7.6447 76.9405 8.73631 76.9405 10.0961C76.9405 11.4332 76.4684 12.5135 75.5241 13.3369C74.5874 14.1528 73.2389 14.5607 71.4788 14.5607H68.7139V20.2944H66.0396ZM73.9943 20.2944L70.0963 13.4049H72.9518L77.4844 20.2944H73.9943ZM68.7139 12.7703H71.2068C72.1889 12.7703 72.933 12.5475 73.4391 12.1018C73.9452 11.6485 74.1983 11.063 74.1983 10.3454C74.1983 9.61261 73.9679 9.02337 73.5071 8.57766C73.0463 8.1244 72.3702 7.89777 71.4788 7.89777H68.7139V12.7703ZM83.4121 5.58615V17.9601H89.4631V20.2944H80.7378V5.58615H83.4121Z" fill="white"/>
</svg>
