<svg width="623" height="550" viewBox="0 0 623 550" fill="none" xmlns="http://www.w3.org/2000/svg">
<circle cx="311" cy="250.818" r="246.5" stroke="#5236FF" stroke-width="3" stroke-dasharray="16 16"/>
<circle cx="433" cy="31.7932" r="30.9749" fill="#E9E6F6"/>
<path d="M425.676 35.9938C425.207 34.9399 424.946 33.7674 424.946 32.5319C424.946 27.9432 428.552 24.2233 433 24.2233C437.447 24.2233 441.053 27.9432 441.053 32.5319C441.053 33.7674 440.792 34.9399 440.323 35.9938" stroke="#5236FF" stroke-width="1.86" stroke-linecap="round"/>
<path d="M433 19.8868V21.1258" stroke="#5236FF" stroke-width="1.86" stroke-linecap="round" stroke-linejoin="round"/>
<path d="M445.39 32.2768H444.151" stroke="#5236FF" stroke-width="1.86" stroke-linecap="round" stroke-linejoin="round"/>
<path d="M421.849 32.2768H420.61" stroke="#5236FF" stroke-width="1.86" stroke-linecap="round" stroke-linejoin="round"/>
<path d="M441.76 23.5155L440.884 24.3916" stroke="#5236FF" stroke-width="1.86" stroke-linecap="round" stroke-linejoin="round"/>
<path d="M425.116 24.3928L424.24 23.5167" stroke="#5236FF" stroke-width="1.86" stroke-linecap="round" stroke-linejoin="round"/>
<path d="M436.118 41.3294C437.37 40.9245 437.872 39.7786 438.014 38.6261C438.056 38.2818 437.772 37.9962 437.425 37.9962L428.635 37.9965C428.276 37.9965 427.988 38.301 428.03 38.6572C428.169 39.8075 428.518 40.6478 429.845 41.3294M436.118 41.3294C436.118 41.3294 430.063 41.3294 429.845 41.3294M436.118 41.3294C435.968 43.7392 435.272 44.6936 433.008 44.6669C430.587 44.7116 430.03 43.5319 429.845 41.3294" stroke="#071B2C" stroke-width="1.86" stroke-linecap="round" stroke-linejoin="round"/>
<rect width="120" height="44" transform="translate(373 72.0606)" fill="white"/>
<path d="M402.244 89.0606H400.732V79.6806H402.244V89.0606ZM406.416 89.2006C404.428 89.2006 403.35 87.7866 403.35 85.5746C403.35 83.3766 404.414 81.9626 406.332 81.9626C407.564 81.9626 408.306 82.5506 408.614 83.1806H408.656V79.6806H410.154V89.0606H408.768V87.9126H408.712C408.376 88.7106 407.606 89.2006 406.416 89.2006ZM404.862 85.5746C404.862 87.2966 405.408 87.9126 406.752 87.9126C407.984 87.9126 408.656 87.3666 408.656 86.2046V84.9586C408.656 83.7966 407.984 83.2506 406.752 83.2506C405.422 83.2506 404.862 83.8666 404.862 85.5746ZM414.681 89.2006C412.385 89.2006 411.307 87.7446 411.307 85.5746C411.307 83.4186 412.595 81.9626 414.667 81.9626C416.543 81.9626 417.859 83.0826 417.859 84.9866C417.859 85.3506 417.817 85.7286 417.775 85.9386H412.721C412.777 87.2126 413.239 87.8566 414.695 87.8566C415.857 87.8566 416.305 87.4646 416.305 86.8346V86.7226H417.803V86.8486C417.803 88.2766 416.557 89.2006 414.681 89.2006ZM414.639 83.2366C413.323 83.2366 412.819 83.8526 412.735 84.9306H416.417C416.473 83.7406 415.829 83.2366 414.639 83.2366ZM421.024 89.2006C419.778 89.2006 418.812 88.5566 418.812 87.3386C418.812 86.1906 419.652 85.5886 421.136 85.3786L423.572 85.0146V84.6366C423.572 83.6006 423.096 83.2926 422.004 83.2926C420.898 83.2926 420.464 83.6426 420.464 84.5666V84.7766H419.008V84.6366C419.008 83.0826 420.226 81.9626 422.088 81.9626C424.034 81.9626 425.014 83.1386 425.014 84.8326V89.0606H423.614V87.9686H423.544C423.138 88.6266 422.34 89.2006 421.024 89.2006ZM420.282 87.2266C420.282 87.7726 420.632 87.9966 421.514 87.9966C422.494 87.9966 423.572 87.6046 423.572 86.2046V86.0786L421.36 86.4146C420.562 86.5266 420.282 86.7086 420.282 87.2266ZM429.292 89.0606C427.738 89.0606 426.926 88.4866 426.926 86.9186V83.3626H425.764V82.1026H426.954L427.276 80.3806H428.438V82.1026H430.538V83.3626H428.438V86.8486C428.438 87.5766 428.746 87.7026 429.684 87.7026H430.538V88.9346C430.244 89.0046 429.768 89.0606 429.292 89.0606ZM432.934 81.2206H431.436L431.422 79.6806H432.934V81.2206ZM432.948 89.0606H431.436V82.0606H432.948V89.0606ZM437.46 89.2006C435.318 89.2006 433.988 87.7446 433.988 85.5746C433.988 83.4186 435.318 81.9626 437.46 81.9626C439.588 81.9626 440.876 83.4186 440.876 85.5746C440.876 87.7446 439.588 89.2006 437.46 89.2006ZM437.46 87.8566C438.916 87.8566 439.42 87.1426 439.42 85.5746C439.42 84.0206 438.916 83.3066 437.46 83.3066C435.99 83.3066 435.472 84.0206 435.472 85.5746C435.472 87.1426 435.99 87.8566 437.46 87.8566ZM443.519 89.0606H442.007V82.1026H443.393V83.4046H443.449C443.771 82.6626 444.513 81.9626 445.871 81.9626C447.677 81.9626 448.489 83.1106 448.489 84.6926V89.0606H446.977V85.0286C446.977 83.7826 446.585 83.2646 445.311 83.2646C444.079 83.2646 443.519 83.7406 443.519 85.0426V89.0606ZM455.767 89.2006C453.625 89.2006 452.295 87.7446 452.295 85.5746C452.295 83.4186 453.625 81.9626 455.767 81.9626C457.895 81.9626 459.183 83.4186 459.183 85.5746C459.183 87.7446 457.895 89.2006 455.767 89.2006ZM455.767 87.8566C457.223 87.8566 457.727 87.1426 457.727 85.5746C457.727 84.0206 457.223 83.3066 455.767 83.3066C454.297 83.3066 453.779 84.0206 453.779 85.5746C453.779 87.1426 454.297 87.8566 455.767 87.8566ZM461.825 89.0606H460.313V82.0606H461.699V83.1666H461.769C462.049 82.5226 462.693 81.9626 463.715 81.9626C465.171 81.9626 465.731 83.0266 465.731 84.3286V84.7906H464.219V84.5106C464.219 83.5866 463.953 83.2506 463.071 83.2506C462.161 83.2506 461.825 83.6006 461.825 84.5246V89.0606ZM385.334 108.061H382.002V98.6806H385.334C388.232 98.6806 390.08 100.473 390.08 103.371C390.08 106.269 388.232 108.061 385.334 108.061ZM385.334 100.039H383.514V106.703H385.334C387.574 106.703 388.47 105.779 388.47 103.371C388.47 100.963 387.574 100.039 385.334 100.039ZM392.753 100.221H391.255L391.241 98.6806H392.753V100.221ZM392.767 108.061H391.255V101.061H392.767V108.061ZM397.04 108.201C395.01 108.201 393.946 107.403 393.946 105.709V105.681H395.402V105.933C395.402 106.689 395.738 106.969 397.068 106.969C398.188 106.969 398.398 106.717 398.398 106.199C398.398 105.639 398.062 105.471 397.04 105.289L395.962 105.107C394.716 104.883 393.932 104.323 393.932 103.063C393.932 101.803 394.968 100.963 396.788 100.963C398.426 100.963 399.658 101.775 399.658 103.357V103.483H398.216V103.315C398.216 102.671 397.992 102.209 396.746 102.209C395.64 102.209 395.374 102.503 395.374 103.035C395.374 103.567 395.626 103.721 396.606 103.917L397.782 104.141C399.126 104.407 399.826 105.009 399.826 106.157C399.826 107.445 398.804 108.201 397.04 108.201ZM404.168 108.215C401.998 108.215 400.766 106.745 400.766 104.589C400.766 102.419 402.04 100.963 404.224 100.963C406.058 100.963 407.318 102.097 407.318 103.763V103.889H405.82V103.805C405.82 102.783 405.288 102.321 404.126 102.321C402.782 102.321 402.264 103.077 402.264 104.589C402.264 106.101 402.782 106.843 404.126 106.843C405.288 106.843 405.82 106.395 405.82 105.373V105.289H407.318V105.415C407.318 107.067 406.044 108.215 404.168 108.215ZM411.716 108.201C409.574 108.201 408.244 106.745 408.244 104.575C408.244 102.419 409.574 100.963 411.716 100.963C413.844 100.963 415.132 102.419 415.132 104.575C415.132 106.745 413.844 108.201 411.716 108.201ZM411.716 106.857C413.172 106.857 413.676 106.143 413.676 104.575C413.676 103.021 413.172 102.307 411.716 102.307C410.246 102.307 409.728 103.021 409.728 104.575C409.728 106.143 410.246 106.857 411.716 106.857ZM420.007 108.061H418.103L415.317 101.103H416.997L419.027 106.619H419.125L421.169 101.103H422.807L420.007 108.061ZM426.343 108.201C424.047 108.201 422.969 106.745 422.969 104.575C422.969 102.419 424.257 100.963 426.329 100.963C428.205 100.963 429.521 102.083 429.521 103.987C429.521 104.351 429.479 104.729 429.437 104.939H424.383C424.439 106.213 424.901 106.857 426.357 106.857C427.519 106.857 427.967 106.465 427.967 105.835V105.723H429.465V105.849C429.465 107.277 428.219 108.201 426.343 108.201ZM426.301 102.237C424.985 102.237 424.481 102.853 424.397 103.931H428.079C428.135 102.741 427.491 102.237 426.301 102.237ZM432.239 108.061H430.727V101.061H432.113V102.167H432.183C432.463 101.523 433.107 100.963 434.129 100.963C435.585 100.963 436.145 102.027 436.145 103.329V103.791H434.633V103.511C434.633 102.587 434.367 102.251 433.485 102.251C432.575 102.251 432.239 102.601 432.239 103.525V108.061ZM438.247 110.441C437.869 110.441 437.435 110.385 437.197 110.315V109.083H438.149C438.751 109.083 438.961 108.985 439.185 108.467L439.451 107.879L436.497 101.103H438.163L439.563 104.477L440.193 105.989H440.305L440.879 104.477L442.153 101.103H443.819L440.529 108.887C440.011 110.119 439.339 110.441 438.247 110.441ZM448.893 108.061H447.381V98.6806H451.371C453.331 98.6806 454.773 99.8426 454.773 101.859C454.773 103.875 453.331 105.037 451.371 105.037H448.893V108.061ZM451.553 100.039H448.893V103.679H451.553C452.785 103.679 453.275 103.203 453.275 101.859C453.275 100.515 452.785 100.039 451.553 100.039ZM457.314 108.061H455.802V98.6806H457.314V102.265H457.37C457.692 101.635 458.434 100.963 459.694 100.963C461.514 100.963 462.284 102.153 462.284 103.679V108.061H460.772V104.029C460.772 102.783 460.38 102.265 459.106 102.265C457.874 102.265 457.314 102.741 457.314 104.057V108.061ZM465.649 108.201C464.403 108.201 463.437 107.557 463.437 106.339C463.437 105.191 464.277 104.589 465.761 104.379L468.197 104.015V103.637C468.197 102.601 467.721 102.293 466.629 102.293C465.523 102.293 465.089 102.643 465.089 103.567V103.777H463.633V103.637C463.633 102.083 464.851 100.963 466.713 100.963C468.659 100.963 469.639 102.139 469.639 103.833V108.061H468.239V106.969H468.169C467.763 107.627 466.965 108.201 465.649 108.201ZM464.907 106.227C464.907 106.773 465.257 106.997 466.139 106.997C467.119 106.997 468.197 106.605 468.197 105.205V105.079L465.985 105.415C465.187 105.527 464.907 105.709 464.907 106.227ZM473.972 108.201C471.942 108.201 470.878 107.403 470.878 105.709V105.681H472.334V105.933C472.334 106.689 472.67 106.969 474 106.969C475.12 106.969 475.33 106.717 475.33 106.199C475.33 105.639 474.994 105.471 473.972 105.289L472.894 105.107C471.648 104.883 470.864 104.323 470.864 103.063C470.864 101.803 471.9 100.963 473.72 100.963C475.358 100.963 476.59 101.775 476.59 103.357V103.483H475.148V103.315C475.148 102.671 474.924 102.209 473.678 102.209C472.572 102.209 472.306 102.503 472.306 103.035C472.306 103.567 472.558 103.721 473.538 103.917L474.714 104.141C476.058 104.407 476.758 105.009 476.758 106.157C476.758 107.445 475.736 108.201 473.972 108.201ZM481.071 108.201C478.775 108.201 477.697 106.745 477.697 104.575C477.697 102.419 478.985 100.963 481.057 100.963C482.933 100.963 484.249 102.083 484.249 103.987C484.249 104.351 484.207 104.729 484.165 104.939H479.111C479.167 106.213 479.629 106.857 481.085 106.857C482.247 106.857 482.695 106.465 482.695 105.835V105.723H484.193V105.849C484.193 107.277 482.947 108.201 481.071 108.201ZM481.029 102.237C479.713 102.237 479.209 102.853 479.125 103.931H482.807C482.863 102.741 482.219 102.237 481.029 102.237Z" fill="#071B2C"/>
<circle cx="567.5" cy="256.793" r="30.9749" fill="#E9E6F6"/>
<path d="M556.661 245.642V267.944" stroke="#071B2C" stroke-width="1.8585" stroke-linecap="round" stroke-linejoin="round"/>
<path d="M572.768 245.642V254.935" stroke="#071B2C" stroke-width="1.8585" stroke-linecap="round" stroke-linejoin="round"/>
<path d="M564.715 245.642V250.598" stroke="#071B2C" stroke-width="1.8585" stroke-linecap="round" stroke-linejoin="round"/>
<path d="M564.715 254.315V259.271" stroke="#071B2C" stroke-width="1.8585" stroke-linecap="round" stroke-linejoin="round"/>
<path d="M564.715 262.988V267.944" stroke="#071B2C" stroke-width="1.8585" stroke-linecap="round" stroke-linejoin="round"/>
<path d="M576.933 258.576L577.793 259.434C578.521 260.16 578.521 261.337 577.793 262.063L573.286 266.642C572.932 266.995 572.478 267.233 571.985 267.325L569.192 267.93C568.751 268.025 568.359 267.635 568.453 267.195L569.048 264.425C569.14 263.934 569.379 263.482 569.733 263.128L574.297 258.576C575.025 257.851 576.205 257.851 576.933 258.576Z" stroke="#5236FF" stroke-width="1.8585" stroke-linecap="round" stroke-linejoin="round"/>
<rect width="111" height="25" transform="translate(512 297.061)" fill="white"/>
<path d="M522.724 314.061H521.212V304.681H525.202C527.162 304.681 528.604 305.843 528.604 307.859C528.604 309.875 527.162 311.037 525.202 311.037H522.724V314.061ZM525.384 306.039H522.724V309.679H525.384C526.616 309.679 527.106 309.203 527.106 307.859C527.106 306.515 526.616 306.039 525.384 306.039ZM531.145 314.061H529.633V304.681H531.145V314.061ZM534.462 314.201C533.216 314.201 532.25 313.557 532.25 312.339C532.25 311.191 533.09 310.589 534.574 310.379L537.01 310.015V309.637C537.01 308.601 536.534 308.293 535.442 308.293C534.336 308.293 533.902 308.643 533.902 309.567V309.777H532.446V309.637C532.446 308.083 533.664 306.963 535.526 306.963C537.472 306.963 538.452 308.139 538.452 309.833V314.061H537.052V312.969H536.982C536.576 313.627 535.778 314.201 534.462 314.201ZM533.72 312.227C533.72 312.773 534.07 312.997 534.952 312.997C535.932 312.997 537.01 312.605 537.01 311.205V311.079L534.798 311.415C534 311.527 533.72 311.709 533.72 312.227ZM541.412 314.061H539.9V307.103H541.286V308.405H541.342C541.664 307.663 542.406 306.963 543.764 306.963C545.57 306.963 546.382 308.111 546.382 309.693V314.061H544.87V310.029C544.87 308.783 544.478 308.265 543.204 308.265C541.972 308.265 541.412 308.741 541.412 310.043V314.061ZM549.342 314.061H547.83V307.103H549.216V308.405H549.272C549.594 307.663 550.336 306.963 551.694 306.963C553.5 306.963 554.312 308.111 554.312 309.693V314.061H552.8V310.029C552.8 308.783 552.408 308.265 551.134 308.265C549.902 308.265 549.342 308.741 549.342 310.043V314.061ZM557.174 306.221H555.676L555.662 304.681H557.174V306.221ZM557.188 314.061H555.676V307.061H557.188V314.061ZM560.088 314.061H558.576V307.103H559.962V308.405H560.018C560.34 307.663 561.082 306.963 562.44 306.963C564.246 306.963 565.058 308.111 565.058 309.693V314.061H563.546V310.029C563.546 308.783 563.154 308.265 561.88 308.265C560.648 308.265 560.088 308.741 560.088 310.043V314.061ZM569.18 313.403C567.262 313.403 566.198 312.143 566.198 310.183C566.198 308.223 567.276 306.963 569.236 306.963C570.356 306.963 571.224 307.439 571.56 308.251H571.616V307.103H573.002V313.557C573.002 315.615 571.798 316.581 569.768 316.581C567.794 316.581 566.562 315.643 566.562 313.963H568.06C568.06 314.915 568.41 315.237 569.81 315.237C571.168 315.237 571.504 314.845 571.504 313.557V312.171H571.448C571.126 312.843 570.314 313.403 569.18 313.403ZM567.71 310.183C567.71 311.611 568.298 312.115 569.614 312.115C570.748 312.115 571.504 311.569 571.504 310.393V309.959C571.504 308.797 570.748 308.251 569.586 308.251C568.284 308.251 567.71 308.755 567.71 310.183ZM578.683 314.061H577.171V304.681H581.161C583.121 304.681 584.563 305.843 584.563 307.859C584.563 309.875 583.121 311.037 581.161 311.037H578.683V314.061ZM581.343 306.039H578.683V309.679H581.343C582.575 309.679 583.065 309.203 583.065 307.859C583.065 306.515 582.575 306.039 581.343 306.039ZM587.104 314.061H585.592V304.681H587.104V308.265H587.16C587.482 307.635 588.224 306.963 589.484 306.963C591.304 306.963 592.074 308.153 592.074 309.679V314.061H590.562V310.029C590.562 308.783 590.17 308.265 588.896 308.265C587.664 308.265 587.104 308.741 587.104 310.057V314.061ZM595.439 314.201C594.193 314.201 593.227 313.557 593.227 312.339C593.227 311.191 594.067 310.589 595.551 310.379L597.987 310.015V309.637C597.987 308.601 597.511 308.293 596.419 308.293C595.313 308.293 594.879 308.643 594.879 309.567V309.777H593.423V309.637C593.423 308.083 594.641 306.963 596.503 306.963C598.449 306.963 599.429 308.139 599.429 309.833V314.061H598.029V312.969H597.959C597.553 313.627 596.755 314.201 595.439 314.201ZM594.697 312.227C594.697 312.773 595.047 312.997 595.929 312.997C596.909 312.997 597.987 312.605 597.987 311.205V311.079L595.775 311.415C594.977 311.527 594.697 311.709 594.697 312.227ZM603.762 314.201C601.732 314.201 600.668 313.403 600.668 311.709V311.681H602.124V311.933C602.124 312.689 602.46 312.969 603.79 312.969C604.91 312.969 605.12 312.717 605.12 312.199C605.12 311.639 604.784 311.471 603.762 311.289L602.684 311.107C601.438 310.883 600.654 310.323 600.654 309.063C600.654 307.803 601.69 306.963 603.51 306.963C605.148 306.963 606.38 307.775 606.38 309.357V309.483H604.938V309.315C604.938 308.671 604.714 308.209 603.468 308.209C602.362 308.209 602.096 308.503 602.096 309.035C602.096 309.567 602.348 309.721 603.328 309.917L604.504 310.141C605.848 310.407 606.548 311.009 606.548 312.157C606.548 313.445 605.526 314.201 603.762 314.201ZM610.861 314.201C608.565 314.201 607.487 312.745 607.487 310.575C607.487 308.419 608.775 306.963 610.847 306.963C612.723 306.963 614.039 308.083 614.039 309.987C614.039 310.351 613.997 310.729 613.955 310.939H608.901C608.957 312.213 609.419 312.857 610.875 312.857C612.037 312.857 612.485 312.465 612.485 311.835V311.723H613.983V311.849C613.983 313.277 612.737 314.201 610.861 314.201ZM610.819 308.237C609.503 308.237 608.999 308.853 608.915 309.931H612.597C612.653 308.741 612.009 308.237 610.819 308.237Z" fill="#071B2C"/>
<circle cx="424" cy="464.793" r="30.9749" fill="#E9E6F6"/>
<path d="M424.98 460.788L430.794 463.063C434.148 464.376 435.825 465.032 435.769 466.073C435.713 467.113 433.964 467.591 430.464 468.545C429.422 468.829 428.901 468.971 428.539 469.333C428.178 469.694 428.036 470.215 427.752 471.257C426.797 474.757 426.32 476.507 425.279 476.562C424.239 476.618 423.582 474.941 422.27 471.588L419.995 465.773C418.621 462.262 417.934 460.507 418.824 459.617C419.713 458.727 421.469 459.414 424.98 460.788Z" stroke="#071B2C" stroke-width="1.8585" stroke-linejoin="round"/>
<path d="M414.707 453.023H413.468C412.784 453.023 412.229 453.577 412.229 454.262V455.501C412.229 456.185 412.784 456.74 413.468 456.74H414.707C415.392 456.74 415.946 456.185 415.946 455.501V454.262C415.946 453.577 415.392 453.023 414.707 453.023Z" stroke="#5236FF" stroke-width="1.8585" stroke-linecap="round" stroke-linejoin="round"/>
<path d="M414.707 466.652H413.468C412.784 466.652 412.229 467.206 412.229 467.891V469.13C412.229 469.814 412.784 470.369 413.468 470.369H414.707C415.392 470.369 415.946 469.814 415.946 469.13V467.891C415.946 467.206 415.392 466.652 414.707 466.652Z" stroke="#5236FF" stroke-width="1.8585" stroke-linecap="round" stroke-linejoin="round"/>
<path d="M428.336 453.023H427.097C426.413 453.023 425.858 453.577 425.858 454.262V455.501C425.858 456.185 426.413 456.74 427.097 456.74H428.336C429.021 456.74 429.575 456.185 429.575 455.501V454.262C429.575 453.577 429.021 453.023 428.336 453.023Z" stroke="#5236FF" stroke-width="1.8585" stroke-linecap="round" stroke-linejoin="round"/>
<path d="M425.858 454.881H415.946M414.088 456.74V466.652" stroke="#5236FF" stroke-width="1.8585" stroke-linecap="round" stroke-linejoin="round"/>
<rect width="100" height="25" transform="translate(374 505.061)" fill="white"/>
<path d="M386.478 522.061H383.146V512.681H386.478C389.376 512.681 391.224 514.473 391.224 517.371C391.224 520.269 389.376 522.061 386.478 522.061ZM386.478 514.039H384.658V520.703H386.478C388.718 520.703 389.614 519.779 389.614 517.371C389.614 514.963 388.718 514.039 386.478 514.039ZM395.523 522.201C393.227 522.201 392.149 520.745 392.149 518.575C392.149 516.419 393.437 514.963 395.509 514.963C397.385 514.963 398.701 516.083 398.701 517.987C398.701 518.351 398.659 518.729 398.617 518.939H393.563C393.619 520.213 394.081 520.857 395.537 520.857C396.699 520.857 397.147 520.465 397.147 519.835V519.723H398.645V519.849C398.645 521.277 397.399 522.201 395.523 522.201ZM395.481 516.237C394.165 516.237 393.661 516.853 393.577 517.931H397.259C397.315 516.741 396.671 516.237 395.481 516.237ZM402.901 522.201C400.871 522.201 399.807 521.403 399.807 519.709V519.681H401.263V519.933C401.263 520.689 401.599 520.969 402.929 520.969C404.049 520.969 404.259 520.717 404.259 520.199C404.259 519.639 403.923 519.471 402.901 519.289L401.823 519.107C400.577 518.883 399.793 518.323 399.793 517.063C399.793 515.803 400.829 514.963 402.649 514.963C404.287 514.963 405.519 515.775 405.519 517.357V517.483H404.077V517.315C404.077 516.671 403.853 516.209 402.607 516.209C401.501 516.209 401.235 516.503 401.235 517.035C401.235 517.567 401.487 517.721 402.467 517.917L403.643 518.141C404.987 518.407 405.687 519.009 405.687 520.157C405.687 521.445 404.665 522.201 402.901 522.201ZM408.28 514.221H406.782L406.768 512.681H408.28V514.221ZM408.294 522.061H406.782V515.061H408.294V522.061ZM412.316 521.403C410.398 521.403 409.334 520.143 409.334 518.183C409.334 516.223 410.412 514.963 412.372 514.963C413.492 514.963 414.36 515.439 414.696 516.251H414.752V515.103H416.138V521.557C416.138 523.615 414.934 524.581 412.904 524.581C410.93 524.581 409.698 523.643 409.698 521.963H411.196C411.196 522.915 411.546 523.237 412.946 523.237C414.304 523.237 414.64 522.845 414.64 521.557V520.171H414.584C414.262 520.843 413.45 521.403 412.316 521.403ZM410.846 518.183C410.846 519.611 411.434 520.115 412.75 520.115C413.884 520.115 414.64 519.569 414.64 518.393V517.959C414.64 516.797 413.884 516.251 412.722 516.251C411.42 516.251 410.846 516.755 410.846 518.183ZM419.138 522.061H417.626V515.103H419.012V516.405H419.068C419.39 515.663 420.132 514.963 421.49 514.963C423.296 514.963 424.108 516.111 424.108 517.693V522.061H422.596V518.029C422.596 516.783 422.204 516.265 420.93 516.265C419.698 516.265 419.138 516.741 419.138 518.043V522.061ZM429.748 522.061H428.236V512.681H432.226C434.186 512.681 435.628 513.843 435.628 515.859C435.628 517.875 434.186 519.037 432.226 519.037H429.748V522.061ZM432.408 514.039H429.748V517.679H432.408C433.64 517.679 434.13 517.203 434.13 515.859C434.13 514.515 433.64 514.039 432.408 514.039ZM438.169 522.061H436.657V512.681H438.169V516.265H438.225C438.547 515.635 439.289 514.963 440.549 514.963C442.369 514.963 443.139 516.153 443.139 517.679V522.061H441.627V518.029C441.627 516.783 441.235 516.265 439.961 516.265C438.729 516.265 438.169 516.741 438.169 518.057V522.061ZM446.504 522.201C445.258 522.201 444.292 521.557 444.292 520.339C444.292 519.191 445.132 518.589 446.616 518.379L449.052 518.015V517.637C449.052 516.601 448.576 516.293 447.484 516.293C446.378 516.293 445.944 516.643 445.944 517.567V517.777H444.488V517.637C444.488 516.083 445.706 514.963 447.568 514.963C449.514 514.963 450.494 516.139 450.494 517.833V522.061H449.094V520.969H449.024C448.618 521.627 447.82 522.201 446.504 522.201ZM445.762 520.227C445.762 520.773 446.112 520.997 446.994 520.997C447.974 520.997 449.052 520.605 449.052 519.205V519.079L446.84 519.415C446.042 519.527 445.762 519.709 445.762 520.227ZM454.827 522.201C452.797 522.201 451.733 521.403 451.733 519.709V519.681H453.189V519.933C453.189 520.689 453.525 520.969 454.855 520.969C455.975 520.969 456.185 520.717 456.185 520.199C456.185 519.639 455.849 519.471 454.827 519.289L453.749 519.107C452.503 518.883 451.719 518.323 451.719 517.063C451.719 515.803 452.755 514.963 454.575 514.963C456.213 514.963 457.445 515.775 457.445 517.357V517.483H456.003V517.315C456.003 516.671 455.779 516.209 454.533 516.209C453.427 516.209 453.161 516.503 453.161 517.035C453.161 517.567 453.413 517.721 454.393 517.917L455.569 518.141C456.913 518.407 457.613 519.009 457.613 520.157C457.613 521.445 456.591 522.201 454.827 522.201ZM461.927 522.201C459.631 522.201 458.553 520.745 458.553 518.575C458.553 516.419 459.841 514.963 461.913 514.963C463.789 514.963 465.105 516.083 465.105 517.987C465.105 518.351 465.063 518.729 465.021 518.939H459.967C460.023 520.213 460.485 520.857 461.941 520.857C463.103 520.857 463.551 520.465 463.551 519.835V519.723H465.049V519.849C465.049 521.277 463.803 522.201 461.927 522.201ZM461.885 516.237C460.569 516.237 460.065 516.853 459.981 517.931H463.663C463.719 516.741 463.075 516.237 461.885 516.237Z" fill="#071B2C"/>
<circle cx="174" cy="464.914" r="30.9749" fill="#E9E6F6"/>
<path d="M180.063 459.973L182.342 462.265C183.301 463.228 183.78 463.71 183.78 464.309C183.78 464.908 183.301 465.39 182.342 466.353L180.063 468.646" stroke="#071B2C" stroke-width="1.8585" stroke-linecap="round" stroke-linejoin="round"/>
<path d="M167.673 459.973L165.393 462.265C164.435 463.228 163.956 463.71 163.956 464.309C163.956 464.908 164.435 465.39 165.393 466.353L167.673 468.646" stroke="#071B2C" stroke-width="1.8585" stroke-linecap="round" stroke-linejoin="round"/>
<path d="M176.965 455.017L170.77 474.84" stroke="#5236FF" stroke-width="1.8585" stroke-linecap="round" stroke-linejoin="round"/>
<rect width="100" height="44" transform="translate(124 505.182)" fill="white"/>
<path d="M136.608 522.182H133.276V512.802H136.608C139.506 512.802 141.354 514.594 141.354 517.492C141.354 520.39 139.506 522.182 136.608 522.182ZM136.608 514.16H134.788V520.824H136.608C138.848 520.824 139.744 519.9 139.744 517.492C139.744 515.084 138.848 514.16 136.608 514.16ZM145.652 522.322C143.356 522.322 142.278 520.866 142.278 518.696C142.278 516.54 143.566 515.084 145.638 515.084C147.514 515.084 148.83 516.204 148.83 518.108C148.83 518.472 148.788 518.85 148.746 519.06H143.692C143.748 520.334 144.21 520.978 145.666 520.978C146.828 520.978 147.276 520.586 147.276 519.956V519.844H148.774V519.97C148.774 521.398 147.528 522.322 145.652 522.322ZM145.61 516.358C144.294 516.358 143.79 516.974 143.706 518.052H147.388C147.444 516.862 146.8 516.358 145.61 516.358ZM153.782 522.182H151.878L149.092 515.224H150.772L152.802 520.74H152.9L154.944 515.224H156.582L153.782 522.182ZM160.117 522.322C157.821 522.322 156.743 520.866 156.743 518.696C156.743 516.54 158.031 515.084 160.103 515.084C161.979 515.084 163.295 516.204 163.295 518.108C163.295 518.472 163.253 518.85 163.211 519.06H158.157C158.213 520.334 158.675 520.978 160.131 520.978C161.293 520.978 161.741 520.586 161.741 519.956V519.844H163.239V519.97C163.239 521.398 161.993 522.322 160.117 522.322ZM160.075 516.358C158.759 516.358 158.255 516.974 158.171 518.052H161.853C161.909 516.862 161.265 516.358 160.075 516.358ZM166.027 522.182H164.515V512.802H166.027V522.182ZM170.647 522.322C168.505 522.322 167.175 520.866 167.175 518.696C167.175 516.54 168.505 515.084 170.647 515.084C172.775 515.084 174.063 516.54 174.063 518.696C174.063 520.866 172.775 522.322 170.647 522.322ZM170.647 520.978C172.103 520.978 172.607 520.264 172.607 518.696C172.607 517.142 172.103 516.428 170.647 516.428C169.177 516.428 168.659 517.142 168.659 518.696C168.659 520.264 169.177 520.978 170.647 520.978ZM176.635 524.604H175.137V515.224H176.509V516.372H176.579C176.901 515.56 177.699 515.084 178.903 515.084C180.863 515.084 181.941 516.498 181.941 518.71C181.941 520.908 180.891 522.322 179.001 522.322C177.755 522.322 176.985 521.748 176.677 521.104H176.635V524.604ZM176.635 519.326C176.635 520.488 177.307 521.034 178.539 521.034C179.869 521.034 180.429 520.418 180.429 518.71C180.429 516.988 179.883 516.372 178.539 516.372C177.307 516.372 176.635 516.918 176.635 518.08V519.326ZM184.649 522.182H183.137V515.224H184.523V516.526H184.579C184.901 515.784 185.629 515.084 186.959 515.084C188.177 515.084 188.933 515.644 189.269 516.526H189.311C189.633 515.798 190.347 515.084 191.719 515.084C193.511 515.084 194.309 516.232 194.309 517.814V522.182H192.797V518.15C192.797 516.904 192.419 516.386 191.159 516.386C190.011 516.386 189.479 516.862 189.479 518.136V522.182H187.967V518.15C187.967 516.904 187.589 516.386 186.329 516.386C185.181 516.386 184.649 516.862 184.649 518.122V522.182ZM198.822 522.322C196.526 522.322 195.448 520.866 195.448 518.696C195.448 516.54 196.736 515.084 198.808 515.084C200.684 515.084 202 516.204 202 518.108C202 518.472 201.958 518.85 201.916 519.06H196.862C196.918 520.334 197.38 520.978 198.836 520.978C199.998 520.978 200.446 520.586 200.446 519.956V519.844H201.944V519.97C201.944 521.398 200.698 522.322 198.822 522.322ZM198.78 516.358C197.464 516.358 196.96 516.974 196.876 518.052H200.558C200.614 516.862 199.97 516.358 198.78 516.358ZM204.719 522.182H203.207V515.224H204.593V516.526H204.649C204.971 515.784 205.713 515.084 207.071 515.084C208.877 515.084 209.689 516.232 209.689 517.814V522.182H208.177V518.15C208.177 516.904 207.785 516.386 206.511 516.386C205.279 516.386 204.719 516.862 204.719 518.164V522.182ZM213.967 522.182C212.413 522.182 211.601 521.608 211.601 520.04V516.484H210.439V515.224H211.629L211.951 513.502H213.113V515.224H215.213V516.484H213.113V519.97C213.113 520.698 213.421 520.824 214.359 520.824H215.213V522.056C214.919 522.126 214.443 522.182 213.967 522.182ZM157.203 541.182H155.691V531.802H159.681C161.641 531.802 163.083 532.964 163.083 534.98C163.083 536.996 161.641 538.158 159.681 538.158H157.203V541.182ZM159.863 533.16H157.203V536.8H159.863C161.095 536.8 161.585 536.324 161.585 534.98C161.585 533.636 161.095 533.16 159.863 533.16ZM165.624 541.182H164.112V531.802H165.624V535.386H165.68C166.002 534.756 166.744 534.084 168.004 534.084C169.824 534.084 170.594 535.274 170.594 536.8V541.182H169.082V537.15C169.082 535.904 168.69 535.386 167.416 535.386C166.184 535.386 165.624 535.862 165.624 537.178V541.182ZM173.959 541.322C172.713 541.322 171.747 540.678 171.747 539.46C171.747 538.312 172.587 537.71 174.071 537.5L176.507 537.136V536.758C176.507 535.722 176.031 535.414 174.939 535.414C173.833 535.414 173.399 535.764 173.399 536.688V536.898H171.943V536.758C171.943 535.204 173.161 534.084 175.023 534.084C176.969 534.084 177.949 535.26 177.949 536.954V541.182H176.549V540.09H176.479C176.073 540.748 175.275 541.322 173.959 541.322ZM173.217 539.348C173.217 539.894 173.567 540.118 174.449 540.118C175.429 540.118 176.507 539.726 176.507 538.326V538.2L174.295 538.536C173.497 538.648 173.217 538.83 173.217 539.348ZM182.282 541.322C180.252 541.322 179.188 540.524 179.188 538.83V538.802H180.644V539.054C180.644 539.81 180.98 540.09 182.31 540.09C183.43 540.09 183.64 539.838 183.64 539.32C183.64 538.76 183.304 538.592 182.282 538.41L181.204 538.228C179.958 538.004 179.174 537.444 179.174 536.184C179.174 534.924 180.21 534.084 182.03 534.084C183.668 534.084 184.9 534.896 184.9 536.478V536.604H183.458V536.436C183.458 535.792 183.234 535.33 181.988 535.33C180.882 535.33 180.616 535.624 180.616 536.156C180.616 536.688 180.868 536.842 181.848 537.038L183.024 537.262C184.368 537.528 185.068 538.13 185.068 539.278C185.068 540.566 184.046 541.322 182.282 541.322ZM189.382 541.322C187.086 541.322 186.008 539.866 186.008 537.696C186.008 535.54 187.296 534.084 189.368 534.084C191.244 534.084 192.56 535.204 192.56 537.108C192.56 537.472 192.518 537.85 192.476 538.06H187.422C187.478 539.334 187.94 539.978 189.396 539.978C190.558 539.978 191.006 539.586 191.006 538.956V538.844H192.504V538.97C192.504 540.398 191.258 541.322 189.382 541.322ZM189.34 535.358C188.024 535.358 187.52 535.974 187.436 537.052H191.118C191.174 535.862 190.53 535.358 189.34 535.358Z" fill="#071B2C"/>
<circle cx="203" cy="31.7932" r="30.9749" fill="#E9E6F6"/>
<path d="M190.927 36.2935C190.969 35.893 191.26 35.5703 191.84 34.9249L193.117 33.4967C193.43 33.1013 193.651 32.4127 193.651 31.7929C193.651 31.1737 193.43 30.4848 193.117 30.0895L191.84 28.6614C191.26 28.0159 190.969 27.6932 190.927 27.2927C190.885 26.8923 191.102 26.5161 191.536 25.7637L192.147 24.7024C192.61 23.8997 192.841 23.4984 193.234 23.3383C193.628 23.1783 194.073 23.3046 194.963 23.5571L196.475 23.983C197.043 24.114 197.639 24.0397 198.158 23.7731L198.575 23.5323C199.02 23.2473 199.362 22.8272 199.552 22.3333L199.966 21.0976C200.238 20.2798 200.374 19.8709 200.697 19.6371C201.021 19.4032 201.452 19.4032 202.312 19.4032H203.693C204.553 19.4032 204.984 19.4032 205.307 19.6371C205.631 19.8709 205.767 20.2798 206.039 21.0976L206.453 22.3333C206.642 22.8272 206.985 23.2473 207.43 23.5323L207.847 23.7731C208.366 24.0397 208.962 24.114 209.53 23.983L211.042 23.5571C211.932 23.3046 212.377 23.1783 212.771 23.3383C213.164 23.4984 213.395 23.8997 213.858 24.7024L214.469 25.7637C214.903 26.5161 215.12 26.8923 215.078 27.2927C215.035 27.6932 214.745 28.0159 214.165 28.6614L212.887 30.0895C212.575 30.4848 212.353 31.1737 212.353 31.7929C212.353 32.4127 212.575 33.1013 212.887 33.4967L214.165 34.9249C214.745 35.5703 215.035 35.893 215.078 36.2935C215.12 36.694 214.903 37.0702 214.469 37.8225L213.858 38.8838C213.395 39.6865 213.164 40.0879 212.771 40.2478C212.377 40.4079 211.932 40.2817 211.042 40.029L209.53 39.6032C208.962 39.4721 208.366 39.5466 207.847 39.8132L207.429 40.0541C206.985 40.339 206.642 40.7591 206.453 41.2529L206.039 42.4888C205.767 43.3066 205.631 43.7154 205.307 43.9492C204.984 44.1831 204.553 44.1831 203.693 44.1831H202.312C201.452 44.1831 201.021 44.1831 200.697 43.9492C200.374 43.7154 200.238 43.3066 199.966 42.4888" stroke="#071B2C" stroke-width="1.8585" stroke-linecap="round"/>
<path d="M191.523 40.1934C192.861 38.8552 197.411 34.3502 197.857 33.8299C198.328 33.2798 197.946 32.5364 198.174 30.2318C198.284 29.1167 198.524 28.2813 199.21 27.6597C200.028 26.8865 200.697 26.8865 203.001 26.8345C205.008 26.8865 205.246 26.6635 205.455 27.1839C205.603 27.5556 205.157 27.7786 204.622 28.3733C203.432 29.5628 202.734 30.1575 202.667 30.5292C202.184 32.1647 204.087 33.1311 205.127 32.0903C205.521 31.6967 207.343 29.8601 207.521 29.7114C207.655 29.5925 207.975 29.5982 208.131 29.7858C208.265 29.9172 208.279 29.9345 208.265 30.5292C208.251 31.0797 208.257 31.87 208.259 32.685C208.261 33.741 208.205 34.9152 207.759 35.51C206.867 36.8481 205.38 36.9224 204.042 36.9819C202.778 37.0562 201.738 36.9224 201.41 37.1603C201.143 37.2941 199.73 38.7809 198.02 40.4907L194.973 43.5387C192.445 45.5458 189.665 42.4236 191.523 40.1934Z" stroke="#5236FF" stroke-width="1.8585" stroke-linecap="round"/>
<rect width="114" height="44" transform="translate(146 72.0606)" fill="white"/>
<path d="M164.289 89.0606H160.957V79.6806H164.289C167.187 79.6806 169.035 81.4726 169.035 84.3706C169.035 87.2686 167.187 89.0606 164.289 89.0606ZM164.289 81.0386H162.469V87.7026H164.289C166.529 87.7026 167.425 86.7786 167.425 84.3706C167.425 81.9626 166.529 81.0386 164.289 81.0386ZM173.333 89.2006C171.037 89.2006 169.959 87.7446 169.959 85.5746C169.959 83.4186 171.247 81.9626 173.319 81.9626C175.195 81.9626 176.511 83.0826 176.511 84.9866C176.511 85.3506 176.469 85.7286 176.427 85.9386H171.373C171.429 87.2126 171.891 87.8566 173.347 87.8566C174.509 87.8566 174.957 87.4646 174.957 86.8346V86.7226H176.455V86.8486C176.455 88.2766 175.209 89.2006 173.333 89.2006ZM173.291 83.2366C171.975 83.2366 171.471 83.8526 171.387 84.9306H175.069C175.125 83.7406 174.481 83.2366 173.291 83.2366ZM181.462 89.0606H179.558L176.772 82.1026H178.452L180.482 87.6186H180.58L182.624 82.1026H184.262L181.462 89.0606ZM187.798 89.2006C185.502 89.2006 184.424 87.7446 184.424 85.5746C184.424 83.4186 185.712 81.9626 187.784 81.9626C189.66 81.9626 190.976 83.0826 190.976 84.9866C190.976 85.3506 190.934 85.7286 190.892 85.9386H185.838C185.894 87.2126 186.356 87.8566 187.812 87.8566C188.974 87.8566 189.422 87.4646 189.422 86.8346V86.7226H190.92V86.8486C190.92 88.2766 189.674 89.2006 187.798 89.2006ZM187.756 83.2366C186.44 83.2366 185.936 83.8526 185.852 84.9306H189.534C189.59 83.7406 188.946 83.2366 187.756 83.2366ZM193.708 89.0606H192.196V79.6806H193.708V89.0606ZM198.328 89.2006C196.186 89.2006 194.856 87.7446 194.856 85.5746C194.856 83.4186 196.186 81.9626 198.328 81.9626C200.456 81.9626 201.744 83.4186 201.744 85.5746C201.744 87.7446 200.456 89.2006 198.328 89.2006ZM198.328 87.8566C199.784 87.8566 200.288 87.1426 200.288 85.5746C200.288 84.0206 199.784 83.3066 198.328 83.3066C196.858 83.3066 196.34 84.0206 196.34 85.5746C196.34 87.1426 196.858 87.8566 198.328 87.8566ZM204.316 91.4826H202.818V82.1026H204.19V83.2506H204.26C204.582 82.4386 205.38 81.9626 206.584 81.9626C208.544 81.9626 209.622 83.3766 209.622 85.5886C209.622 87.7866 208.572 89.2006 206.682 89.2006C205.436 89.2006 204.666 88.6266 204.358 87.9826H204.316V91.4826ZM204.316 86.2046C204.316 87.3666 204.988 87.9126 206.22 87.9126C207.55 87.9126 208.11 87.2966 208.11 85.5886C208.11 83.8666 207.564 83.2506 206.22 83.2506C204.988 83.2506 204.316 83.7966 204.316 84.9586V86.2046ZM212.329 89.0606H210.817V82.1026H212.203V83.4046H212.259C212.581 82.6626 213.309 81.9626 214.639 81.9626C215.857 81.9626 216.613 82.5226 216.949 83.4046H216.991C217.313 82.6766 218.027 81.9626 219.399 81.9626C221.191 81.9626 221.989 83.1106 221.989 84.6926V89.0606H220.477V85.0286C220.477 83.7826 220.099 83.2646 218.839 83.2646C217.691 83.2646 217.159 83.7406 217.159 85.0146V89.0606H215.647V85.0286C215.647 83.7826 215.269 83.2646 214.009 83.2646C212.861 83.2646 212.329 83.7406 212.329 85.0006V89.0606ZM226.503 89.2006C224.207 89.2006 223.129 87.7446 223.129 85.5746C223.129 83.4186 224.417 81.9626 226.489 81.9626C228.365 81.9626 229.681 83.0826 229.681 84.9866C229.681 85.3506 229.639 85.7286 229.597 85.9386H224.543C224.599 87.2126 225.061 87.8566 226.517 87.8566C227.679 87.8566 228.127 87.4646 228.127 86.8346V86.7226H229.625V86.8486C229.625 88.2766 228.379 89.2006 226.503 89.2006ZM226.461 83.2366C225.145 83.2366 224.641 83.8526 224.557 84.9306H228.239C228.295 83.7406 227.651 83.2366 226.461 83.2366ZM232.4 89.0606H230.888V82.1026H232.274V83.4046H232.33C232.652 82.6626 233.394 81.9626 234.752 81.9626C236.558 81.9626 237.37 83.1106 237.37 84.6926V89.0606H235.858V85.0286C235.858 83.7826 235.466 83.2646 234.192 83.2646C232.96 83.2646 232.4 83.7406 232.4 85.0426V89.0606ZM241.647 89.0606C240.093 89.0606 239.281 88.4866 239.281 86.9186V83.3626H238.119V82.1026H239.309L239.631 80.3806H240.793V82.1026H242.893V83.3626H240.793V86.8486C240.793 87.5766 241.101 87.7026 242.039 87.7026H242.893V88.9346C242.599 89.0046 242.123 89.0606 241.647 89.0606ZM160.591 99.9686C159.597 99.9686 159.149 100.305 159.149 101.285C159.149 102.237 159.681 102.573 160.633 102.573H163.055V101.103H164.539V102.573H166.051V103.833H164.539V105.023C164.539 106.997 163.405 108.201 160.829 108.201C158.561 108.201 157.301 107.319 157.301 105.513C157.301 104.169 158.127 103.371 159.317 103.189V103.119C158.197 102.937 157.637 102.069 157.637 101.005C157.637 99.3246 158.883 98.5826 160.815 98.5826H162.299V99.9686H160.591ZM160.899 106.815C162.607 106.815 163.055 106.353 163.055 105.023V103.833H160.647C159.443 103.833 158.827 104.183 158.827 105.359C158.827 106.451 159.317 106.815 160.899 106.815ZM171.123 108.061H169.611V98.6806H171.753L173.895 103.833L174.721 106.073H174.833L175.645 103.833L177.745 98.6806H179.887V108.061H178.389V102.517L178.445 100.949H178.347L177.759 102.517L175.659 107.501H173.839L171.725 102.517L171.165 100.949H171.039L171.123 102.517V108.061ZM183.313 108.201C182.067 108.201 181.101 107.557 181.101 106.339C181.101 105.191 181.941 104.589 183.425 104.379L185.861 104.015V103.637C185.861 102.601 185.385 102.293 184.293 102.293C183.187 102.293 182.753 102.643 182.753 103.567V103.777H181.297V103.637C181.297 102.083 182.515 100.963 184.377 100.963C186.323 100.963 187.303 102.139 187.303 103.833V108.061H185.903V106.969H185.833C185.427 107.627 184.629 108.201 183.313 108.201ZM182.571 106.227C182.571 106.773 182.921 106.997 183.803 106.997C184.783 106.997 185.861 106.605 185.861 105.205V105.079L183.649 105.415C182.851 105.527 182.571 105.709 182.571 106.227ZM190.165 100.221H188.667L188.653 98.6806H190.165V100.221ZM190.179 108.061H188.667V101.061H190.179V108.061ZM193.079 108.061H191.567V101.103H192.953V102.405H193.009C193.331 101.663 194.073 100.963 195.431 100.963C197.237 100.963 198.049 102.111 198.049 103.693V108.061H196.537V104.029C196.537 102.783 196.145 102.265 194.871 102.265C193.639 102.265 193.079 102.741 193.079 104.043V108.061ZM202.327 108.061C200.773 108.061 199.961 107.487 199.961 105.919V102.363H198.799V101.103H199.989L200.311 99.3806H201.473V101.103H203.573V102.363H201.473V105.849C201.473 106.577 201.781 106.703 202.719 106.703H203.573V107.935C203.279 108.005 202.803 108.061 202.327 108.061ZM207.444 108.201C205.148 108.201 204.07 106.745 204.07 104.575C204.07 102.419 205.358 100.963 207.43 100.963C209.306 100.963 210.622 102.083 210.622 103.987C210.622 104.351 210.58 104.729 210.538 104.939H205.484C205.54 106.213 206.002 106.857 207.458 106.857C208.62 106.857 209.068 106.465 209.068 105.835V105.723H210.566V105.849C210.566 107.277 209.32 108.201 207.444 108.201ZM207.402 102.237C206.086 102.237 205.582 102.853 205.498 103.931H209.18C209.236 102.741 208.592 102.237 207.402 102.237ZM213.341 108.061H211.829V101.103H213.215V102.405H213.271C213.593 101.663 214.335 100.963 215.693 100.963C217.499 100.963 218.311 102.111 218.311 103.693V108.061H216.799V104.029C216.799 102.783 216.407 102.265 215.133 102.265C213.901 102.265 213.341 102.741 213.341 104.043V108.061ZM221.635 108.201C220.389 108.201 219.423 107.557 219.423 106.339C219.423 105.191 220.263 104.589 221.747 104.379L224.183 104.015V103.637C224.183 102.601 223.707 102.293 222.615 102.293C221.509 102.293 221.075 102.643 221.075 103.567V103.777H219.619V103.637C219.619 102.083 220.837 100.963 222.699 100.963C224.645 100.963 225.625 102.139 225.625 103.833V108.061H224.225V106.969H224.155C223.749 107.627 222.951 108.201 221.635 108.201ZM220.893 106.227C220.893 106.773 221.243 106.997 222.125 106.997C223.105 106.997 224.183 106.605 224.183 105.205V105.079L221.971 105.415C221.173 105.527 220.893 105.709 220.893 106.227ZM228.585 108.061H227.073V101.103H228.459V102.405H228.515C228.837 101.663 229.579 100.963 230.937 100.963C232.743 100.963 233.555 102.111 233.555 103.693V108.061H232.043V104.029C232.043 102.783 231.651 102.265 230.377 102.265C229.145 102.265 228.585 102.741 228.585 104.043V108.061ZM238.097 108.215C235.927 108.215 234.695 106.745 234.695 104.589C234.695 102.419 235.969 100.963 238.153 100.963C239.987 100.963 241.247 102.097 241.247 103.763V103.889H239.749V103.805C239.749 102.783 239.217 102.321 238.055 102.321C236.711 102.321 236.193 103.077 236.193 104.589C236.193 106.101 236.711 106.843 238.055 106.843C239.217 106.843 239.749 106.395 239.749 105.373V105.289H241.247V105.415C241.247 107.067 239.973 108.215 238.097 108.215ZM245.548 108.201C243.252 108.201 242.174 106.745 242.174 104.575C242.174 102.419 243.462 100.963 245.534 100.963C247.41 100.963 248.726 102.083 248.726 103.987C248.726 104.351 248.684 104.729 248.642 104.939H243.588C243.644 106.213 244.106 106.857 245.562 106.857C246.724 106.857 247.172 106.465 247.172 105.835V105.723H248.67V105.849C248.67 107.277 247.424 108.201 245.548 108.201ZM245.506 102.237C244.19 102.237 243.686 102.853 243.602 103.931H247.284C247.34 102.741 246.696 102.237 245.506 102.237Z" fill="#071B2C"/>
<circle cx="71" cy="247.793" r="30.9749" fill="#E9E6F6"/>
<path d="M68.647 243.672C68.8335 243.379 69.2612 243.379 69.4476 243.672L69.9872 244.519C70.5838 245.457 71.3789 246.252 72.3163 246.848L73.164 247.388C73.457 247.574 73.457 248.002 73.164 248.189L72.3163 248.728C71.3789 249.325 70.5838 250.12 69.9872 251.057L69.4476 251.905C69.2612 252.198 68.8335 252.198 68.647 251.905L68.1074 251.057C67.5108 250.12 66.7158 249.325 65.7783 248.728L64.9306 248.189C64.6376 248.002 64.6376 247.574 64.9306 247.388L65.7783 246.848C66.7158 246.252 67.5108 245.457 68.1074 244.519L68.647 243.672Z" stroke="#5236FF" stroke-width="1.8585" stroke-linejoin="round"/>
<path d="M59.0198 239.472C62.6931 239.738 65.0616 236.019 69.0798 236.019C73.0379 235.94 74.9747 239.522 79.0324 239.522C81.2077 250.594 76.6822 257.549 69.113 259.559C62.0964 257.891 56.8243 250.864 59.0198 239.472Z" stroke="#071B2C" stroke-width="1.8585" stroke-linejoin="round"/>
<rect width="142" height="44" transform="translate(0 288.061)" fill="white"/>
<path d="M12.9407 305.201C10.2667 305.201 8.55869 303.297 8.55869 300.371C8.55869 297.445 10.2667 295.541 12.9407 295.541C15.6007 295.541 17.3087 297.445 17.3087 300.371C17.3087 302.597 16.3147 304.235 14.6627 304.893L16.1467 307.035H14.2287L13.0947 305.201C13.0387 305.201 12.9967 305.201 12.9407 305.201ZM12.9407 303.745C14.8867 303.745 15.6987 302.807 15.6987 300.371C15.6987 297.935 14.8867 296.997 12.9407 296.997C10.9947 296.997 10.1687 297.935 10.1687 300.371C10.1687 302.807 10.9947 303.745 12.9407 303.745ZM21.1484 305.201C19.3284 305.201 18.5164 303.983 18.5164 302.401V298.103H20.0284V302.135C20.0284 303.381 20.5044 303.899 21.7084 303.899C22.8704 303.899 23.5284 303.395 23.5284 302.023V298.103H25.0404V305.061H23.6404V303.675H23.5844C23.2484 304.473 22.5064 305.201 21.1484 305.201ZM28.4058 305.201C27.1598 305.201 26.1938 304.557 26.1938 303.339C26.1938 302.191 27.0338 301.589 28.5178 301.379L30.9538 301.015V300.637C30.9538 299.601 30.4778 299.293 29.3858 299.293C28.2798 299.293 27.8458 299.643 27.8458 300.567V300.777H26.3898V300.637C26.3898 299.083 27.6078 297.963 29.4698 297.963C31.4158 297.963 32.3958 299.139 32.3958 300.833V305.061H30.9958V303.969H30.9258C30.5198 304.627 29.7218 305.201 28.4058 305.201ZM27.6638 303.227C27.6638 303.773 28.0138 303.997 28.8958 303.997C29.8758 303.997 30.9538 303.605 30.9538 302.205V302.079L28.7418 302.415C27.9438 302.527 27.6638 302.709 27.6638 303.227ZM35.3556 305.061H33.8436V295.681H35.3556V305.061ZM38.2517 297.221H36.7537L36.7397 295.681H38.2517V297.221ZM38.2657 305.061H36.7537V298.061H38.2657V305.061ZM42.5114 305.061C40.9574 305.061 40.1454 304.487 40.1454 302.919V299.363H38.9834V298.103H40.1734L40.4954 296.381H41.6574V298.103H43.7574V299.363H41.6574V302.849C41.6574 303.577 41.9654 303.703 42.9034 303.703H43.7574V304.935C43.4634 305.005 42.9874 305.061 42.5114 305.061ZM45.725 307.441C45.347 307.441 44.913 307.385 44.675 307.315V306.083H45.627C46.229 306.083 46.439 305.985 46.663 305.467L46.929 304.879L43.975 298.103H45.641L47.041 301.477L47.671 302.989H47.783L48.357 301.477L49.631 298.103H51.297L48.007 305.887C47.489 307.119 46.817 307.441 45.725 307.441ZM55.7822 305.061H54.2002L57.8542 295.681H60.0242L63.6782 305.061H62.0402L61.0882 302.625H56.7342L55.7822 305.061ZM58.2462 298.789L57.2662 301.267H60.5562L59.5762 298.789L58.9742 297.053H58.8622L58.2462 298.789ZM67.2852 305.201C65.2552 305.201 64.1912 304.403 64.1912 302.709V302.681H65.6472V302.933C65.6472 303.689 65.9832 303.969 67.3132 303.969C68.4332 303.969 68.6432 303.717 68.6432 303.199C68.6432 302.639 68.3072 302.471 67.2852 302.289L66.2072 302.107C64.9612 301.883 64.1772 301.323 64.1772 300.063C64.1772 298.803 65.2132 297.963 67.0332 297.963C68.6712 297.963 69.9032 298.775 69.9032 300.357V300.483H68.4612V300.315C68.4612 299.671 68.2372 299.209 66.9912 299.209C65.8852 299.209 65.6192 299.503 65.6192 300.035C65.6192 300.567 65.8712 300.721 66.8512 300.917L68.0272 301.141C69.3712 301.407 70.0712 302.009 70.0712 303.157C70.0712 304.445 69.0492 305.201 67.2852 305.201ZM74.1758 305.201C72.1458 305.201 71.0818 304.403 71.0818 302.709V302.681H72.5378V302.933C72.5378 303.689 72.8738 303.969 74.2038 303.969C75.3238 303.969 75.5338 303.717 75.5338 303.199C75.5338 302.639 75.1978 302.471 74.1758 302.289L73.0978 302.107C71.8518 301.883 71.0678 301.323 71.0678 300.063C71.0678 298.803 72.1038 297.963 73.9238 297.963C75.5618 297.963 76.7938 298.775 76.7938 300.357V300.483H75.3518V300.315C75.3518 299.671 75.1278 299.209 73.8818 299.209C72.7758 299.209 72.5098 299.503 72.5098 300.035C72.5098 300.567 72.7618 300.721 73.7418 300.917L74.9178 301.141C76.2618 301.407 76.9618 302.009 76.9618 303.157C76.9618 304.445 75.9398 305.201 74.1758 305.201ZM80.7304 305.201C78.9104 305.201 78.0984 303.983 78.0984 302.401V298.103H79.6104V302.135C79.6104 303.381 80.0864 303.899 81.2904 303.899C82.4524 303.899 83.1104 303.395 83.1104 302.023V298.103H84.6224V305.061H83.2224V303.675H83.1664C82.8304 304.473 82.0884 305.201 80.7304 305.201ZM87.6231 305.061H86.1111V298.061H87.4971V299.167H87.5671C87.8471 298.523 88.4911 297.963 89.5131 297.963C90.9691 297.963 91.5291 299.027 91.5291 300.329V300.791H90.0171V300.511C90.0171 299.587 89.7511 299.251 88.8691 299.251C87.9591 299.251 87.6231 299.601 87.6231 300.525V305.061ZM94.2358 305.201C92.9898 305.201 92.0238 304.557 92.0238 303.339C92.0238 302.191 92.8638 301.589 94.3478 301.379L96.7838 301.015V300.637C96.7838 299.601 96.3078 299.293 95.2158 299.293C94.1098 299.293 93.6758 299.643 93.6758 300.567V300.777H92.2198V300.637C92.2198 299.083 93.4378 297.963 95.2998 297.963C97.2458 297.963 98.2258 299.139 98.2258 300.833V305.061H96.8258V303.969H96.7558C96.3498 304.627 95.5518 305.201 94.2358 305.201ZM93.4938 303.227C93.4938 303.773 93.8438 303.997 94.7258 303.997C95.7058 303.997 96.7838 303.605 96.7838 302.205V302.079L94.5718 302.415C93.7738 302.527 93.4938 302.709 93.4938 303.227ZM101.186 305.061H99.6736V298.103H101.06V299.405H101.116C101.438 298.663 102.18 297.963 103.538 297.963C105.344 297.963 106.156 299.111 106.156 300.693V305.061H104.644V301.029C104.644 299.783 104.252 299.265 102.978 299.265C101.746 299.265 101.186 299.741 101.186 301.043V305.061ZM110.698 305.215C108.528 305.215 107.296 303.745 107.296 301.589C107.296 299.419 108.57 297.963 110.754 297.963C112.588 297.963 113.848 299.097 113.848 300.763V300.889H112.35V300.805C112.35 299.783 111.818 299.321 110.656 299.321C109.312 299.321 108.794 300.077 108.794 301.589C108.794 303.101 109.312 303.843 110.656 303.843C111.818 303.843 112.35 303.395 112.35 302.373V302.289H113.848V302.415C113.848 304.067 112.574 305.215 110.698 305.215ZM118.149 305.201C115.853 305.201 114.774 303.745 114.774 301.575C114.774 299.419 116.062 297.963 118.135 297.963C120.011 297.963 121.327 299.083 121.327 300.987C121.327 301.351 121.285 301.729 121.243 301.939H116.189C116.245 303.213 116.707 303.857 118.163 303.857C119.325 303.857 119.773 303.465 119.773 302.835V302.723H121.271V302.849C121.271 304.277 120.025 305.201 118.149 305.201ZM118.107 299.237C116.791 299.237 116.287 299.853 116.203 300.931H119.885C119.941 299.741 119.297 299.237 118.107 299.237ZM128.348 296.969C127.354 296.969 126.906 297.305 126.906 298.285C126.906 299.237 127.438 299.573 128.39 299.573H130.812V298.103H132.296V299.573H133.808V300.833H132.296V302.023C132.296 303.997 131.162 305.201 128.586 305.201C126.318 305.201 125.058 304.319 125.058 302.513C125.058 301.169 125.884 300.371 127.074 300.189V300.119C125.954 299.937 125.394 299.069 125.394 298.005C125.394 296.325 126.64 295.583 128.572 295.583H130.056V296.969H128.348ZM128.656 303.815C130.364 303.815 130.812 303.353 130.812 302.023V300.833H128.404C127.2 300.833 126.584 301.183 126.584 302.359C126.584 303.451 127.074 303.815 128.656 303.815ZM53.0308 324.061H51.5328V316.039H48.3408V314.681H56.2228V316.039H53.0308V324.061ZM59.3116 324.201C57.0156 324.201 55.9376 322.745 55.9376 320.575C55.9376 318.419 57.2256 316.963 59.2976 316.963C61.1736 316.963 62.4896 318.083 62.4896 319.987C62.4896 320.351 62.4476 320.729 62.4056 320.939H57.3516C57.4076 322.213 57.8696 322.857 59.3256 322.857C60.4876 322.857 60.9356 322.465 60.9356 321.835V321.723H62.4336V321.849C62.4336 323.277 61.1876 324.201 59.3116 324.201ZM59.2696 318.237C57.9536 318.237 57.4496 318.853 57.3656 319.931H61.0476C61.1036 318.741 60.4596 318.237 59.2696 318.237ZM66.6905 324.201C64.6605 324.201 63.5965 323.403 63.5965 321.709V321.681H65.0525V321.933C65.0525 322.689 65.3885 322.969 66.7185 322.969C67.8385 322.969 68.0485 322.717 68.0485 322.199C68.0485 321.639 67.7125 321.471 66.6905 321.289L65.6125 321.107C64.3665 320.883 63.5825 320.323 63.5825 319.063C63.5825 317.803 64.6185 316.963 66.4385 316.963C68.0765 316.963 69.3085 317.775 69.3085 319.357V319.483H67.8665V319.315C67.8665 318.671 67.6425 318.209 66.3965 318.209C65.2905 318.209 65.0245 318.503 65.0245 319.035C65.0245 319.567 65.2765 319.721 66.2565 319.917L67.4325 320.141C68.7765 320.407 69.4765 321.009 69.4765 322.157C69.4765 323.445 68.4545 324.201 66.6905 324.201ZM73.5261 324.061C71.9721 324.061 71.1601 323.487 71.1601 321.919V318.363H69.9981V317.103H71.1881L71.5101 315.381H72.6721V317.103H74.7721V318.363H72.6721V321.849C72.6721 322.577 72.9801 322.703 73.9181 322.703H74.7721V323.935C74.4781 324.005 74.0021 324.061 73.5261 324.061ZM77.1687 316.221H75.6707L75.6567 314.681H77.1687V316.221ZM77.1827 324.061H75.6707V317.061H77.1827V324.061ZM80.0831 324.061H78.5711V317.103H79.9571V318.405H80.0131C80.3351 317.663 81.0771 316.963 82.4351 316.963C84.2411 316.963 85.0531 318.111 85.0531 319.693V324.061H83.5411V320.029C83.5411 318.783 83.1491 318.265 81.8751 318.265C80.6431 318.265 80.0831 318.741 80.0831 320.043V324.061ZM89.1754 323.403C87.2574 323.403 86.1934 322.143 86.1934 320.183C86.1934 318.223 87.2714 316.963 89.2314 316.963C90.3514 316.963 91.2194 317.439 91.5554 318.251H91.6114V317.103H92.9974V323.557C92.9974 325.615 91.7934 326.581 89.7634 326.581C87.7894 326.581 86.5574 325.643 86.5574 323.963H88.0554C88.0554 324.915 88.4054 325.237 89.8054 325.237C91.1634 325.237 91.4994 324.845 91.4994 323.557V322.171H91.4434C91.1214 322.843 90.3094 323.403 89.1754 323.403ZM87.7054 320.183C87.7054 321.611 88.2934 322.115 89.6094 322.115C90.7434 322.115 91.4994 321.569 91.4994 320.393V319.959C91.4994 318.797 90.7434 318.251 89.5814 318.251C88.2794 318.251 87.7054 318.755 87.7054 320.183Z" fill="#071B2C"/>
<path d="M202.256 216.818H198.656L211.664 184.658H216.56L229.568 216.818H225.872L221.984 207.41H206.096L202.256 216.818ZM212.048 192.818L207.344 204.29H220.688L215.984 192.818L214.16 187.922H213.92L212.048 192.818ZM235.91 225.17H232.454V193.106H235.574V197.714H235.718C236.774 194.69 239.606 192.626 244.07 192.626C250.742 192.626 254.438 197.474 254.438 205.01C254.438 212.45 250.934 217.298 244.454 217.298C239.894 217.298 236.966 214.898 235.91 212.306V225.17ZM235.91 207.026C235.91 211.874 238.79 214.322 243.494 214.322C248.102 214.322 250.982 212.21 250.982 205.01C250.982 197.714 248.15 195.602 243.494 195.602C238.79 195.602 235.91 198.05 235.91 202.946V207.026ZM262.066 225.17H258.61V193.106H261.73V197.714H261.874C262.93 194.69 265.762 192.626 270.226 192.626C276.898 192.626 280.594 197.474 280.594 205.01C280.594 212.45 277.09 217.298 270.61 217.298C266.05 217.298 263.122 214.898 262.066 212.306V225.17ZM262.066 207.026C262.066 211.874 264.946 214.322 269.65 214.322C274.258 214.322 277.138 212.21 277.138 205.01C277.138 197.714 274.306 195.602 269.65 195.602C264.946 195.602 262.066 198.05 262.066 202.946V207.026ZM288.269 216.818H284.813V184.658H288.269V216.818ZM296.89 189.938H293.482V184.658H296.89V189.938ZM296.89 216.818H293.482V192.818H296.89V216.818ZM312.148 217.346C305.14 217.346 300.916 212.21 300.916 205.01C300.916 197.762 305.14 192.626 312.148 192.626C318.196 192.626 322.276 196.514 322.276 202.082V202.418H318.868V202.13C318.868 198.002 316.66 195.746 312.004 195.746C306.58 195.746 304.324 199.154 304.324 205.01C304.324 210.818 306.58 214.226 312.004 214.226C316.66 214.226 318.868 211.97 318.868 207.842V207.554H322.276V207.89C322.276 213.458 318.196 217.346 312.148 217.346ZM333.246 217.298C328.926 217.298 325.662 215.09 325.662 211.106C325.662 206.978 328.734 205.154 333.918 204.434L342.27 203.282V201.554C342.27 197.378 340.494 195.698 336.03 195.698C331.71 195.698 329.694 197.378 329.694 201.17V201.89H326.382V201.506C326.382 196.562 330.174 192.626 336.318 192.626C342.654 192.626 345.534 196.706 345.534 201.986V216.818H342.414V212.45L342.174 212.402C340.782 215.138 337.758 217.298 333.246 217.298ZM329.022 210.866C329.022 213.314 330.558 214.418 334.206 214.418C338.286 214.418 342.27 212.306 342.27 206.69V205.874L334.206 207.026C330.414 207.554 329.022 208.322 329.022 210.866ZM359.318 216.866C354.95 216.866 352.406 215.138 352.406 210.098V196.082H348.422V193.106H352.454L353.27 187.058H355.862V193.106H363.35V196.082H355.862V210.29C355.862 213.074 357.158 213.698 360.23 213.698H363.35V216.482C362.534 216.626 361.046 216.866 359.318 216.866ZM369.78 189.938H366.372V184.658H369.78V189.938ZM369.78 216.818H366.372V192.818H369.78V216.818ZM385.326 217.298C378.366 217.298 373.806 212.162 373.806 204.962C373.806 197.762 378.366 192.626 385.326 192.626C392.238 192.626 396.654 197.762 396.654 204.962C396.654 212.162 392.238 217.298 385.326 217.298ZM385.326 214.226C391.038 214.226 393.294 210.866 393.294 204.962C393.294 199.058 391.038 195.746 385.326 195.746C379.518 195.746 377.214 199.058 377.214 204.962C377.214 210.866 379.518 214.226 385.326 214.226ZM404.285 216.818H400.829V193.106H403.949V198.002H404.093C405.005 195.506 407.693 192.626 412.589 192.626C418.685 192.626 421.469 196.562 421.469 202.274V216.818H418.061V203.042C418.061 197.906 416.381 195.65 411.533 195.65C406.829 195.65 404.285 197.858 404.285 203.138V216.818ZM188.255 266.818H177.407V234.658H188.255C197.951 234.658 204.047 240.898 204.047 250.738C204.047 260.578 197.951 266.818 188.255 266.818ZM188.255 237.778H180.815V263.698H188.255C196.799 263.698 200.447 259.474 200.447 250.738C200.447 242.002 196.799 237.778 188.255 237.778ZM218.605 267.298C211.309 267.298 207.517 262.162 207.517 254.962C207.517 247.762 211.789 242.626 218.557 242.626C224.269 242.626 228.973 246.082 228.973 253.09C228.973 254.194 228.877 255.25 228.733 255.922H210.781C210.925 261.154 212.989 264.226 218.653 264.226C223.453 264.226 225.373 262.066 225.373 259.186V258.898H228.781V259.234C228.781 263.794 224.653 267.298 218.605 267.298ZM218.461 245.602C213.181 245.602 211.069 248.626 210.781 253.426H225.709C225.901 247.81 223.117 245.602 218.461 245.602ZM244.094 266.818H239.822L230.126 243.106H233.87L241.886 263.458H242.126L250.094 243.106H253.79L244.094 266.818ZM265.761 267.298C258.465 267.298 254.673 262.162 254.673 254.962C254.673 247.762 258.945 242.626 265.713 242.626C271.425 242.626 276.129 246.082 276.129 253.09C276.129 254.194 276.033 255.25 275.889 255.922H257.937C258.081 261.154 260.145 264.226 265.809 264.226C270.609 264.226 272.529 262.066 272.529 259.186V258.898H275.937V259.234C275.937 263.794 271.809 267.298 265.761 267.298ZM265.617 245.602C260.337 245.602 258.225 248.626 257.937 253.426H272.865C273.057 247.81 270.273 245.602 265.617 245.602ZM284.074 266.818H280.618V234.658H284.074V266.818ZM299.803 267.298C292.843 267.298 288.283 262.162 288.283 254.962C288.283 247.762 292.843 242.626 299.803 242.626C306.715 242.626 311.131 247.762 311.131 254.962C311.131 262.162 306.715 267.298 299.803 267.298ZM299.803 264.226C305.515 264.226 307.771 260.866 307.771 254.962C307.771 249.058 305.515 245.746 299.803 245.746C293.995 245.746 291.691 249.058 291.691 254.962C291.691 260.866 293.995 264.226 299.803 264.226ZM318.761 275.17H315.305V243.106H318.425V247.714H318.569C319.625 244.69 322.457 242.626 326.921 242.626C333.593 242.626 337.289 247.474 337.289 255.01C337.289 262.45 333.785 267.298 327.305 267.298C322.745 267.298 319.817 264.898 318.761 262.306V275.17ZM318.761 257.026C318.761 261.874 321.641 264.322 326.345 264.322C330.953 264.322 333.833 262.21 333.833 255.01C333.833 247.714 331.001 245.602 326.345 245.602C321.641 245.602 318.761 248.05 318.761 252.946V257.026ZM344.917 266.818H341.461V243.106H344.581V248.002H344.725C345.637 245.506 348.133 242.626 353.029 242.626C357.349 242.626 359.941 244.69 360.997 248.05H361.141C362.101 245.506 364.549 242.626 369.445 242.626C375.541 242.626 378.325 246.562 378.325 252.226V266.818H374.917V253.042C374.917 247.906 373.189 245.65 368.389 245.65C363.877 245.65 361.621 247.858 361.621 253.138V266.818H358.213V253.042C358.213 247.906 356.533 245.65 351.733 245.65C347.221 245.65 344.917 247.858 344.917 253.138V266.818ZM393.636 267.298C386.34 267.298 382.548 262.162 382.548 254.962C382.548 247.762 386.82 242.626 393.588 242.626C399.3 242.626 404.004 246.082 404.004 253.09C404.004 254.194 403.908 255.25 403.764 255.922H385.812C385.956 261.154 388.02 264.226 393.684 264.226C398.484 264.226 400.404 262.066 400.404 259.186V258.898H403.812V259.234C403.812 263.794 399.684 267.298 393.636 267.298ZM393.492 245.602C388.212 245.602 386.1 248.626 385.812 253.426H400.74C400.932 247.81 398.148 245.602 393.492 245.602ZM411.902 266.818H408.446V243.106H411.566V248.002H411.71C412.622 245.506 415.31 242.626 420.206 242.626C426.302 242.626 429.086 246.562 429.086 252.274V266.818H425.678V253.042C425.678 247.906 423.998 245.65 419.15 245.65C414.446 245.65 411.902 247.858 411.902 253.138V266.818ZM442.826 266.866C438.458 266.866 435.914 265.138 435.914 260.098V246.082H431.93V243.106H435.962L436.778 237.058H439.37V243.106H446.858V246.082H439.37V260.29C439.37 263.074 440.666 263.698 443.738 263.698H446.858V266.482C446.042 266.626 444.554 266.866 442.826 266.866Z" fill="black"/>
<path d="M247.603 316.818H226.579V284.658H229.987V313.698H247.603V316.818ZM253.366 289.938H249.958V284.658H253.366V289.938ZM253.366 316.818H249.958V292.818H253.366V316.818ZM262.913 316.818H259.505V296.082H256.001V293.106H259.505V292.194C259.505 287.298 262.241 284.658 267.473 284.658H269.585V287.49H266.849C264.113 287.49 262.865 288.642 262.865 291.042V293.106H269.585V296.082H262.913V316.818ZM281.277 317.298C273.981 317.298 270.189 312.162 270.189 304.962C270.189 297.762 274.461 292.626 281.229 292.626C286.941 292.626 291.645 296.082 291.645 303.09C291.645 304.194 291.549 305.25 291.405 305.922H273.453C273.597 311.154 275.661 314.226 281.325 314.226C286.125 314.226 288.045 312.066 288.045 309.186V308.898H291.453V309.234C291.453 313.794 287.325 317.298 281.277 317.298ZM281.133 295.602C275.853 295.602 273.741 298.626 273.453 303.426H288.381C288.573 297.81 285.789 295.602 281.133 295.602ZM306.593 317.346C299.585 317.346 295.361 312.21 295.361 305.01C295.361 297.762 299.585 292.626 306.593 292.626C312.641 292.626 316.721 296.514 316.721 302.082V302.418H313.313V302.13C313.313 298.002 311.105 295.746 306.449 295.746C301.025 295.746 298.769 299.154 298.769 305.01C298.769 310.818 301.025 314.226 306.449 314.226C311.105 314.226 313.313 311.97 313.313 307.842V307.554H316.721V307.89C316.721 313.458 312.641 317.346 306.593 317.346ZM322.977 324.978C321.825 324.978 320.577 324.786 319.905 324.642V321.858H322.593C324.753 321.858 325.473 321.426 326.337 319.554L327.681 316.482L317.505 293.106H321.249L326.817 306.306L329.313 312.114H329.601L331.953 306.306L337.185 293.106H340.929L329.361 320.61C327.825 324.21 325.569 324.978 322.977 324.978ZM352.952 317.346C345.944 317.346 341.72 312.21 341.72 305.01C341.72 297.762 345.944 292.626 352.952 292.626C359 292.626 363.08 296.514 363.08 302.082V302.418H359.672V302.13C359.672 298.002 357.464 295.746 352.808 295.746C347.384 295.746 345.128 299.154 345.128 305.01C345.128 310.818 347.384 314.226 352.808 314.226C357.464 314.226 359.672 311.97 359.672 307.842V307.554H363.08V307.89C363.08 313.458 359 317.346 352.952 317.346ZM370.792 316.818H367.336V284.658H370.792V316.818ZM386.089 317.298C378.793 317.298 375.001 312.162 375.001 304.962C375.001 297.762 379.273 292.626 386.041 292.626C391.753 292.626 396.457 296.082 396.457 303.09C396.457 304.194 396.361 305.25 396.217 305.922H378.265C378.409 311.154 380.473 314.226 386.137 314.226C390.937 314.226 392.857 312.066 392.857 309.186V308.898H396.265V309.234C396.265 313.794 392.137 317.298 386.089 317.298ZM385.945 295.602C380.665 295.602 378.553 298.626 378.265 303.426H393.193C393.385 297.81 390.601 295.602 385.945 295.602Z" fill="#5236FF"/>
</svg>
